<svg width="22" height="23" viewBox="0 0 22 23" fill="none" xmlns="http://www.w3.org/2000/svg">
<path d="M10.9946 21.802C9.42323 21.8026 7.87502 21.4061 6.48185 20.6463C6.21649 20.514 5.9122 20.4955 5.63393 20.5945L3.82901 21.1839C3.54235 21.2776 3.2363 21.2853 2.94568 21.206C2.65505 21.1268 2.39154 20.9639 2.18512 20.7358C1.97871 20.5078 1.83768 20.2237 1.7781 19.9159C1.71852 19.6082 1.74277 19.2891 1.8481 18.9951L2.4146 17.4167C2.47278 17.2652 2.49897 17.1023 2.49138 16.9392C2.48378 16.7761 2.44258 16.6167 2.3706 16.4718C1.58136 14.9747 1.16096 13.2958 1.14732 11.5864C1.13367 9.87706 1.52721 8.19104 2.29244 6.68039C3.05767 5.16974 4.17053 3.88197 5.53066 2.93321C6.89078 1.98445 8.45541 1.40454 10.0834 1.24578C12.5868 0.99886 15.0858 1.7615 17.0691 3.37763C19.0523 4.99376 20.3697 7.34117 20.7517 9.93946C21.1338 12.5378 20.5516 15.1905 19.1242 17.3547C17.6969 19.5189 15.5323 21.0311 13.0736 21.5816C12.3896 21.7288 11.693 21.8026 10.9946 21.802ZM6.01618 19.0938C6.39882 19.0922 6.77617 19.1872 7.11618 19.3707C8.28652 20.0016 9.58136 20.3386 10.898 20.3552C12.2147 20.3718 13.5169 20.0675 14.7014 19.4663C15.886 18.8651 16.9203 17.9837 17.7222 16.8919C18.5242 15.8001 19.0718 14.528 19.3217 13.1764C19.5715 11.8248 19.5167 10.4309 19.1616 9.10535C18.8064 7.77977 18.1608 6.55892 17.2757 5.53964C16.3907 4.52035 15.2907 3.73066 14.063 3.23319C12.8352 2.73572 11.5135 2.54416 10.2026 2.6737C8.80247 2.81182 7.45721 3.31193 6.28801 4.12898C5.11881 4.94603 4.16241 6.05434 3.50497 7.35407C2.84754 8.6538 2.50972 10.1041 2.52196 11.5743C2.5342 13.0445 2.89612 14.4885 3.5751 15.776C3.74392 16.1026 3.84284 16.4636 3.865 16.8341C3.88716 17.2046 3.83203 17.5757 3.70343 17.9217L3.1351 19.4992C3.12023 19.5412 3.1169 19.5868 3.12548 19.6307C3.13406 19.6746 3.15422 19.7152 3.18368 19.7478C3.21313 19.7803 3.25071 19.8037 3.29218 19.8151C3.33364 19.8266 3.37734 19.8257 3.41835 19.8125L5.22418 19.2232C5.48037 19.1383 5.74743 19.0946 6.01618 19.0938Z" fill="#62BA87"/>
<path d="M11 17.0104C10.8177 17.0104 10.6428 16.9347 10.5139 16.7999C10.3849 16.6651 10.3125 16.4823 10.3125 16.2917V10.7812C10.3125 10.5906 10.3849 10.4078 10.5139 10.273C10.6428 10.1382 10.8177 10.0625 11 10.0625C11.1823 10.0625 11.3572 10.1382 11.4861 10.273C11.6151 10.4078 11.6875 10.5906 11.6875 10.7812V16.2917C11.6875 16.4823 11.6151 16.6651 11.4861 16.7999C11.3572 16.9347 11.1823 17.0104 11 17.0104Z" fill="#62BA87"/>
<path d="M11.0003 9.10433C11.6332 9.10433 12.1462 8.568 12.1462 7.90641C12.1462 7.24482 11.6332 6.7085 11.0003 6.7085C10.3675 6.7085 9.85449 7.24482 9.85449 7.90641C9.85449 8.568 10.3675 9.10433 11.0003 9.10433Z" fill="#62BA87"/>
</svg>
