<svg width="24" height="24" viewBox="0 0 24 24" fill="none" xmlns="http://www.w3.org/2000/svg">
<g clip-path="url(#clip0_145_418)">
<path d="M8.20551 1.12418L8.20538 1.12423L6.99282 1.62653C6.9928 1.62653 6.99279 1.62654 6.99277 1.62654C6.76951 1.71908 6.66356 1.97501 6.75602 2.19817C6.84825 2.42077 7.10383 2.52753 7.32768 2.43494L8.20551 1.12418ZM8.20551 1.12418C8.42858 1.03171 8.68448 1.13759 8.77704 1.361C8.8695 1.58416 8.76355 1.84009 8.54029 1.93263C8.54027 1.93263 8.54026 1.93264 8.54025 1.93264L7.32779 2.43489L8.20551 1.12418ZM4.3323 3.40423L4.33233 3.4042C4.50311 3.2334 4.78015 3.23335 4.95108 3.40425C5.12191 3.57506 5.12195 3.85209 4.95106 4.02298L4.02298 4.95106C3.85213 5.1219 3.57504 5.12187 3.40423 4.95106L3.4042 4.95103C3.23337 4.78022 3.23333 4.50319 3.40423 4.3323L4.3323 3.40423ZM2.43495 7.32765L2.43494 7.32769L1.93264 8.54031C1.93263 8.54032 1.93263 8.54033 1.93262 8.54034C1.84028 8.76319 1.5845 8.86966 1.36096 8.77707C1.13773 8.68454 1.03175 8.42862 1.12423 8.20539L1.12423 8.20538L1.62653 6.99282C1.62653 6.9928 1.62654 6.99279 1.62654 6.99277C1.71906 6.76955 1.97491 6.66356 2.19824 6.75605C2.42147 6.8486 2.5274 7.10451 2.43495 7.32765ZM11.0625 11.5625H11.5625V11.0625V8.25C11.5625 8.00836 11.7584 7.8125 12 7.8125C12.2416 7.8125 12.4375 8.00836 12.4375 8.25V11.0625V11.5625H12.9375H15.75C15.9916 11.5625 16.1875 11.7584 16.1875 12C16.1875 12.2416 15.9916 12.4375 15.75 12.4375H12.9375H12.4375V12.9375V15.75C12.4375 15.9916 12.2416 16.1875 12 16.1875C11.7584 16.1875 11.5625 15.9916 11.5625 15.75V12.9375V12.4375H11.0625H8.25C8.00836 12.4375 7.8125 12.2416 7.8125 12C7.8125 11.7584 8.00836 11.5625 8.25 11.5625H11.0625ZM23.5 12C23.5 18.3568 18.3559 23.5 12 23.5C5.64321 23.5 0.5 18.3559 0.5 12C0.5 11.7584 0.695861 11.5625 0.9375 11.5625C1.17914 11.5625 1.375 11.7584 1.375 12C1.375 17.8727 6.12804 22.625 12 22.625C17.8727 22.625 22.625 17.872 22.625 12C22.625 6.12734 17.872 1.375 12 1.375C11.7584 1.375 11.5625 1.17914 11.5625 0.9375C11.5625 0.695861 11.7584 0.5 12 0.5C18.3568 0.5 23.5 5.6441 23.5 12Z" fill="url(#paint0_linear_145_418)" stroke="url(#paint1_linear_145_418)"/>
</g>
<defs>
<linearGradient id="paint0_linear_145_418" x1="0" y1="12" x2="24" y2="12" gradientUnits="userSpaceOnUse">
<stop stop-color="#62BA87"/>
<stop offset="1" stop-color="#1C472E"/>
</linearGradient>
<linearGradient id="paint1_linear_145_418" x1="12" y1="0" x2="12" y2="24" gradientUnits="userSpaceOnUse">
<stop stop-color="#62BA87"/>
<stop offset="1" stop-color="#1C472E"/>
</linearGradient>
<clipPath id="clip0_145_418">
<rect width="24" height="24" fill="white"/>
</clipPath>
</defs>
</svg>
