<svg width="10" height="14" viewBox="0 0 10 14" fill="none" xmlns="http://www.w3.org/2000/svg">
<path d="M7.28166 9.81999C7.0266 9.75262 6.72975 9.71149 6.46572 9.66337C7.12231 8.74732 7.7034 7.77945 8.20325 6.7693C8.59913 5.97985 8.77117 5.09704 8.70069 4.21671C8.31853 -0.239231 1.68078 -0.238575 1.29731 4.21671C1.22875 5.0971 1.40148 5.97952 1.79694 6.76908C2.62229 8.41168 3.6411 9.94969 4.83166 11.3504C4.8524 11.3749 4.87823 11.3946 4.90736 11.4081C4.93649 11.4216 4.96821 11.4286 5.00031 11.4286C5.03242 11.4286 5.06414 11.4216 5.09327 11.4081C5.1224 11.3946 5.14823 11.3749 5.16897 11.3504C5.51588 10.9325 5.85085 10.5049 6.17347 10.0681C7.0815 10.1251 8.91879 10.6812 8.86716 11.3427C8.86716 11.9784 7.27816 12.6869 4.99813 12.6869C2.7205 12.6869 1.13347 11.9784 1.13347 11.3425C1.13347 10.9299 1.79716 10.4992 2.82397 10.2455C2.88039 10.2315 2.92897 10.1958 2.95902 10.146C2.98907 10.0963 2.99813 10.0366 2.9842 9.98023C2.97028 9.92381 2.93451 9.87523 2.88477 9.84518C2.83503 9.81513 2.77539 9.80607 2.71897 9.81999C1.43272 10.1378 0.695312 10.6928 0.695312 11.3425C0.695312 12.3588 2.54506 13.1251 4.99813 13.1251C7.4536 13.1251 9.30532 12.3588 9.30532 11.3425C9.30532 10.6935 8.56769 10.1385 7.28166 9.81999ZM2.97141 4.45558C2.97158 3.91737 3.1853 3.40122 3.56564 3.02042C3.94599 2.63963 4.46189 2.4253 5.0001 2.42449C7.68985 2.53365 7.69116 6.37665 5.0001 6.48449C4.46209 6.4842 3.94619 6.27035 3.56576 5.88992C3.18533 5.50949 2.9717 4.99359 2.97141 4.45558Z" fill="#656565"/>
<path d="M5.74965 12.0356C5.75562 12.0934 5.78425 12.1465 5.82928 12.1832C5.8743 12.2199 5.93204 12.2372 5.98984 12.2314C7.16387 12.1124 8.00956 11.7823 8.32697 11.508C8.7264 11.0749 7.38065 10.6713 6.50915 10.5234C6.45225 10.5152 6.39439 10.5296 6.34805 10.5637C6.30171 10.5977 6.2706 10.6486 6.26141 10.7053C6.25223 10.7621 6.26572 10.8202 6.29896 10.8671C6.33221 10.914 6.38256 10.9459 6.43915 10.9561C6.89889 11.0203 7.34702 11.1503 7.76981 11.342C7.19124 11.5936 6.57471 11.7469 5.94565 11.7954C5.91701 11.7983 5.88922 11.8068 5.86387 11.8205C5.83852 11.8341 5.8161 11.8526 5.7979 11.8749C5.7797 11.8972 5.76607 11.9229 5.75779 11.9505C5.74952 11.978 5.74675 12.007 5.74965 12.0356ZM6.59053 4.45549C6.59065 4.03339 6.42319 3.62852 6.12495 3.32983C5.82671 3.03114 5.42209 2.86307 5 2.86255C2.89562 2.93627 2.89409 5.9723 5 6.04602C5.42173 6.04567 5.82608 5.87799 6.12429 5.57978C6.4225 5.28157 6.59018 4.87721 6.59053 4.45549Z" fill="#656565"/>
</svg>
