<svg width="30" height="30" viewBox="0 0 30 30" fill="none" xmlns="http://www.w3.org/2000/svg">
<rect width="30" height="30" rx="5" fill="#00A4F5"/>
<g clip-path="url(#clip0_91_375)">
<path d="M19.9286 14.9286H16.2857C16.2289 14.9286 16.1744 14.906 16.1342 14.8658C16.094 14.8256 16.0714 14.7711 16.0714 14.7143V11.0714C16.0714 10.4797 15.5917 10 15 10C14.4083 10 13.9286 10.4797 13.9286 11.0714V14.7143C13.9286 14.7711 13.906 14.8256 13.8658 14.8658C13.8256 14.906 13.7711 14.9286 13.7143 14.9286H10.0714C9.47973 14.9286 9 15.4083 9 16C9 16.5917 9.47973 17.0714 10.0714 17.0714H13.7143C13.7711 17.0714 13.8256 17.094 13.8658 17.1342C13.906 17.1744 13.9286 17.2289 13.9286 17.2857V20.9286C13.9286 21.5203 14.4083 22 15 22C15.5917 22 16.0714 21.5203 16.0714 20.9286V17.2857C16.0714 17.2289 16.094 17.1744 16.1342 17.1342C16.1744 17.094 16.2289 17.0714 16.2857 17.0714H19.9286C20.5203 17.0714 21 16.5917 21 16C21 15.4083 20.5203 14.9286 19.9286 14.9286Z" fill="white"/>
</g>
<defs>
<clipPath id="clip0_91_375">
<rect width="12" height="12" fill="white" transform="translate(9 10)"/>
</clipPath>
</defs>
</svg>
