<svg width="23" height="25" viewBox="0 0 23 25" fill="none" xmlns="http://www.w3.org/2000/svg">
<g clip-path="url(#clip0_239_3431)">
<path d="M3.76859 8.33725C3.01269 8.33725 2.3999 9.03665 2.3999 9.89939V17.1893C2.3999 18.0521 3.01269 18.7515 3.76859 18.7515C4.5245 18.7515 5.13729 18.0521 5.13729 17.1893V9.89939C5.13729 9.03665 4.5245 8.33725 3.76859 8.33725ZM19.2804 8.33725C18.5245 8.33725 17.9117 9.03665 17.9117 9.89939V17.1893C17.9117 18.0521 18.5245 18.7515 19.2804 18.7515C20.0363 18.7515 20.6491 18.0521 20.6491 17.1893V9.89939C20.6491 9.03665 20.0364 8.33725 19.2804 8.33725ZM16.543 8.33725H6.50598C6.25401 8.33725 6.04973 8.5704 6.04973 8.85798V17.1893C6.04952 18.4267 6.81239 19.4933 7.87467 19.7408V23.4379C7.87467 24.3006 8.48746 25 9.24336 25C9.99927 25 10.6121 24.3006 10.6121 23.4379V19.7929H12.437V23.4379C12.437 24.3006 13.0498 25 13.8057 25C14.5616 25 15.1744 24.3006 15.1744 23.4379V19.7408C16.2367 19.4933 16.9995 18.4267 16.9993 17.1893V8.85798C16.9993 8.5704 16.795 8.33725 16.543 8.33725ZM14.8413 2.1637L15.9536 0.895249C16.1348 0.695442 16.1398 0.365832 15.9648 0.158947C15.7897 -0.0478896 15.5009 -0.0536011 15.3197 0.146157C15.3159 0.150355 15.3121 0.154602 15.3085 0.158947L14.0128 1.6378C13.2277 1.24857 12.3809 1.04771 11.525 1.04771C10.669 1.04771 9.82219 1.24857 9.03712 1.6378L7.74144 0.157922C7.56021 -0.0418851 7.27138 -0.0361248 7.09631 0.170712C6.92557 0.37252 6.92557 0.692415 7.09631 0.894175L8.20769 2.16365C7.54076 2.66731 6.99424 3.35263 6.61749 4.15773C6.24074 4.96283 6.04561 5.86235 6.04973 6.77507C6.04973 7.06265 6.25401 7.2958 6.50598 7.2958H16.5431C16.795 7.2958 16.9993 7.06265 16.9993 6.77507C17.0034 5.86236 16.8083 4.96285 16.4315 4.15776C16.0548 3.35267 15.5082 2.66736 14.8413 2.1637Z" fill="#4CAF50"/>
<path d="M9.24335 5.21284C9.49533 5.21284 9.6996 4.9797 9.6996 4.69211C9.6996 4.40452 9.49533 4.17139 9.24335 4.17139C8.99138 4.17139 8.78711 4.40452 8.78711 4.69211C8.78711 4.9797 8.99138 5.21284 9.24335 5.21284Z" fill="#FAFAFA"/>
<path d="M13.8057 5.21284C14.0576 5.21284 14.2619 4.9797 14.2619 4.69211C14.2619 4.40452 14.0576 4.17139 13.8057 4.17139C13.5537 4.17139 13.3494 4.40452 13.3494 4.69211C13.3494 4.9797 13.5537 5.21284 13.8057 5.21284Z" fill="#FAFAFA"/>
</g>
<defs>
<clipPath id="clip0_239_3431">
<rect width="21.9042" height="25" fill="white" transform="translate(0.572388)"/>
</clipPath>
</defs>
</svg>
