<svg width="25" height="25" viewBox="0 0 25 25" fill="none" xmlns="http://www.w3.org/2000/svg">
<g clip-path="url(#clip0_239_3420)">
<path d="M17.3111 0H17.4889C17.6316 1.76305 16.9587 3.0804 16.1408 4.03438C15.3383 4.98178 14.2395 5.90063 12.4621 5.76121C12.3436 4.02341 13.0176 2.80376 13.8344 1.85197C14.5918 0.964959 15.9805 0.175647 17.3111 0ZM22.6913 18.3507V18.4001C22.1919 19.9128 21.4794 21.2093 20.6099 22.4125C19.8162 23.5048 18.8436 24.9748 17.1069 24.9748C15.6062 24.9748 14.6094 24.0098 13.0714 23.9834C11.4445 23.9571 10.5498 24.7903 9.06227 25H8.55509C7.46279 24.8419 6.58126 23.9769 5.93905 23.1974C4.04536 20.8943 2.58201 17.9192 2.30975 14.1121V12.9935C2.42502 10.2687 3.74896 8.0534 5.50872 6.97976C6.43745 6.40891 7.71418 5.92258 9.13582 6.13995C9.74509 6.23436 10.3675 6.44294 10.9131 6.64932C11.4302 6.84802 12.0768 7.20041 12.6894 7.18175C13.1043 7.16967 13.5171 6.95341 13.9354 6.80082C15.1605 6.35841 16.3615 5.85123 17.9445 6.08945C19.847 6.37707 21.1973 7.22237 22.0316 8.52655C20.4222 9.55079 19.1499 11.0943 19.3672 13.7301C19.5604 16.1244 20.9524 17.5251 22.6913 18.3507Z" fill="black"/>
</g>
<defs>
<clipPath id="clip0_239_3420">
<rect width="25" height="25" fill="white"/>
</clipPath>
</defs>
</svg>
