<svg width="17" height="18" viewBox="0 0 17 18" fill="none" xmlns="http://www.w3.org/2000/svg">
<path d="M5.47762 14.1L3.02254 12.15C2.89993 12.0526 2.7508 12 2.59754 12H2.12508C1.93722 12 1.75705 12.079 1.62421 12.2197C1.49138 12.3603 1.41675 12.5511 1.41675 12.75V13.125C1.41675 13.2414 1.44235 13.3563 1.49153 13.4604C1.54071 13.5646 1.61211 13.6551 1.70008 13.725L4.06096 15.6C4.18357 15.6974 4.33269 15.75 4.48596 15.75H13.4584C13.6463 15.75 13.8264 15.671 13.9593 15.5303C14.0921 15.3897 14.1667 15.1989 14.1667 15C14.1667 14.8011 14.0921 14.6103 13.9593 14.4697C13.8264 14.329 13.6463 14.25 13.4584 14.25H5.90262C5.74936 14.25 5.60023 14.1974 5.47762 14.1Z" fill="#656565"/>
<path d="M5.46121 13.2825L4.45538 12.2175C4.32306 12.0796 4.14524 12.0015 3.95955 12H3.42334L5.66026 13.776C5.65327 13.5912 5.58244 13.4156 5.46121 13.2825ZM4.12459 17.1172C4.09134 17.1525 4.07266 17.2002 4.07266 17.25C4.07266 17.2998 4.09134 17.3475 4.12459 17.3827C4.15784 17.418 4.20294 17.4377 4.24996 17.4377C4.29699 17.4377 4.34209 17.418 4.37534 17.3827L5.56321 16.125H5.06242L4.12459 17.1172ZM13.2812 16.125V17.25C13.2812 17.2997 13.2999 17.3474 13.3331 17.3826C13.3663 17.4177 13.4113 17.4375 13.4583 17.4375C13.5053 17.4375 13.5503 17.4177 13.5835 17.3826C13.6167 17.3474 13.6354 17.2997 13.6354 17.25V16.1062C13.577 16.1178 13.5177 16.1241 13.4583 16.125H13.2812Z" fill="#656565"/>
<path d="M12.7502 5.25C13.5326 5.25 14.1668 4.57843 14.1668 3.75C14.1668 2.92157 13.5326 2.25 12.7502 2.25C11.9678 2.25 11.3335 2.92157 11.3335 3.75C11.3335 4.57843 11.9678 5.25 12.7502 5.25Z" fill="#656565"/>
<path d="M14.1667 2.4375C14.1899 2.43754 14.213 2.43273 14.2345 2.42334C14.256 2.41394 14.2756 2.40015 14.292 2.38275L15.0004 1.63275C15.0336 1.59754 15.0523 1.54979 15.0523 1.5C15.0523 1.45021 15.0336 1.40246 15.0004 1.36725C14.9671 1.33204 14.922 1.31226 14.875 1.31226C14.828 1.31226 14.7829 1.33204 14.7496 1.36725L14.0413 2.11725C14.0165 2.14347 13.9995 2.17691 13.9927 2.21333C13.9858 2.24974 13.9893 2.2875 14.0028 2.3218C14.0162 2.3561 14.0389 2.38541 14.0681 2.40601C14.0973 2.42661 14.1316 2.43757 14.1667 2.4375ZM14.292 5.11725C14.2588 5.08204 14.2137 5.06226 14.1667 5.06226C14.1196 5.06226 14.0745 5.08204 14.0413 5.11725C14.008 5.15246 13.9894 5.20021 13.9894 5.25C13.9894 5.29979 14.008 5.34754 14.0413 5.38275L14.7496 6.13275C14.7661 6.15018 14.7856 6.16401 14.8071 6.17345C14.8287 6.18288 14.8517 6.18774 14.875 6.18774C14.8983 6.18774 14.9213 6.18288 14.9429 6.17345C14.9644 6.16401 14.9839 6.15018 15.0004 6.13275C15.0168 6.11532 15.0299 6.09462 15.0388 6.07184C15.0477 6.04907 15.0523 6.02465 15.0523 6C15.0523 5.97535 15.0477 5.95093 15.0388 5.92816C15.0299 5.90538 15.0168 5.88468 15.0004 5.86725L14.292 5.11725ZM11.208 5.11725L10.4996 5.86725C10.4664 5.90246 10.4477 5.95021 10.4477 6C10.4477 6.04979 10.4664 6.09754 10.4996 6.13275C10.5329 6.16796 10.578 6.18774 10.625 6.18774C10.672 6.18774 10.7171 6.16796 10.7504 6.13275L11.4587 5.38275C11.492 5.34754 11.5106 5.29979 11.5106 5.25C11.5106 5.20021 11.492 5.15246 11.4587 5.11725C11.4255 5.08204 11.3804 5.06226 11.3333 5.06226C11.2863 5.06226 11.2412 5.08204 11.208 5.11725ZM11.208 2.38275C11.2412 2.41796 11.2863 2.43774 11.3333 2.43774C11.3804 2.43774 11.4255 2.41796 11.4587 2.38275C11.492 2.34754 11.5106 2.29979 11.5106 2.25C11.5106 2.20021 11.492 2.15246 11.4587 2.11725L10.7504 1.36725C10.7171 1.33204 10.672 1.31226 10.625 1.31226C10.578 1.31226 10.5329 1.33204 10.4996 1.36725C10.4664 1.40246 10.4477 1.45021 10.4477 1.5C10.4477 1.54979 10.4664 1.59754 10.4996 1.63275L11.208 2.38275ZM12.9271 1.89375V0.75C12.9271 0.700272 12.9084 0.652581 12.8752 0.617417C12.842 0.582254 12.797 0.5625 12.75 0.5625C12.703 0.5625 12.658 0.582254 12.6248 0.617417C12.5916 0.652581 12.5729 0.700272 12.5729 0.75V1.89375C12.6316 1.88427 12.6907 1.87801 12.75 1.875C12.8093 1.87801 12.8684 1.88427 12.9271 1.89375ZM15.5833 3.5625H14.5031C14.5121 3.62463 14.518 3.68722 14.5208 3.75C14.518 3.81278 14.5121 3.87537 14.5031 3.9375H15.5833C15.6303 3.9375 15.6753 3.91775 15.7085 3.88258C15.7418 3.84742 15.7604 3.79973 15.7604 3.75C15.7604 3.70027 15.7418 3.65258 15.7085 3.61742C15.6753 3.58225 15.6303 3.5625 15.5833 3.5625ZM12.5729 5.60625V6.75C12.5729 6.79973 12.5916 6.84742 12.6248 6.88258C12.658 6.91775 12.703 6.9375 12.75 6.9375C12.797 6.9375 12.842 6.91775 12.8752 6.88258C12.9084 6.84742 12.9271 6.79973 12.9271 6.75V5.60625C12.8684 5.61573 12.8093 5.62199 12.75 5.625C12.6907 5.62199 12.6316 5.61573 12.5729 5.60625ZM10.9792 3.75C10.982 3.68722 10.9879 3.62463 10.9969 3.5625H9.91667C9.8697 3.5625 9.82466 3.58225 9.79145 3.61742C9.75824 3.65258 9.73958 3.70027 9.73958 3.75C9.73958 3.79973 9.75824 3.84742 9.79145 3.88258C9.82466 3.91775 9.8697 3.9375 9.91667 3.9375H10.9969C10.9879 3.87537 10.982 3.81278 10.9792 3.75ZM6.1965 5.376L2.44021 8.02725C2.34323 8.09576 2.26371 8.18856 2.20873 8.29741C2.15374 8.40626 2.12498 8.5278 2.125 8.65125V9C2.125 9.19891 2.19963 9.38968 2.33247 9.53033C2.4653 9.67098 2.64547 9.75 2.83333 9.75H11.3333C11.5212 9.75 11.7014 9.67098 11.8342 9.53033C11.967 9.38968 12.0417 9.19891 12.0417 9V8.65125C12.0417 8.5278 12.0129 8.40626 11.9579 8.29741C11.903 8.18856 11.8234 8.09576 11.7265 8.02725L7.97017 5.376C7.85375 5.29381 7.71696 5.24997 7.57704 5.25H6.58963C6.44971 5.24997 6.31291 5.29381 6.1965 5.376ZM6.48337 13.875H13.35C13.2897 13.7624 13.2026 13.6684 13.0973 13.6026C12.992 13.5368 12.8723 13.5014 12.75 13.5H7.26042V11.2147C7.36525 11.1894 7.46257 11.1371 7.54375 11.0625C7.80579 10.8114 8.14659 10.6724 8.5 10.6724C8.85341 10.6724 9.19421 10.8114 9.45625 11.0625C9.58301 11.1821 9.74688 11.2482 9.91667 11.2482C10.0865 11.2482 10.2503 11.1821 10.3771 11.0625C10.5252 10.922 10.6987 10.8148 10.8871 10.7475C11.0089 10.6996 11.115 10.6152 11.1924 10.5048C11.2699 10.3943 11.3154 10.2623 11.3234 10.125H2.84325C2.85129 10.2623 2.89679 10.3943 2.97424 10.5048C3.05169 10.6152 3.15776 10.6996 3.27958 10.7475C3.468 10.8148 3.64151 10.922 3.78958 11.0625C3.91634 11.1821 4.08021 11.2482 4.25 11.2482C4.41979 11.2482 4.58366 11.1821 4.71042 11.0625C4.97246 10.8114 5.31326 10.6724 5.66667 10.6724C6.02007 10.6724 6.36087 10.8114 6.62292 11.0625C6.7041 11.1371 6.80142 11.1894 6.90625 11.2147V13.5262C6.72793 13.5801 6.57632 13.7051 6.48337 13.875Z" fill="#656565"/>
</svg>
