<svg width="13" height="17" viewBox="0 0 13 17" fill="none" xmlns="http://www.w3.org/2000/svg">
<path d="M10.9688 7.65996C10.7126 7.51294 10.4359 7.43718 10.1562 7.4375H2.84375C2.56407 7.43715 2.28739 7.51279 2.03125 7.65963C1.66923 7.86666 1.36118 8.20712 1.14473 8.6394C0.928295 9.07168 0.812846 9.57705 0.8125 10.0938V13.8125C0.8125 13.9534 0.855301 14.0885 0.931488 14.1882C1.00767 14.2878 1.11101 14.3438 1.21875 14.3438C1.32649 14.3438 1.42983 14.2878 1.50601 14.1882C1.5822 14.0885 1.625 13.9534 1.625 13.8125V13.5469C1.62566 13.4767 1.64727 13.4096 1.68522 13.36C1.72317 13.3104 1.77446 13.2821 1.82812 13.2812H11.1719C11.2255 13.2821 11.2768 13.3104 11.3148 13.36C11.3527 13.4096 11.3743 13.4767 11.375 13.5469V13.8125C11.375 13.9534 11.4178 14.0885 11.494 14.1882C11.5702 14.2878 11.6735 14.3438 11.7812 14.3438C11.889 14.3438 11.9923 14.2878 12.0685 14.1882C12.1447 14.0885 12.1875 13.9534 12.1875 13.8125V10.0938C12.1871 9.57711 12.0716 9.07181 11.8552 8.63959C11.6388 8.20737 11.3307 7.86697 10.9688 7.65996ZM9.54688 2.65625H3.45312C3.07602 2.65625 2.71436 2.85215 2.44771 3.20085C2.18105 3.54955 2.03125 4.02249 2.03125 4.51562V6.90625C2.03126 6.92683 2.03493 6.94713 2.04197 6.96554C2.049 6.98395 2.05922 6.99996 2.0718 7.01233C2.08438 7.02469 2.09899 7.03306 2.11447 7.03678C2.12995 7.0405 2.14588 7.03946 2.161 7.03375C2.38277 6.94893 2.61268 6.90599 2.84375 6.90625H2.95115C2.97622 6.90646 3.00046 6.89453 3.01921 6.87277C3.03796 6.85101 3.0499 6.82095 3.05271 6.78838C3.07487 6.52879 3.16938 6.28898 3.31817 6.11473C3.46697 5.94048 3.65964 5.84402 3.85938 5.84375H5.28125C5.48112 5.84377 5.67397 5.94013 5.82293 6.1144C5.97189 6.28867 6.0665 6.52862 6.08867 6.78838C6.09149 6.82095 6.10342 6.85101 6.12217 6.87277C6.14092 6.89453 6.16517 6.90646 6.19023 6.90625H6.81129C6.83636 6.90646 6.8606 6.89453 6.87935 6.87277C6.8981 6.85101 6.91003 6.82095 6.91285 6.78838C6.935 6.52896 7.02939 6.28929 7.17803 6.11506C7.32666 5.94084 7.51914 5.84426 7.71875 5.84375H9.14062C9.3405 5.84377 9.53335 5.94013 9.68231 6.1144C9.83126 6.28867 9.92587 6.52862 9.94805 6.78838C9.95087 6.82095 9.9628 6.85101 9.98155 6.87277C10.0003 6.89453 10.0245 6.90646 10.0496 6.90625H10.1562C10.3873 6.90611 10.6172 6.94915 10.839 7.03408C10.8541 7.0398 10.8701 7.04083 10.8856 7.0371C10.9011 7.03336 10.9157 7.02496 10.9283 7.01256C10.9409 7.00016 10.9511 6.9841 10.9581 6.96565C10.9651 6.94719 10.9688 6.92686 10.9688 6.90625V4.51562C10.9688 4.02249 10.8189 3.54955 10.5523 3.20085C10.2856 2.85215 9.92398 2.65625 9.54688 2.65625Z" fill="#8F8F8F"/>
</svg>
