<svg width="20" height="20" viewBox="0 0 20 20" fill="none" xmlns="http://www.w3.org/2000/svg">
<g clip-path="url(#clip0_235_1025)">
<path d="M8.00001 17.7499C7.69218 17.7502 7.38777 17.6854 7.10667 17.56C6.82557 17.4345 6.57412 17.2511 6.36876 17.0218C6.31323 16.96 6.2845 16.8788 6.2889 16.7958C6.29329 16.7129 6.33045 16.6351 6.3922 16.5796C6.45394 16.5241 6.53522 16.4953 6.61814 16.4997C6.70107 16.5041 6.77885 16.5413 6.83438 16.603C6.98095 16.7672 7.16056 16.8986 7.36143 16.9885C7.5623 17.0785 7.77991 17.125 8.00001 17.125C8.2201 17.125 8.43771 17.0785 8.63858 16.9885C8.83946 16.8986 9.01906 16.7672 9.16563 16.603C9.19313 16.5725 9.22638 16.5476 9.26348 16.5299C9.30058 16.5122 9.34081 16.5019 9.38187 16.4997C9.42293 16.4976 9.46402 16.5035 9.50279 16.5172C9.54156 16.5309 9.57725 16.5521 9.60782 16.5796C9.63839 16.6071 9.66325 16.6403 9.68098 16.6774C9.6987 16.7145 9.70894 16.7548 9.71112 16.7958C9.71329 16.8369 9.70736 16.878 9.69366 16.9168C9.67996 16.9555 9.65875 16.9912 9.63126 17.0218C9.42589 17.2511 9.17444 17.4345 8.89335 17.56C8.61225 17.6854 8.30784 17.7502 8.00001 17.7499ZM13.6688 15.5624H2.33126C2.01134 15.5624 1.70453 15.4353 1.47831 15.2091C1.25209 14.9829 1.12501 14.6761 1.12501 14.3562V13.8312C1.12445 13.6727 1.15537 13.5156 1.21599 13.3692C1.27661 13.2227 1.36572 13.0898 1.47813 12.978C1.74496 12.712 1.95659 12.3959 2.10085 12.0479C2.24511 11.6998 2.31917 11.3267 2.31876 10.9499V7.49366C2.31876 5.9869 2.91732 4.54185 3.98276 3.47641C5.0482 2.41097 6.49325 1.81241 8.00001 1.81241C9.50677 1.81241 10.9518 2.41097 12.0173 3.47641C13.0827 4.54185 13.6813 5.9869 13.6813 7.49366V10.9499C13.6808 11.3267 13.7549 11.6998 13.8992 12.0479C14.0434 12.3959 14.2551 12.712 14.5219 12.978C14.6343 13.0898 14.7234 13.2227 14.784 13.3692C14.8446 13.5156 14.8756 13.6727 14.875 13.8312V14.3562C14.875 14.6761 14.7479 14.9829 14.5217 15.2091C14.2955 15.4353 13.9887 15.5624 13.6688 15.5624ZM8.00001 2.43741C6.65951 2.43907 5.3744 2.97231 4.42653 3.92018C3.47865 4.86805 2.94541 6.15317 2.94376 7.49366V10.9499C2.94509 11.4085 2.85546 11.8629 2.68006 12.2866C2.50465 12.7104 2.24696 13.0951 1.92188 13.4187C1.86687 13.4723 1.82327 13.5364 1.79373 13.6073C1.7642 13.6782 1.74932 13.7544 1.75001 13.8312V14.3562C1.75083 14.5101 1.81233 14.6574 1.92116 14.7663C2.02999 14.8751 2.17735 14.9366 2.33126 14.9374H13.6688C13.8227 14.9366 13.97 14.8751 14.0789 14.7663C14.1877 14.6574 14.2492 14.5101 14.25 14.3562V13.8312C14.2507 13.7544 14.2358 13.6782 14.2063 13.6073C14.1767 13.5364 14.1331 13.4723 14.0781 13.4187C13.7531 13.0951 13.4954 12.7104 13.32 12.2866C13.1446 11.8629 13.0549 11.4085 13.0563 10.9499V7.49366C13.0546 6.15317 12.5214 4.86805 11.5735 3.92018C10.6256 2.97231 9.3405 2.43907 8.00001 2.43741ZM8.76251 1.18741C8.7124 1.18768 8.66297 1.1759 8.61837 1.15305C8.57377 1.13021 8.53532 1.09698 8.50626 1.05616C8.44831 0.976127 8.37222 0.910971 8.28422 0.866039C8.19622 0.821108 8.09882 0.79768 8.00001 0.79768C7.9012 0.79768 7.8038 0.821108 7.7158 0.866039C7.6278 0.910971 7.5517 0.976127 7.49376 1.05616C7.46984 1.08972 7.43952 1.11821 7.40454 1.14C7.36956 1.16179 7.33062 1.17644 7.28996 1.18312C7.2493 1.1898 7.20772 1.18837 7.16761 1.17892C7.1275 1.16947 7.08966 1.15217 7.05626 1.12804C6.98938 1.07977 6.9443 1.00702 6.93084 0.925656C6.91737 0.844288 6.93662 0.760897 6.98438 0.693662C7.10011 0.532364 7.25259 0.40095 7.42921 0.310298C7.60582 0.219646 7.80149 0.172363 8.00001 0.172363C8.19853 0.172363 8.39419 0.219646 8.57081 0.310298C8.74742 0.40095 8.8999 0.532364 9.01563 0.693662C9.06276 0.761659 9.08101 0.845571 9.06636 0.926999C9.05172 1.00843 9.00538 1.08072 8.93751 1.12804C8.88649 1.16502 8.82549 1.18571 8.76251 1.18741Z" fill="black" stroke="#62BA87" stroke-width="0.6"/>
</g>
<defs>
<clipPath id="clip0_235_1025">
<rect width="20" height="20" fill="white"/>
</clipPath>
</defs>
</svg>
