<svg width="15" height="15" viewBox="0 0 15 15" fill="none" xmlns="http://www.w3.org/2000/svg">
<g clip-path="url(#clip0_36_846)">
<path d="M8.52014 9.96423C8.46412 9.90288 8.39325 9.857 8.32001 9.81877C8.16055 9.73562 7.98615 9.68518 7.81299 9.63965V10.9815C8.09405 10.9497 8.41672 10.8477 8.56429 10.5853C8.63474 10.46 8.64876 10.306 8.62006 10.1664C8.6045 10.0908 8.57234 10.0214 8.52014 9.96423Z" fill="#4F4F4F"/>
<path d="M8.56285 10.5877L8.56433 10.5851C8.56383 10.5859 8.56333 10.5868 8.56285 10.5877ZM6.49469 7.81903C6.44637 7.88958 6.41605 7.96974 6.40769 8.05494C6.39932 8.14032 6.40401 8.2353 6.43645 8.31567C6.46734 8.39226 6.53203 8.44881 6.59881 8.49434C6.67375 8.54531 6.75616 8.58512 6.84009 8.61886C6.91051 8.64721 6.98971 8.67431 7.07509 8.7005V7.48633C6.8594 7.53235 6.62373 7.63062 6.49469 7.81903ZM8.56991 10.5752C8.56814 10.5783 8.56623 10.5816 8.56436 10.585C8.56655 10.581 8.56828 10.5781 8.56991 10.5752ZM8.57696 10.5626C8.57742 10.5618 8.57749 10.5617 8.57696 10.5626V10.5626Z" fill="#4F4F4F"/>
<path d="M8.28579 3.26376C9.42686 2.3052 10.1893 0.145695 9.7201 0.051243C9.09664 -0.074304 7.74276 0.476204 7.08838 0.573197C6.16024 0.685261 5.14937 -0.433262 4.58195 0.190202C4.1206 0.69712 4.91271 2.54062 6.15198 3.34374C2.45468 5.16091 -2.74213 14.2832 6.32398 14.9451C18.8685 15.861 12.587 5.03455 8.28579 3.26376ZM9.36312 10.4581C9.32454 10.8137 9.13606 11.1353 8.85433 11.3537C8.55686 11.5842 8.18375 11.6914 7.81304 11.7215V12.1144C7.81304 12.2196 7.76712 12.3213 7.68841 12.3909C7.58023 12.4866 7.42125 12.5102 7.28995 12.4497C7.16031 12.39 7.07514 12.2571 7.07514 12.1144V11.6849C7.01157 11.673 6.94851 11.6584 6.8861 11.6414C6.53964 11.5462 6.21827 11.3606 5.98351 11.0861C5.86658 10.9493 5.77125 10.794 5.70531 10.6264C5.68809 10.5826 5.67273 10.538 5.65929 10.4929C5.64711 10.452 5.63455 10.4105 5.6302 10.368C5.623 10.2962 5.63695 10.224 5.67034 10.1601C5.73874 10.0293 5.88289 9.95023 6.03007 9.96336C6.17492 9.9762 6.30188 10.0767 6.34749 10.2148C6.36153 10.2573 6.37106 10.3009 6.38684 10.343C6.40243 10.3848 6.4214 10.4253 6.44356 10.4641C6.48758 10.5405 6.54211 10.6103 6.60557 10.6715C6.73595 10.7971 6.90202 10.8787 7.07514 10.9273V9.46738C6.73662 9.37974 6.38719 9.26655 6.10765 9.0492C5.9718 8.94352 5.85652 8.81222 5.78102 8.65681C5.70136 8.49279 5.66836 8.31007 5.66702 8.12858C5.66564 7.9443 5.70065 7.76164 5.77753 7.59374C5.84953 7.43653 5.9532 7.29538 6.0803 7.17838C6.35207 6.92824 6.71308 6.78871 7.07518 6.73746V6.32955C7.07518 6.22444 7.1211 6.12272 7.19981 6.05311C7.30802 5.95743 7.46693 5.93378 7.59826 5.99428C7.72787 6.05396 7.81307 6.18688 7.81307 6.32955V6.73524C7.86132 6.74131 7.90943 6.74858 7.95729 6.75726C8.31286 6.82161 8.66063 6.96844 8.92065 7.22479C9.04426 7.34669 9.14425 7.4904 9.21558 7.64866C9.23536 7.69269 9.25276 7.73774 9.26772 7.78363C9.28169 7.82644 9.29574 7.87053 9.30241 7.91521C9.31298 7.98681 9.30229 8.05993 9.27167 8.12551C9.20913 8.25921 9.06886 8.34434 8.92129 8.33802C8.77629 8.3317 8.64492 8.23729 8.593 8.10175C8.57754 8.06144 8.56981 8.01877 8.55404 7.97857C8.5379 7.93791 8.5177 7.89898 8.49375 7.86238C8.44758 7.79108 8.38776 7.72995 8.31946 7.67958C8.17157 7.57037 7.9922 7.51348 7.81297 7.48167V8.87875C8.02598 8.92975 8.23916 8.98538 8.44324 9.06586C8.75169 9.18748 9.04398 9.37399 9.21234 9.66807C9.18622 9.62226 9.16081 9.57761 9.21322 9.66959C9.26468 9.75995 9.24011 9.71689 9.21428 9.6716C9.34823 9.90766 9.39224 10.1899 9.36312 10.4581Z" fill="#4F4F4F"/>
<path d="M8.55897 10.5947L8.55347 10.6045C8.55474 10.6023 8.55664 10.599 8.55897 10.5947Z" fill="#4F4F4F"/>
</g>
<defs>
<clipPath id="clip0_36_846">
<rect width="15" height="15" fill="white"/>
</clipPath>
</defs>
</svg>
