<svg width="53" height="36" viewBox="0 0 53 36" fill="none" xmlns="http://www.w3.org/2000/svg">
<path d="M51.9159 19.3607L37.8272 27.8297L38.0469 10.5366L51.9159 19.3607Z" fill="#1C472E"/>
<rect width="39" height="36" rx="7" fill="#1C472E"/>
<path fill-rule="evenodd" clip-rule="evenodd" d="M21.4091 20.5875L26.4941 25.6725C26.6503 25.8288 26.8623 25.9166 27.0833 25.9166C27.3042 25.9166 27.5162 25.8288 27.6724 25.6725C27.8287 25.5163 27.9165 25.3043 27.9165 25.0834C27.9165 24.8624 27.8287 24.6504 27.6724 24.4942L22.5883 19.4092C23.3439 18.4014 23.7516 17.1754 23.7499 15.9159C23.7499 12.6967 21.1366 10.0825 17.9166 10.0825C14.6974 10.0825 12.0833 12.6967 12.0833 15.9159C12.0833 19.1359 14.6974 21.7492 17.9166 21.7492C19.176 21.7511 20.4018 21.3434 21.4091 20.5875ZM17.9166 11.7492C20.2166 11.7492 22.0833 13.6167 22.0833 15.9159C22.0833 18.2159 20.2166 20.0825 17.9166 20.0825C15.6174 20.0825 13.7499 18.2159 13.7499 15.9159C13.7499 13.6167 15.6174 11.7492 17.9166 11.7492Z" fill="#56D98D"/>
</svg>
