<svg width="15" height="13" viewBox="0 0 15 13" fill="none" xmlns="http://www.w3.org/2000/svg">
<mask id="path-1-inside-1_381_9390" fill="white">
<path d="M7.5 2.90332C6.75832 2.90332 6.0333 3.11616 5.41661 3.51492C4.79993 3.91369 4.31928 4.48046 4.03545 5.14358C3.75162 5.8067 3.67736 6.53638 3.82206 7.24034C3.96675 7.94431 4.3239 8.59094 4.84835 9.09847C5.3728 9.606 6.04098 9.95163 6.76841 10.0917C7.49584 10.2317 8.24984 10.1598 8.93506 9.88514C9.62029 9.61047 10.206 9.14533 10.618 8.54854C11.0301 7.95174 11.25 7.25011 11.25 6.53235C11.25 5.56987 10.8549 4.64682 10.1517 3.96624C9.44839 3.28566 8.49456 2.90332 7.5 2.90332ZM7.5 9.43558C6.90666 9.43558 6.32664 9.26531 5.83329 8.9463C5.33994 8.62729 4.95543 8.17387 4.72836 7.64337C4.5013 7.11287 4.44189 6.52913 4.55765 5.96596C4.6734 5.40279 4.95912 4.88549 5.37868 4.47946C5.79824 4.07344 6.33279 3.79693 6.91473 3.68491C7.49667 3.57289 8.09987 3.63038 8.64805 3.85012C9.19623 4.06986 9.66477 4.44197 9.99441 4.91941C10.3241 5.39684 10.5 5.95815 10.5 6.53235C10.5 7.30234 10.1839 8.04078 9.62132 8.58524C9.05871 9.1297 8.29565 9.43558 7.5 9.43558Z"/>
</mask>
<path d="M7.5 2.90332C6.75832 2.90332 6.0333 3.11616 5.41661 3.51492C4.79993 3.91369 4.31928 4.48046 4.03545 5.14358C3.75162 5.8067 3.67736 6.53638 3.82206 7.24034C3.96675 7.94431 4.3239 8.59094 4.84835 9.09847C5.3728 9.606 6.04098 9.95163 6.76841 10.0917C7.49584 10.2317 8.24984 10.1598 8.93506 9.88514C9.62029 9.61047 10.206 9.14533 10.618 8.54854C11.0301 7.95174 11.25 7.25011 11.25 6.53235C11.25 5.56987 10.8549 4.64682 10.1517 3.96624C9.44839 3.28566 8.49456 2.90332 7.5 2.90332ZM7.5 9.43558C6.90666 9.43558 6.32664 9.26531 5.83329 8.9463C5.33994 8.62729 4.95543 8.17387 4.72836 7.64337C4.5013 7.11287 4.44189 6.52913 4.55765 5.96596C4.6734 5.40279 4.95912 4.88549 5.37868 4.47946C5.79824 4.07344 6.33279 3.79693 6.91473 3.68491C7.49667 3.57289 8.09987 3.63038 8.64805 3.85012C9.19623 4.06986 9.66477 4.44197 9.99441 4.91941C10.3241 5.39684 10.5 5.95815 10.5 6.53235C10.5 7.30234 10.1839 8.04078 9.62132 8.58524C9.05871 9.1297 8.29565 9.43558 7.5 9.43558Z" fill="#62BA87"/>
<path d="M11.25 6.53235H12.25H11.25ZM7.5 1.90332C6.5677 1.90332 5.65378 2.17071 4.87362 2.67519L5.95961 4.35466C6.41281 4.06161 6.94894 3.90332 7.5 3.90332L7.5 1.90332ZM4.87362 2.67519C4.09312 3.17988 3.47972 3.90061 3.11613 4.75009L4.95478 5.53707C5.15884 5.06032 5.50674 4.6475 5.95961 4.35466L4.87362 2.67519ZM3.11613 4.75009C2.75236 5.59997 2.65662 6.53716 2.84253 7.44168L4.80158 7.03901C4.69811 6.5356 4.75089 6.01343 4.95478 5.53707L3.11613 4.75009ZM2.84253 7.44168C3.0284 8.34595 3.48629 9.17194 4.15293 9.81707L5.54377 8.37986C5.16152 8.00994 4.9051 7.54266 4.80158 7.03901L2.84253 7.44168ZM4.15293 9.81707C4.81922 10.4619 5.6642 10.8975 6.57939 11.0736L6.95744 9.10968C6.41777 9.0058 5.92638 8.75013 5.54377 8.37986L4.15293 9.81707ZM6.57939 11.0736C7.49444 11.2498 8.44325 11.1596 9.30714 10.8133L8.56299 8.95694C8.05643 9.15999 7.49724 9.21359 6.95744 9.10968L6.57939 11.0736ZM9.30714 10.8133C10.1713 10.467 10.9151 9.87825 11.4409 9.11671L9.79511 7.98036C9.4968 8.4124 9.0693 8.75398 8.56299 8.95694L9.30714 10.8133ZM11.4409 9.11671C11.967 8.35475 12.25 7.45533 12.25 6.53235L10.25 6.53235C10.25 7.04488 10.0931 7.54874 9.79511 7.98036L11.4409 9.11671ZM12.25 6.53235C12.25 5.29388 11.7413 4.11303 10.8471 3.24764L9.45623 4.68484C9.96851 5.1806 10.25 5.84587 10.25 6.53235H12.25ZM10.8471 3.24764C9.95395 2.38332 8.74939 1.90332 7.5 1.90332L7.5 3.90332C8.23973 3.90332 8.94283 4.18801 9.45623 4.68484L10.8471 3.24764ZM7.5 8.43558C7.09728 8.43558 6.70615 8.31986 6.37629 8.10656L5.2903 9.78603C5.94713 10.2108 6.71604 10.4356 7.5 10.4356V8.43558ZM6.37629 8.10656C6.04675 7.89348 5.79499 7.59401 5.64769 7.24988L3.80903 8.03686C4.11586 8.75372 4.63314 9.3611 5.2903 9.78603L6.37629 8.10656ZM5.64769 7.24988C5.50057 6.90615 5.46264 6.52991 5.53717 6.1673L3.57812 5.76463C3.42114 6.52835 3.50203 7.3196 3.80903 8.03686L5.64769 7.24988ZM5.53717 6.1673C5.61175 5.80443 5.79674 5.46648 6.0741 5.19806L4.68326 3.76086C4.12151 4.30449 3.73505 5.00115 3.57812 5.76463L5.53717 6.1673ZM6.0741 5.19806C6.35182 4.9293 6.70957 4.74276 7.10376 4.66688L6.72571 2.70294C5.95601 2.8511 5.24466 3.21757 4.68326 3.76086L6.0741 5.19806ZM7.10376 4.66688C7.49807 4.59098 7.90646 4.6302 8.27598 4.77833L9.02012 2.92192C8.29328 2.63056 7.49527 2.5548 6.72571 2.70294L7.10376 4.66688ZM8.27598 4.77833C8.64525 4.92635 8.95561 5.1749 9.1715 5.48758L10.8173 4.35123C10.3739 3.70905 9.74721 3.21337 9.02012 2.92192L8.27598 4.77833ZM9.1715 5.48758C9.38711 5.79985 9.5 6.16337 9.5 6.53235H11.5C11.5 5.75293 11.261 4.99383 10.8173 4.35123L9.1715 5.48758ZM9.5 6.53235C9.5 7.02634 9.29753 7.507 8.9259 7.86664L10.3167 9.30385C11.0703 8.57457 11.5 7.57833 11.5 6.53235H9.5ZM8.9259 7.86664C8.55316 8.22736 8.04082 8.43558 7.5 8.43558V10.4356C8.55048 10.4356 9.56427 10.032 10.3167 9.30385L8.9259 7.86664Z" fill="#62BA87" mask="url(#path-1-inside-1_381_9390)"/>
<mask id="path-3-inside-2_381_9390" fill="white">
<path d="M12.375 1.45161H10.7325L10.4212 0.849194C10.2786 0.602307 10.0732 0.394737 9.82448 0.246135C9.57577 0.0975323 9.29199 0.0128141 9 0H6C5.70801 0.0128141 5.42422 0.0975323 5.17552 0.246135C4.92681 0.394737 4.7214 0.602307 4.57875 0.849194L4.2675 1.45161H2.625C1.92881 1.45161 1.26113 1.71925 0.768845 2.19566C0.276562 2.67206 0 3.3182 0 3.99194V9.79839C0 10.4721 0.276562 11.1183 0.768845 11.5947C1.26113 12.0711 1.92881 12.3387 2.625 12.3387H12.375C13.0712 12.3387 13.7389 12.0711 14.2312 11.5947C14.7234 11.1183 15 10.4721 15 9.79839V3.99194C15 3.3182 14.7234 2.67206 14.2312 2.19566C13.7389 1.71925 13.0712 1.45161 12.375 1.45161ZM14.25 9.79839C14.25 10.2796 14.0525 10.7412 13.7008 11.0814C13.3492 11.4217 12.8723 11.6129 12.375 11.6129H2.625C2.12772 11.6129 1.65081 11.4217 1.29917 11.0814C0.947544 10.7412 0.75 10.2796 0.75 9.79839V3.99194C0.75 3.5107 0.947544 3.04917 1.29917 2.70888C1.65081 2.36859 2.12772 2.17742 2.625 2.17742H4.5C4.56925 2.17722 4.63709 2.15846 4.696 2.12323C4.75491 2.088 4.80259 2.03767 4.83375 1.97782L5.25 1.17581C5.32871 1.04822 5.4379 0.940768 5.5684 0.862468C5.6989 0.784167 5.84691 0.737302 6 0.725806H9C9.15309 0.737302 9.30109 0.784167 9.4316 0.862468C9.5621 0.940768 9.67129 1.04822 9.75 1.17581L10.1662 1.97782C10.1974 2.03767 10.2451 2.088 10.304 2.12323C10.3629 2.15846 10.4307 2.17722 10.5 2.17742H12.375C12.8723 2.17742 13.3492 2.36859 13.7008 2.70888C14.0525 3.04917 14.25 3.5107 14.25 3.99194V9.79839Z"/>
</mask>
<path d="M12.375 1.45161H10.7325L10.4212 0.849194C10.2786 0.602307 10.0732 0.394737 9.82448 0.246135C9.57577 0.0975323 9.29199 0.0128141 9 0H6C5.70801 0.0128141 5.42422 0.0975323 5.17552 0.246135C4.92681 0.394737 4.7214 0.602307 4.57875 0.849194L4.2675 1.45161H2.625C1.92881 1.45161 1.26113 1.71925 0.768845 2.19566C0.276562 2.67206 0 3.3182 0 3.99194V9.79839C0 10.4721 0.276562 11.1183 0.768845 11.5947C1.26113 12.0711 1.92881 12.3387 2.625 12.3387H12.375C13.0712 12.3387 13.7389 12.0711 14.2312 11.5947C14.7234 11.1183 15 10.4721 15 9.79839V3.99194C15 3.3182 14.7234 2.67206 14.2312 2.19566C13.7389 1.71925 13.0712 1.45161 12.375 1.45161ZM14.25 9.79839C14.25 10.2796 14.0525 10.7412 13.7008 11.0814C13.3492 11.4217 12.8723 11.6129 12.375 11.6129H2.625C2.12772 11.6129 1.65081 11.4217 1.29917 11.0814C0.947544 10.7412 0.75 10.2796 0.75 9.79839V3.99194C0.75 3.5107 0.947544 3.04917 1.29917 2.70888C1.65081 2.36859 2.12772 2.17742 2.625 2.17742H4.5C4.56925 2.17722 4.63709 2.15846 4.696 2.12323C4.75491 2.088 4.80259 2.03767 4.83375 1.97782L5.25 1.17581C5.32871 1.04822 5.4379 0.940768 5.5684 0.862468C5.6989 0.784167 5.84691 0.737302 6 0.725806H9C9.15309 0.737302 9.30109 0.784167 9.4316 0.862468C9.5621 0.940768 9.67129 1.04822 9.75 1.17581L10.1662 1.97782C10.1974 2.03767 10.2451 2.088 10.304 2.12323C10.3629 2.15846 10.4307 2.17722 10.5 2.17742H12.375C12.8723 2.17742 13.3492 2.36859 13.7008 2.70888C14.0525 3.04917 14.25 3.5107 14.25 3.99194V9.79839Z" fill="#62BA87"/>
<path d="M10.7325 1.45161L9.84407 1.91063L10.1236 2.45161H10.7325V1.45161ZM10.4212 0.849194L11.3097 0.390174L11.2989 0.369267L11.2871 0.348891L10.4212 0.849194ZM9 0L9.04384 -0.999038L9.02193 -1H9V0ZM6 0V-1H5.97807L5.95616 -0.999038L6 0ZM4.57875 0.849194L3.7129 0.348891L3.70113 0.369267L3.69032 0.390174L4.57875 0.849194ZM4.2675 1.45161V2.45161H4.87642L5.15593 1.91063L4.2675 1.45161ZM0 3.99194H-1H0ZM2.625 12.3387L2.625 11.3387L2.625 12.3387ZM12.375 12.3387V11.3387V12.3387ZM12.375 11.6129L12.375 12.6129L12.375 11.6129ZM0.75 3.99194H-0.25H0.75ZM4.5 2.17742L4.5 3.17742L4.50293 3.17741L4.5 2.17742ZM4.83375 1.97782L5.72072 2.43966L5.72133 2.43848L4.83375 1.97782ZM5.25 1.17581L4.39893 0.650746L4.37949 0.682271L4.36242 0.715149L5.25 1.17581ZM6 0.725806V-0.274194H5.96251L5.92512 -0.271386L6 0.725806ZM9 0.725806L9.07488 -0.271386L9.03749 -0.274194H9V0.725806ZM9.75 1.17581L10.6376 0.715149L10.6205 0.682271L10.6011 0.650746L9.75 1.17581ZM10.1662 1.97782L9.27867 2.43848L9.27928 2.43966L10.1662 1.97782ZM10.5 2.17742L10.4971 3.17742H10.5V2.17742ZM12.375 0.451613H10.7325V2.45161H12.375V0.451613ZM11.6209 0.992594L11.3097 0.390174L9.53282 1.30821L9.84407 1.91063L11.6209 0.992594ZM11.2871 0.348891C11.0578 -0.0479465 10.7299 -0.377801 10.3374 -0.612304L9.31157 1.10457C9.41651 1.16727 9.49939 1.25256 9.5554 1.3495L11.2871 0.348891ZM10.3374 -0.612304C9.9451 -0.846704 9.4999 -0.979024 9.04384 -0.999038L8.95616 0.999038C9.08408 1.00465 9.20645 1.04177 9.31157 1.10457L10.3374 -0.612304ZM9 -1H6V1H9V-1ZM5.95616 -0.999038C5.5001 -0.979024 5.0549 -0.846704 4.6626 -0.612304L5.68843 1.10457C5.79355 1.04177 5.91592 1.00465 6.04384 0.999038L5.95616 -0.999038ZM4.6626 -0.612304C4.27012 -0.377801 3.9422 -0.0479465 3.7129 0.348891L5.4446 1.3495C5.50061 1.25256 5.58349 1.16727 5.68843 1.10457L4.6626 -0.612304ZM3.69032 0.390174L3.37907 0.992593L5.15593 1.91063L5.46718 1.30821L3.69032 0.390174ZM4.2675 0.451613H2.625V2.45161H4.2675V0.451613ZM2.625 0.451613C1.67398 0.451613 0.755571 0.816911 0.0734232 1.47705L1.46427 2.91426C1.76668 2.6216 2.18364 2.45161 2.625 2.45161V0.451613ZM0.0734232 1.47705C-0.60984 2.13828 -1 3.04221 -1 3.99194L1 3.99194C1 3.59419 1.16296 3.20584 1.46427 2.91426L0.0734232 1.47705ZM-1 3.99194V9.79839H1V3.99194H-1ZM-1 9.79839C-1 10.7481 -0.60984 11.652 0.0734232 12.3133L1.46427 10.8761C1.16296 10.5845 1 10.1961 1 9.79839H-1ZM0.0734232 12.3133C0.755572 12.9734 1.67398 13.3387 2.625 13.3387L2.625 11.3387C2.18364 11.3387 1.76668 11.1687 1.46427 10.8761L0.0734232 12.3133ZM2.625 13.3387H12.375V11.3387H2.625V13.3387ZM12.375 13.3387C13.326 13.3387 14.2444 12.9734 14.9266 12.3133L13.5357 10.8761C13.2333 11.1687 12.8164 11.3387 12.375 11.3387L12.375 13.3387ZM14.9266 12.3133C15.6098 11.652 16 10.7481 16 9.79839H14C14 10.1961 13.837 10.5845 13.5357 10.8761L14.9266 12.3133ZM16 9.79839V3.99194H14V9.79839H16ZM16 3.99194C16 3.04221 15.6098 2.13828 14.9266 1.47705L13.5357 2.91426C13.837 3.20584 14 3.59419 14 3.99194H16ZM14.9266 1.47705C14.2444 0.816911 13.326 0.451613 12.375 0.451613V2.45161C12.8164 2.45161 13.2333 2.6216 13.5357 2.91426L14.9266 1.47705ZM13.25 9.79839C13.25 10.0036 13.1661 10.2074 13.0054 10.3628L14.3962 11.8C14.9389 11.2749 15.25 10.5556 15.25 9.79839H13.25ZM13.0054 10.3628C12.8436 10.5194 12.6175 10.6129 12.375 10.6129L12.375 12.6129C13.1271 12.6129 13.8547 12.3241 14.3962 11.8L13.0054 10.3628ZM12.375 10.6129H2.625V12.6129H12.375V10.6129ZM2.625 10.6129C2.38255 10.6129 2.15636 10.5194 1.9946 10.3628L0.603753 11.8C1.14525 12.3241 1.87289 12.6129 2.625 12.6129V10.6129ZM1.9946 10.3628C1.83395 10.2074 1.75 10.0036 1.75 9.79839H-0.25C-0.25 10.5556 0.0611425 11.2749 0.603753 11.8L1.9946 10.3628ZM1.75 9.79839V3.99194H-0.25V9.79839H1.75ZM1.75 3.99194C1.75 3.78669 1.83395 3.58295 1.9946 3.42748L0.603753 1.99028C0.0611425 2.51538 -0.25 3.2347 -0.25 3.99194L1.75 3.99194ZM1.9946 3.42748C2.15636 3.27093 2.38255 3.17742 2.625 3.17742V1.17742C1.87289 1.17742 1.14525 1.46625 0.603753 1.99028L1.9946 3.42748ZM2.625 3.17742H4.5V1.17742H2.625V3.17742ZM4.50293 3.17741C4.75026 3.17669 4.99464 3.10982 5.20926 2.98146L4.18274 1.265C4.27954 1.2071 4.38824 1.17774 4.49707 1.17742L4.50293 3.17741ZM5.20926 2.98146C5.42413 2.85296 5.60252 2.66664 5.72071 2.43966L3.94678 1.51599C4.00265 1.4087 4.08569 1.32304 4.18274 1.265L5.20926 2.98146ZM5.72133 2.43848L6.13758 1.63646L4.36242 0.715149L3.94617 1.51717L5.72133 2.43848ZM6.10106 1.70087C6.09447 1.71155 6.08739 1.71726 6.0829 1.71996L5.05391 0.00497463C4.78841 0.164273 4.56295 0.384892 4.39893 0.650746L6.10106 1.70087ZM6.0829 1.71996C6.07854 1.72257 6.0758 1.72293 6.07488 1.723L5.92512 -0.271386C5.61802 -0.248326 5.31927 -0.154241 5.05391 0.00497463L6.0829 1.71996ZM6 1.72581H9V-0.274194H6V1.72581ZM8.92512 1.723C8.9242 1.72293 8.92146 1.72257 8.9171 1.71996L9.94609 0.00497463C9.68073 -0.154241 9.38198 -0.248326 9.07488 -0.271386L8.92512 1.723ZM8.9171 1.71996C8.9126 1.71726 8.90553 1.71155 8.89893 1.70087L10.6011 0.650746C10.437 0.384892 10.2116 0.164273 9.94609 0.00497463L8.9171 1.71996ZM8.86242 1.63646L9.27867 2.43848L11.0538 1.51717L10.6376 0.715149L8.86242 1.63646ZM9.27928 2.43966C9.39747 2.66664 9.57587 2.85296 9.79074 2.98146L10.8173 1.265C10.9143 1.32304 10.9974 1.4087 11.0532 1.51599L9.27928 2.43966ZM9.79074 2.98146C10.0054 3.10982 10.2497 3.17669 10.4971 3.17741L10.5029 1.17742C10.6118 1.17774 10.7205 1.2071 10.8173 1.265L9.79074 2.98146ZM10.5 3.17742H12.375V1.17742H10.5V3.17742ZM12.375 3.17742C12.6175 3.17742 12.8436 3.27093 13.0054 3.42748L14.3962 1.99028C13.8547 1.46625 13.1271 1.17742 12.375 1.17742V3.17742ZM13.0054 3.42748C13.1661 3.58295 13.25 3.78669 13.25 3.99194H15.25C15.25 3.2347 14.9389 2.51538 14.3962 1.99028L13.0054 3.42748ZM13.25 3.99194V9.79839H15.25V3.99194H13.25Z" fill="#62BA87" mask="url(#path-3-inside-2_381_9390)"/>
</svg>
