<svg width="11" height="11" viewBox="0 0 11 11" fill="none" xmlns="http://www.w3.org/2000/svg">
<g clip-path="url(#clip0_49_264)">
<path d="M3.66648 3.66654C5.76496 3.66654 7.33296 2.83698 7.33296 2.09521C7.33296 1.35352 5.76492 0.523926 3.66648 0.523926C1.56804 0.523926 3.49245e-05 1.35352 3.49245e-05 2.09521C3.49245e-05 2.83698 1.56801 3.66654 3.66648 3.66654ZM3.66648 9.95204C3.97277 9.95204 4.26757 9.93423 4.54798 9.90179C4.30979 9.59582 4.11518 9.25831 3.9697 8.89889C3.86908 8.90228 3.76811 8.90462 3.66645 8.90462C2.46738 8.90462 1.33185 8.66703 0.469106 8.23564C0.299233 8.15071 0.142911 8.05945 3.49245e-05 7.96285V8.38075C3.49245e-05 9.12245 1.56801 9.95204 3.66648 9.95204ZM3.66648 7.85689C3.67724 7.85689 3.68782 7.85671 3.69854 7.85668C3.67678 7.68287 3.66586 7.50787 3.66585 7.3327C3.66585 7.15536 3.67703 6.9806 3.69854 6.80905C3.68782 6.80905 3.6772 6.80943 3.66648 6.80943C2.46742 6.80943 1.33192 6.57184 0.469141 6.14045C0.299233 6.05551 0.142876 5.96426 0 5.86769V6.28556C3.49245e-05 7.02729 1.56801 7.85689 3.66648 7.85689ZM3.66648 5.76166C3.77042 5.76166 3.87295 5.75956 3.9742 5.75558C4.13575 5.35956 4.3569 4.99055 4.62998 4.66136C4.31002 4.6966 3.98837 4.71426 3.66648 4.71427C2.46742 4.71427 1.33192 4.47668 0.469141 4.04529C0.299233 3.96032 0.142876 3.8691 0 3.7725V4.19041C3.49245e-05 4.93213 1.56801 5.76166 3.66648 5.76166ZM5.23808 5.59636C5.00738 5.94278 4.84817 6.33179 4.76982 6.74056C4.73241 6.93572 4.71359 7.13399 4.71362 7.3327C4.71362 7.48487 4.72473 7.63449 4.74572 7.78093C4.79629 8.13376 4.90697 8.47531 5.07296 8.79073C5.24343 9.11468 5.46885 9.40657 5.73918 9.6534C6.29825 10.164 7.0418 10.4759 7.85683 10.4759C9.58999 10.4759 11 9.06587 11 7.3327C11 5.59951 9.58999 4.1895 7.85683 4.1895C7.6777 4.1895 7.50207 4.20479 7.33101 4.23371C6.45971 4.38106 5.70925 4.88813 5.23808 5.59636Z" fill="#656565"/>
</g>
<defs>
<clipPath id="clip0_49_264">
<rect width="11" height="11" fill="white"/>
</clipPath>
</defs>
</svg>
