<svg width="20" height="20" viewBox="0 0 20 20" fill="none" xmlns="http://www.w3.org/2000/svg">
<path d="M18.6667 3.33299H6.83347L6.06681 0.796761C5.88533 0.206035 5.26218 -0.128571 4.66949 0.0464573L2.97185 0.546437C2.78483 0.601753 2.61525 0.704391 2.47952 0.844426L0.566871 2.82535C0.423053 2.97564 0.32381 3.16293 0.280207 3.36633C0.085209 4.26629 -0.453119 7.52883 0.823535 11.7493C2.10019 15.9698 4.35683 18.4077 5.02016 19.054C5.16879 19.1999 5.35486 19.3019 5.55782 19.3487L8.25546 19.971C8.33886 19.9903 8.42418 20 8.50979 20C8.61856 19.9999 8.72676 19.9843 8.83112 19.9537L9.77044 19.6767L10.5274 19.4534C10.8156 19.3703 11.0581 19.1746 11.2001 18.9104C11.3415 18.6507 11.3727 18.345 11.2864 18.0621L10.8641 16.6658H18.6667C19.4031 16.6658 20 16.0689 20 15.3325V4.66627C20 3.92992 19.4031 3.33299 18.6667 3.33299ZM13.4167 9.8994L19.2923 4.44428C19.3188 4.51535 19.3326 4.59046 19.3333 4.66627V15.3325C19.3324 15.4039 19.3199 15.4747 19.2963 15.5422L13.4167 9.8994ZM18.6667 3.99963C18.7045 4.00019 18.7422 4.00398 18.7793 4.01097L11.8001 10.4887C11.5444 10.7258 11.1491 10.7258 10.8934 10.4887L6.09348 6.04522L6.44714 5.94089C6.73478 5.85728 6.97678 5.66164 7.1188 5.39791C7.26006 5.13835 7.29094 4.83286 7.20447 4.55028L7.0368 3.99963H18.6667ZM5.24482 13.7429C4.55665 12.9005 4.04495 11.9282 3.74017 10.884C3.30965 9.56828 3.25094 8.15919 3.57051 6.81219C3.57739 6.79402 3.59268 6.78034 3.61151 6.77552L5.34715 6.26388L9.26178 9.8864L5.24482 13.7429ZM10.6114 18.5931C10.5536 18.7002 10.4551 18.7795 10.3381 18.813L9.89611 18.9434L9.08445 16.2575C9.05168 16.1415 8.95882 16.0522 8.84161 16.024C8.72439 15.9958 8.6011 16.0331 8.51916 16.1215C8.43723 16.21 8.40942 16.3358 8.44645 16.4505L9.25845 19.1324L8.64312 19.3137C8.56576 19.3367 8.48375 19.3392 8.40512 19.321L5.70748 18.6991C5.62389 18.6795 5.5473 18.6373 5.48615 18.5771C4.85283 17.9587 2.69052 15.6245 1.46153 11.5567C0.232541 7.48883 0.745202 4.36629 0.931533 3.50699C0.949456 3.42452 0.989832 3.34862 1.0482 3.28766L2.95885 1.30774C3.01396 1.25062 3.08283 1.20861 3.15884 1.18575L3.77917 1.00309L4.59083 3.68865C4.6333 3.82932 4.76288 3.92559 4.90982 3.92564C4.94248 3.9258 4.97497 3.92097 5.00616 3.9113C5.18229 3.85805 5.28196 3.67215 5.22882 3.49599L4.41983 0.81476L4.85783 0.685765C5.09977 0.612836 5.35533 0.748269 5.43082 0.98942L6.56414 4.7426C6.59894 4.85516 6.58693 4.977 6.53081 5.08059C6.47284 5.18764 6.37439 5.267 6.25748 5.30092L5.81515 5.43124L5.68415 4.99793C5.62754 4.82619 5.44432 4.7309 5.27121 4.78318C5.0981 4.83545 4.99824 5.01622 5.04616 5.19059L5.17582 5.6199L3.42317 6.13655C3.18289 6.20676 2.99563 6.39565 2.92751 6.63653C2.57591 8.10402 2.63647 9.6401 3.10251 11.0754C3.5118 12.5321 4.31286 13.8487 5.41849 14.8819C5.60649 15.0476 5.86687 15.1044 6.10681 15.0319L7.86379 14.5139L7.99479 14.9472C8.02756 15.0632 8.12042 15.1525 8.23763 15.1807C8.35485 15.2089 8.47814 15.1716 8.56008 15.0831C8.64201 14.9947 8.66982 14.8689 8.63279 14.7542L8.50312 14.3249L8.94078 14.1959C9.18275 14.1235 9.43802 14.2587 9.51411 14.4996L10.6474 18.2531C10.6825 18.3664 10.6701 18.4891 10.6131 18.5931H10.6114ZM10.6624 15.9992L10.1518 14.3089C9.97 13.7171 9.34527 13.3822 8.75178 13.5586L5.91848 14.3939C5.89813 14.4 5.8761 14.396 5.85915 14.3832C5.81248 14.3422 5.75915 14.2912 5.69748 14.2332L9.75211 10.34L10.4401 10.977C10.9525 11.4495 11.7417 11.4495 12.2541 10.977L12.9274 10.3517L18.7963 15.9848C18.7537 15.9939 18.7103 15.9987 18.6667 15.9992H10.6624Z" fill="#62BA87"/>
<path d="M8.66731 5.33266H14.0006C14.1847 5.33266 14.3339 5.18343 14.3339 4.99934C14.3339 4.81525 14.1847 4.66602 14.0006 4.66602H8.66731C8.48322 4.66602 8.33398 4.81525 8.33398 4.99934C8.33398 5.18343 8.48322 5.33266 8.66731 5.33266Z" fill="#62BA87"/>
<path d="M18.3333 7.33252C18.1492 7.33252 18 7.48175 18 7.66584V12.3323C18 12.5164 18.1492 12.6656 18.3333 12.6656C18.5174 12.6656 18.6666 12.5164 18.6666 12.3323V7.66584C18.6666 7.48175 18.5174 7.33252 18.3333 7.33252Z" fill="#62BA87"/>
</svg>
