<svg width="198" height="150" viewBox="0 0 198 150" fill="none" xmlns="http://www.w3.org/2000/svg">
<path d="M162.827 21.9338C162.827 21.9338 147.598 1.52589 122.319 0.0847223C97.0392 -1.35645 82.9393 15.8903 72.5913 28.8278C62.2432 41.7653 30.9155 34.2853 11.944 54.1215C-7.02748 73.9577 2.17238 85.4492 10.5264 96.9455C18.8805 108.442 26.8707 110.181 26.8707 119.659C26.8707 129.138 31.473 141.792 49.5798 144.665C67.6866 147.538 86.3698 130.017 99.3025 136.632C112.235 143.247 133.938 148.417 147.234 144.665C160.531 140.913 156.5 127.13 170.86 122.532C185.22 117.935 199.027 103.561 197.014 88.0386C195.001 72.5165 183.505 69.6436 178.619 54.698C173.733 39.7523 166.853 28.2561 162.827 21.9338Z" fill="#EEEEEE"/>
<path opacity="0.7" d="M162.827 21.9338C162.827 21.9338 147.598 1.52589 122.319 0.0847223C97.0392 -1.35645 82.9393 15.8903 72.5913 28.8278C62.2432 41.7653 30.9155 34.2853 11.944 54.1215C-7.02748 73.9577 2.17238 85.4492 10.5264 96.9455C18.8805 108.442 26.8707 110.181 26.8707 119.659C26.8707 129.138 31.473 141.792 49.5798 144.665C67.6866 147.538 86.3698 130.017 99.3025 136.632C112.235 143.247 133.938 148.417 147.234 144.665C160.531 140.913 156.5 127.13 170.86 122.532C185.22 117.935 199.027 103.561 197.014 88.0386C195.001 72.5165 183.505 69.6436 178.619 54.698C173.733 39.7523 166.853 28.2561 162.827 21.9338Z" fill="white"/>
<path d="M180.145 147.897C180.145 148.733 153.684 149.409 121.081 149.409C88.4772 149.409 62.0164 148.733 62.0164 147.897C62.0164 147.061 88.4772 146.39 121.081 146.39C153.684 146.39 180.145 147.065 180.145 147.897Z" fill="#777777"/>
<path d="M133.414 7.76318H77.9169C76.1893 7.76318 74.7888 9.16366 74.7888 10.8912V32.5844C74.7888 34.312 76.1893 35.7124 77.9169 35.7124H133.414C135.141 35.7124 136.542 34.312 136.542 32.5844V10.8912C136.542 9.16366 135.141 7.76318 133.414 7.76318Z" fill="#EEEEEE"/>
<path d="M74.7888 30.7983V40.8865L80.4165 34.4084" fill="#EEEEEE"/>
<path d="M133.418 7.76318H77.9024C77.4918 7.76318 77.0853 7.84413 76.706 8.00138C76.3268 8.15864 75.9823 8.38913 75.6922 8.67965C75.4021 8.97018 75.1721 9.31505 75.0155 9.69454C74.8588 10.074 74.7784 10.4807 74.7791 10.8912V40.8865L79.2774 35.7124H133.418C133.829 35.7124 134.235 35.6315 134.614 35.4742C134.994 35.317 135.338 35.0865 135.628 34.796C135.918 34.5054 136.148 34.1606 136.305 33.7811C136.462 33.4016 136.542 32.9949 136.541 32.5844V10.8912C136.542 10.4807 136.462 10.074 136.305 9.69454C136.148 9.31505 135.918 8.97018 135.628 8.67965C135.338 8.38913 134.994 8.15864 134.614 8.00138C134.235 7.84413 133.829 7.76318 133.418 7.76318Z" fill="#EEEEEE"/>
<path opacity="0.1" d="M133.418 7.76318H77.9024C77.4918 7.76318 77.0853 7.84413 76.706 8.00138C76.3268 8.15864 75.9823 8.38913 75.6922 8.67965C75.4021 8.97018 75.1721 9.31505 75.0155 9.69454C74.8588 10.074 74.7784 10.4807 74.7791 10.8912V40.8865L79.2774 35.7124H133.418C133.829 35.7124 134.235 35.6315 134.614 35.4742C134.994 35.317 135.338 35.0865 135.628 34.796C135.918 34.5054 136.148 34.1606 136.305 33.7811C136.462 33.4016 136.542 32.9949 136.541 32.5844V10.8912C136.542 10.4807 136.462 10.074 136.305 9.69454C136.148 9.31505 135.918 8.97018 135.628 8.67965C135.338 8.38913 134.994 8.15864 134.614 8.00138C134.235 7.84413 133.829 7.76318 133.418 7.76318Z" fill="#EEEEEE"/>
<path d="M122.319 23.0961H82.4433C82.1475 23.0961 81.8639 22.9787 81.6547 22.7695C81.4456 22.5604 81.3281 22.2768 81.3281 21.981C81.3294 21.6861 81.4474 21.4037 81.6564 21.1955C81.8654 20.9874 82.1483 20.8706 82.4433 20.8706H122.319C122.614 20.8706 122.897 20.9874 123.106 21.1955C123.315 21.4037 123.433 21.6861 123.434 21.981C123.434 22.1275 123.405 22.2725 123.349 22.4078C123.293 22.5431 123.211 22.666 123.107 22.7695C123.004 22.8731 122.881 22.9552 122.746 23.0113C122.61 23.0673 122.465 23.0961 122.319 23.0961Z" fill="white"/>
<path d="M122.319 28.2182H82.4433C82.2968 28.2182 82.1518 28.1894 82.0165 28.1333C81.8812 28.0773 81.7583 27.9952 81.6547 27.8916C81.5512 27.7881 81.469 27.6651 81.413 27.5298C81.357 27.3945 81.3281 27.2495 81.3281 27.1031C81.3294 26.8081 81.4474 26.5257 81.6564 26.3176C81.8654 26.1095 82.1483 25.9927 82.4433 25.9927H122.319C122.614 25.9927 122.897 26.1095 123.106 26.3176C123.315 26.5257 123.433 26.8081 123.434 27.1031C123.434 27.2495 123.405 27.3945 123.349 27.5298C123.293 27.6651 123.211 27.7881 123.107 27.8916C123.004 27.9952 122.881 28.0773 122.746 28.1333C122.61 28.1894 122.465 28.2182 122.319 28.2182Z" fill="white"/>
<path d="M84.6688 17.9743C86.8818 17.9743 88.6757 16.1803 88.6757 13.9674C88.6757 11.7544 86.8818 9.96045 84.6688 9.96045C82.4558 9.96045 80.6619 11.7544 80.6619 13.9674C80.6619 16.1803 82.4558 17.9743 84.6688 17.9743Z" fill="white"/>
<path d="M133.414 45.5879H77.9169C76.1893 45.5879 74.7888 46.9884 74.7888 48.7159V70.4091C74.7888 72.1367 76.1893 73.5371 77.9169 73.5371H133.414C135.141 73.5371 136.542 72.1367 136.542 70.4091V48.7159C136.542 46.9884 135.141 45.5879 133.414 45.5879Z" fill="#EEEEEE"/>
<path d="M74.7888 68.6182V78.7111L80.4165 72.2282" fill="#EEEEEE"/>
<path d="M133.418 45.5879H77.9024C77.074 45.5879 76.2796 45.917 75.6939 46.5027C75.1081 47.0884 74.7791 47.8829 74.7791 48.7112V78.7112L79.2774 73.5135H133.418C134.246 73.5135 135.041 73.1844 135.627 72.5987C136.212 72.013 136.541 71.2185 136.541 70.3902V48.7112C136.541 47.8829 136.212 47.0884 135.627 46.5027C135.041 45.917 134.246 45.5879 133.418 45.5879Z" fill="#EEEEEE"/>
<path opacity="0.1" d="M133.418 45.5879H77.9024C77.074 45.5879 76.2796 45.917 75.6939 46.5027C75.1081 47.0884 74.7791 47.8829 74.7791 48.7112V78.7112L79.2774 73.5135H133.418C134.246 73.5135 135.041 73.1844 135.627 72.5987C136.212 72.013 136.541 71.2185 136.541 70.3902V48.7112C136.541 47.8829 136.212 47.0884 135.627 46.5027C135.041 45.917 134.246 45.5879 133.418 45.5879Z" fill="#EEEEEE"/>
<path d="M122.319 60.9165H82.4433C82.1483 60.9165 81.8654 60.7996 81.6564 60.5915C81.4474 60.3834 81.3294 60.101 81.3281 59.8061C81.3281 59.5103 81.4456 59.2267 81.6547 59.0175C81.8639 58.8084 82.1475 58.6909 82.4433 58.6909H122.319C122.465 58.6909 122.61 58.7198 122.746 58.7758C122.881 58.8318 123.004 58.914 123.107 59.0175C123.211 59.1211 123.293 59.244 123.349 59.3793C123.405 59.5146 123.434 59.6596 123.434 59.8061C123.433 60.101 123.315 60.3834 123.106 60.5915C122.897 60.7996 122.614 60.9165 122.319 60.9165Z" fill="white"/>
<path d="M122.319 66.0385H82.4433C82.1483 66.0385 81.8654 65.9217 81.6564 65.7136C81.4474 65.5055 81.3294 65.2231 81.3281 64.9281C81.3281 64.6324 81.4456 64.3487 81.6547 64.1396C81.8639 63.9305 82.1475 63.813 82.4433 63.813H122.319C122.465 63.813 122.61 63.8418 122.746 63.8979C122.881 63.9539 123.004 64.0361 123.107 64.1396C123.211 64.2432 123.293 64.3661 123.349 64.5014C123.405 64.6367 123.434 64.7817 123.434 64.9281C123.433 65.2231 123.315 65.5055 123.106 65.7136C122.897 65.9217 122.614 66.0385 122.319 66.0385Z" fill="white"/>
<path d="M84.6688 55.7941C86.8818 55.7941 88.6757 54.0002 88.6757 51.7872C88.6757 49.5742 86.8818 47.7803 84.6688 47.7803C82.4558 47.7803 80.6619 49.5742 80.6619 51.7872C80.6619 54.0002 82.4558 55.7941 84.6688 55.7941Z" fill="white"/>
<path d="M31.9033 100.967C31.8608 100.967 31.6718 98.004 31.6813 97.815C31.7899 95.6273 33.2925 91.4597 35.6693 90.8266C36.066 90.7317 36.4783 90.7216 36.8792 90.7969C37.2802 90.8722 37.6607 91.0312 37.996 91.2635C38.3313 91.4958 38.6139 91.7962 38.8252 92.1451C39.0366 92.494 39.172 92.8836 39.2226 93.2884C39.4966 94.9989 38.3815 96.8228 37.2522 98.0135C35.9197 99.3932 31.9033 100.967 31.9033 100.967Z" fill="#777777"/>
<path d="M28.8035 89.5508C28.761 89.5508 29.0209 86.5929 29.0587 86.4039C29.5028 84.2586 31.6197 80.3651 34.0579 80.1005C34.4645 80.0672 34.8736 80.1199 35.2585 80.2552C35.6435 80.3904 35.9956 80.6052 36.292 80.8856C36.5884 81.166 36.8225 81.5056 36.9789 81.8824C37.1354 82.2592 37.2108 82.6648 37.2001 83.0726C37.2001 84.8068 35.8345 86.4417 34.5398 87.4387C33.0136 88.6105 28.8035 89.5508 28.8035 89.5508Z" fill="#777777"/>
<path d="M28.0193 76.0792C27.9767 76.0792 28.2413 73.1212 28.2791 72.9322C28.7186 70.787 30.8354 66.8935 33.2783 66.6289C33.6848 66.5955 34.0937 66.6482 34.4784 66.7835C34.8631 66.9188 35.2149 67.1337 35.511 67.4141C35.807 67.6946 36.0406 68.0343 36.1965 68.4111C36.3524 68.7879 36.4272 69.1933 36.4158 69.601C36.4158 71.3351 35.055 72.9653 33.7556 73.967C32.2294 75.1389 28.024 76.0792 28.0193 76.0792Z" fill="#777777"/>
<path d="M26.6631 63.4018C26.6205 63.4018 26.8851 60.4392 26.9229 60.2549C27.3624 58.105 29.4792 54.2162 31.9222 53.9468C32.3288 53.9142 32.7378 53.9675 33.1225 54.1034C33.5072 54.2392 33.859 54.4546 34.1549 54.7354C34.4509 55.0162 34.6844 55.3562 34.8403 55.7332C34.9962 56.1102 35.0709 56.5158 35.0596 56.9237C35.0596 58.6531 33.6988 60.288 32.3994 61.285C30.8732 62.4568 26.6678 63.4018 26.6631 63.4018Z" fill="#777777"/>
<path d="M22.6181 53.2283C22.5803 53.2283 22.0511 50.3128 22.0369 50.1238C21.8952 47.9361 22.9111 43.622 25.1933 42.7243C25.5765 42.5844 25.9849 42.5269 26.3919 42.5555C26.7988 42.5841 27.1951 42.6983 27.555 42.8905C27.9148 43.0826 28.2301 43.3485 28.4802 43.6708C28.7303 43.9931 28.9097 44.3645 29.0065 44.7608C29.479 46.4288 28.5812 48.3661 27.589 49.6702C26.436 51.2059 22.6181 53.2283 22.6181 53.2283Z" fill="#777777"/>
<path d="M30.6514 101C30.6987 101 29.4087 98.3018 29.3048 98.1411C28.1377 96.2889 24.7875 93.3876 22.4108 93.9972C22.0189 94.1091 21.6551 94.3023 21.3429 94.5643C21.0307 94.8262 20.7772 95.151 20.5989 95.5174C20.4206 95.8838 20.3214 96.2837 20.308 96.691C20.2945 97.0983 20.367 97.5039 20.5207 97.8813C21.1161 99.5114 22.9778 100.556 24.5466 101.033C26.3988 101.595 30.6514 101 30.6514 101Z" fill="#777777"/>
<path d="M28.1703 88.0245C28.2176 88.0245 26.5307 85.5485 26.4079 85.4067C24.9903 83.7482 21.2102 81.3904 18.9657 82.3496C18.5943 82.519 18.2629 82.7649 17.993 83.0712C17.7231 83.3775 17.5209 83.7372 17.3996 84.127C17.2783 84.5168 17.2406 84.9278 17.289 85.3332C17.3374 85.7385 17.4708 86.1291 17.6805 86.4793C18.5121 87.9961 20.5156 88.7474 22.1363 88.9837C24.0358 89.2577 28.1703 88.0245 28.1703 88.0245Z" fill="#777777"/>
<path d="M27.457 75.3137C27.4996 75.3137 25.8174 72.8377 25.6946 72.6959C24.277 71.0374 20.4969 68.6796 18.2477 69.6435C17.8723 69.8117 17.5369 70.0578 17.2637 70.3653C16.9905 70.6729 16.7857 71.035 16.6628 71.4276C16.54 71.8202 16.5019 72.2345 16.5511 72.6429C16.6004 73.0513 16.7357 73.4447 16.9483 73.7969C17.7847 75.3137 19.7834 76.065 21.4088 76.2965C23.3225 76.5516 27.457 75.3184 27.457 75.3137Z" fill="#777777"/>
<path d="M26.2331 63.6519C26.2803 63.6519 24.5935 61.1759 24.4706 61.0342C23.0531 59.3756 19.2729 57.0178 17.0285 57.977C16.6571 58.1464 16.3256 58.3923 16.0557 58.6986C15.7859 59.0049 15.5837 59.3647 15.4623 59.7545C15.341 60.1443 15.3034 60.5553 15.3518 60.9606C15.4002 61.366 15.5336 61.7565 15.7433 62.1068C16.5749 63.6283 18.5783 64.3748 20.1991 64.6111C22.0986 64.8852 26.2331 63.6519 26.2331 63.6519Z" fill="#777777"/>
<path d="M22.6466 53.6112C22.6891 53.6112 20.7565 51.3336 20.6053 51.2013C18.9988 49.7129 15.0108 47.7803 12.8703 48.9852C12.5188 49.1945 12.2156 49.4757 11.9805 49.8104C11.7454 50.1451 11.5838 50.5257 11.5061 50.9273C11.4285 51.3289 11.4366 51.7423 11.53 52.1405C11.6234 52.5387 11.8 52.9127 12.0481 53.2379C13.0451 54.6554 15.1147 55.1846 16.7732 55.2366C18.6727 55.2933 22.6466 53.6159 22.6466 53.6112Z" fill="#777777"/>
<path d="M17.4916 45.314C17.5341 45.314 16.8537 42.4128 16.7923 42.2332C16.0504 40.1683 13.4044 36.6197 10.9473 36.7001C10.54 36.7248 10.1426 36.835 9.78074 37.0235C9.41891 37.2121 9.10083 37.4747 8.84721 37.7943C8.59359 38.1139 8.41011 38.4833 8.30871 38.8785C8.20731 39.2737 8.19026 39.6858 8.25868 40.088C8.49494 41.808 10.0873 43.2255 11.5143 44.0288C13.1917 44.9738 17.4869 45.314 17.4916 45.314Z" fill="#777777"/>
<path d="M36.0332 116.276C36.0332 116.276 35.5277 115.119 34.7338 113.091C33.94 111.064 32.8438 108.14 31.6814 104.586C31.1002 102.81 30.5096 100.872 29.9331 98.8074C29.6401 97.7678 29.3755 96.7236 29.0873 95.6037C28.9644 95.0556 28.8463 94.5028 28.7234 93.9452C28.6006 93.3876 28.5155 92.797 28.4116 92.2158C28.0386 89.8321 27.7973 87.4296 27.6886 85.0194C27.5705 82.567 27.5233 80.0863 27.4618 77.6056C27.4004 75.1249 27.339 72.6537 27.1405 70.2344C26.9674 67.8651 26.628 65.5109 26.1246 63.1892C25.6176 61.027 24.9187 58.9143 24.0361 56.8764C23.2479 55.0428 22.3533 53.2568 21.3569 51.5275C20.445 49.9068 19.5094 48.4845 18.6731 47.2276C17.8367 45.9708 17.0523 44.9123 16.3955 44.0476C15.0819 42.3182 14.2598 41.3921 14.2598 41.3921C14.2598 41.3921 15.1008 42.304 16.457 44.0004C17.1279 44.8556 17.9312 45.8904 18.8195 47.1379C19.7079 48.3853 20.6529 49.784 21.6026 51.3905C22.6499 53.1092 23.5965 54.8873 24.4377 56.7157C25.3802 58.7586 26.1408 60.8805 26.7105 63.0569C27.2714 65.3888 27.6677 67.7572 27.8965 70.1446C28.147 72.5875 28.2746 75.0729 28.3691 77.5536C28.4636 80.0344 28.5817 82.5056 28.7518 84.9296C28.911 87.2934 29.1981 89.6468 29.6118 91.9795C29.7299 92.5418 29.8008 93.0899 29.9473 93.6475C30.0937 94.2051 30.2166 94.7532 30.3489 95.2966C30.6419 96.3314 30.9395 97.4087 31.2514 98.4152C31.8609 100.442 32.4894 102.346 33.1037 104.085C34.3227 107.582 35.4662 110.445 36.3026 112.439C37.1389 114.433 37.654 115.539 37.654 115.539C37.7319 115.743 37.7295 115.97 37.6472 116.172C37.565 116.375 37.409 116.539 37.2108 116.631C37.0125 116.723 36.7866 116.737 36.5787 116.669C36.3707 116.602 36.1961 116.458 36.0899 116.267L36.0332 116.276Z" fill="#777777"/>
<path d="M47.1606 97.9613C47.1181 97.9613 47.7844 95.0553 47.8458 94.8757C48.5735 92.8108 51.2006 89.2433 53.653 89.3095C54.0603 89.3313 54.4583 89.4387 54.8213 89.6248C55.1842 89.8108 55.5039 90.0713 55.7594 90.3892C56.0148 90.7071 56.2004 91.0753 56.304 91.4698C56.4076 91.8642 56.4268 92.2761 56.3605 92.6785C56.1384 94.3985 54.5555 95.8302 53.1332 96.6429C51.4416 97.5974 47.189 97.9613 47.1606 97.9613Z" fill="#777777"/>
<path d="M47.4346 86.1393C47.392 86.1393 48.4883 83.3609 48.578 83.1955C49.6128 81.2582 52.7456 78.1302 55.1602 78.5696C55.5596 78.6531 55.9369 78.8198 56.2676 79.0589C56.5982 79.2979 56.8749 79.6039 57.0795 79.9569C57.2841 80.3099 57.412 80.7021 57.455 81.1079C57.498 81.5136 57.4551 81.9239 57.329 82.3119C56.8565 83.9799 55.0657 85.147 53.5489 85.7377C51.7392 86.4275 47.4393 86.1393 47.4346 86.1393Z" fill="#777777"/>
<path d="M50.4968 72.9983C50.4496 72.9983 51.5458 70.2199 51.6356 70.0546C52.6704 68.122 55.8079 64.9939 58.2225 65.4286C58.622 65.5126 58.9993 65.6799 59.3299 65.9194C59.6604 66.159 59.9368 66.4655 60.141 66.8191C60.3452 67.1726 60.4726 67.5651 60.5149 67.9712C60.5572 68.3772 60.5135 68.7877 60.3866 69.1757C59.9141 70.8389 58.1232 72.0108 56.6065 72.6014C54.8204 73.2913 50.4968 72.9983 50.4968 72.9983Z" fill="#777777"/>
<path d="M52.8167 60.4627C52.7694 60.4627 53.8657 57.689 53.9554 57.5189C54.9902 55.5864 58.1277 52.4583 60.5423 52.8977C60.9416 52.9812 61.3189 53.1478 61.6494 53.3869C61.98 53.626 62.2564 53.9322 62.4606 54.2853C62.6648 54.6385 62.7923 55.0307 62.8346 55.4365C62.877 55.8422 62.8333 56.2523 62.7064 56.6401C62.2339 58.308 60.4431 59.4751 58.9263 60.0658C57.1118 60.7557 52.8167 60.4627 52.8167 60.4627Z" fill="#777777"/>
<path d="M51.8384 49.5525C51.7912 49.5525 52.1172 46.5993 52.1597 46.415C52.6322 44.2745 54.8436 40.4283 57.2912 40.2156C57.6983 40.1913 58.1059 40.2529 58.4876 40.3965C58.8693 40.5401 59.2165 40.7624 59.5067 41.0489C59.7968 41.3355 60.0234 41.6799 60.1717 42.0598C60.3199 42.4397 60.3866 42.8466 60.3673 43.2539C60.3673 44.988 58.9498 46.5899 57.6173 47.5585C56.0674 48.6973 51.8384 49.5525 51.8384 49.5525Z" fill="#777777"/>
<path d="M45.9699 97.6403C46.0124 97.6403 45.5399 94.7013 45.4973 94.5217C44.9067 92.4096 42.5205 88.6767 40.0681 88.5822C39.6599 88.5776 39.2552 88.6591 38.8805 88.8213C38.5058 88.9836 38.1696 89.223 37.8936 89.5239C37.6177 89.8249 37.4082 90.1806 37.2789 90.5679C37.1496 90.9551 37.1034 91.3653 37.1433 91.7717C37.252 93.5011 38.7404 95.032 40.1059 95.9345C41.703 96.9977 45.9651 97.6403 45.9699 97.6403Z" fill="#777777"/>
<path d="M47.2647 84.4946C47.312 84.4946 46.3953 81.6595 46.3197 81.4799C45.4125 79.4812 42.4876 76.1547 40.0494 76.4335C39.6454 76.4911 39.258 76.6332 38.9126 76.8505C38.5672 77.0678 38.2714 77.3555 38.0445 77.6947C37.8176 78.0339 37.6647 78.4171 37.5957 78.8194C37.5268 79.2216 37.5433 79.6339 37.6443 80.0293C38.0129 81.7209 39.7187 83.0109 41.2023 83.696C42.9365 84.504 47.26 84.4946 47.2647 84.4946Z" fill="#777777"/>
<path d="M50.1941 72.1056C50.2367 72.1056 49.3247 69.2705 49.2491 69.0909C48.3466 67.0969 45.4217 63.7704 42.9836 64.0492C42.5781 64.106 42.1892 64.248 41.8424 64.4656C41.4956 64.6832 41.1987 64.9717 40.9712 65.3121C40.7437 65.6525 40.5907 66.0372 40.5222 66.4408C40.4537 66.8445 40.4712 67.2581 40.5737 67.6545C40.947 69.3508 42.6481 70.636 44.1365 71.3212C45.8801 72.115 50.1894 72.1056 50.1941 72.1056Z" fill="#777777"/>
<path d="M52.3348 60.5665C52.382 60.5665 51.4653 57.7314 51.3897 57.5519C50.4825 55.5579 47.5624 52.2266 45.1195 52.5102C44.7156 52.5672 44.3284 52.7087 43.9829 52.9256C43.6375 53.1424 43.3417 53.4296 43.1147 53.7684C42.8878 54.1073 42.7348 54.4902 42.6658 54.8922C42.5968 55.2941 42.6134 55.7061 42.7144 56.1013C43.0829 57.7976 44.7887 59.0828 46.2771 59.768C48.0207 60.5665 52.3348 60.5665 52.3348 60.5665Z" fill="#777777"/>
<path d="M51.7489 49.9304C51.7962 49.9304 50.5771 47.204 50.4779 47.0386C49.358 45.1486 46.0882 42.167 43.6926 42.7151C43.2972 42.8163 42.9277 42.9998 42.6081 43.2536C42.2885 43.5073 42.0261 43.8257 41.8379 44.1878C41.6497 44.5499 41.54 44.9476 41.516 45.355C41.492 45.7624 41.5542 46.1702 41.6986 46.5519C42.2514 48.1916 44.0848 49.2831 45.6393 49.8028C47.4632 50.4124 51.7489 49.9304 51.7489 49.9304Z" fill="#777777"/>
<path d="M49.169 40.5083C49.2068 40.5083 49.3816 37.5456 49.3675 37.3566C49.2446 35.1641 47.7184 31.006 45.3416 30.387C44.9442 30.2952 44.5318 30.2882 44.1314 30.3663C43.731 30.4444 43.3516 30.6059 43.0177 30.8403C42.6839 31.0748 42.4031 31.3769 42.1938 31.727C41.9844 32.0771 41.8511 32.4674 41.8025 32.8724C41.5379 34.5877 42.6625 36.4021 43.8012 37.5976C45.1385 38.9584 49.1643 40.5036 49.169 40.5083Z" fill="#777777"/>
<path d="M46.7734 113.814C46.7734 113.814 46.6127 112.562 46.4284 110.388C46.2441 108.215 46.0221 105.106 45.9228 101.368C45.8709 99.4781 45.852 97.4747 45.8898 95.3295C45.8898 94.2521 45.9465 93.1748 45.989 92.0219C46.0268 91.4643 46.0693 90.8973 46.1071 90.3302C46.1449 89.7632 46.2394 89.1679 46.3008 88.5819C46.6248 86.1966 47.0775 83.8306 47.657 81.4942C48.2382 79.108 48.8997 76.7124 49.547 74.3214C50.1944 71.9305 50.8323 69.5396 51.3331 67.1581C51.8403 64.8384 52.183 62.4857 52.3585 60.1177C52.4801 57.8992 52.4042 55.6744 52.1317 53.4694C51.8983 51.4864 51.548 49.5188 51.0827 47.5771C50.6669 45.7627 50.1802 44.1325 49.736 42.6913C49.2919 41.2501 48.8335 40.0074 48.4555 38.9962C47.6853 36.9644 47.1608 35.8398 47.1608 35.8398C47.1608 35.8398 47.7089 36.955 48.5217 38.9679C48.928 39.9743 49.3958 41.2076 49.8872 42.6393C50.3786 44.0711 50.889 45.7012 51.3426 47.511C51.8527 49.455 52.2488 51.4271 52.5286 53.4174C52.8538 55.6446 52.9803 57.8964 52.9066 60.146C52.7803 62.5484 52.4851 64.9389 52.023 67.2999C51.5505 69.7097 50.9835 72.129 50.3834 74.5388C49.7833 76.9486 49.1785 79.349 48.654 81.721C48.1331 84.032 47.7387 86.3697 47.4727 88.7237C47.4254 89.2954 47.3404 89.8388 47.3215 90.4153C47.3026 90.9918 47.2648 91.5541 47.2364 92.1116C47.2364 93.189 47.2033 94.3041 47.2364 95.3578C47.2364 97.4794 47.3073 99.4828 47.4018 101.33C47.5766 105.03 47.8743 108.106 48.0964 110.247C48.3185 112.387 48.5075 113.606 48.5075 113.606C48.5239 113.718 48.5182 113.832 48.4905 113.942C48.4628 114.052 48.4138 114.155 48.3462 114.246C48.2787 114.337 48.1939 114.414 48.0967 114.472C47.9995 114.53 47.8918 114.568 47.7798 114.584C47.6678 114.601 47.5537 114.595 47.4439 114.567C47.3341 114.54 47.2309 114.491 47.1401 114.423C47.0492 114.356 46.9726 114.271 46.9145 114.174C46.8565 114.076 46.8181 113.969 46.8017 113.857V113.833L46.7734 113.814Z" fill="#777777"/>
<path d="M52.2545 145.057H32.2483L26.6206 112.293H57.8822L52.2545 145.057Z" fill="#777777"/>
<path d="M87.4942 148.157C111.521 148.157 130.999 128.679 130.999 104.652C130.999 80.6255 111.521 61.1479 87.4942 61.1479C63.4673 61.1479 43.9897 80.6255 43.9897 104.652C43.9897 128.679 63.4673 148.157 87.4942 148.157Z" fill="#EEEEEE"/>
<path d="M87.4943 148.374C78.8469 148.374 70.3938 145.81 63.2037 141.006C56.0137 136.202 50.4098 129.373 47.1006 121.384C43.7914 113.395 42.9256 104.604 44.6126 96.1228C46.2996 87.6416 50.4637 79.8511 56.5783 73.7365C62.6929 67.6219 70.4834 63.4578 78.9646 61.7708C87.4458 60.0838 96.2368 60.9496 104.226 64.2588C112.215 67.568 119.043 73.1719 123.848 80.3619C128.652 87.552 131.216 96.0051 131.216 104.652C131.202 116.244 126.591 127.357 118.395 135.553C110.199 143.75 99.0858 148.36 87.4943 148.374ZM87.4943 61.3607C78.932 61.3607 70.5619 63.8997 63.4426 68.6567C56.3233 73.4136 50.7745 80.1749 47.4979 88.0854C44.2212 95.996 43.3639 104.7 45.0343 113.098C46.7047 121.496 50.8279 129.21 56.8823 135.264C62.9368 141.319 70.6507 145.442 79.0485 147.112C87.4462 148.783 96.1508 147.926 104.061 144.649C111.972 141.372 118.733 135.823 123.49 128.704C128.247 121.585 130.786 113.215 130.786 104.652C130.775 93.1742 126.21 82.1693 118.094 74.053C109.977 65.9366 98.9725 61.3719 87.4943 61.3607Z" fill="#777777"/>
<path d="M75.9699 133.263C72.2896 131.905 68.9165 129.829 66.0471 127.154C63.1524 124.371 60.9095 120.983 59.4791 117.231C57.8571 113.024 57.0537 108.546 57.1118 104.038C57.0808 100.189 57.76 96.367 59.1153 92.7641C60.3406 89.4591 62.1759 86.4137 64.5256 83.7863C69.169 78.6948 75.1736 75.0399 81.8291 73.2539C85.0946 72.378 88.4607 71.9332 91.8417 71.9309C94.647 71.9206 97.443 72.2539 100.167 72.9232C102.8 73.5748 105.32 74.6181 107.643 76.0182C109.938 77.3999 111.995 79.144 113.733 81.1827C115.552 83.3733 116.939 85.889 117.821 88.5965C118.841 91.6788 119.344 94.9088 119.309 98.1555C119.274 104.402 117.037 110.435 112.991 115.194C111.243 117.191 109.165 118.874 106.849 120.17C104.855 121.326 102.599 121.954 100.295 121.994C98.7133 122.013 97.1687 121.515 95.8958 120.576C95.2532 120.104 94.73 119.488 94.3682 118.778C94.0063 118.067 93.8159 117.282 93.8121 116.484C91.1156 120.283 87.4678 122.183 82.8686 122.183C79.1231 122.183 76.1306 120.902 73.8908 118.341C71.6511 115.78 70.536 112.63 70.5454 108.891C70.5556 106.046 71.051 103.224 72.0102 100.546C72.9488 97.8388 74.2935 95.2896 75.9983 92.9861C77.6903 90.7147 79.8513 88.834 82.3347 87.4719C84.8112 86.073 87.6082 85.3403 90.4525 85.3456C92.4286 85.3255 94.3782 85.8015 96.1227 86.7301C97.8225 87.6317 99.2009 89.0382 100.068 90.7559L100.437 89.5557C100.605 89.0515 100.89 88.5943 101.269 88.2213C101.648 87.8484 102.11 87.5701 102.616 87.4094C103.123 87.2486 103.66 87.2099 104.185 87.2963C104.709 87.3827 105.206 87.5918 105.634 87.9066C105.908 88.1297 106.125 88.4142 106.268 88.7368C106.41 89.0594 106.475 89.4112 106.457 89.7636C106.457 90.1013 106.401 90.4366 106.291 90.7559L100.427 110.247C99.7657 112.477 99.435 114.007 99.435 114.835C99.435 116.24 100.152 116.941 101.585 116.938C103.456 116.938 105.294 116.078 107.099 114.358C109.044 112.418 110.545 110.078 111.498 107.502C112.621 104.683 113.195 101.676 113.19 98.6421C113.217 95.9691 112.827 93.3082 112.032 90.7559C111.373 88.555 110.322 86.4915 108.928 84.6652C107.605 83.0012 106.006 81.5757 104.203 80.4503C102.402 79.3163 100.437 78.4668 98.3765 77.9318C96.266 77.3817 94.0937 77.1038 91.9125 77.1049C89.1393 77.1084 86.3801 77.498 83.7144 78.2626C80.9776 79.0458 78.3689 80.222 75.9699 81.7545C73.5506 83.2822 71.3599 85.1451 69.4634 87.2876C67.5073 89.5436 65.9825 92.1399 64.965 94.9471C63.8335 98.0076 63.2668 101.248 63.2923 104.511C63.231 108.376 63.9326 112.215 65.3572 115.809C66.5731 118.925 68.504 121.712 70.9943 123.945C73.3951 126.034 76.1684 127.652 79.1688 128.713C82.3317 129.833 85.6656 130.392 89.0208 130.367C92.6073 130.373 96.1737 129.83 99.5956 128.756C99.9409 128.639 100.304 128.583 100.668 128.59C101.015 128.576 101.36 128.637 101.681 128.769C102.001 128.901 102.289 129.101 102.525 129.356C102.978 129.826 103.231 130.455 103.229 131.109C103.274 131.634 103.127 132.159 102.815 132.584C102.503 133.01 102.048 133.308 101.533 133.424C97.2624 134.731 92.8251 135.412 88.3592 135.446C84.1311 135.478 79.9326 134.738 75.9699 133.263ZM90.9014 114.514C92.683 113.228 94.0074 111.407 94.6815 109.316L98.4616 96.0197L98.2112 95.481C97.9708 95.0428 97.6806 94.6337 97.3465 94.2619C96.8946 93.7428 96.4033 93.2594 95.8769 92.816C95.2007 92.2716 94.4326 91.8523 93.6089 91.5781C91.4696 90.8208 89.1229 90.9019 87.0409 91.8049C85.909 92.2927 84.8687 92.9703 83.9648 93.8083C83.0215 94.687 82.1828 95.6716 81.4652 96.7426C80.7161 97.8514 80.0828 99.0342 79.5752 100.272C79.0666 101.506 78.6728 102.784 78.3986 104.09C78.128 105.332 77.9886 106.599 77.9828 107.87C77.9778 108.685 78.0267 109.5 78.1293 110.309C78.2171 111.025 78.3754 111.731 78.6018 112.416C78.8018 113.036 79.0864 113.626 79.4476 114.169C79.781 114.671 80.2 115.111 80.6856 115.468C81.2023 115.846 81.7836 116.126 82.4008 116.295C83.1267 116.497 83.8777 116.594 84.6311 116.584C86.8928 116.608 89.0985 115.88 90.9014 114.514Z" fill="#777777"/>
<path d="M146.658 68.0654C146.658 68.0654 145.241 70.7021 145.033 71.0706C144.825 71.4392 144.064 73.4332 144.291 73.9057C144.518 74.3782 144.735 74.6476 145.184 74.7232C145.633 74.7988 146.001 75.6162 146.743 75.7627C147.21 75.8552 147.685 75.9058 148.161 75.9139C148.277 75.9997 148.412 76.0575 148.555 76.0829C148.697 76.1083 148.844 76.1006 148.983 76.0604C149.427 75.9139 149.8 75.6918 150.098 74.4255C150.28 73.7983 150.33 73.1403 150.244 72.4929L150.112 69.9366L146.658 68.0654Z" fill="white"/>
<path d="M148.718 76.3344C148.494 76.3314 148.274 76.266 148.085 76.1454C147.618 76.1328 147.154 76.0806 146.696 75.9895C146.271 75.8738 145.891 75.6335 145.604 75.2996C145.477 75.1472 145.315 75.0274 145.132 74.95C144.889 74.8958 144.664 74.7805 144.478 74.6152C144.292 74.4498 144.151 74.2398 144.069 74.005C143.762 73.3954 144.655 71.2266 144.82 70.9525C145.037 70.5887 146.427 67.9804 146.441 67.952C146.472 67.8975 146.522 67.857 146.582 67.8386C146.64 67.8155 146.704 67.8155 146.762 67.8386L150.211 69.7051C150.247 69.7254 150.276 69.7541 150.298 69.7888C150.319 69.8234 150.332 69.8629 150.334 69.9035L150.467 72.4551C150.553 73.125 150.5 73.8055 150.311 74.4539C150.018 75.7155 149.635 76.0651 149.04 76.2636C148.937 76.304 148.828 76.3279 148.718 76.3344ZM146.757 68.3868C146.417 69.0199 145.425 70.8769 145.236 71.1935C144.976 71.6235 144.352 73.4994 144.499 73.7923C144.735 74.2648 144.914 74.4349 145.222 74.4869C145.501 74.5696 145.75 74.7342 145.935 74.9594C146.158 75.2284 146.456 75.4257 146.79 75.5265C147.241 75.6136 147.697 75.6626 148.156 75.6729C148.211 75.6729 148.264 75.6912 148.307 75.7249C148.392 75.7865 148.489 75.8282 148.592 75.847C148.695 75.8658 148.801 75.8612 148.902 75.8336C149.229 75.7249 149.569 75.6115 149.848 74.3688C150.019 73.7737 150.069 73.1502 149.994 72.5354L149.866 70.0784L146.757 68.3868Z" fill="#777777"/>
<path d="M154.851 139.061C154.851 139.061 152.834 142.345 152.834 143.139C152.834 143.933 155.612 145.393 156.803 145.922C157.994 146.451 160.11 146.867 161.83 147.113C163.55 147.358 167.123 148.058 166.083 146.716C165.044 145.374 158.655 141.839 158.391 141.419C158.063 141.026 157.695 140.668 157.294 140.351L154.851 139.061Z" fill="white"/>
<path d="M165.223 147.746C164.214 147.705 163.21 147.593 162.218 147.41L161.792 147.344C159.392 146.976 157.681 146.569 156.708 146.134C156.538 146.059 152.597 144.296 152.597 143.139C152.597 142.302 154.44 139.278 154.648 138.933C154.68 138.883 154.73 138.846 154.787 138.831C154.845 138.815 154.906 138.821 154.96 138.848L157.403 140.143C157.841 140.478 158.239 140.864 158.589 141.291C158.702 141.423 159.742 142.076 160.748 142.709C162.893 144.046 165.558 145.714 166.248 146.574C166.499 146.886 166.56 147.155 166.428 147.377C166.295 147.599 165.88 147.746 165.223 147.746ZM154.922 139.373C154.156 140.639 153.056 142.638 153.056 143.153C153.056 143.668 155.078 144.915 156.883 145.719C157.828 146.134 159.491 146.527 161.854 146.89L162.274 146.957C163.144 147.094 165.79 147.514 166.007 147.146C166.007 147.146 166.007 147.051 165.865 146.876C165.227 146.078 162.487 144.363 160.483 143.096C158.872 142.09 158.296 141.721 158.178 141.546C157.864 141.172 157.513 140.832 157.129 140.53L154.922 139.373Z" fill="#777777"/>
<path d="M158.013 144.235L158.721 145.294C159.484 146.45 160.519 147.401 161.736 148.062C163.626 149.083 166.537 150.25 169.079 149.551C173.247 148.403 162.757 142.076 162.757 142.076C162.757 142.076 159.019 144.675 158.013 144.235Z" fill="white"/>
<path d="M167.425 150C165.327 150 163.172 149.121 161.623 148.27C160.373 147.592 159.309 146.619 158.523 145.435L157.814 144.372C157.784 144.332 157.769 144.283 157.769 144.233C157.769 144.183 157.784 144.134 157.814 144.093C157.847 144.054 157.892 144.026 157.943 144.014C157.993 144.002 158.045 144.007 158.093 144.027C158.702 144.292 161.098 142.936 162.605 141.891C162.643 141.866 162.687 141.852 162.733 141.852C162.778 141.852 162.823 141.866 162.861 141.891C163.65 142.364 170.567 146.616 170.27 148.771C170.203 149.244 169.797 149.603 169.126 149.792C168.571 149.937 167.999 150.007 167.425 150ZM158.476 144.5L158.915 145.166C159.658 146.287 160.664 147.21 161.845 147.854C163.772 148.894 166.57 149.995 169.017 149.324C169.754 149.116 169.802 148.795 169.816 148.691C170.029 147.146 164.916 143.673 162.761 142.359C162.01 142.86 159.751 144.348 158.476 144.5Z" fill="#777777"/>
<path d="M159.212 144.736C160.361 146.473 162.1 147.733 164.108 148.284C167.533 149.263 168.516 149.017 169.249 148.039" fill="white"/>
<path d="M167.378 149.144C166.244 149.08 165.124 148.867 164.046 148.511C161.975 147.952 160.183 146.65 159.009 144.854C158.993 144.827 158.983 144.798 158.979 144.767C158.974 144.737 158.976 144.705 158.984 144.675C158.992 144.645 159.006 144.617 159.025 144.593C159.044 144.568 159.067 144.548 159.095 144.533C159.149 144.501 159.214 144.493 159.275 144.509C159.336 144.525 159.388 144.564 159.421 144.618C160.544 146.295 162.23 147.515 164.174 148.058C167.515 149.003 168.427 148.766 169.06 147.897C169.098 147.848 169.154 147.816 169.216 147.807C169.277 147.798 169.34 147.813 169.391 147.85C169.441 147.887 169.474 147.943 169.483 148.005C169.492 148.067 169.475 148.13 169.438 148.181C169.206 148.505 168.895 148.764 168.534 148.933C168.173 149.102 167.775 149.175 167.378 149.144Z" fill="#777777"/>
<path d="M153.094 142.534C153.094 142.534 156.874 145.242 158.721 145.294L153.094 142.534Z" fill="white"/>
<path d="M158.702 145.53C156.812 145.478 153.103 142.837 152.947 142.728C152.897 142.69 152.864 142.635 152.854 142.573C152.845 142.511 152.859 142.448 152.895 142.397C152.913 142.372 152.935 142.35 152.961 142.334C152.987 142.317 153.016 142.306 153.046 142.3C153.077 142.295 153.108 142.296 153.138 142.303C153.168 142.31 153.196 142.322 153.221 142.34C153.259 142.369 156.968 145.01 158.716 145.057C158.78 145.06 158.839 145.087 158.882 145.133C158.926 145.179 158.949 145.24 158.948 145.303C158.947 145.334 158.939 145.365 158.926 145.393C158.913 145.421 158.895 145.446 158.872 145.468C158.849 145.489 158.823 145.505 158.793 145.516C158.764 145.526 158.733 145.531 158.702 145.53Z" fill="#777777"/>
<path d="M144.886 68.9731C144.886 68.9731 148.241 74.5347 148.959 75.8246C149.677 77.1146 158.731 87.4674 162.322 96.379C165.913 105.291 169.367 113.333 169.22 115.922C169.074 118.512 157.285 140.351 157.285 140.351L154.842 139.061C154.842 139.061 158.575 118.507 158.149 116.352C157.724 114.198 144.527 92.7832 144.527 92.7832C144.527 92.7832 138.346 88.4738 135.762 83.4416" fill="#777777"/>
<path d="M145.363 82.8695C145.363 82.8695 143.497 86.8906 143.497 87.4671C143.497 88.0436 153.987 118.941 157.006 125.982C158.917 130.492 160.595 135.097 162.034 139.779C162.034 139.779 163.187 141.197 162.322 142.652C161.457 144.107 158.012 145.095 157.294 143.8C156.576 142.506 149.531 135.768 146.516 129.001C143.502 122.235 139.187 110.748 136.74 106.439C133.516 100.921 130.637 95.2081 128.121 89.3335C124.955 81.8631 121.7 73.7642 121.7 73.7642C125.967 74.1207 130.262 73.6392 134.344 72.3466C140.959 70.1919 143.795 66.0669 143.795 66.0669C143.795 66.0669 145.477 70.3668 145.907 71.1984" fill="#777777"/>
<path d="M146.351 95.0038C146.318 95.0033 146.287 94.9932 146.26 94.9747C146.233 94.9562 146.212 94.9302 146.2 94.8998L142.892 86.3001C142.881 86.2681 142.879 86.2335 142.888 86.2007C142.896 86.1679 142.914 86.1383 142.939 86.1158L146.644 82.9405C146.675 82.9113 146.717 82.895 146.76 82.895C146.803 82.895 146.844 82.9113 146.875 82.9405C146.904 82.9712 146.92 83.0117 146.92 83.0539C146.92 83.096 146.904 83.1366 146.875 83.1673L143.256 86.2717L146.521 94.777C146.537 94.8171 146.536 94.8618 146.519 94.9015C146.503 94.9413 146.471 94.9729 146.431 94.9896L146.351 95.0038Z" fill="white"/>
<path d="M143.039 86.3992C142.998 86.3996 142.96 86.3844 142.93 86.3567C142.914 86.3416 142.901 86.3234 142.892 86.303C142.883 86.2827 142.878 86.2607 142.878 86.2385C142.878 86.2149 142.878 83.6208 141.716 81.9859C141.428 81.5654 141.196 81.2346 141.002 80.9653C140.397 80.1053 140.213 79.8454 140.105 79.4154C140.03 78.9126 140.03 78.4015 140.105 77.8986C140.113 77.8569 140.136 77.8197 140.17 77.7943C140.204 77.769 140.247 77.7573 140.289 77.7616C140.31 77.7645 140.33 77.7716 140.349 77.7825C140.367 77.7933 140.383 77.8078 140.396 77.8249C140.409 77.8421 140.418 77.8616 140.423 77.8824C140.428 77.9032 140.429 77.9248 140.426 77.9459C140.359 78.4081 140.359 78.8776 140.426 79.3398C140.52 79.7084 140.681 79.9352 141.276 80.781C141.465 81.0503 141.702 81.3811 141.99 81.8016C143.039 83.3089 143.185 85.473 143.209 86.092L149.923 85.8322C149.966 85.832 150.007 85.848 150.039 85.8769C150.07 85.9058 150.09 85.9455 150.093 85.9881C150.095 86.0093 150.092 86.0306 150.084 86.0507C150.077 86.0707 150.066 86.089 150.051 86.1045C150.037 86.12 150.019 86.1323 149.999 86.1408C149.98 86.1492 149.959 86.1535 149.938 86.1535L143.058 86.4181L143.039 86.3992Z" fill="white"/>
<path d="M165.54 116.99C162.549 116.99 158.75 115.052 158.58 114.967C158.542 114.947 158.514 114.913 158.502 114.872C158.489 114.832 158.493 114.788 158.514 114.75C158.523 114.731 158.536 114.714 158.552 114.7C158.568 114.686 158.587 114.676 158.607 114.669C158.628 114.662 158.649 114.66 158.67 114.662C158.691 114.663 158.712 114.669 158.731 114.679C158.773 114.703 163.092 116.905 166.05 116.645C166.072 116.643 166.093 116.645 166.114 116.652C166.134 116.658 166.153 116.669 166.17 116.683C166.186 116.697 166.199 116.715 166.209 116.734C166.218 116.753 166.224 116.774 166.225 116.796C166.227 116.817 166.225 116.838 166.218 116.859C166.212 116.879 166.202 116.898 166.188 116.914C166.175 116.93 166.158 116.943 166.139 116.953C166.12 116.963 166.1 116.969 166.078 116.971C165.904 116.985 165.724 116.99 165.54 116.99Z" fill="white"/>
<path d="M165.138 119.485H165.1C162.449 118.819 159.473 116.38 159.345 116.276C159.316 116.246 159.3 116.205 159.3 116.163C159.3 116.121 159.316 116.08 159.345 116.05C159.358 116.033 159.375 116.019 159.393 116.009C159.412 115.999 159.432 115.993 159.454 115.991C159.475 115.988 159.496 115.99 159.516 115.996C159.537 116.003 159.555 116.013 159.572 116.026C159.6 116.05 162.62 118.526 165.2 119.168C165.22 119.174 165.239 119.183 165.256 119.196C165.273 119.209 165.287 119.225 165.298 119.244C165.308 119.262 165.315 119.283 165.318 119.304C165.32 119.325 165.319 119.346 165.313 119.367C165.304 119.405 165.281 119.438 165.249 119.46C165.216 119.482 165.177 119.491 165.138 119.485Z" fill="white"/>
<path d="M142.906 83.8853C142.881 83.8853 142.855 83.8794 142.832 83.8679C142.809 83.8564 142.789 83.8397 142.774 83.8192C142.761 83.8016 142.753 83.7817 142.748 83.7607C142.743 83.7397 142.743 83.7179 142.747 83.6968C142.751 83.6756 142.759 83.6555 142.771 83.6375C142.783 83.6196 142.798 83.6043 142.816 83.5924C143.454 83.1482 144.465 82.293 144.465 81.8724C144.465 81.5936 144.121 81.2629 143.752 80.9274C143.344 80.5867 143.007 80.1693 142.76 79.6989C142.519 79.1366 141.654 76.9299 141.815 76.3913C141.821 76.371 141.831 76.3523 141.845 76.3361C141.859 76.3199 141.876 76.3066 141.895 76.2969C141.913 76.2873 141.934 76.2814 141.955 76.2798C141.976 76.2781 141.998 76.2807 142.018 76.2873C142.059 76.3013 142.093 76.331 142.113 76.3699C142.132 76.4088 142.135 76.4538 142.122 76.4952C142.023 76.7834 142.538 78.3853 143.043 79.5571C143.274 79.9843 143.586 80.3629 143.96 80.6722C144.399 81.0928 144.777 81.4519 144.777 81.8677C144.777 82.5954 143.171 83.7247 142.987 83.8523C142.963 83.8701 142.935 83.8815 142.906 83.8853Z" fill="white"/>
<path d="M127.162 84.8115C127.128 84.8129 127.094 84.8034 127.066 84.7843C127.037 84.7652 127.016 84.7377 127.004 84.7055C126.993 84.6734 126.992 84.6384 127.001 84.6056C127.011 84.5729 127.031 84.544 127.058 84.5233L128.381 83.4649C129.652 82.4537 130.436 79.869 130.446 79.8407C130.459 79.7997 130.487 79.7654 130.525 79.7451C130.563 79.7249 130.608 79.7201 130.649 79.732C130.69 79.7451 130.724 79.7736 130.744 79.8116C130.765 79.8495 130.769 79.8938 130.758 79.9352C130.725 80.0439 129.931 82.6427 128.584 83.7153L127.261 84.7737C127.233 84.7976 127.198 84.8109 127.162 84.8115Z" fill="white"/>
<path d="M158.575 144.443C158.551 144.442 158.528 144.436 158.507 144.425C158.486 144.415 158.467 144.4 158.452 144.381C156.76 142.308 155.233 140.105 153.883 137.795C152.054 134.525 146.795 125.58 146.738 125.509C146.251 124.433 145.89 123.304 145.661 122.145C145.628 121.965 145.604 121.8 145.581 121.672C145.406 120.482 145.33 119.99 143.747 118.97C142.164 117.949 142.065 116.172 141.933 114.268C141.905 113.819 141.871 113.356 141.819 112.898C141.607 111.008 136.589 102.502 132.927 96.3219C132.095 94.9044 131.339 93.6381 130.725 92.5844C127.446 86.9425 125.178 79.524 125.154 79.4484C125.142 79.4071 125.147 79.3628 125.167 79.3248C125.187 79.2869 125.222 79.2583 125.263 79.2453C125.283 79.2388 125.304 79.2365 125.325 79.2385C125.346 79.2405 125.367 79.2468 125.385 79.257C125.404 79.2671 125.42 79.281 125.433 79.2976C125.446 79.3143 125.456 79.3335 125.461 79.3539C125.485 79.4295 127.743 86.8149 131.004 92.419C131.618 93.4727 132.374 94.7532 133.206 96.1566C136.886 102.37 141.923 110.885 142.141 112.86C142.193 113.332 142.226 113.805 142.259 114.249C142.386 116.139 142.495 117.784 143.922 118.7C145.628 119.796 145.713 120.368 145.902 121.62C145.902 121.776 145.949 121.937 145.978 122.117C146.202 123.241 146.554 124.337 147.027 125.382C147.069 125.462 152.333 134.407 154.166 137.667C155.508 139.959 157.024 142.144 158.702 144.202C158.716 144.218 158.726 144.237 158.732 144.257C158.738 144.278 158.74 144.299 158.738 144.32C158.736 144.341 158.729 144.362 158.719 144.38C158.709 144.399 158.695 144.415 158.679 144.429C158.647 144.445 158.61 144.45 158.575 144.443Z" fill="white"/>
<path d="M121.7 73.7643C121.7 73.7643 122.002 77.1097 123.325 78.1682C124.648 79.2266 128.617 80.1527 134.042 79.1132C139.466 78.0737 145.42 73.443 145.949 71.8365C146.478 70.2299 143.785 66.0718 143.785 66.0718C143.785 66.0718 140.657 70.5134 131.925 71.9688C123.193 73.4241 121.7 73.7643 121.7 73.7643Z" fill="white"/>
<path d="M129.444 79.7981C126.245 79.7981 124.053 79.0563 123.174 78.3522C121.789 77.2418 121.478 73.9295 121.463 73.7877C121.458 73.7314 121.474 73.6752 121.507 73.6292C121.54 73.5833 121.588 73.5506 121.643 73.5373C121.704 73.5373 123.245 73.1546 131.887 71.7134C140.392 70.2958 143.558 65.9582 143.591 65.9156C143.613 65.8851 143.643 65.8601 143.676 65.8429C143.71 65.8257 143.747 65.8166 143.785 65.8164C143.824 65.8173 143.862 65.8276 143.895 65.8466C143.929 65.8655 143.958 65.8925 143.979 65.9251C144.262 66.3598 146.719 70.2439 146.171 71.8929C145.59 73.6318 139.499 78.2672 134.084 79.3256C132.556 79.6317 131.002 79.7899 129.444 79.7981ZM121.959 73.9531C122.049 74.6808 122.432 77.1473 123.472 77.9837C124.653 78.9287 128.438 79.9493 133.994 78.8625C139.457 77.7947 145.254 73.1593 145.727 71.7417C146.1 70.6172 144.574 67.7773 143.761 66.4637C142.92 67.4702 139.546 70.9196 131.948 72.1812C124.946 73.353 122.593 73.7972 121.959 73.9531Z" fill="#777777"/>
<path d="M156.576 41.3356C154.417 39.9181 137.605 26.82 136.022 26.2435C134.439 25.667 131.296 26.2435 131.296 26.2435C131.296 26.2435 121.553 27.4342 119.512 28.2564C119.318 28.332 114.929 30.8553 114.787 30.9876C113.204 32.2822 106.282 35.467 104.42 39.4928C102.308 44.0479 120.868 71.4726 121.733 73.769C122.597 76.0655 127.129 76.6325 131.296 76.056C135.464 75.4795 139.121 74.6385 142.141 71.1844C142.688 70.4964 143.147 69.7423 143.506 68.9399C143.938 68.0434 144.048 67.0257 143.818 66.0576C142.741 61.5687 139.991 48.6265 138.176 40.0693C141.2 42.0208 147.49 45.9852 151.147 47.3838C156.033 49.2739 159.77 47.9603 159.77 46.3774C159.77 44.7944 158.731 42.7721 156.576 41.3356Z" fill="white"/>
<path d="M150.74 44.1282C147.86 43.8439 145.069 42.9637 142.547 41.5435C142.547 41.5435 146.285 39.8188 146.426 38.9541C146.568 38.0894 141.252 38.8124 141.971 38.5242C142.689 38.2359 143.695 37.5177 141.971 37.5177C140.596 37.4273 139.241 37.1376 137.949 36.6577L138.143 40.0551C139.788 41.1183 142.396 42.7673 145.014 44.2794C147.476 45.5738 150.011 46.724 152.607 47.724C152.607 47.724 155.768 44.7046 150.74 44.1282Z" fill="#EEEEEE"/>
<g style="mix-blend-mode:multiply">
<path d="M131.263 76.0511L131.797 75.9755C132.95 75.418 134.902 75.0683 136.801 74.5958C139.674 73.8776 136.513 73.8776 131.769 71.4347C127.025 68.9918 125.154 65.4007 120.845 60.2266C116.535 55.0526 114.811 52.4632 115.675 51.8915C116.54 51.3197 113.951 51.315 112.944 50.7385C111.938 50.1621 114.362 50.1668 116.393 48.1539C118.425 46.141 112.509 48.5839 111.938 48.4421C111.366 48.3004 112.509 46.4292 112.509 46.4292L108.342 50.7385L118.402 67.9853L118.978 68.4153L119.64 69.3603L121.53 73.424C121.605 73.5657 121.657 73.6838 121.69 73.7642C122.56 76.0653 127.096 76.6323 131.263 76.0511Z" fill="#EEEEEE"/>
</g>
<path d="M112.212 35.8685C115.392 35.396 124.256 40.4519 124.256 40.4519C119.385 37.1443 115.123 34.0446 112.207 32.646L106.835 36.4261L106.466 36.771C107.09 36.6482 109.481 36.256 112.212 35.8685Z" fill="#EEEEEE"/>
<path opacity="0.5" d="M150.74 44.1282C147.86 43.8439 145.069 42.9637 142.547 41.5435C142.547 41.5435 146.285 39.8188 146.426 38.9541C146.568 38.0894 141.252 38.8124 141.971 38.5242C142.689 38.2359 143.695 37.5177 141.971 37.5177C140.596 37.4273 139.241 37.1376 137.949 36.6577L138.143 40.0551C139.788 41.1183 142.396 42.7673 145.014 44.2794C147.476 45.5738 150.011 46.724 152.607 47.724C152.607 47.724 155.768 44.7046 150.74 44.1282Z" fill="white"/>
<path opacity="0.5" d="M131.263 76.0511L131.797 75.9755C132.95 75.418 134.902 75.0683 136.801 74.5958C139.674 73.8776 136.513 73.8776 131.769 71.4347C127.025 68.9918 125.154 65.4007 120.845 60.2266C116.535 55.0526 114.811 52.4632 115.675 51.8915C116.54 51.3197 113.951 51.315 112.944 50.7385C111.938 50.1621 114.362 50.1668 116.393 48.1539C118.425 46.141 112.509 48.5839 111.938 48.4421C111.366 48.3004 112.509 46.4292 112.509 46.4292L108.342 50.7385L118.402 67.9853L118.978 68.4153L119.64 69.3603L121.53 73.424C121.605 73.5657 121.657 73.6838 121.69 73.7642C122.56 76.0653 127.096 76.6323 131.263 76.0511Z" fill="white"/>
<path opacity="0.5" d="M112.212 35.8685C115.392 35.396 124.256 40.4519 124.256 40.4519C119.385 37.1443 115.123 34.0446 112.207 32.646L106.835 36.4261L106.466 36.771C107.09 36.6482 109.481 36.256 112.212 35.8685Z" fill="white"/>
<path d="M128.239 76.4999C125.055 76.4999 122.186 75.7391 121.478 73.8491C121.27 73.2915 119.871 71.014 118.099 68.1506C110.572 55.9408 102.667 42.6348 104.174 39.3886C105.592 36.3267 109.783 33.7987 112.557 32.126C113.263 31.7245 113.946 31.2827 114.603 30.803C114.773 30.666 119.172 28.1333 119.408 28.0388C121.459 27.2119 130.852 26.0589 131.254 26.0117C131.372 25.9881 134.481 25.4305 136.102 26.0117C137.151 26.3944 144.338 31.8331 150.112 36.2038C153.24 38.5664 155.938 40.6171 156.704 41.1274C159.113 42.734 159.973 44.8792 159.973 46.3534C159.956 46.6271 159.871 46.8921 159.726 47.1247C159.581 47.3573 159.38 47.5502 159.142 47.6859C157.748 48.631 154.7 48.9854 151.029 47.582C148.463 46.5992 144.135 44.1752 138.493 40.551C140.383 49.5524 142.977 61.6771 144.012 65.9864C144.255 67.0081 144.14 68.0825 143.686 69.0294C143.317 69.854 142.84 70.6262 142.268 71.3259C139.112 74.9311 135.27 75.725 131.282 76.2731C130.274 76.4184 129.258 76.4941 128.239 76.4999ZM134.099 26.2243C133.169 26.2383 132.242 26.3221 131.325 26.4748C131.211 26.4748 121.577 27.6702 119.583 28.4735C119.323 28.5916 115.113 31.0156 114.9 31.1715C114.228 31.6659 113.525 32.1188 112.798 32.5277C110.076 34.172 105.965 36.6574 104.604 39.6154C103.073 42.923 113.109 59.1822 118.501 67.9285C120.424 71.0471 121.695 73.1261 121.922 73.7073C122.758 75.9376 127.332 76.377 131.23 75.8384C135.129 75.2997 138.88 74.5295 141.928 71.0471C142.464 70.376 142.912 69.6392 143.261 68.8546C143.667 68.0076 143.77 67.0469 143.554 66.1329C142.495 61.7291 139.83 49.1838 137.912 40.1446C137.902 40.0984 137.907 40.0506 137.925 40.0069C137.942 39.9632 137.972 39.9257 138.011 39.8989C138.05 39.8735 138.095 39.86 138.141 39.86C138.187 39.86 138.232 39.8735 138.271 39.8989C144.121 43.679 148.591 46.1975 151.199 47.1898C154.686 48.527 157.625 48.2104 158.872 47.3505C159.044 47.2536 159.191 47.1174 159.3 46.9532C159.409 46.789 159.478 46.6013 159.501 46.4054C159.501 45.054 158.698 43.0742 156.444 41.5716C155.664 41.0518 152.961 39.0058 149.829 36.6338C144.38 32.5135 136.924 26.8669 135.941 26.5078C135.347 26.3135 134.724 26.2177 134.099 26.2243Z" fill="#777777"/>
<path d="M106.697 36.5488C106.697 36.5488 104.973 38.4389 104.302 39.313C100.701 43.939 89.2427 58.7617 89.1152 59.9572C88.9876 61.1527 89.531 61.9559 92.333 63.0333C95.135 64.1106 113.88 45.3282 113.88 45.3282" fill="white"/>
<g style="mix-blend-mode:multiply" opacity="0.8">
<path d="M106.726 36.6055L106.485 36.7614C106.135 37.1489 105.379 37.9947 104.793 38.6893L96.0894 50.1052C96.0894 50.1052 95.8201 50.4076 95.3948 50.9085C92.1298 55.2604 89.2852 59.187 89.1104 59.8863C89.1104 59.9099 89.1104 59.9335 89.1104 59.9524C88.997 61.0817 89.5451 61.9417 92.3329 63.0143C92.8291 63.2033 93.8119 62.7781 95.1019 61.9512C94.4465 61.8194 93.8205 61.5696 93.2543 61.214C91.6714 60.2076 92.9661 59.2011 92.9661 59.2011C92.9661 59.2011 95.0216 60.0233 97.0486 60.5761C97.4692 60.2596 97.9086 59.9193 98.3575 59.5602C97.9257 59.2774 97.5165 58.9614 97.1337 58.6152C95.409 57.037 93.9726 55.4541 93.9726 55.4541L107.146 37.0685L106.726 36.6055Z" fill="#EEEEEE"/>
</g>
<path opacity="0.5" d="M106.726 36.6055L106.485 36.7614C106.135 37.1489 105.379 37.9947 104.793 38.6893L96.0894 50.1052C96.0894 50.1052 95.8201 50.4076 95.3948 50.9085C92.1298 55.2604 89.2852 59.187 89.1104 59.8863C89.1104 59.9099 89.1104 59.9335 89.1104 59.9524C88.997 61.0817 89.5451 61.9417 92.3329 63.0143C92.8291 63.2033 93.8119 62.7781 95.1019 61.9512C94.4465 61.8194 93.8205 61.5696 93.2543 61.214C91.6714 60.2076 92.9661 59.2011 92.9661 59.2011C92.9661 59.2011 95.0216 60.0233 97.0486 60.5761C97.4692 60.2596 97.9086 59.9193 98.3575 59.5602C97.9257 59.2774 97.5165 58.9614 97.1337 58.6152C95.409 57.037 93.9726 55.4541 93.9726 55.4541L107.146 37.0685L106.726 36.6055Z" fill="white"/>
<path d="M92.5504 63.3076C92.4442 63.3089 92.3386 63.2913 92.2386 63.2556C89.6303 62.2492 88.7136 61.3656 88.8696 59.948C88.9971 58.7715 98.4711 46.4341 104.103 39.1857C104.774 38.3257 106.442 36.4877 106.513 36.4121C106.533 36.3869 106.558 36.3662 106.587 36.3512C106.615 36.3361 106.647 36.327 106.679 36.3245C106.711 36.3219 106.743 36.326 106.774 36.3363C106.804 36.3467 106.832 36.3632 106.856 36.3848C106.88 36.4065 106.899 36.4327 106.912 36.462C106.926 36.4913 106.933 36.5231 106.934 36.5553C106.934 36.5875 106.928 36.6194 106.916 36.6493C106.904 36.6791 106.886 36.7061 106.863 36.7286C106.863 36.7286 105.134 38.6187 104.477 39.4787C95.3761 51.1876 89.4318 59.244 89.3562 60C89.2476 61.0064 89.7154 61.7908 92.4276 62.8351C94.3791 63.5864 106.23 52.6855 113.719 45.1772C113.764 45.1327 113.824 45.1077 113.887 45.1077C113.95 45.1077 114.01 45.1327 114.055 45.1772C114.099 45.2217 114.124 45.282 114.124 45.3449C114.124 45.4079 114.099 45.4682 114.055 45.5127C112.179 47.3649 96.1699 63.3076 92.5504 63.3076Z" fill="#777777"/>
<path d="M144.626 35.689L138.143 40.055C139.088 39.9227 143.568 38.335 143.568 38.335" fill="white"/>
<path d="M138.143 40.2912C138.096 40.292 138.049 40.2778 138.01 40.2506C137.971 40.2235 137.942 40.1848 137.926 40.14C137.906 40.0909 137.904 40.0363 137.919 39.9856C137.934 39.9348 137.967 39.8909 138.011 39.8612L144.499 35.4952C144.524 35.4774 144.552 35.4649 144.583 35.4584C144.613 35.4518 144.644 35.4514 144.675 35.4571C144.705 35.4629 144.734 35.4746 144.76 35.4917C144.785 35.5088 144.807 35.5309 144.825 35.5566C144.859 35.6095 144.871 35.6737 144.859 35.7355C144.847 35.7974 144.811 35.8519 144.758 35.8874L139.443 39.4691C141.073 38.9682 143.459 38.1271 143.492 38.1129C143.555 38.0923 143.623 38.0973 143.682 38.127C143.741 38.1567 143.786 38.2086 143.806 38.2712C143.827 38.3339 143.822 38.4022 143.792 38.4611C143.763 38.5201 143.711 38.5648 143.648 38.5855C143.464 38.6469 139.117 40.1826 138.176 40.3149L138.143 40.2912Z" fill="#777777"/>
<path d="M144.362 38.4388C144.307 38.4378 144.254 38.418 144.212 38.3827C144.17 38.3475 144.141 38.2989 144.13 38.2451C144.119 38.1837 144.133 38.1205 144.168 38.0691C144.204 38.0178 144.258 37.9825 144.319 37.9711L145.775 37.7064C145.837 37.6953 145.9 37.7088 145.952 37.7442C146.005 37.7795 146.041 37.8338 146.053 37.8955C146.059 37.9265 146.059 37.9585 146.053 37.9895C146.046 38.0205 146.034 38.0499 146.016 38.0759C145.997 38.1019 145.974 38.124 145.948 38.1409C145.921 38.1578 145.891 38.1691 145.86 38.1742L144.404 38.4388H144.362Z" fill="#777777"/>
<path d="M96.3305 55.3693C95.33 55.3394 94.3351 55.5281 93.415 55.9221L96.3305 55.3693Z" fill="white"/>
<path d="M93.415 56.1724C93.3524 56.1843 93.2875 56.1708 93.2348 56.1349C93.1821 56.099 93.1458 56.0437 93.1339 55.981C93.122 55.9184 93.1354 55.8535 93.1713 55.8008C93.2072 55.7481 93.2626 55.7118 93.3252 55.6999C94.2792 55.2901 95.3116 55.0949 96.3493 55.1281C96.3804 55.1305 96.4107 55.139 96.4384 55.1532C96.4662 55.1673 96.4909 55.1868 96.5111 55.2105C96.5313 55.2342 96.5466 55.2617 96.5561 55.2913C96.5657 55.321 96.5693 55.3522 96.5667 55.3833C96.5607 55.4456 96.5307 55.503 96.4831 55.5436C96.4355 55.5842 96.374 55.6046 96.3115 55.6007C95.3498 55.5728 94.3936 55.755 93.5095 56.1346C93.4813 56.1542 93.449 56.1671 93.415 56.1724Z" fill="#777777"/>
<path d="M110.458 48.8912C110.458 48.8912 114.102 47.776 115.066 47.0342L110.458 48.8912Z" fill="white"/>
<path d="M110.459 49.1275C110.396 49.1362 110.332 49.1198 110.282 49.0817C110.231 49.0435 110.198 48.9869 110.189 48.9243C110.181 48.8616 110.197 48.798 110.235 48.7475C110.273 48.697 110.33 48.6637 110.393 48.6549C110.426 48.6549 114.003 47.5493 114.924 46.8405C114.973 46.8024 115.036 46.7855 115.098 46.7934C115.16 46.8014 115.216 46.8336 115.255 46.883C115.292 46.933 115.308 46.9953 115.3 47.0569C115.292 47.1186 115.261 47.1748 115.212 47.2138C114.22 47.9745 110.681 49.0613 110.53 49.1038C110.508 49.1165 110.484 49.1245 110.459 49.1275Z" fill="#777777"/>
<path d="M115.958 46.6653C115.958 46.6653 116.554 46.1455 116.776 46.1455L115.958 46.6653Z" fill="white"/>
<path d="M115.959 46.902C115.925 46.9017 115.892 46.8944 115.861 46.8805C115.83 46.8667 115.802 46.8467 115.779 46.8216C115.736 46.7767 115.711 46.7165 115.711 46.6539C115.711 46.5913 115.736 46.5311 115.779 46.4861C116.047 46.2105 116.383 46.0115 116.753 45.9097C116.815 45.9097 116.876 45.9346 116.92 45.9789C116.964 46.0232 116.989 46.0833 116.989 46.1459C116.988 46.2082 116.963 46.2676 116.918 46.3116C116.874 46.3557 116.815 46.381 116.753 46.3822C116.509 46.5049 116.286 46.6642 116.091 46.8547C116.053 46.8841 116.007 46.9006 115.959 46.902Z" fill="#777777"/>
<path d="M138.143 40.2911C138.085 40.2904 138.029 40.2684 137.985 40.2293C137.942 40.1901 137.914 40.1366 137.907 40.0785L137.316 34.0067C137.313 33.9756 137.316 33.9443 137.325 33.9145C137.334 33.8846 137.349 33.8568 137.369 33.8327C137.389 33.8086 137.413 33.7885 137.44 33.7738C137.468 33.7591 137.498 33.7499 137.529 33.7468C137.56 33.7437 137.591 33.7467 137.621 33.7557C137.651 33.7647 137.679 33.7795 137.703 33.7993C137.727 33.819 137.747 33.8433 137.762 33.8708C137.777 33.8983 137.786 33.9284 137.789 33.9594L138.384 40.036C138.388 40.0668 138.385 40.0979 138.376 40.1275C138.367 40.1572 138.352 40.1847 138.332 40.2085C138.312 40.2323 138.288 40.2518 138.26 40.266C138.233 40.2802 138.202 40.2888 138.172 40.2911H138.143Z" fill="#777777"/>
<path d="M89.101 60.0186C89.101 60.0186 88.2646 63.2176 93.6277 64.5453C96.1745 65.1738 113.029 69.2705 113.029 69.2705C113.029 69.2705 114.536 66.0385 113.676 66.0385C112.816 66.0385 97.2755 55.7046 97.2755 55.7046" fill="white"/>
<path d="M91.6053 63.8414L111.149 68.8312L111.668 67.5932C111.668 67.5932 104.307 66.1189 99.709 63.8131C95.1114 61.5072 94.8184 62.2301 93.2402 61.2284C91.662 60.2267 92.952 59.2155 92.952 59.2155C92.952 59.2155 97.2661 60.9402 99.5672 61.0819C101.868 61.2237 98.849 60.222 97.1243 58.639C96.4108 57.987 95.7493 57.3302 95.2342 56.7915L89.0916 60.0141C89.0916 60.0141 88.4962 62.3341 91.6053 63.8414Z" fill="#EEEEEE"/>
<path opacity="0.5" d="M91.6053 63.8414L111.149 68.8312L111.668 67.5932C111.668 67.5932 104.307 66.1189 99.709 63.8131C95.1114 61.5072 94.8184 62.2301 93.2402 61.2284C91.662 60.2267 92.952 59.2155 92.952 59.2155C92.952 59.2155 97.2661 60.9402 99.5672 61.0819C101.868 61.2237 98.849 60.222 97.1243 58.639C96.4108 57.987 95.7493 57.3302 95.2342 56.7915L89.0916 60.0141C89.0916 60.0141 88.4962 62.3341 91.6053 63.8414Z" fill="white"/>
<path d="M113.029 69.5447H112.972C112.972 69.5447 96.1177 65.4291 93.5708 64.8195C91.4445 64.295 90.0033 63.402 89.2898 62.216C88.8742 61.5589 88.7255 60.7678 88.874 60.0046C88.8907 59.9444 88.93 59.8931 88.9838 59.8613C89.0376 59.8296 89.1015 59.82 89.1623 59.8345C89.2222 59.8511 89.2732 59.8907 89.3042 59.9446C89.3351 59.9986 89.3436 60.0626 89.3276 60.1227C89.2207 60.7687 89.3552 61.4314 89.7056 61.9844C90.353 63.0712 91.6949 63.8745 93.6842 64.347C96.0468 64.9377 111.035 68.5996 112.897 69.0438C113.478 67.7586 113.842 66.5111 113.676 66.3174C112.779 66.3174 99.7608 57.6704 97.1619 55.9221C97.1098 55.8866 97.0737 55.832 97.0613 55.7702C97.049 55.7084 97.0613 55.6441 97.0958 55.5913C97.1129 55.5655 97.135 55.5435 97.1607 55.5264C97.1865 55.5093 97.2154 55.4975 97.2458 55.4918C97.2762 55.4861 97.3074 55.4865 97.3377 55.493C97.3679 55.4996 97.3965 55.5121 97.4218 55.5299C103.541 59.6077 112.925 65.7173 113.686 65.8354C113.763 65.8366 113.838 65.8566 113.906 65.8937C113.973 65.9307 114.031 65.9837 114.073 66.0481C114.465 66.6671 113.535 68.7745 113.237 69.4076C113.218 69.4476 113.189 69.4816 113.152 69.5058C113.116 69.53 113.073 69.5435 113.029 69.5447Z" fill="#777777"/>
<path d="M113.676 66.0527C113.676 66.0527 119.209 68.6421 119.639 69.3603C120.069 70.0786 121.057 73.8114 121.057 74.9644C121.057 76.1173 120.915 76.1126 120.197 76.1126C119.479 76.1126 117.607 73.3814 117.177 72.805C116.747 72.2285 115.76 72.2285 114.446 71.3874C114.08 71.1552 113.766 70.8506 113.522 70.4922C113.278 70.1338 113.11 69.7293 113.029 69.3036L113.676 66.0527Z" fill="white"/>
<path d="M120.216 76.3488C119.597 76.3488 118.577 75.1155 117.235 73.2633C117.14 73.131 117.065 73.0223 117.008 72.9514C116.738 72.683 116.4 72.4934 116.03 72.4033C115.434 72.1915 114.864 71.9108 114.333 71.567C113.936 71.3169 113.594 70.9878 113.329 70.6001C113.064 70.2123 112.882 69.7743 112.793 69.3131C112.791 69.2895 112.791 69.2658 112.793 69.2422L113.44 66.0055C113.448 65.9706 113.462 65.9378 113.484 65.9093C113.505 65.8807 113.532 65.8571 113.563 65.8401C113.595 65.8239 113.631 65.8154 113.667 65.8154C113.703 65.8154 113.739 65.8239 113.771 65.8401C114.716 66.2748 119.394 68.4956 119.838 69.2375C120.282 69.9793 121.308 73.7783 121.308 74.9643C121.308 76.1504 121.09 76.3488 120.216 76.3488ZM113.27 69.2942C113.354 69.6818 113.515 70.0486 113.743 70.3732C113.971 70.6978 114.262 70.9735 114.598 71.1842C115.1 71.5071 115.637 71.7703 116.2 71.9686C116.655 72.0868 117.066 72.3327 117.386 72.6774C117.443 72.7482 117.523 72.8569 117.617 72.994C119.347 75.3849 119.98 75.8857 120.216 75.8857C120.84 75.8857 120.84 75.8857 120.84 74.9738C120.84 73.8587 119.857 70.1872 119.422 69.4879C119.148 69.0154 115.959 67.4088 113.833 66.4024L113.27 69.2942Z" fill="#777777"/>
<path d="M111.314 68.9684C111.291 68.9729 111.267 68.9729 111.243 68.9684C111.213 68.9593 111.186 68.9443 111.162 68.9243C111.138 68.9042 111.118 68.8796 111.104 68.8518C111.09 68.824 111.082 68.7936 111.08 68.7625C111.078 68.7314 111.082 68.7002 111.092 68.6707L111.952 66.001C111.961 65.9705 111.975 65.942 111.995 65.9173C112.015 65.8926 112.04 65.8722 112.068 65.8572C112.096 65.8423 112.127 65.8332 112.159 65.8305C112.19 65.8277 112.222 65.8314 112.252 65.8412C112.283 65.8511 112.311 65.867 112.334 65.8878C112.358 65.9087 112.378 65.9342 112.392 65.9628C112.406 65.9914 112.414 66.0225 112.415 66.0542C112.417 66.086 112.412 66.1177 112.401 66.1475L111.541 68.8172C111.523 68.8624 111.491 68.901 111.451 68.928C111.41 68.9549 111.363 68.969 111.314 68.9684Z" fill="#777777"/>
<path d="M153.268 45.919C153.268 45.919 151.851 50.8048 151.256 53.6777C150.66 56.5505 146.658 68.0515 146.658 68.0515L150.107 70.2062C150.107 70.2062 157.724 54.4242 159.175 50.9654C160.625 47.5066 160.181 44.9267 158.745 43.4902" fill="white"/>
<path d="M150.107 70.4566C150.064 70.4556 150.021 70.4426 149.985 70.4189L146.535 68.2642C146.489 68.236 146.455 68.1929 146.437 68.1423C146.418 68.0916 146.418 68.0362 146.436 67.9854C146.474 67.872 150.462 56.4702 151.024 53.6493C151.586 50.8284 153.032 45.919 153.032 45.867C153.05 45.8043 153.092 45.7512 153.148 45.7193C153.205 45.6874 153.272 45.6793 153.335 45.6969C153.397 45.7144 153.45 45.7561 153.482 45.8128C153.514 45.8696 153.522 45.9366 153.505 45.9993C153.505 46.0465 152.064 50.9087 151.497 53.7391C150.958 56.4371 147.485 66.445 146.951 67.9665L150.018 69.8802C150.963 67.8909 157.63 54.0462 158.953 50.8709C160.229 47.8043 160.092 45.2007 158.575 43.6556C158.531 43.6118 158.506 43.5523 158.506 43.4902C158.506 43.4282 158.531 43.3687 158.575 43.3248C158.619 43.281 158.678 43.2563 158.74 43.2563C158.802 43.2563 158.862 43.281 158.906 43.3248C160.569 44.9834 160.744 47.8043 159.378 51.0552C157.961 54.4715 150.4 70.1637 150.32 70.3243C150.306 70.3542 150.286 70.3807 150.26 70.402C150.235 70.4232 150.205 70.4386 150.174 70.4472L150.107 70.4566Z" fill="#777777"/>
<path d="M147.31 66.4072C147.57 66.4072 150.844 68.2122 150.844 68.2122L147.31 66.4072Z" fill="#777777"/>
<path d="M124.648 40.4521C123.854 40.3198 119.616 37.5414 116.705 35.2922C113.794 33.043 112.207 32.6461 112.207 32.6461L110.222 33.9692C109.922 33.0021 110.017 31.9555 110.487 31.0585C111.281 29.6031 114.059 28.1478 116.837 27.0894C119.616 26.0309 122.791 25.1284 124.78 25.1284C126.77 25.1284 127.294 25.9222 127.294 26.9807C127.294 28.0391 127.294 31.3467 126.633 33.8605C125.971 36.3743 124.648 40.4521 124.648 40.4521Z" fill="white"/>
<g style="mix-blend-mode:multiply">
<path d="M123.401 26.6543C123.401 26.6543 122.177 30.321 120.953 31.422C120.008 32.2144 118.985 32.9094 117.901 33.4963C117.901 33.4963 117.168 30.9306 115.335 30.9306C113.502 30.9306 110.69 32.1544 110.69 32.1544C110.69 32.1544 110.69 31.1763 113.01 29.9525L115.335 28.7334L120.712 26.6543H123.401Z" fill="#EEEEEE"/>
</g>
<path opacity="0.5" d="M123.401 26.6543C123.401 26.6543 122.177 30.321 120.953 31.422C120.008 32.2144 118.985 32.9094 117.901 33.4963C117.901 33.4963 117.168 30.9306 115.335 30.9306C113.502 30.9306 110.69 32.1544 110.69 32.1544C110.69 32.1544 110.69 31.1763 113.01 29.9525L115.335 28.7334L120.712 26.6543H123.401Z" fill="white"/>
<path d="M124.648 40.6883H124.606C123.727 40.5418 119.375 37.6547 116.573 35.4906C114.14 33.6005 112.637 33.0383 112.254 32.9154L110.364 34.177C110.333 34.1957 110.299 34.2078 110.263 34.2127C110.227 34.2176 110.191 34.2151 110.156 34.2054C110.122 34.1937 110.092 34.1744 110.066 34.149C110.041 34.1237 110.021 34.0928 110.01 34.0589C109.848 33.5488 109.789 33.0116 109.837 32.4786C109.885 31.9456 110.038 31.4275 110.289 30.9545C111.234 29.1873 114.759 27.6469 116.767 26.8767C118.345 26.2766 122.286 24.8779 124.8 24.8779C126.647 24.8779 127.55 25.5584 127.55 26.9664C127.55 28.0532 127.55 31.3656 126.879 33.9077C126.208 36.4498 124.903 40.4945 124.889 40.5229C124.874 40.574 124.842 40.6183 124.798 40.6484C124.754 40.6785 124.701 40.6926 124.648 40.6883ZM112.207 32.4098H112.264C112.33 32.4098 113.936 32.8445 116.852 35.0984C119.588 37.2106 123.401 39.7243 124.492 40.1543C124.776 39.266 125.839 35.9017 126.382 33.7659C127.039 31.2852 127.039 28.0202 127.039 26.9475C127.039 26.149 126.77 25.3315 124.762 25.3315C123.051 25.3315 120.188 26.0498 116.904 27.3019C113.62 28.5541 111.328 29.9669 110.676 31.1624C110.285 31.9049 110.168 32.7614 110.345 33.5817L112.056 32.4429C112.101 32.4148 112.154 32.4032 112.207 32.4098Z" fill="#777777"/>
<path d="M112.868 23.6587C114.419 25.3682 115.507 27.4451 116.03 29.6927C116.89 33.4303 122.295 37.8246 123.59 37.8246C124.884 37.8246 124.795 31.4173 124.365 29.5509C123.935 27.6845 122.21 22.6522 122.21 22.6522C122.21 22.6522 115.33 19.3446 112.868 23.6587Z" fill="white"/>
<path d="M123.609 38.0609C122.219 38.0609 116.691 33.5437 115.817 29.7447C115.299 27.5416 114.232 25.5051 112.717 23.8241C112.681 23.7874 112.657 23.7399 112.651 23.6887C112.644 23.6375 112.654 23.5854 112.679 23.5405C115.203 19.0895 122.257 22.4018 122.328 22.4396C122.357 22.453 122.382 22.4721 122.403 22.4956C122.425 22.5192 122.441 22.5467 122.451 22.5766C122.522 22.7798 124.185 27.6372 124.615 29.499C124.988 31.1339 125.163 36.5063 124.171 37.7585C124.107 37.8491 124.023 37.9236 123.926 37.9761C123.828 38.0286 123.719 38.0576 123.609 38.0609ZM113.18 23.6256C114.696 25.3421 115.76 27.4095 116.275 29.6407C117.135 33.35 122.508 37.5884 123.609 37.5884C123.609 37.5884 123.698 37.5884 123.798 37.4608C124.601 36.4544 124.549 31.3181 124.152 29.6029C123.755 27.8877 122.262 23.5311 122.035 22.8223C121.246 22.4727 115.411 20.0298 113.18 23.6256Z" fill="#777777"/>
<g style="mix-blend-mode:multiply">
<path d="M123.401 26.6543C123.401 26.6543 122.177 30.321 120.953 31.422C120.008 32.2144 118.985 32.9094 117.901 33.4963C117.901 33.4963 117.168 30.9306 115.335 30.9306C113.502 30.9306 110.69 32.1544 110.69 32.1544C110.69 32.1544 110.69 31.1763 113.01 29.9525L115.335 28.7334L120.712 26.6543H123.401Z" fill="#EEEEEE"/>
</g>
<path opacity="0.5" d="M123.401 26.6543C123.401 26.6543 122.177 30.321 120.953 31.422C120.008 32.2144 118.985 32.9094 117.901 33.4963C117.901 33.4963 117.168 30.9306 115.335 30.9306C113.502 30.9306 110.69 32.1544 110.69 32.1544C110.69 32.1544 110.69 31.1763 113.01 29.9525L115.335 28.7334L120.712 26.6543H123.401Z" fill="white"/>
<path d="M112.868 23.6587C114.419 25.3682 115.507 27.4451 116.03 29.6927C116.89 33.4303 122.295 37.8246 123.59 37.8246C124.884 37.8246 124.795 31.4173 124.365 29.5509C123.935 27.6845 122.21 22.6522 122.21 22.6522C122.21 22.6522 115.33 19.3446 112.868 23.6587Z" fill="white"/>
<path d="M123.609 38.0609C122.219 38.0609 116.691 33.5437 115.817 29.7447C115.299 27.5416 114.232 25.5051 112.717 23.8241C112.681 23.7874 112.657 23.7399 112.651 23.6887C112.644 23.6375 112.654 23.5854 112.679 23.5405C115.203 19.0895 122.257 22.4018 122.328 22.4396C122.357 22.453 122.382 22.4721 122.403 22.4956C122.425 22.5192 122.441 22.5467 122.451 22.5766C122.522 22.7798 124.185 27.6372 124.615 29.499C124.988 31.1339 125.163 36.5063 124.171 37.7585C124.107 37.8491 124.023 37.9236 123.926 37.9761C123.828 38.0286 123.719 38.0576 123.609 38.0609ZM113.18 23.6256C114.696 25.3421 115.76 27.4095 116.275 29.6407C117.135 33.35 122.508 37.5884 123.609 37.5884C123.609 37.5884 123.698 37.5884 123.798 37.4608C124.601 36.4544 124.549 31.3181 124.152 29.6029C123.755 27.8877 122.262 23.5311 122.035 22.8223C121.246 22.4727 115.411 20.0298 113.18 23.6256Z" fill="#777777"/>
<path d="M108.327 16.7317C109.341 19.4886 110.595 22.1512 112.074 24.6888C114.257 28.2752 118.472 30.307 120.811 29.3714C123.15 28.4359 124.742 25.4165 124.119 20.7386C123.982 19.7085 123.084 19.288 122.796 18.376C121.761 15.0684 120.707 11.879 120.343 10.6646C119.871 9.10056 116.128 7.54126 112.23 8.63277C108.332 9.72428 107.704 12.9846 108.327 16.7317Z" fill="white"/>
<path d="M121.279 13.8685C121.279 13.8685 119.862 14.9222 116.677 14.3126C113.492 13.7031 111.3 13.8401 111.422 14.6812C111.545 15.5223 111.791 16.6327 111.791 16.6327C111.791 16.6327 107.968 13.3251 111.432 12.4462C113.927 11.7989 115.368 12.7817 115.978 12.9187C116.587 13.0557 121.279 13.8685 121.279 13.8685Z" fill="#EEEEEE"/>
<path opacity="0.5" d="M121.279 13.8685C121.279 13.8685 119.862 14.9222 116.677 14.3126C113.492 13.7031 111.3 13.8401 111.422 14.6812C111.545 15.5223 111.791 16.6327 111.791 16.6327C111.791 16.6327 107.968 13.3251 111.432 12.4462C113.927 11.7989 115.368 12.7817 115.978 12.9187C116.587 13.0557 121.279 13.8685 121.279 13.8685Z" fill="white"/>
<path d="M119.507 29.8534C116.97 29.8534 113.667 27.7791 111.871 24.8259C110.379 22.2736 109.114 19.5952 108.091 16.8215C108.089 16.809 108.089 16.7961 108.091 16.7837C107.312 12.1294 108.644 9.38408 112.16 8.40125C116.238 7.25776 120.07 8.93991 120.566 10.589C120.736 11.1607 121.038 12.1625 121.459 13.4241C121.931 14.8416 122.465 16.5569 123.013 18.3146C123.151 18.6643 123.353 18.9849 123.609 19.2596C123.991 19.6608 124.247 20.1651 124.346 20.7103C125.045 25.9599 123.023 28.743 120.897 29.5935C120.454 29.7679 119.983 29.8562 119.507 29.8534ZM108.559 16.6703C109.566 19.4048 110.809 22.0467 112.273 24.566C114.47 28.1713 118.624 29.9904 120.726 29.1494C122.687 28.365 124.549 25.752 123.883 20.767C123.796 20.3116 123.581 19.8903 123.264 19.5526C122.965 19.2252 122.735 18.8412 122.588 18.4233C122.04 16.6703 121.487 14.9503 121.034 13.5375C120.632 12.29 120.311 11.2836 120.136 10.7024C119.739 9.3888 116.247 7.73028 112.311 8.81233C109.06 9.74791 107.836 12.3089 108.559 16.6703Z" fill="#777777"/>
<path d="M111.139 21.8772C111.139 21.8772 108.64 20.7857 108.484 21.8772C108.328 22.9687 109.429 23.7673 110.511 24.2398C110.78 24.3874 111.088 24.4514 111.394 24.4236C111.701 24.3958 111.992 24.2776 112.231 24.0838" fill="white"/>
<path d="M111.3 24.6556C110.997 24.6518 110.697 24.5859 110.421 24.4619C108.876 23.8004 108.106 22.879 108.252 21.8678C108.264 21.7522 108.305 21.6414 108.37 21.545C108.435 21.4487 108.523 21.3697 108.625 21.3149C109.377 20.8944 111.045 21.6032 111.234 21.6882C111.287 21.7163 111.327 21.7635 111.347 21.8204C111.366 21.8773 111.364 21.9395 111.339 21.9943C111.314 22.0491 111.269 22.0925 111.214 22.1155C111.158 22.1385 111.096 22.1395 111.04 22.1182C110.416 21.8442 109.268 21.4992 108.852 21.726C108.814 21.7467 108.782 21.7766 108.759 21.813C108.736 21.8493 108.722 21.8909 108.72 21.9339C108.569 22.9876 109.835 23.6964 110.61 24.0272C110.837 24.1536 111.097 24.2106 111.356 24.1913C111.616 24.172 111.864 24.0772 112.07 23.9185C112.115 23.8801 112.174 23.8603 112.233 23.863C112.293 23.8657 112.349 23.8907 112.391 23.9331C112.432 23.9755 112.457 24.0321 112.459 24.0916C112.46 24.1511 112.44 24.2091 112.401 24.254C112.098 24.5221 111.704 24.6656 111.3 24.6556Z" fill="#777777"/>
<path d="M121.341 15.7064C121.341 15.7064 118.558 15.0448 119.748 18.7541C119.985 19.4865 121.605 20.3417 121.605 20.3417C121.605 20.3417 121.473 21.5325 120.812 21.6648" fill="white"/>
<path d="M120.807 21.9012C120.752 21.9003 120.7 21.8812 120.658 21.8469C120.616 21.8126 120.587 21.7651 120.575 21.7122C120.569 21.6814 120.569 21.6498 120.575 21.6191C120.581 21.5883 120.594 21.5591 120.611 21.5332C120.629 21.5072 120.651 21.4851 120.678 21.4679C120.704 21.4508 120.733 21.4391 120.764 21.4334C121.104 21.3625 121.279 20.8002 121.345 20.4884C120.911 20.2427 119.748 19.5433 119.526 18.844C119.082 17.4643 119.12 16.4814 119.635 15.9239C120.268 15.2387 121.345 15.4892 121.393 15.4986C121.453 15.5132 121.506 15.5512 121.539 15.6043C121.571 15.6574 121.582 15.7214 121.567 15.7821C121.561 15.8125 121.548 15.8412 121.53 15.8666C121.512 15.8919 121.489 15.9134 121.463 15.9297C121.436 15.946 121.407 15.9568 121.376 15.9615C121.345 15.9662 121.314 15.9646 121.284 15.9569C121.284 15.9569 120.424 15.7632 119.98 16.2452C119.536 16.7271 119.592 17.5115 119.98 18.6975C120.131 19.1701 121.128 19.8363 121.719 20.1482C121.76 20.1716 121.793 20.2063 121.815 20.2482C121.837 20.2901 121.846 20.3374 121.842 20.3844C121.842 20.5262 121.667 21.7547 120.859 21.9154L120.807 21.9012Z" fill="#777777"/>
<path d="M119.351 24.311C119.351 24.311 117.367 24.7079 116.573 23.7817L119.351 24.311Z" fill="white"/>
<path d="M118.401 24.6556C118.036 24.6845 117.669 24.6373 117.324 24.5169C116.978 24.3965 116.661 24.2056 116.393 23.9562C116.373 23.9327 116.358 23.9053 116.348 23.8758C116.338 23.8463 116.335 23.8152 116.337 23.7843C116.34 23.7534 116.348 23.7232 116.362 23.6956C116.376 23.6679 116.396 23.6433 116.419 23.6231C116.443 23.603 116.47 23.5876 116.5 23.578C116.529 23.5684 116.56 23.5647 116.591 23.5671C116.622 23.5695 116.652 23.578 116.68 23.5921C116.707 23.6061 116.732 23.6255 116.752 23.6491C117.447 24.4618 119.29 24.1216 119.309 24.1216C119.339 24.1148 119.37 24.1142 119.4 24.1198C119.431 24.1255 119.46 24.1373 119.485 24.1546C119.511 24.1718 119.533 24.1942 119.55 24.2202C119.566 24.2462 119.578 24.2754 119.583 24.3059C119.589 24.3363 119.589 24.3676 119.583 24.3981C119.577 24.4286 119.565 24.4576 119.548 24.4835C119.531 24.5094 119.509 24.5316 119.483 24.549C119.458 24.5664 119.429 24.5785 119.398 24.5847C119.069 24.6369 118.735 24.6607 118.401 24.6556Z" fill="#777777"/>
<path d="M116.441 18.0925C116.441 18.0925 114.985 17.5633 114.191 18.2248C113.766 18.5205 113.438 18.9346 113.246 19.4155" fill="white"/>
<path d="M113.265 19.6471H113.208C113.178 19.6394 113.15 19.6258 113.125 19.6071C113.1 19.5885 113.079 19.5651 113.064 19.5383C113.048 19.5115 113.037 19.4819 113.033 19.4511C113.029 19.4203 113.031 19.389 113.038 19.3589C113.236 18.8321 113.584 18.3752 114.04 18.0453C114.928 17.3082 116.459 17.8515 116.521 17.8752C116.55 17.8852 116.578 17.9011 116.601 17.9219C116.624 17.9427 116.643 17.9679 116.656 17.9962C116.669 18.0244 116.677 18.055 116.678 18.0862C116.679 18.1174 116.674 18.1485 116.663 18.1776C116.641 18.2365 116.597 18.2845 116.541 18.3111C116.484 18.3376 116.419 18.3406 116.36 18.3193C116.36 18.3193 115.023 17.8468 114.342 18.4091C113.968 18.6808 113.675 19.0502 113.497 19.477C113.481 19.5264 113.451 19.5697 113.409 19.6003C113.367 19.631 113.317 19.6474 113.265 19.6471Z" fill="#777777"/>
<path d="M116.403 20.3559C116.592 20.7954 116.554 21.2301 116.318 21.3293C116.082 21.4286 115.742 21.1592 115.553 20.7198C115.364 20.2803 115.406 19.8504 115.642 19.7464C115.879 19.6424 116.219 19.9307 116.403 20.3559Z" fill="#777777"/>
<path d="M121.161 18.0405C121.35 18.4752 121.308 18.9099 121.076 19.0139C120.845 19.1178 120.495 18.8391 120.311 18.4043C120.126 17.9696 120.159 17.5302 120.396 17.431C120.632 17.3317 120.972 17.6058 121.161 18.0405Z" fill="#777777"/>
<path d="M110.445 22.5058C110.445 22.5058 112.023 21.3576 111.734 20.3511C111.446 19.3447 110.874 19.3447 111.451 18.7729C112.027 18.2012 112.453 17.9082 112.311 17.0482C112.169 16.1883 109.868 14.7471 110.586 13.8871C111.304 13.0271 111.016 11.9971 116.909 13.4524C122.801 14.9078 126.538 12.5924 124.814 10.4378C123.089 8.2831 121.653 7.99486 121.653 7.99486C121.653 7.99486 124.96 6.57732 122.229 5.11725C119.498 3.65718 113.317 3.6997 109.868 6.41194C106.419 9.12417 107.137 11.4253 107.137 11.4253C107.137 11.4253 105.27 11.7136 105.124 14.5912C104.978 17.4688 110.445 22.5058 110.445 22.5058Z" fill="#777777"/>
<path d="M119.847 12.8805C118.591 12.8278 117.355 12.5526 116.195 12.0678C115.286 11.6802 114.318 11.4501 113.331 11.3874C111.049 11.3874 110.577 12.6821 110.558 12.7388C110.551 12.759 110.541 12.7776 110.527 12.7937C110.513 12.8097 110.497 12.8227 110.478 12.832C110.459 12.8413 110.438 12.8466 110.417 12.8476C110.396 12.8487 110.374 12.8454 110.355 12.838C110.334 12.8316 110.316 12.8212 110.299 12.8075C110.283 12.7938 110.27 12.777 110.26 12.7581C110.251 12.7392 110.245 12.7186 110.243 12.6974C110.242 12.6763 110.244 12.655 110.251 12.6348C110.274 12.5734 110.804 11.0614 113.331 11.0614C114.356 11.1219 115.361 11.3602 116.304 11.7654C117.773 12.2899 119.299 12.8333 121.218 12.408C122.257 12.1765 122.867 11.8032 123.018 11.3071C123.216 10.6692 122.602 10.0029 122.597 9.99347C122.567 9.96336 122.551 9.92258 122.551 9.88007C122.551 9.83756 122.567 9.79677 122.597 9.76666C122.629 9.73743 122.67 9.72119 122.713 9.72119C122.756 9.72119 122.798 9.73743 122.829 9.76666C122.857 9.79974 123.576 10.5794 123.325 11.3968C123.131 12.0158 122.446 12.46 121.284 12.7199C120.812 12.8242 120.331 12.8781 119.847 12.8805Z" fill="white"/>
<path d="M109.306 12.4838C109.263 12.4802 109.223 12.4599 109.195 12.4272C109.166 12.3945 109.152 12.3521 109.155 12.309C109.155 12.2759 109.433 9.15731 112.198 8.45798C113.828 8.0469 115.713 8.35403 117.23 8.59974C118.175 8.75567 119.021 8.8927 119.375 8.75567C119.414 8.74733 119.455 8.7533 119.489 8.77248C119.524 8.79166 119.551 8.82277 119.565 8.86009C119.579 8.89742 119.579 8.93846 119.564 8.97569C119.55 9.01293 119.523 9.04386 119.488 9.0628C119.054 9.22346 118.227 9.09115 117.178 8.92105C115.689 8.67534 113.837 8.37765 112.278 8.76984C109.736 9.41719 109.481 12.3043 109.476 12.3326C109.475 12.3537 109.469 12.3744 109.46 12.3934C109.451 12.4124 109.438 12.4295 109.422 12.4435C109.406 12.4576 109.388 12.4684 109.368 12.4753C109.348 12.4822 109.327 12.4851 109.306 12.4838Z" fill="white"/>
<path d="M107.477 17.3603C107.445 17.3597 107.414 17.3499 107.388 17.3319C106.963 16.9762 106.634 16.5203 106.431 16.0055C106.227 15.4907 106.155 14.9332 106.22 14.3835C106.353 12.3044 107.95 12.2808 107.969 12.2808C108.007 12.2873 108.042 12.3073 108.067 12.3371C108.092 12.367 108.106 12.4047 108.106 12.4438C108.106 12.4828 108.092 12.5206 108.067 12.5504C108.042 12.5803 108.007 12.6002 107.969 12.6068C107.912 12.6068 106.655 12.6352 106.551 14.4024C106.487 14.8968 106.547 15.3993 106.726 15.8646C106.906 16.3299 107.198 16.7433 107.577 17.0673C107.594 17.0791 107.609 17.0943 107.62 17.112C107.632 17.1297 107.639 17.1496 107.643 17.1703C107.646 17.1911 107.646 17.2123 107.641 17.2328C107.636 17.2533 107.627 17.2725 107.614 17.2894C107.6 17.3124 107.58 17.3312 107.556 17.3436C107.531 17.3561 107.504 17.3619 107.477 17.3603Z" fill="white"/>
<path d="M108.455 16.0184C108.424 16.0184 108.394 16.0095 108.368 15.9928C108.342 15.976 108.321 15.9521 108.309 15.9239C108.192 15.7083 108.123 15.4703 108.106 15.2259C108.089 14.9814 108.124 14.7361 108.209 14.5064C108.418 14.056 108.789 13.7014 109.249 13.5141C109.268 13.5057 109.289 13.5014 109.311 13.5015C109.332 13.5015 109.353 13.5058 109.372 13.5142C109.392 13.5226 109.409 13.5349 109.424 13.5503C109.438 13.5657 109.45 13.584 109.457 13.6039C109.472 13.6434 109.472 13.6874 109.455 13.7263C109.438 13.7653 109.406 13.796 109.367 13.8118C108.991 13.9711 108.685 14.2616 108.507 14.6292C108.44 14.8179 108.414 15.0186 108.43 15.2182C108.447 15.4177 108.505 15.6115 108.602 15.7869C108.619 15.8264 108.621 15.8713 108.606 15.912C108.591 15.9526 108.56 15.9858 108.521 16.0042C108.5 16.0135 108.478 16.0183 108.455 16.0184Z" fill="white"/>
<path d="M108.819 18.5794C108.793 18.5788 108.767 18.5721 108.744 18.5598C108.721 18.5475 108.702 18.5299 108.687 18.5085L108.077 17.658C108.052 17.6229 108.042 17.5793 108.049 17.5367C108.056 17.4942 108.08 17.4562 108.115 17.4312C108.15 17.4061 108.194 17.396 108.236 17.4031C108.279 17.4102 108.317 17.4339 108.342 17.469L108.951 18.3242C108.975 18.3588 108.985 18.4014 108.978 18.443C108.971 18.4845 108.948 18.5216 108.914 18.5463C108.887 18.5681 108.853 18.5798 108.819 18.5794Z" fill="white"/>
</svg>
