<svg width="25" height="25" viewBox="0 0 25 25" fill="none" xmlns="http://www.w3.org/2000/svg">
<path d="M6.25 20.5731H4.16667C3.68337 20.5725 3.22002 20.3803 2.87828 20.0385C2.53654 19.6968 2.3443 19.2335 2.34375 18.7502V3.12516C2.3443 2.64186 2.53654 2.17852 2.87828 1.83678C3.22002 1.49503 3.68337 1.3028 4.16667 1.30225H17.7083C18.1916 1.3028 18.655 1.49503 18.9967 1.83678C19.3385 2.17852 19.5307 2.64186 19.5312 3.12516V5.2085C19.5312 5.4157 19.4489 5.61441 19.3024 5.76092C19.1559 5.90744 18.9572 5.98975 18.75 5.98975C18.5428 5.98975 18.3441 5.90744 18.1976 5.76092C18.0511 5.61441 17.9687 5.4157 17.9687 5.2085V3.12516C17.9679 3.05635 17.9402 2.99058 17.8916 2.94192C17.8429 2.89325 17.7771 2.86556 17.7083 2.86475H4.16667C4.09785 2.86556 4.03208 2.89325 3.98342 2.94192C3.93476 2.99058 3.90706 3.05635 3.90625 3.12516V18.7502C3.90706 18.819 3.93476 18.8847 3.98342 18.9334C4.03208 18.9821 4.09785 19.0098 4.16667 19.0106H6.25C6.4572 19.0106 6.65591 19.0929 6.80243 19.2394C6.94894 19.3859 7.03125 19.5846 7.03125 19.7918C7.03125 19.999 6.94894 20.1977 6.80243 20.3443C6.65591 20.4908 6.4572 20.5731 6.25 20.5731Z" fill="black"/>
<path d="M20.8333 23.6981H7.29167C6.80837 23.6975 6.34502 23.5053 6.00328 23.1635C5.66154 22.8218 5.4693 22.3585 5.46875 21.8752V6.25016C5.4693 5.76686 5.66154 5.30352 6.00328 4.96178C6.34502 4.62003 6.80837 4.4278 7.29167 4.42725H20.8333C21.3166 4.4278 21.78 4.62003 22.1217 4.96178C22.4635 5.30352 22.6557 5.76686 22.6562 6.25016V21.8752C22.6557 22.3585 22.4635 22.8218 22.1217 23.1635C21.78 23.5053 21.3166 23.6975 20.8333 23.6981ZM7.29167 5.98975C7.2226 5.98975 7.15636 6.01718 7.10752 6.06602C7.05869 6.11486 7.03125 6.1811 7.03125 6.25016V21.8752C7.03125 21.9442 7.05869 22.0105 7.10752 22.0593C7.15636 22.1081 7.2226 22.1356 7.29167 22.1356H20.8333C20.9024 22.1356 20.9686 22.1081 21.0175 22.0593C21.0663 22.0105 21.0937 21.9442 21.0937 21.8752V6.25016C21.0937 6.1811 21.0663 6.11486 21.0175 6.06602C20.9686 6.01718 20.9024 5.98975 20.8333 5.98975H7.29167Z" fill="black"/>
</svg>
