<svg width="11" height="13" viewBox="0 0 11 13" fill="none" xmlns="http://www.w3.org/2000/svg">
<g clip-path="url(#clip0_47_770)">
<path d="M8.70833 1.5H8.25V1C8.25 0.867392 8.20171 0.740215 8.11576 0.646447C8.0298 0.552678 7.91322 0.5 7.79167 0.5C7.67011 0.5 7.55353 0.552678 7.46758 0.646447C7.38162 0.740215 7.33333 0.867392 7.33333 1V1.5H3.66667V1C3.66667 0.867392 3.61838 0.740215 3.53242 0.646447C3.44647 0.552678 3.32989 0.5 3.20833 0.5C3.08678 0.5 2.9702 0.552678 2.88424 0.646447C2.79829 0.740215 2.75 0.867392 2.75 1V1.5H2.29167C1.6841 1.50079 1.10163 1.76444 0.672017 2.23311C0.242404 2.70178 0.000727768 3.3372 0 4L0 10C0.000727768 10.6628 0.242404 11.2982 0.672017 11.7669C1.10163 12.2356 1.6841 12.4992 2.29167 12.5H8.70833C9.3159 12.4992 9.89837 12.2356 10.328 11.7669C10.7576 11.2982 10.9993 10.6628 11 10V4C10.9993 3.3372 10.7576 2.70178 10.328 2.23311C9.89837 1.76444 9.3159 1.50079 8.70833 1.5ZM0.916667 4C0.916667 3.60218 1.06153 3.22064 1.31939 2.93934C1.57726 2.65804 1.92699 2.5 2.29167 2.5H8.70833C9.07301 2.5 9.42274 2.65804 9.68061 2.93934C9.93847 3.22064 10.0833 3.60218 10.0833 4V4.5H0.916667V4ZM8.70833 11.5H2.29167C1.92699 11.5 1.57726 11.342 1.31939 11.0607C1.06153 10.7794 0.916667 10.3978 0.916667 10V5.5H10.0833V10C10.0833 10.3978 9.93847 10.7794 9.68061 11.0607C9.42274 11.342 9.07301 11.5 8.70833 11.5Z" fill="#656565"/>
<path d="M5.5 8.75C5.8797 8.75 6.1875 8.41421 6.1875 8C6.1875 7.58579 5.8797 7.25 5.5 7.25C5.1203 7.25 4.8125 7.58579 4.8125 8C4.8125 8.41421 5.1203 8.75 5.5 8.75Z" fill="#656565"/>
<path d="M3.20825 8.75C3.58795 8.75 3.89575 8.41421 3.89575 8C3.89575 7.58579 3.58795 7.25 3.20825 7.25C2.82856 7.25 2.52075 7.58579 2.52075 8C2.52075 8.41421 2.82856 8.75 3.20825 8.75Z" fill="#656565"/>
<path d="M7.79175 8.75C8.17144 8.75 8.47925 8.41421 8.47925 8C8.47925 7.58579 8.17144 7.25 7.79175 7.25C7.41205 7.25 7.10425 7.58579 7.10425 8C7.10425 8.41421 7.41205 8.75 7.79175 8.75Z" fill="#656565"/>
</g>
<defs>
<clipPath id="clip0_47_770">
<rect width="11" height="12" fill="white" transform="translate(0 0.5)"/>
</clipPath>
</defs>
</svg>
