<svg width="30" height="30" viewBox="0 0 30 30" fill="none" xmlns="http://www.w3.org/2000/svg">
<rect width="30" height="30" rx="5" fill="#F50000"/>
<path d="M19.0625 11.521C18.8802 11.521 18.7053 11.589 18.5764 11.7102C18.4474 11.8313 18.375 11.9955 18.375 12.1668V19.3943C18.3553 19.7209 18.199 20.027 17.9402 20.2458C17.6813 20.4646 17.3409 20.5785 16.9931 20.5627H11.5069C11.1591 20.5785 10.8187 20.4646 10.5598 20.2458C10.301 20.027 10.1447 19.7209 10.125 19.3943V12.1668C10.125 11.9955 10.0526 11.8313 9.92364 11.7102C9.7947 11.589 9.61984 11.521 9.4375 11.521C9.25516 11.521 9.0803 11.589 8.95136 11.7102C8.82243 11.8313 8.75 11.9955 8.75 12.1668V19.3943C8.76962 20.0636 9.07078 20.6982 9.5875 21.1593C10.1042 21.6204 10.7944 21.8703 11.5069 21.8543H16.9931C17.7056 21.8703 18.3958 21.6204 18.9125 21.1593C19.4292 20.6982 19.7304 20.0636 19.75 19.3943V12.1668C19.75 11.9955 19.6776 11.8313 19.5486 11.7102C19.4197 11.589 19.2448 11.521 19.0625 11.521ZM19.75 9.5835H17V8.29183C17 8.12054 16.9276 7.95627 16.7986 7.83516C16.6697 7.71404 16.4948 7.646 16.3125 7.646H12.1875C12.0052 7.646 11.8303 7.71404 11.7014 7.83516C11.5724 7.95627 11.5 8.12054 11.5 8.29183V9.5835H8.75C8.56766 9.5835 8.3928 9.65154 8.26386 9.77266C8.13493 9.89377 8.0625 10.058 8.0625 10.2293C8.0625 10.4006 8.13493 10.5649 8.26386 10.686C8.3928 10.8071 8.56766 10.8752 8.75 10.8752H19.75C19.9323 10.8752 20.1072 10.8071 20.2361 10.686C20.3651 10.5649 20.4375 10.4006 20.4375 10.2293C20.4375 10.058 20.3651 9.89377 20.2361 9.77266C20.1072 9.65154 19.9323 9.5835 19.75 9.5835ZM12.875 9.5835V8.93766H15.625V9.5835H12.875Z" fill="white"/>
<path d="M13.5625 17.9792V13.4583C13.5625 13.287 13.4901 13.1228 13.3611 13.0017C13.2322 12.8805 13.0573 12.8125 12.875 12.8125C12.6927 12.8125 12.5178 12.8805 12.3889 13.0017C12.2599 13.1228 12.1875 13.287 12.1875 13.4583V17.9792C12.1875 18.1505 12.2599 18.3147 12.3889 18.4358C12.5178 18.557 12.6927 18.625 12.875 18.625C13.0573 18.625 13.2322 18.557 13.3611 18.4358C13.4901 18.3147 13.5625 18.1505 13.5625 17.9792ZM16.3125 17.9792V13.4583C16.3125 13.287 16.2401 13.1228 16.1111 13.0017C15.9822 12.8805 15.8073 12.8125 15.625 12.8125C15.4427 12.8125 15.2678 12.8805 15.1389 13.0017C15.0099 13.1228 14.9375 13.287 14.9375 13.4583V17.9792C14.9375 18.1505 15.0099 18.3147 15.1389 18.4358C15.2678 18.557 15.4427 18.625 15.625 18.625C15.8073 18.625 15.9822 18.557 16.1111 18.4358C16.2401 18.3147 16.3125 18.1505 16.3125 17.9792Z" fill="white"/>
</svg>
