<svg width="25" height="25" viewBox="0 0 25 25" fill="none" xmlns="http://www.w3.org/2000/svg">
<path d="M19.7917 7.29175C19.5154 7.29175 19.2504 7.4015 19.0551 7.59685C18.8597 7.7922 18.75 8.05715 18.75 8.33342V19.9907C18.7201 20.5175 18.4833 21.0111 18.0911 21.364C17.699 21.717 17.1832 21.9007 16.6562 21.8751H8.34375C7.81677 21.9007 7.30102 21.717 6.90886 21.364C6.5167 21.0111 6.27988 20.5175 6.25 19.9907V8.33342C6.25 8.05715 6.14025 7.7922 5.9449 7.59685C5.74955 7.4015 5.4846 7.29175 5.20833 7.29175C4.93207 7.29175 4.66711 7.4015 4.47176 7.59685C4.27641 7.7922 4.16667 8.05715 4.16667 8.33342V19.9907C4.1964 21.0701 4.65269 22.0937 5.4356 22.8374C6.21852 23.5811 7.26424 23.9842 8.34375 23.9584H16.6562C17.7358 23.9842 18.7815 23.5811 19.5644 22.8374C20.3473 22.0937 20.8036 21.0701 20.8333 19.9907V8.33342C20.8333 8.05715 20.7236 7.7922 20.5282 7.59685C20.3329 7.4015 20.0679 7.29175 19.7917 7.29175ZM20.8333 4.16675H16.6667V2.08341C16.6667 1.80715 16.5569 1.5422 16.3616 1.34685C16.1662 1.15149 15.9013 1.04175 15.625 1.04175H9.375C9.09873 1.04175 8.83378 1.15149 8.63843 1.34685C8.44308 1.5422 8.33333 1.80715 8.33333 2.08341V4.16675H4.16667C3.8904 4.16675 3.62545 4.2765 3.4301 4.47185C3.23475 4.6672 3.125 4.93215 3.125 5.20842C3.125 5.48468 3.23475 5.74963 3.4301 5.94498C3.62545 6.14034 3.8904 6.25008 4.16667 6.25008H20.8333C21.1096 6.25008 21.3746 6.14034 21.5699 5.94498C21.7653 5.74963 21.875 5.48468 21.875 5.20842C21.875 4.93215 21.7653 4.6672 21.5699 4.47185C21.3746 4.2765 21.1096 4.16675 20.8333 4.16675ZM10.4167 4.16675V3.12508H14.5833V4.16675H10.4167Z" fill="white"/>
<path d="M11.4583 17.7083V10.4167C11.4583 10.1404 11.3486 9.87545 11.1532 9.6801C10.9579 9.48475 10.6929 9.375 10.4167 9.375C10.1404 9.375 9.87545 9.48475 9.6801 9.6801C9.48475 9.87545 9.375 10.1404 9.375 10.4167V17.7083C9.375 17.9846 9.48475 18.2496 9.6801 18.4449C9.87545 18.6403 10.1404 18.75 10.4167 18.75C10.6929 18.75 10.9579 18.6403 11.1532 18.4449C11.3486 18.2496 11.4583 17.9846 11.4583 17.7083ZM15.625 17.7083V10.4167C15.625 10.1404 15.5153 9.87545 15.3199 9.6801C15.1246 9.48475 14.8596 9.375 14.5833 9.375C14.3071 9.375 14.0421 9.48475 13.8468 9.6801C13.6514 9.87545 13.5417 10.1404 13.5417 10.4167V17.7083C13.5417 17.9846 13.6514 18.2496 13.8468 18.4449C14.0421 18.6403 14.3071 18.75 14.5833 18.75C14.8596 18.75 15.1246 18.6403 15.3199 18.4449C15.5153 18.2496 15.625 17.9846 15.625 17.7083Z" fill="white"/>
</svg>
