<svg width="75" height="75" viewBox="0 0 75 75" fill="none" xmlns="http://www.w3.org/2000/svg">
<g clip-path="url(#clip0_349_1259)">
<path d="M37.5 0C16.7905 0 0 16.7905 0 37.5C0 58.2118 16.7905 75 37.5 75C58.2118 75 75 58.2142 75 37.5C75 16.7905 58.2116 0 37.5 0ZM37.5 67.9686C20.672 67.9686 7.03136 54.328 7.03136 37.5C7.03136 20.672 20.672 7.03136 37.5 7.03136C54.328 7.03136 67.9686 20.672 67.9686 37.5C67.9686 54.328 54.328 67.9686 37.5 67.9686ZM37.5024 16.446C34.8165 16.446 32.7843 17.8477 32.7843 20.1117V40.8772C32.7843 43.1436 34.8162 44.5405 37.5024 44.5405C40.1227 44.5405 42.2204 43.0851 42.2204 40.8772V20.1117C42.2202 17.9014 40.1227 16.446 37.5024 16.446ZM37.5024 49.2188C34.9219 49.2188 32.8218 51.3189 32.8218 53.9014C32.8218 56.4795 34.9219 58.5797 37.5024 58.5797C40.0828 58.5797 42.1806 56.4795 42.1806 53.9014C42.1803 51.3186 40.0828 49.2188 37.5024 49.2188Z" fill="#FE0505"/>
</g>
<defs>
<clipPath id="clip0_349_1259">
<rect width="75" height="75" fill="white"/>
</clipPath>
</defs>
</svg>
