<svg width="23" height="23" viewBox="0 0 23 23" fill="none" xmlns="http://www.w3.org/2000/svg">
<path d="M12.1134 5.19408L2.25217 15.0553C1.88879 15.4194 1.65914 15.8956 1.6005 16.4066L1.20758 19.8566C1.18197 20.0992 1.20782 20.3445 1.28345 20.5764C1.35908 20.8083 1.48278 21.0217 1.64648 21.2026C1.81018 21.3835 2.01019 21.5278 2.23345 21.6261C2.45672 21.7245 2.69821 21.7746 2.94217 21.7732H3.14342L6.59342 21.3803C7.1024 21.3214 7.57755 21.0957 7.94467 20.7382L17.8059 10.8674L12.1134 5.19408ZM21.1409 4.36033L18.6397 1.85908C18.4304 1.649 18.1818 1.48231 17.9079 1.36858C17.6341 1.25484 17.3405 1.19629 17.044 1.19629C16.7475 1.19629 16.454 1.25484 16.1801 1.36858C15.9063 1.48231 15.6577 1.649 15.4484 1.85908L13.1293 4.17824L18.8218 9.87074L21.1409 7.55158C21.351 7.34234 21.5177 7.09367 21.6314 6.81985C21.7452 6.54604 21.8037 6.25245 21.8037 5.95595C21.8037 5.65945 21.7452 5.36587 21.6314 5.09205C21.5177 4.81823 21.351 4.56957 21.1409 4.36033Z" fill="white"/>
</svg>
