<svg width="25" height="24" viewBox="0 0 25 24" fill="none" xmlns="http://www.w3.org/2000/svg">
<g clip-path="url(#clip0_239_2990)">
<path d="M3.5 3H21.5V21H3.5V3Z" fill="#ECEFF1"/>
<path d="M12.5 13.8932L21.5 21.0002V6.96924L12.5 13.8932Z" fill="#CFD8DC"/>
<path d="M22.25 3H21.5L12.5 10.107L3.5 3H2.75C1.508 3 0.5 4.008 0.5 5.25V18.75C0.5 19.992 1.508 21 2.75 21H3.5V6.969L12.5 13.8915L21.5 6.9675V21H22.25C23.492 21 24.5 19.992 24.5 18.75V5.25C24.5 4.008 23.492 3 22.25 3Z" fill="#F44336"/>
</g>
<defs>
<clipPath id="clip0_239_2990">
<rect width="24" height="24" fill="white" transform="translate(0.5)"/>
</clipPath>
</defs>
</svg>
