<svg width="15" height="22" viewBox="0 0 15 22" fill="none" xmlns="http://www.w3.org/2000/svg">
<path d="M7.03606 0.370548C3.46643 0.214611 0.677494 2.37644 0.758487 5.23659L1.2627 17.3683C1.3872 19.5894 3.73208 21.4867 6.50018 21.606C9.22276 21.7233 11.3497 20.0751 11.2907 17.8937L10.8342 6.90832C10.7748 5.4802 9.28222 4.24677 7.50042 4.1534C5.71863 4.06004 4.32227 5.1421 4.38162 6.57021L4.81828 17.078C4.84188 17.4514 5.23803 17.7686 5.70313 17.7865C6.15686 17.804 6.51076 17.5297 6.50353 17.1662L6.06684 6.65852C6.05675 5.97732 6.73906 5.47314 7.59073 5.5324C8.41668 5.58987 9.10367 6.15758 9.1489 6.82004L9.60544 17.8054C9.65351 19.2782 8.20177 20.3855 6.36293 20.2786C4.54268 20.1728 3.02159 18.9158 2.94795 17.4565L2.44374 5.32487C2.35343 3.16349 4.46621 1.52563 7.16277 1.66651C9.85933 1.80739 12.1185 3.67375 12.2089 5.8351L12.7131 17.9668C12.6926 18.3368 13.0532 18.6799 13.5184 18.733C13.9837 18.7861 14.3774 18.5291 14.3979 18.1591C14.3998 18.1246 14.3983 18.0897 14.3935 18.0548L13.8894 5.92315C13.7291 3.01487 10.6607 0.528838 7.03606 0.370548Z" fill="#62BA87"/>
</svg>
