<svg width="15" height="15" viewBox="0 0 15 15" fill="none" xmlns="http://www.w3.org/2000/svg">
<g clip-path="url(#clip0_99_1614)">
<path d="M14.5956 6.52427L14.5945 6.52324L8.47574 0.404678C8.21491 0.143701 7.86815 0 7.49933 0C7.13049 0 6.78373 0.143613 6.52281 0.404561L0.407176 6.52002C0.405126 6.52207 0.403075 6.52424 0.401024 6.52632C-0.134581 7.06497 -0.133644 7.93895 0.403661 8.47626C0.64911 8.72186 0.973339 8.86409 1.31998 8.87897C1.33404 8.88035 1.34825 8.88103 1.36255 8.88103H1.60641V13.384C1.60641 14.275 2.3314 15 3.22266 15H5.61651C5.85915 15 6.05597 14.8033 6.05597 14.5605V11.0303C6.05597 10.6237 6.38673 10.2929 6.79334 10.2929H8.2053C8.61194 10.2929 8.94265 10.6237 8.94265 11.0303V14.5605C8.94265 14.8033 9.13937 15 9.3821 15H11.776C12.6672 15 13.3922 14.275 13.3922 13.384V8.88105H13.6184C13.9871 8.88105 14.3339 8.73744 14.5949 8.47652C15.1328 7.93831 15.133 7.06283 14.5956 6.52427Z" fill="#656565"/>
</g>
<defs>
<clipPath id="clip0_99_1614">
<rect width="15" height="15" fill="white"/>
</clipPath>
</defs>
</svg>
