<svg width="20" height="19" viewBox="0 0 20 19" fill="none" xmlns="http://www.w3.org/2000/svg">
<g clip-path="url(#clip0_30_284)">
<path d="M19.5186 8.26442C19.5179 8.26401 19.5175 8.26342 19.517 8.26297L11.3426 0.513189C10.9942 0.182634 10.5309 0.000732422 10.0382 0.000732422C9.54545 0.000732422 9.0822 0.182634 8.73363 0.513152L0.563496 8.25904C0.560756 8.26163 0.55786 8.26438 0.555276 8.26701C-0.160262 8.94928 -0.159009 10.0563 0.558799 10.7368C0.886705 11.0479 1.31966 11.2279 1.78279 11.2469C1.80173 11.2487 1.82072 11.2495 1.83982 11.2495H2.16545L2.16545 16.9528C2.16545 18.0815 3.13414 18.9998 4.32467 18.9998H7.52275C7.84702 18.9998 8.10984 18.7505 8.10984 18.4432L8.10984 13.9718C8.10984 13.4567 8.55183 13.0378 9.09504 13.0378L10.9813 13.0378C11.5246 13.0378 11.9664 13.4568 11.9664 13.9718L11.9664 18.4432C11.9664 18.7505 12.2292 18.9998 12.5535 18.9998H15.7516C16.9422 18.9998 17.9108 18.0816 17.9108 16.9528V11.2495H18.2129C18.7055 11.2495 19.1687 11.0676 19.5175 10.737C20.2361 10.0554 20.2363 8.94638 19.5185 8.26438L19.5186 8.26442ZM18.6871 9.94992C18.625 10.0092 18.5511 10.0562 18.4697 10.0882C18.3883 10.1202 18.301 10.1365 18.2129 10.1363H17.3237C16.9994 10.1363 16.7366 10.3855 16.7366 10.693V16.9528C16.7366 17.4677 16.2947 17.8866 15.7515 17.8866H13.1406L13.1406 13.9718C13.1406 12.843 12.172 11.9246 10.9813 11.9246L9.09508 11.9246C7.9044 11.9246 6.93571 12.843 6.93571 13.9718V17.8866H4.32475C3.78166 17.8866 3.33966 17.4677 3.33966 16.9528L3.33966 10.6929C3.33966 10.3855 3.07684 10.1363 2.75258 10.1363H1.87864C1.86948 10.1357 1.86031 10.1353 1.85113 10.1351C1.67622 10.1322 1.51218 10.0664 1.38929 9.94973C1.12784 9.70186 1.12784 9.2985 1.38929 9.05047C1.38941 9.05047 1.38941 9.05032 1.38956 9.05017L1.39003 9.04973L9.56408 1.30024C9.62617 1.24098 9.70006 1.194 9.78144 1.16202C9.86283 1.13005 9.95011 1.11371 10.0382 1.11396C10.2172 1.11396 10.3856 1.18005 10.5123 1.30024L18.6845 9.04817L18.6883 9.05166C18.9484 9.29998 18.948 9.70252 18.6871 9.94992Z" fill="#8F8F8F"/>
</g>
<defs>
<clipPath id="clip0_30_284">
<rect width="20" height="19" fill="white"/>
</clipPath>
</defs>
</svg>
