<svg width="18" height="18" viewBox="0 0 18 18" fill="none" xmlns="http://www.w3.org/2000/svg">
<g clip-path="url(#clip0_235_1016)">
<path d="M11.25 0.9375H6.75C2.67525 0.9375 0.9375 2.676 0.9375 6.75V11.25C0.9375 15.324 2.67525 17.0625 6.75 17.0625H11.25C15.3247 17.0625 17.0625 15.324 17.0625 11.25V6.75C17.0625 2.676 15.3247 0.9375 11.25 0.9375ZM15.9375 11.25C15.9375 14.7105 14.7105 15.9375 11.25 15.9375H6.75C4.68225 15.9375 3.417 15.4942 2.72925 14.4037L6.009 12.2032C6.20517 12.0769 6.43592 12.0151 6.66897 12.0264C6.90202 12.0377 7.12571 12.1216 7.30875 12.2662L7.5585 12.4808C7.95904 12.813 8.46309 12.9948 8.9835 12.9948C9.50391 12.9948 10.008 12.813 10.4085 12.4808L13.5292 9.80325C13.726 9.64663 13.97 9.56136 14.2215 9.56136C14.473 9.56136 14.717 9.64663 14.9137 9.80325L15.939 10.683L15.9375 11.25ZM15.9375 9.20025L15.6442 8.949C15.2437 8.61675 14.7397 8.43491 14.2192 8.43491C13.6988 8.43491 13.1948 8.61675 12.7942 8.949L9.675 11.625C9.47838 11.7812 9.23464 11.8663 8.9835 11.8663C8.73236 11.8663 8.48862 11.7812 8.292 11.625L8.04225 11.4105C7.67289 11.1047 7.215 10.9256 6.73615 10.8998C6.25729 10.874 5.78282 11.0028 5.38275 11.2672L2.286 13.35C2.12295 12.6623 2.04735 11.9567 2.061 11.25V6.75C2.0625 3.2895 3.2895 2.0625 6.75 2.0625H11.25C14.7105 2.0625 15.9375 3.2895 15.9375 6.75V9.20025ZM6.75 3.9375C6.34208 3.9375 5.94331 4.05846 5.60414 4.28509C5.26496 4.51172 5.0006 4.83384 4.8445 5.21071C4.68839 5.58759 4.64755 6.00229 4.72713 6.40237C4.80671 6.80246 5.00315 7.16996 5.29159 7.45841C5.58004 7.74685 5.94754 7.94329 6.34763 8.02287C6.74771 8.10245 7.16241 8.06161 7.53928 7.9055C7.91616 7.74939 8.23827 7.48504 8.46491 7.14586C8.69154 6.80669 8.8125 6.40792 8.8125 6C8.8121 5.45311 8.59468 4.92874 8.20797 4.54203C7.82126 4.15532 7.29689 3.9379 6.75 3.9375ZM6.75 6.9375C6.56458 6.9375 6.38332 6.88252 6.22915 6.7795C6.07498 6.67649 5.95482 6.53007 5.88386 6.35877C5.81291 6.18746 5.79434 5.99896 5.83051 5.8171C5.86669 5.63525 5.95598 5.4682 6.08709 5.33709C6.2182 5.20598 6.38524 5.11669 6.5671 5.08051C6.74896 5.04434 6.93746 5.06291 7.10877 5.13386C7.28007 5.20482 7.42649 5.32498 7.5295 5.47915C7.63252 5.63332 7.6875 5.81458 7.6875 6C7.6871 6.24852 7.5882 6.48674 7.41247 6.66247C7.23674 6.8382 6.99852 6.9371 6.75 6.9375Z" fill="#62BA87"/>
</g>
<defs>
<clipPath id="clip0_235_1016">
<rect width="18" height="18" fill="white"/>
</clipPath>
</defs>
</svg>
