<svg width="18" height="18" viewBox="0 0 18 18" fill="none" xmlns="http://www.w3.org/2000/svg">
<path d="M13.7812 16.1016H4.21875C1.89253 16.1016 0 14.209 0 11.8828V6.11719C0 3.79097 1.89253 1.89844 4.21875 1.89844H13.7812C16.1075 1.89844 18 3.79097 18 6.11719V11.8828C18 14.209 16.1075 16.1016 13.7812 16.1016ZM4.21875 3.30469C2.66794 3.30469 1.40625 4.56638 1.40625 6.11719V11.8828C1.40625 13.4336 2.66794 14.6953 4.21875 14.6953H13.7812C15.3321 14.6953 16.5938 13.4336 16.5938 11.8828V6.11719C16.5938 4.56638 15.3321 3.30469 13.7812 3.30469H4.21875ZM11.5765 10.2447L15.0518 7.59002C15.3604 7.3543 15.4195 6.91305 15.1838 6.60445C14.948 6.29585 14.5068 6.23679 14.1982 6.47251L10.7233 9.12691C9.71986 9.89223 8.31857 9.89279 7.3145 9.12885L3.9472 6.51129C3.64061 6.27293 3.19883 6.3283 2.96054 6.6349C2.72222 6.9415 2.77755 7.38323 3.08415 7.62156L6.45405 10.2411L6.45919 10.2451C7.21237 10.8195 8.11484 11.1067 9.01751 11.1067C9.92018 11.1067 10.823 10.8193 11.5765 10.2447Z" fill="#62BA87"/>
</svg>
