<svg width="12" height="12" viewBox="0 0 12 12" fill="none" xmlns="http://www.w3.org/2000/svg">
<g clip-path="url(#clip0_151_955)">
<path d="M5.28 4.28571C7.11288 4.28571 10.56 3.64114 10.56 2.14286C10.56 0.981429 8.142 0 5.28 0C2.418 0 0 0.981429 0 2.14286C0 3.30429 2.418 4.28571 5.28 4.28571ZM5.06088 0.646071C5.10864 0.549643 5.18424 0.466714 5.28 0.405214C5.35727 0.355212 5.44592 0.320999 5.53965 0.305001C5.63339 0.289004 5.72992 0.291612 5.8224 0.312643C6.43322 0.436247 7.01581 0.652373 7.54488 0.951643C8.10552 1.28979 8.63544 1.85829 8.31648 2.38264C7.68 3.42857 5.2728 3.42857 5.27256 3.42857C4.08 3.42857 2.16 3.05636 2.16 2.03571C2.16 1.27886 3.39456 0.694714 5.06088 0.646071Z" fill="#656565"/>
<path d="M4.8349 2.98499L4.98826 1.07784C3.5917 1.13784 2.6401 1.61206 2.6401 2.0357C2.6401 2.44091 3.51226 2.89949 4.8349 2.98499ZM6.65218 1.00927C6.34434 0.89405 6.02699 0.8002 5.70298 0.728557C5.67808 0.723495 5.65225 0.723299 5.62726 0.727983C5.60227 0.732668 5.57871 0.742122 5.55819 0.755698C5.53767 0.769274 5.52069 0.78665 5.5084 0.806636C5.49611 0.826621 5.4888 0.848744 5.48698 0.871486V0.875557L5.31442 2.99999C5.72931 3.00052 6.1429 2.95853 6.54706 2.87484L6.65218 1.00927ZM6.2401 2.14284C6.2401 2.19968 6.21482 2.25418 6.16981 2.29437C6.1248 2.33455 6.06375 2.35713 6.0001 2.35713C5.93645 2.35713 5.8754 2.33455 5.8304 2.29437C5.78539 2.25418 5.7601 2.19968 5.7601 2.14284V1.92856C5.7601 1.87173 5.78539 1.81722 5.8304 1.77703C5.8754 1.73685 5.93645 1.71427 6.0001 1.71427C6.06375 1.71427 6.1248 1.73685 6.16981 1.77703C6.21482 1.81722 6.2401 1.87173 6.2401 1.92856V2.14284ZM7.88242 2.19899C8.04706 1.88913 7.59442 1.49934 7.2757 1.3067C7.22504 1.27619 7.17342 1.24696 7.1209 1.21906L7.03498 2.74284C7.4845 2.59284 7.77058 2.40963 7.88242 2.19899ZM5.86978 10.4063C5.80635 10.3649 5.73386 10.3359 5.65704 10.3211C5.58021 10.3064 5.50077 10.3062 5.42386 10.3206C5.155 10.3564 4.88114 10.2968 4.66081 10.1546C4.44048 10.0125 4.29116 9.79905 4.24474 9.55991C4.23599 9.49027 4.21099 9.42304 4.17137 9.36254C4.13174 9.30205 4.07837 9.24963 4.01468 9.20867C3.95099 9.16772 3.8784 9.13912 3.80158 9.12473C3.72476 9.11034 3.64542 9.11048 3.56866 9.12513C3.32079 9.15879 3.06766 9.11072 2.85658 8.98991C2.64034 9.12577 2.4289 9.25777 2.22226 9.38613C2.16109 9.42422 2.1107 9.47452 2.07509 9.53302C2.03948 9.59153 2.01963 9.65664 2.01712 9.72319C2.0146 9.78975 2.02949 9.8559 2.0606 9.91642C2.09171 9.97694 2.13819 10.0302 2.19634 10.0718L4.6081 11.7936C4.69082 11.853 4.79322 11.8862 4.8993 11.888C5.00538 11.8899 5.10916 11.8603 5.19442 11.8039C5.54686 11.5691 5.89412 11.3282 6.23602 11.0813C6.17305 10.9797 6.12743 10.8703 6.10066 10.7567C6.09184 10.6871 6.06672 10.62 6.02694 10.5596C5.98717 10.4992 5.93362 10.447 5.86978 10.4063ZM4.74754 11.0625C4.72785 11.0845 4.7035 11.1028 4.67588 11.1164C4.64826 11.1299 4.61792 11.1385 4.58658 11.1416C4.55524 11.1447 4.52353 11.1423 4.49325 11.1344C4.46297 11.1266 4.43471 11.1135 4.4101 11.0959L3.2101 10.2388C3.16039 10.2033 3.12852 10.1516 3.1215 10.0951C3.11447 10.0386 3.13288 9.98187 3.17266 9.93749C3.21244 9.8931 3.27034 9.86464 3.33363 9.85837C3.39691 9.8521 3.46039 9.86854 3.5101 9.90406L4.7101 10.7612C4.73472 10.7788 4.75523 10.8005 4.77043 10.8252C4.78564 10.8498 4.79526 10.8769 4.79874 10.9049C4.80221 10.9329 4.79948 10.9612 4.7907 10.9882C4.78191 11.0153 4.76725 11.0405 4.74754 11.0625Z" fill="#656565"/>
<path d="M10.6151 1.01764C10.3975 0.842932 10.1532 0.696752 9.88955 0.583496C10.5212 0.958068 11.0514 1.4925 11.0401 2.16642C11.0185 2.55526 10.8417 2.92436 10.5419 3.207C9.31187 4.72157 6.04955 6.963 3.31787 8.69871C3.38987 8.70492 3.46187 8.7045 3.53387 8.69764C3.80215 8.66054 4.07601 8.71915 4.29631 8.86079C4.51661 9.00244 4.66567 9.21577 4.71131 9.45471C4.7205 9.5245 4.7458 9.59184 4.78562 9.65246C4.82544 9.71308 4.87891 9.76566 4.94265 9.80688C5.00639 9.84811 5.07902 9.87708 5.15595 9.89196C5.23287 9.90685 5.31241 9.90732 5.38955 9.89335C5.65796 9.85744 5.93146 9.91675 6.15152 10.0586C6.37157 10.2005 6.5207 10.4136 6.56699 10.6524C6.58019 10.7027 6.59699 10.7524 6.61715 10.8011C6.97014 10.5397 7.31693 10.2718 7.65731 9.9975L6.56411 9.16307C6.54016 9.14478 6.52047 9.12245 6.50618 9.09737C6.49189 9.07228 6.48328 9.04493 6.48083 9.01688C6.47837 8.98882 6.48214 8.96061 6.4919 8.93385C6.50166 8.90709 6.51722 8.88231 6.53771 8.86092C6.5582 8.83954 6.5832 8.82196 6.61129 8.8092C6.63939 8.79645 6.67002 8.78875 6.70144 8.78656C6.73287 8.78437 6.76447 8.78773 6.79443 8.79645C6.8244 8.80516 6.85216 8.81906 6.87611 8.83735L8.00963 9.7035C8.34427 9.42516 8.67179 9.14009 8.99195 8.8485L8.00387 8.09142C7.97858 8.07352 7.9576 8.05124 7.94217 8.02592C7.92675 8.0006 7.91721 7.97277 7.91411 7.94408C7.91102 7.91539 7.91443 7.88644 7.92416 7.85896C7.93388 7.83148 7.94972 7.80604 7.97071 7.78415C7.99171 7.76226 8.01744 7.74437 8.04635 7.73157C8.07527 7.71876 8.10678 7.71129 8.139 7.70961C8.17123 7.70793 8.2035 7.71207 8.23389 7.72178C8.26428 7.73149 8.29216 7.74658 8.31587 7.76614L9.32387 8.53757C9.5729 8.30361 9.81663 8.06521 10.0549 7.8225C10.1171 7.75821 10.1807 7.69392 10.2448 7.6275L9.52931 6.897C9.50838 6.87583 9.49234 6.85118 9.48211 6.82447C9.47188 6.79775 9.46767 6.76949 9.46971 6.74132C9.47175 6.71314 9.48001 6.68561 9.49401 6.66029C9.50801 6.63497 9.52748 6.61238 9.55129 6.5938C9.5751 6.57522 9.60279 6.56103 9.63276 6.55203C9.66274 6.54304 9.69441 6.53942 9.72595 6.54139C9.7575 6.54336 9.7883 6.55088 9.81658 6.56351C9.84486 6.57614 9.87007 6.59364 9.89075 6.615L10.5601 7.2975C10.843 6.99859 11.1013 6.68176 11.3329 6.3495L10.8551 5.7495C10.8368 5.72656 10.8237 5.70064 10.8167 5.6732C10.8096 5.64577 10.8087 5.61736 10.8139 5.5896C10.8192 5.56184 10.8305 5.53528 10.8472 5.51142C10.8639 5.48757 10.8858 5.46689 10.9115 5.45057C10.9372 5.43425 10.9662 5.4226 10.9969 5.4163C11.0276 5.41 11.0595 5.40916 11.0906 5.41384C11.1216 5.41851 11.1514 5.42861 11.1781 5.44355C11.2048 5.4585 11.228 5.47799 11.2463 5.50092L11.5876 5.9295C11.7569 5.62226 11.8714 5.2933 11.9269 4.9545C12.1177 3.68378 11.787 1.97378 10.6151 1.01764Z" fill="#656565"/>
<path d="M2.16 7.28593V6.2145C2.16 6.15767 2.18529 6.10316 2.23029 6.06298C2.2753 6.02279 2.33635 6.00021 2.4 6.00021C2.46365 6.00021 2.5247 6.02279 2.56971 6.06298C2.61471 6.10316 2.64 6.15767 2.64 6.2145V7.4145C3.03432 7.50921 3.43512 7.58036 3.84 7.6275V6.42879C3.84 6.37195 3.86529 6.31745 3.91029 6.27726C3.9553 6.23708 4.01635 6.2145 4.08 6.2145C4.14365 6.2145 4.2047 6.23708 4.24971 6.27726C4.29471 6.31745 4.32 6.37195 4.32 6.42879V7.52014C5.9468 6.47556 7.50095 5.34362 8.97384 4.13057C7.79576 4.5345 6.54179 4.73273 5.28 4.7145C2.88792 4.7145 0.8808 4.09457 0 3.1875V5.57164C0 5.94771 0.264 6.31071 0.72 6.62829V5.57164C0.72 5.51481 0.745286 5.46031 0.790294 5.42012C0.835303 5.37993 0.896348 5.35736 0.96 5.35736C1.02365 5.35736 1.0847 5.37993 1.12971 5.42012C1.17471 5.46031 1.2 5.51481 1.2 5.57164V6.91071C1.50675 7.06123 1.82805 7.18681 2.16 7.28593Z" fill="#656565"/>
</g>
<defs>
<clipPath id="clip0_151_955">
<rect width="12" height="12" fill="white"/>
</clipPath>
</defs>
</svg>
