<svg width="20" height="20" viewBox="0 0 20 20" fill="none" xmlns="http://www.w3.org/2000/svg">
<path d="M8.74989 8.75016C8.52072 8.75016 8.33322 8.93766 8.33322 9.16683C8.33322 9.396 8.52072 9.5835 8.74989 9.5835H9.58322V10.0002C9.58322 10.2293 9.77072 10.4168 9.99989 10.4168C10.2291 10.4168 10.4166 10.2293 10.4166 10.0002V9.5835H10.8332C11.2916 9.5835 11.6666 9.2085 11.6666 8.75016V7.91683C11.6666 7.4585 11.2916 7.0835 10.8332 7.0835H9.16655V6.25016H11.2499C11.4791 6.25016 11.6666 6.06266 11.6666 5.8335C11.6666 5.60433 11.4791 5.41683 11.2499 5.41683H10.4166V5.00016C10.4166 4.771 10.2291 4.5835 9.99989 4.5835C9.77072 4.5835 9.58322 4.771 9.58322 5.00016V5.41683H9.16655C8.70822 5.41683 8.33322 5.79183 8.33322 6.25016V7.0835C8.33322 7.54183 8.70822 7.91683 9.16655 7.91683H10.8332V8.75016H8.74989ZM7.50822 11.6668H7.50405C7.27489 11.6668 7.09155 11.8543 7.09155 12.0835C7.09155 12.3127 7.27905 12.5002 7.50822 12.5002C7.73739 12.5002 7.92489 12.3127 7.92489 12.0835C7.92489 11.8543 7.73739 11.6668 7.50822 11.6668ZM12.9166 12.0835C12.9166 11.8543 12.7291 11.6668 12.4999 11.6668H9.16655C8.93739 11.6668 8.74989 11.8543 8.74989 12.0835C8.74989 12.3127 8.93739 12.5002 9.16655 12.5002H12.4999C12.7291 12.5002 12.9166 12.3127 12.9166 12.0835ZM7.50822 13.7502H7.50405C7.27489 13.7502 7.09155 13.9377 7.09155 14.1668C7.09155 14.396 7.27905 14.5835 7.50822 14.5835C7.73739 14.5835 7.92489 14.396 7.92489 14.1668C7.92489 13.9377 7.73739 13.7502 7.50822 13.7502ZM9.16655 13.7502C8.93739 13.7502 8.74989 13.9377 8.74989 14.1668C8.74989 14.396 8.93739 14.5835 9.16655 14.5835H10.5666C10.7957 14.5835 10.9832 14.396 10.9832 14.1668C10.9832 13.9377 10.7957 13.7502 10.5666 13.7502H9.16655Z" fill="#62BA87"/>
<path d="M10.6791 16.5502L9.99992 17.0002L8.97908 16.321C8.83742 16.2293 8.65825 16.2293 8.51659 16.321L7.49575 17.0002L6.47492 16.321C6.33325 16.2293 6.15409 16.2293 6.01242 16.321L5.40825 16.721V3.75016C5.40825 3.446 5.32075 3.16266 5.17492 2.91683H13.7416C14.1999 2.91683 14.5749 3.29183 14.5749 3.75016V11.6918C14.5749 11.921 14.7624 12.1085 14.9916 12.1085C15.2208 12.1085 15.4083 11.921 15.4083 11.6918V3.75016C15.4083 2.82933 14.6624 2.0835 13.7416 2.0835H3.74992C2.82909 2.0835 2.08325 2.82933 2.08325 3.75016V12.9168C2.08325 13.3752 2.45825 13.7502 2.91659 13.7502H4.58325V17.5002C4.58325 17.6543 4.66659 17.796 4.80409 17.8668C4.93742 17.9377 5.10409 17.9293 5.23325 17.846L6.25409 17.1668L7.27492 17.846C7.41658 17.9377 7.59575 17.9377 7.73742 17.846L8.75825 17.1668L9.77908 17.846C9.84992 17.8918 9.92909 17.9168 10.0083 17.9168C10.0874 17.9168 10.1708 17.8918 10.2374 17.846L11.1458 17.2418C11.1914 17.2115 11.2307 17.1724 11.2613 17.1269C11.2919 17.0813 11.3132 17.0302 11.324 16.9764C11.3349 16.9226 11.335 16.8672 11.3244 16.8134C11.3139 16.7596 11.2928 16.7084 11.2624 16.6627C11.2321 16.617 11.193 16.5777 11.1474 16.5471C11.1019 16.5165 11.0508 16.4952 10.997 16.4844C10.9432 16.4735 10.8878 16.4734 10.834 16.484C10.7802 16.4946 10.7289 16.5156 10.6833 16.546L10.6791 16.5502ZM2.91659 3.75016C2.91659 3.29183 3.29159 2.91683 3.74992 2.91683C4.20825 2.91683 4.58325 3.29183 4.58325 3.75016V12.9168H2.91659V3.75016Z" fill="#62BA87"/>
<path d="M15.379 16.8793C15.1332 17.0126 14.8665 17.0834 14.5832 17.0834C13.729 17.0834 13.0332 16.4376 12.9373 15.6084L13.0415 15.7126C13.1248 15.7959 13.229 15.8334 13.3373 15.8334C13.4457 15.8334 13.5498 15.7918 13.6332 15.7126C13.6718 15.674 13.7024 15.6283 13.7233 15.5779C13.7443 15.5275 13.755 15.4734 13.755 15.4188C13.755 15.3643 13.7443 15.3102 13.7233 15.2598C13.7024 15.2094 13.6718 15.1636 13.6332 15.1251L12.7998 14.2918C12.7613 14.2531 12.7155 14.2225 12.6651 14.2016C12.6147 14.1807 12.5607 14.1699 12.5061 14.1699C12.4515 14.1699 12.3975 14.1807 12.3471 14.2016C12.2967 14.2225 12.2509 14.2531 12.2123 14.2918L11.379 15.1251C11.3404 15.1637 11.3098 15.2095 11.2889 15.2599C11.2681 15.3103 11.2573 15.3643 11.2573 15.4188C11.2573 15.4734 11.2681 15.5274 11.2889 15.5778C11.3098 15.6282 11.3404 15.674 11.379 15.7126C11.4176 15.7512 11.4634 15.7818 11.5138 15.8027C11.5642 15.8235 11.6182 15.8343 11.6727 15.8343C11.7273 15.8343 11.7813 15.8235 11.8317 15.8027C11.8821 15.7818 11.9279 15.7512 11.9665 15.7126L12.0957 15.5834C12.179 16.8834 13.2623 17.9209 14.5873 17.9209C15.0123 17.9209 15.4165 17.8168 15.7832 17.6168C15.831 17.5902 15.8732 17.5545 15.9073 17.5117C15.9414 17.4688 15.9667 17.4197 15.9818 17.3671C15.9969 17.3145 16.0014 17.2594 15.9952 17.205C15.9891 17.1506 15.9722 17.098 15.9457 17.0501C15.9191 17.0022 15.8834 16.96 15.8406 16.926C15.7977 16.8919 15.7486 16.8666 15.696 16.8515C15.6434 16.8364 15.5883 16.8318 15.5339 16.838C15.4795 16.8442 15.4269 16.8611 15.379 16.8876V16.8793ZM17.7957 15.1209C17.7571 15.0823 17.7113 15.0517 17.6609 15.0308C17.6105 15.0098 17.5565 14.9991 17.5019 14.9991C17.4473 14.9991 17.3933 15.0098 17.3429 15.0308C17.2925 15.0517 17.2467 15.0823 17.2082 15.1209L17.079 15.2501C16.9957 13.9501 15.9123 12.9126 14.5873 12.9126C14.1623 12.9126 13.7582 13.0168 13.3915 13.2168C13.2948 13.2704 13.2234 13.3602 13.1929 13.4664C13.1624 13.5727 13.1754 13.6867 13.229 13.7834C13.2826 13.8801 13.3724 13.9516 13.4787 13.982C13.5849 14.0125 13.699 13.9995 13.7957 13.9459C14.0415 13.8126 14.3082 13.7418 14.5915 13.7418C15.4457 13.7418 16.1415 14.3876 16.2373 15.2168L16.1332 15.1126C16.0946 15.074 16.0488 15.0434 15.9984 15.0225C15.948 15.0017 15.894 14.9909 15.8394 14.9909C15.7849 14.9909 15.7308 15.0017 15.6804 15.0225C15.63 15.0434 15.5842 15.074 15.5457 15.1126C15.5071 15.1512 15.4765 15.197 15.4556 15.2474C15.4347 15.2978 15.424 15.3518 15.424 15.4063C15.424 15.4609 15.4347 15.5149 15.4556 15.5653C15.4765 15.6157 15.5071 15.6615 15.5457 15.7001L16.379 16.5334C16.4623 16.6168 16.5665 16.6543 16.6748 16.6543C16.7832 16.6543 16.8873 16.6126 16.9707 16.5334L17.804 15.7001C17.8426 15.6616 17.8733 15.6158 17.8942 15.5654C17.9151 15.515 17.9259 15.4609 17.9259 15.4063C17.9259 15.3518 17.9151 15.2977 17.8942 15.2473C17.8733 15.1969 17.8426 15.1511 17.804 15.1126L17.7957 15.1209Z" fill="#62BA87"/>
</svg>
