<svg width="98" height="98" viewBox="0 0 98 98" fill="none" xmlns="http://www.w3.org/2000/svg">
<path d="M77.583 69.1997C81.0922 64.2342 83.2472 58.4401 83.8358 52.3882C84.4244 46.3364 83.4263 40.2356 80.9397 34.6869C78.4531 29.1382 74.5639 24.333 69.6553 20.7447C64.7466 17.1564 58.9878 14.9088 52.9461 14.2233L52.6556 16.7839C58.2524 17.4189 63.5872 19.5011 68.1344 22.8252C72.6817 26.1493 76.2845 30.6006 78.588 35.7408C80.8915 40.881 81.8162 46.5325 81.2709 52.1388C80.7257 57.745 78.7293 63.1125 75.4785 67.7124L77.583 69.1997Z" fill="#62BA87"/>
<circle cx="48.9998" cy="49" r="30" fill="#62BA87"/>
<g clip-path="url(#clip0_10_632)">
<path d="M58.0656 50.4115H41.2303L44.3851 53.4168C45.2906 54.2804 43.9324 55.5793 43.0268 54.7157L40.1546 51.9729L38.2349 50.142C38.0557 49.9704 37.9551 49.7382 37.9551 49.496C37.9551 49.2539 38.0557 49.0216 38.2349 48.85L43.0305 44.2764C43.1209 44.188 43.2291 44.1179 43.3486 44.0704C43.4681 44.0229 43.5964 43.999 43.7259 44C43.9171 44.0005 44.1038 44.0554 44.2621 44.1578C44.4204 44.2602 44.543 44.4053 44.6142 44.5745C44.6854 44.7438 44.702 44.9294 44.6618 45.1077C44.6217 45.286 44.5266 45.4488 44.3887 45.5753L41.2267 48.5806H58.1163C59.4456 48.6462 59.3478 50.4736 58.0656 50.4115Z" fill="white"/>
</g>
<defs>
<clipPath id="clip0_10_632">
<rect width="23" height="18" fill="white" transform="matrix(-1 0 0 1 59.9998 40)"/>
</clipPath>
</defs>
</svg>
