<svg width="98" height="98" viewBox="0 0 98 98" fill="none" xmlns="http://www.w3.org/2000/svg">
<path d="M77.583 69.1997C81.0922 64.2342 83.2472 58.4401 83.8358 52.3882C84.4244 46.3364 83.4263 40.2356 80.9397 34.6869C78.4531 29.1382 74.5639 24.333 69.6553 20.7447C64.7466 17.1564 58.9878 14.9088 52.9461 14.2233L52.6556 16.7839C58.2524 17.4189 63.5872 19.5011 68.1344 22.8252C72.6817 26.1493 76.2845 30.6006 78.588 35.7408C80.8915 40.881 81.8162 46.5325 81.2709 52.1388C80.7257 57.745 78.7293 63.1125 75.4785 67.7124L77.583 69.1997Z" fill="#62BA87"/>
<circle cx="48.9998" cy="49" r="30" fill="#62BA87"/>
<g clip-path="url(#clip0_10_694)">
<path d="M58.0656 50.4115H41.2303L44.3851 53.4168C45.2906 54.2804 43.9324 55.5793 43.0268 54.7157L40.1546 51.9729L38.2349 50.142C38.0557 49.9704 37.9551 49.7382 37.9551 49.496C37.9551 49.2539 38.0557 49.0216 38.2349 48.85L43.0305 44.2764C43.1209 44.188 43.2291 44.1179 43.3486 44.0704C43.4681 44.0229 43.5964 43.999 43.7259 44C43.9171 44.0005 44.1038 44.0554 44.2621 44.1578C44.4204 44.2602 44.543 44.4053 44.6142 44.5745C44.6854 44.7438 44.702 44.9294 44.6618 45.1077C44.6217 45.286 44.5266 45.4488 44.3887 45.5753L41.2267 48.5806H58.1163C59.4456 48.6462 59.3478 50.4736 58.0656 50.4115Z" fill="white"/>
</g>
<path d="M51.411 15.3749C51.4619 14.6651 50.9276 14.0459 50.2165 14.0212C44.5809 13.8254 38.9746 14.9941 33.8778 17.4362C28.3932 20.064 23.688 24.0756 20.2259 29.0757C16.7638 34.0757 14.6643 39.8916 14.1343 45.9501C13.6418 51.5802 14.5205 57.2393 16.6867 62.4455C16.9601 63.1025 17.7276 63.3848 18.3741 63.0874C19.0206 62.79 19.3011 62.0257 19.0297 61.3679C17.0494 56.5692 16.248 51.3586 16.7015 46.1746C17.1925 40.5622 19.1374 35.1746 22.3446 30.5427C25.5517 25.9108 29.9105 22.1945 34.9913 19.7602C39.6842 17.5116 44.8435 16.4284 50.0321 16.5935C50.7434 16.6162 51.3602 16.0847 51.411 15.3749Z" fill="#62BA87"/>
<path d="M19.291 64.9317C18.6638 65.268 18.426 66.0504 18.7851 66.6648C21.5375 71.3728 25.3553 75.378 29.939 78.3545C34.8834 81.5652 40.5587 83.475 46.4382 83.9066C52.3178 84.3382 58.2111 83.2777 63.5713 80.8234C68.5405 78.5481 72.9023 75.1434 76.3127 70.8878C76.7577 70.3324 76.6366 69.5237 76.0653 69.0994C75.494 68.6751 74.6889 68.7962 74.2423 69.3502C71.0919 73.2579 67.073 76.3858 62.4985 78.4803C57.5329 80.7539 52.0735 81.7363 46.6269 81.3365C41.1802 80.9367 35.9228 79.1675 31.3425 76.1932C27.1229 73.4531 23.6039 69.7719 21.0579 65.446C20.6969 64.8327 19.9181 64.5954 19.291 64.9317Z" fill="#62BA87"/>
<defs>
<clipPath id="clip0_10_694">
<rect width="23" height="18" fill="white" transform="matrix(-1 0 0 1 59.9998 40)"/>
</clipPath>
</defs>
</svg>
