<svg width="41" height="41" viewBox="0 0 41 41" fill="none" xmlns="http://www.w3.org/2000/svg">
<g filter="url(#filter0_d_24_236)">
<circle cx="20.5" cy="18.5" r="17.5" fill="white"/>
<circle cx="20.5" cy="18.5" r="18" stroke="#EEEEEE"/>
</g>
<g clip-path="url(#clip0_24_236)">
<path d="M27.8675 20.2102L26.5098 14.9764C26.1119 13.4431 25.247 12.0963 24.0526 11.1501C22.8583 10.204 21.403 9.71269 19.9181 9.75441C18.4333 9.79612 17.004 10.3684 15.8576 11.3803C14.7111 12.3923 13.9133 13.7858 13.5909 15.3393L12.5397 20.4039C12.4236 20.9635 12.4263 21.5439 12.5476 22.1023C12.6689 22.6607 12.9056 23.1827 13.2404 23.6299C13.5752 24.0771 13.9995 24.438 14.4819 24.686C14.9643 24.934 15.4925 25.0627 16.0276 25.0627H16.8237C16.9877 25.9281 17.4259 26.7061 18.064 27.2649C18.7021 27.8238 19.5009 28.1291 20.3251 28.1291C21.1493 28.1291 21.9481 27.8238 22.5862 27.2649C23.2244 26.7061 23.6626 25.9281 23.8266 25.0627H24.4254C24.9762 25.0628 25.5196 24.9264 26.013 24.6642C26.5065 24.402 26.9367 24.0211 27.27 23.5513C27.6034 23.0815 27.8308 22.5354 27.9346 21.9558C28.0383 21.3763 28.0156 20.7788 27.8683 20.2102H27.8675ZM20.3251 26.594C19.8833 26.592 19.4529 26.4438 19.0927 26.1697C18.7325 25.8956 18.4601 25.509 18.3128 25.0627H22.3374C22.1901 25.509 21.9178 25.8956 21.5576 26.1697C21.1974 26.4438 20.7669 26.592 20.3251 26.594ZM26.1318 22.6242C25.9327 22.9072 25.6747 23.1366 25.3784 23.2941C25.082 23.4516 24.7555 23.5329 24.4247 23.5315H16.0276C15.7066 23.5314 15.3897 23.4541 15.1003 23.3053C14.8109 23.1565 14.5564 22.9399 14.3556 22.6716C14.1548 22.4033 14.0127 22.0901 13.94 21.7551C13.8673 21.4201 13.8657 21.0719 13.9353 20.7362L14.9857 15.6708C15.239 14.4506 15.8656 13.356 16.7661 12.5612C17.6666 11.7663 18.7892 11.3168 19.9555 11.2841C21.1218 11.2513 22.2649 11.6373 23.203 12.3805C24.141 13.1237 24.8203 14.1816 25.1328 15.386L26.4905 20.6198C26.5802 20.9608 26.5945 21.3195 26.5323 21.6674C26.47 22.0154 26.3329 22.343 26.1318 22.6242Z" fill="#0C1A30"/>
</g>
<ellipse cx="24" cy="11.9309" rx="2.625" ry="2.625" fill="#CB2D2D"/>
<defs>
<filter id="filter0_d_24_236" x="0" y="0" width="41" height="41" filterUnits="userSpaceOnUse" color-interpolation-filters="sRGB">
<feFlood flood-opacity="0" result="BackgroundImageFix"/>
<feColorMatrix in="SourceAlpha" type="matrix" values="0 0 0 0 0 0 0 0 0 0 0 0 0 0 0 0 0 0 127 0" result="hardAlpha"/>
<feOffset dy="2"/>
<feGaussianBlur stdDeviation="1"/>
<feComposite in2="hardAlpha" operator="out"/>
<feColorMatrix type="matrix" values="0 0 0 0 0 0 0 0 0 0 0 0 0 0 0 0 0 0 0.25 0"/>
<feBlend mode="normal" in2="BackgroundImageFix" result="effect1_dropShadow_24_236"/>
<feBlend mode="normal" in="SourceGraphic" in2="effect1_dropShadow_24_236" result="shape"/>
</filter>
<clipPath id="clip0_24_236">
<rect width="17.15" height="18.375" fill="white" transform="translate(11.75 9.75)"/>
</clipPath>
</defs>
</svg>
