<svg width="43" height="43" viewBox="0 0 43 43" fill="none" xmlns="http://www.w3.org/2000/svg">
<rect width="43" height="43" rx="21.5" fill="#62BA87" fill-opacity="0.35"/>
<path d="M20.5717 13.5695C17.7633 13.9935 15.5173 16.3129 15.1796 19.294L14.8348 22.3385C14.7491 23.095 14.4425 23.8069 13.9555 24.38C12.9221 25.5964 13.7608 27.5 15.3301 27.5H27.6699C29.2392 27.5 30.0779 25.5964 29.0445 24.38C28.5575 23.8069 28.2509 23.095 28.1652 22.3385L27.9373 20.3267M24.5 29.5C24.0633 30.6652 22.885 31.5 21.5 31.5C20.115 31.5 18.9367 30.6652 18.5 29.5M29.5 14.5C29.5 16.1569 28.1569 17.5 26.5 17.5C24.8431 17.5 23.5 16.1569 23.5 14.5C23.5 12.8431 24.8431 11.5 26.5 11.5C28.1569 11.5 29.5 12.8431 29.5 14.5Z" stroke="#1C472E" stroke-width="1.5" stroke-linecap="round"/>
</svg>
