<svg width="20" height="20" viewBox="0 0 20 20" fill="none" xmlns="http://www.w3.org/2000/svg">
<g clip-path="url(#clip0_344_1170)">
<path d="M19.8503 5.14571L14.8543 0.14969C14.807 0.102075 14.7507 0.0643264 14.6886 0.0386316C14.6266 0.0129368 14.5601 -0.000193268 14.493 2.14963e-06C14.4258 -0.000160042 14.3593 0.0129846 14.2973 0.0386769C14.2352 0.0643692 14.1789 0.1021 14.1315 0.14969L11.384 2.89719C11.3297 2.95154 11.2992 3.02521 11.2992 3.10203C11.2992 3.17885 11.3297 3.25253 11.384 3.30688C11.4383 3.36122 11.5121 3.39174 11.5889 3.39174C11.6658 3.39174 11.7395 3.36122 11.7938 3.30688L14.493 0.607815L19.3922 5.50703L10.5652 14.3341L9.53664 13.3057C9.57866 13.2583 9.61941 13.2098 9.65887 13.1602L9.8168 12.9605C9.91688 12.9879 10.0263 12.9772 10.1235 12.9245C10.396 12.7774 10.7344 12.7774 11.0068 12.9245C11.07 12.9587 11.1382 12.9753 11.2056 12.9753C11.2596 12.9753 11.3131 12.9646 11.363 12.9438C11.4128 12.923 11.4581 12.8926 11.4962 12.8543L12.1683 12.1822C12.2226 12.1278 12.2531 12.0541 12.2531 11.9773C12.2531 11.9005 12.2226 11.8268 12.1683 11.7725C12.114 11.7182 12.0403 11.6877 11.9635 11.6877C11.8867 11.6877 11.813 11.7182 11.7586 11.7725L11.1707 12.3602C10.9233 12.2515 10.6513 12.2115 10.383 12.2443L10.5878 11.9855L11.8958 10.6775L11.8959 10.6773L13.0614 9.51188C13.4245 9.41774 13.7558 9.22812 14.0209 8.9627C14.8433 8.14028 14.8433 6.80176 14.0207 5.97914C13.1983 5.15672 11.8599 5.15672 11.0373 5.9793C10.4888 6.52785 10.291 7.34285 10.5088 8.07602C10.2657 8.22313 10.0446 8.39047 9.86364 8.57149L8.70731 9.72813C8.63301 9.80254 8.53321 9.84344 8.42657 9.84344H8.41711C8.25992 9.84344 8.03485 9.66781 7.97094 9.50242V8.49824L13.8873 2.58164C14.0781 2.66579 14.2844 2.70924 14.4929 2.70924C14.7015 2.70924 14.9077 2.66579 15.0986 2.58164L17.4184 4.90145C17.3343 5.09228 17.2909 5.29852 17.2909 5.50705C17.2909 5.71558 17.3343 5.92183 17.4184 6.11266L12.7273 10.8035C12.673 10.8579 12.6425 10.9316 12.6425 11.0084C12.6425 11.0853 12.673 11.159 12.7273 11.2134C12.7542 11.2403 12.7862 11.2616 12.8214 11.2762C12.8565 11.2907 12.8942 11.2982 12.9323 11.2982C12.9703 11.2982 13.008 11.2907 13.0432 11.2762C13.0783 11.2616 13.1103 11.2403 13.1372 11.2134L17.9125 6.43797C18.0423 6.30797 18.0705 6.11129 17.9826 5.94864C17.8354 5.67625 17.8354 5.33781 17.9825 5.06563C18.0707 4.90281 18.0425 4.70598 17.9125 4.5761L15.424 2.0877C15.2939 1.9577 15.0973 1.92949 14.9346 2.01739C14.6622 2.16465 14.3237 2.16477 14.0514 2.01739C13.8887 1.92949 13.692 1.9577 13.5619 2.0877L7.97071 7.67883V7.13L10.8139 4.2868C10.8925 4.20821 10.9191 4.09133 10.8824 3.98621C10.8456 3.8811 10.7518 3.80645 10.6411 3.7941C10.1576 3.73992 9.68215 3.70086 9.29988 3.66957C9.03789 3.64809 8.83082 3.63113 8.70739 3.61617C8.32684 3.57071 7.9559 3.7018 7.57379 4.01703L5.04528 6.0118C5.0436 6.01317 5.04176 6.01453 5.04008 6.0161C4.63543 6.35102 4.3475 6.79578 4.20758 7.3027C3.94543 8.25227 3.37903 9.97895 3.02211 10.6824L1.79028 11.9144L1.74434 11.8683C1.62336 11.7473 1.46235 11.6806 1.29133 11.6806C1.12031 11.6806 0.959299 11.7473 0.838283 11.8683L0.187658 12.5191C0.127988 12.5784 0.0806776 12.649 0.0484664 12.7267C0.0162552 12.8045 -0.000217367 12.8878 2.16573e-06 12.972C2.16573e-06 13.1432 0.0666818 13.304 0.187697 13.425L3.88551 17.1228C3.94484 17.1825 4.01541 17.2298 4.09314 17.262C4.17087 17.2942 4.25422 17.3107 4.33836 17.3105C4.50957 17.3105 4.67039 17.2438 4.79141 17.1228L5.44203 16.472C5.56305 16.3512 5.62973 16.1902 5.62973 16.0191C5.62973 15.8481 5.56305 15.6871 5.44223 15.5661L5.39489 15.5189L5.70192 15.2119C5.83446 15.0795 5.99825 14.9827 6.17813 14.9304C6.18211 14.9293 6.18594 14.9281 6.18985 14.9268L8.04719 14.3013C8.43655 14.1679 8.79931 13.9668 9.11879 13.7073L10.2037 14.7922C10.3003 14.8888 10.4286 14.9419 10.5652 14.9419C10.7018 14.9419 10.8299 14.8888 10.9265 14.7922L19.8503 5.86852C19.8979 5.82116 19.9357 5.76482 19.9614 5.70277C19.9871 5.64072 20.0002 5.57419 20 5.50703C20 5.37063 19.9469 5.24219 19.8503 5.14571ZM11.691 10.0627L11.4787 9.85032C11.443 9.81453 11.423 9.76605 11.423 9.71551C11.423 9.66497 11.443 9.61649 11.4787 9.58071L11.8933 9.1661C11.953 9.10632 12.024 9.05893 12.1021 9.02664C12.1801 8.99436 12.2638 8.97782 12.3483 8.97797C12.4643 8.97797 12.5803 9.0091 12.6825 9.07121L11.691 10.0627ZM11.447 6.38903C12.0436 5.79223 13.0144 5.79239 13.611 6.38887C14.1682 6.9461 14.2049 7.82946 13.7215 8.42988C13.7205 8.21442 13.6344 8.0136 13.4666 7.84133C13.2819 7.62071 12.9803 7.49313 12.5936 7.47239C12.1251 7.44692 11.5608 7.57598 11.0364 7.8041C10.9257 7.30102 11.0753 6.76074 11.447 6.38903ZM5.03235 16.0623L4.38172 16.7131C4.36692 16.7279 4.34996 16.7311 4.33836 16.7311C4.32695 16.7311 4.31 16.7279 4.2952 16.7131L0.597385 13.0152C0.582424 13.0004 0.579377 12.9835 0.579377 12.9719C0.579377 12.9603 0.582424 12.9435 0.597385 12.9288L1.24801 12.278C1.26285 12.2631 1.27977 12.2599 1.29137 12.2599C1.30297 12.2599 1.31973 12.2631 1.33453 12.2779L5.03235 15.9757C5.04731 15.9906 5.05035 16.0075 5.05035 16.0191C5.05035 16.0307 5.04731 16.0475 5.03238 16.0623L5.03235 16.0623ZM9.53246 12.3859L9.20442 12.8007C9.12002 12.9075 9.02825 13.0083 8.92977 13.1023C8.92867 13.1033 8.92746 13.1042 8.92641 13.1053L8.92426 13.1076C8.62029 13.3967 8.25751 13.6167 7.86071 13.7527L6.01043 14.3758C5.7392 14.4558 5.4923 14.6024 5.29219 14.8023L4.9852 15.1093L2.20004 12.3241L3.46391 11.0602C3.48448 11.0395 3.50186 11.0158 3.51547 10.99C3.89438 10.2678 4.48516 8.47414 4.7661 7.45696C4.87395 7.06621 5.09551 6.72301 5.40696 6.46453L7.93535 4.46992C7.93703 4.46856 7.93887 4.46719 7.94051 4.46563C8.20176 4.24961 8.41707 4.16504 8.63848 4.1916C8.77274 4.20778 8.98453 4.225 9.25246 4.24715C9.46793 4.26485 9.71344 4.28481 9.97254 4.30879L7.47606 6.80528C7.42175 6.85958 7.39123 6.93324 7.39121 7.01004L7.39137 9.54727C7.39137 9.57246 7.39473 9.59766 7.40129 9.62188C7.51512 10.0487 7.98981 10.423 8.41707 10.423H8.42653C8.68789 10.423 8.93324 10.3216 9.11715 10.1376L10.2733 8.98133C10.4628 8.7918 10.7086 8.61805 10.9784 8.47321C10.9795 8.47274 10.9805 8.47242 10.9816 8.47199C10.9939 8.46653 11.0054 8.46008 11.0165 8.45324C11.5232 8.18848 12.1075 8.02598 12.5624 8.05098C12.7843 8.06289 12.9488 8.12195 13.0255 8.21715C13.0321 8.22524 13.0391 8.23305 13.0463 8.24035C13.1488 8.34289 13.1485 8.42559 13.1369 8.48606C13.1277 8.53285 13.1063 8.5841 13.0747 8.63739C12.5964 8.28387 11.9166 8.32336 11.4836 8.75641L11.069 9.17098C10.9236 9.31656 10.8435 9.50988 10.8435 9.71559C10.8435 9.92129 10.9236 10.1146 11.069 10.26L11.2814 10.4724L10.166 11.5877C10.1581 11.5956 10.1506 11.604 10.1438 11.6129L9.53321 12.385C9.53293 12.3852 9.53262 12.3855 9.53246 12.3859Z" fill="#197A42"/>
</g>
<defs>
<clipPath id="clip0_344_1170">
<rect width="20" height="20" fill="white"/>
</clipPath>
</defs>
</svg>
