<svg width="20" height="20" viewBox="0 0 20 20" fill="none" xmlns="http://www.w3.org/2000/svg">
<path d="M13.5827 12.3101H11.1312L11.6419 10.613C11.7982 10.1055 11.749 9.55702 11.5051 9.0854C11.2612 8.61377 10.842 8.25666 10.3377 8.09083C10.1928 8.04308 10.0396 8.02576 9.88777 8.03995C9.7359 8.05414 9.5886 8.09954 9.4551 8.1733C9.32159 8.24706 9.20475 8.3476 9.11191 8.46861C9.01906 8.58962 8.95219 8.72849 8.91551 8.87654L8.83694 9.20654C8.54062 10.3957 7.92687 11.482 7.06122 12.3494L6.61337 12.7894C6.49956 12.6461 6.3551 12.53 6.19059 12.4498C6.02607 12.3696 5.84568 12.3272 5.66265 12.3258H5.08908C4.7667 12.3258 4.4573 12.4528 4.22788 12.6793C3.99846 12.9057 3.8675 13.2135 3.86337 13.5358V18.5958C3.86337 18.9209 3.9925 19.2327 4.22237 19.4625C4.45224 19.6924 4.764 19.8215 5.08908 19.8215H5.66265C5.87364 19.8211 6.08088 19.7658 6.26407 19.6611C6.44726 19.5564 6.60012 19.4059 6.70765 19.2244L6.81765 19.2794C7.52779 19.634 8.31033 19.8196 9.10408 19.8215H11.9248C12.3911 19.8238 12.8507 19.7101 13.2621 19.4907C13.6736 19.2712 14.024 18.9529 14.2819 18.5644C14.8309 17.7436 15.1235 16.7782 15.1227 15.7908V13.8344C15.1227 13.6329 15.0827 13.4334 15.0051 13.2474C14.9276 13.0615 14.8139 12.8927 14.6707 12.751C14.5274 12.6092 14.3576 12.4973 14.1708 12.4216C13.984 12.3459 13.7841 12.308 13.5827 12.3101ZM6.07122 18.5958C6.07122 18.7125 6.02487 18.8244 5.94235 18.907C5.85983 18.9895 5.74792 19.0358 5.63122 19.0358H5.08908C4.97238 19.0358 4.86047 18.9895 4.77795 18.907C4.69544 18.8244 4.64908 18.7125 4.64908 18.5958V13.5358C4.64908 13.4191 4.69544 13.3072 4.77795 13.2247C4.86047 13.1422 4.97238 13.0958 5.08908 13.0958H5.66265C5.77382 13.1038 5.87782 13.1536 5.95365 13.2353C6.02949 13.317 6.07151 13.4244 6.07122 13.5358V18.5958ZM14.3212 15.7908C14.3245 16.6293 14.0784 17.4498 13.6141 18.148C13.4283 18.4257 13.177 18.6534 12.8824 18.811C12.5878 18.9686 12.2589 19.0512 11.9248 19.0515H9.10408C8.43325 19.0509 7.77169 18.8949 7.17122 18.5958L6.85694 18.4387V13.6144L7.57979 12.8915C8.54694 11.9246 9.23391 10.7135 9.56765 9.38726L9.64622 9.06512C9.66955 8.97893 9.72605 8.90549 9.80337 8.86083C9.84302 8.84352 9.88582 8.83459 9.92908 8.83459C9.97234 8.83459 10.0151 8.84352 10.0548 8.86083C10.2096 8.91232 10.3528 8.99383 10.4761 9.1007C10.5994 9.20757 10.7005 9.3377 10.7734 9.48365C10.8464 9.6296 10.8899 9.78851 10.9014 9.95128C10.9129 10.114 10.8922 10.2775 10.8405 10.4323L10.1805 12.6401C10.1634 12.6987 10.1602 12.7604 10.1711 12.8204C10.182 12.8804 10.2068 12.937 10.2434 12.9858C10.2791 13.0356 10.3263 13.0759 10.3811 13.1032C10.4358 13.1306 10.4964 13.1443 10.5577 13.143H13.5355C13.6325 13.143 13.7285 13.1621 13.8181 13.1992C13.9078 13.2363 13.9892 13.2907 14.0578 13.3593C14.1263 13.4279 14.1807 13.5093 14.2179 13.5989C14.255 13.6885 14.2741 13.7846 14.2741 13.8815L14.3212 15.7908ZM7.64265 4.73583L7.39122 6.1894C7.36098 6.35027 7.37747 6.51643 7.43874 6.66821C7.50001 6.81999 7.6035 6.95104 7.73694 7.04583C7.88464 7.15595 8.06343 7.21646 8.24765 7.21869C8.38987 7.21643 8.52967 7.18148 8.65622 7.11654L9.99979 6.42512L11.3119 7.11654C11.4562 7.19273 11.6191 7.22652 11.7818 7.21401C11.9445 7.20149 12.1003 7.14319 12.2312 7.04583C12.3633 6.95165 12.4659 6.82189 12.5271 6.67167C12.5883 6.52144 12.6056 6.35692 12.5769 6.19726L12.3569 4.73583L13.3862 3.7144C13.5051 3.60198 13.5896 3.45812 13.6299 3.29956C13.6703 3.141 13.6648 2.97425 13.6141 2.81869C13.5633 2.66329 13.4703 2.52511 13.3454 2.41964C13.2205 2.31417 13.0686 2.24557 12.9069 2.22154L11.4377 2.0094L10.7855 0.66583C10.7121 0.52038 10.5999 0.398149 10.4611 0.312748C10.3224 0.227347 10.1627 0.182129 9.99979 0.182129C9.83689 0.182129 9.67718 0.227347 9.53846 0.312748C9.39974 0.398149 9.28744 0.52038 9.21408 0.66583L8.56194 1.99369L7.09265 2.20583C6.93095 2.22986 6.77914 2.29845 6.65423 2.40393C6.52933 2.5094 6.43628 2.64758 6.38551 2.80297C6.33155 2.96069 6.32436 3.13064 6.36478 3.29235C6.40521 3.45406 6.49154 3.60063 6.61337 3.7144L7.64265 4.73583ZM7.17122 2.98369L8.84479 2.74012C8.92039 2.74501 8.99575 2.72749 9.06144 2.68976C9.12713 2.65202 9.18023 2.59574 9.21408 2.52797L9.99979 1.01154C10.0067 0.996499 10.0178 0.98375 10.0317 0.974811C10.0456 0.965873 10.0618 0.961121 10.0784 0.961121C10.0949 0.961121 10.1111 0.965873 10.125 0.974811C10.139 0.98375 10.15 0.996499 10.1569 1.01154L10.9427 2.52797C10.9709 2.58535 11.013 2.63479 11.0651 2.67182C11.1172 2.70886 11.1778 2.73233 11.2412 2.74012L12.9148 2.98369C12.9311 2.987 12.9462 2.99457 12.9586 3.0056C12.971 3.01664 12.9803 3.03077 12.9855 3.04654C12.9931 3.05968 12.9971 3.07459 12.9971 3.08976C12.9971 3.10493 12.9931 3.11983 12.9855 3.13297L11.7755 4.31154C11.7297 4.35727 11.6953 4.41304 11.6748 4.47441C11.6544 4.53578 11.6485 4.60108 11.6577 4.66512L11.9484 6.32297C11.9537 6.33969 11.9526 6.35779 11.9454 6.37376C11.9381 6.38973 11.9252 6.40244 11.9091 6.4094C11.8955 6.4196 11.8789 6.42512 11.8619 6.42512C11.8449 6.42512 11.8284 6.4196 11.8148 6.4094L10.3219 5.62369C10.2667 5.59272 10.2045 5.57645 10.1412 5.57645C10.0779 5.57645 10.0157 5.59272 9.96051 5.62369L8.45979 6.4094C8.44742 6.41896 8.43222 6.42414 8.41658 6.42414C8.40094 6.42414 8.38574 6.41896 8.37337 6.4094C8.35726 6.40244 8.34432 6.38973 8.33706 6.37376C8.3298 6.35779 8.32874 6.33969 8.33408 6.32297L8.62479 4.66512C8.63396 4.60108 8.62809 4.53578 8.60763 4.47441C8.58717 4.41304 8.5527 4.35727 8.50694 4.31154L7.29694 3.13297C7.28935 3.11983 7.28536 3.10493 7.28536 3.08976C7.28536 3.07459 7.28935 3.05968 7.29694 3.04654C7.27653 3.0477 7.2563 3.0422 7.2393 3.03086C7.22229 3.01952 7.20943 3.00297 7.20265 2.98369H7.17122ZM4.76694 9.41083C4.88397 9.41297 5.00001 9.38893 5.10656 9.34046C5.21311 9.292 5.30749 9.22035 5.3828 9.13073C5.45811 9.04111 5.51244 8.93581 5.54183 8.8225C5.57121 8.70919 5.57491 8.59075 5.55265 8.47583L5.34051 7.28154L6.22051 6.42512C6.33138 6.32337 6.4107 6.19192 6.44904 6.0464C6.48738 5.90089 6.48312 5.74742 6.43678 5.60425C6.39043 5.46108 6.30395 5.33424 6.18761 5.23879C6.07127 5.14334 5.92997 5.08331 5.78051 5.06583L4.57837 4.89297L4.03622 3.80083C3.96389 3.67517 3.85971 3.57079 3.73418 3.49821C3.60866 3.42563 3.46622 3.38741 3.32122 3.38741C3.17623 3.38741 3.03379 3.42563 2.90826 3.49821C2.78274 3.57079 2.67856 3.67517 2.60622 3.80083L2.06408 4.89297L0.861937 5.06583C0.712473 5.08331 0.571172 5.14334 0.454833 5.23879C0.338494 5.33424 0.252012 5.46108 0.205668 5.60425C0.159325 5.74742 0.155069 5.90089 0.193408 6.0464C0.231747 6.19192 0.311067 6.32337 0.421937 6.42512L1.29408 7.28154L1.08194 8.47583C1.05472 8.6239 1.07061 8.77666 1.12772 8.91596C1.18483 9.05525 1.28075 9.1752 1.40408 9.26154C1.52453 9.34959 1.66756 9.40152 1.81644 9.41125C1.96532 9.42099 2.1139 9.38814 2.24479 9.31654L3.32122 8.75083L4.39765 9.31654C4.51114 9.3778 4.63797 9.41019 4.76694 9.41083ZM3.32122 7.91797C3.25789 7.91758 3.19558 7.93384 3.14051 7.96512L1.85979 8.6094L2.14265 7.21083C2.14702 7.14358 2.13501 7.07627 2.10764 7.01469C2.08027 6.9531 2.03836 6.89908 1.98551 6.85726L0.971937 5.84369L2.38622 5.6394C2.44875 5.63177 2.50829 5.60827 2.55917 5.57114C2.61006 5.53401 2.6506 5.48448 2.67694 5.42726L3.32908 4.14654L3.96551 5.42726C3.99185 5.48448 4.03239 5.53401 4.08327 5.57114C4.13416 5.60827 4.1937 5.63177 4.25622 5.6394L5.67051 5.86726L4.65694 6.85726C4.61118 6.90299 4.5767 6.95875 4.55625 7.02012C4.53579 7.0815 4.52991 7.14679 4.53908 7.21083L4.76694 8.62512L3.50194 7.96512C3.44687 7.93384 3.38455 7.91758 3.32122 7.91797ZM19.7819 5.60797C19.7371 5.46579 19.6526 5.33931 19.5385 5.24331C19.4245 5.14731 19.2854 5.08575 19.1377 5.06583L17.9355 4.89297L17.3934 3.80083C17.321 3.67517 17.2168 3.57079 17.0913 3.49821C16.9658 3.42563 16.8234 3.38741 16.6784 3.38741C16.5334 3.38741 16.3909 3.42563 16.2654 3.49821C16.1399 3.57079 16.0357 3.67517 15.9634 3.80083L15.4212 4.89297L14.2191 5.06583C14.0696 5.08331 13.9283 5.14334 13.812 5.23879C13.6956 5.33424 13.6092 5.46108 13.5628 5.60425C13.5165 5.74742 13.5122 5.90089 13.5506 6.0464C13.5889 6.19192 13.6682 6.32337 13.7791 6.42512L14.6512 7.28154L14.4391 8.47583C14.4119 8.6239 14.4278 8.77666 14.4849 8.91596C14.542 9.05525 14.6379 9.1752 14.7612 9.26154C14.8817 9.34959 15.0247 9.40152 15.1736 9.41125C15.3225 9.42099 15.471 9.38814 15.6019 9.31654L16.6784 8.75083L17.7548 9.31654C17.8683 9.3778 17.9951 9.41019 18.1241 9.41083C18.2411 9.41297 18.3572 9.38893 18.4637 9.34046C18.5703 9.292 18.6646 9.22035 18.7399 9.13073C18.8153 9.04111 18.8696 8.93581 18.899 8.8225C18.9284 8.70919 18.9321 8.59075 18.9098 8.47583L18.6977 7.28154L19.5698 6.42512C19.6793 6.32322 19.7574 6.1922 19.7949 6.04746C19.8325 5.90271 19.828 5.75025 19.7819 5.60797ZM18.0141 6.85726C17.9683 6.90299 17.9338 6.95875 17.9134 7.02012C17.8929 7.0815 17.8871 7.14679 17.8962 7.21083L18.1241 8.62512L16.8591 7.96512C16.8039 7.93414 16.7417 7.91788 16.6784 7.91788C16.6151 7.91788 16.5528 7.93414 16.4977 7.96512L15.2169 8.6094L15.4998 7.21083C15.5042 7.14358 15.4922 7.07627 15.4648 7.01469C15.4374 6.9531 15.3955 6.89908 15.3427 6.85726L14.3291 5.84369L15.7434 5.6394C15.8059 5.63177 15.8654 5.60827 15.9163 5.57114C15.9672 5.53401 16.0077 5.48448 16.0341 5.42726L16.6862 4.14654L17.3227 5.42726C17.349 5.48448 17.3895 5.53401 17.4404 5.57114C17.4913 5.60827 17.5508 5.63177 17.6134 5.6394L19.0277 5.86726L18.0141 6.85726Z" fill="#62BA87"/>
</svg>
