<svg width="24" height="24" viewBox="0 0 24 24" fill="none" xmlns="http://www.w3.org/2000/svg">
<path d="M4.875 20.625C4.83949 20.6246 4.80419 20.6196 4.77 20.61C4.69211 20.5873 4.62368 20.5399 4.575 20.475C4.52632 20.4101 4.5 20.3311 4.5 20.25V12.9619H0.375C0.275544 12.9619 0.180161 12.9224 0.109835 12.852C0.0395088 12.7817 0 12.6863 0 12.5869V3.75C0 3.65054 0.0395088 3.55516 0.109835 3.48484C0.180161 3.41451 0.275544 3.375 0.375 3.375H9.75C9.84946 3.375 9.94484 3.41451 10.0152 3.48484C10.0855 3.55516 10.125 3.65054 10.125 3.75V12.5794C10.125 12.6504 10.1049 12.72 10.0669 12.78L5.19187 20.4506C5.15804 20.504 5.11125 20.5481 5.05585 20.5785C5.00045 20.609 4.93824 20.625 4.875 20.625ZM0.75 12.2044H4.875C4.97446 12.2044 5.06984 12.2439 5.14016 12.3142C5.21049 12.3845 5.25 12.4799 5.25 12.5794V18.9544L9.375 12.4688V4.125H0.75V12.2044ZM18.75 20.625C18.7145 20.6246 18.6792 20.6196 18.645 20.61C18.5671 20.5873 18.4987 20.5399 18.45 20.475C18.4013 20.4101 18.375 20.3311 18.375 20.25V12.9619H14.25C14.1505 12.9619 14.0552 12.9224 13.9848 12.852C13.9145 12.7817 13.875 12.6863 13.875 12.5869V3.75C13.875 3.65054 13.9145 3.55516 13.9848 3.48484C14.0552 3.41451 14.1505 3.375 14.25 3.375H23.625C23.7245 3.375 23.8198 3.41451 23.8902 3.48484C23.9605 3.55516 24 3.65054 24 3.75V12.5794C24 12.6504 23.9799 12.72 23.9419 12.78L19.0669 20.4506C19.033 20.504 18.9863 20.5481 18.9308 20.5785C18.8754 20.609 18.8132 20.625 18.75 20.625ZM14.625 12.2044H18.75C18.8495 12.2044 18.9448 12.2439 19.0152 12.3142C19.0855 12.3845 19.125 12.4799 19.125 12.5794V18.9544L23.25 12.4688V4.125H14.625V12.2044Z" fill="#62BA87"/>
</svg>
