<svg width="35" height="35" viewBox="0 0 35 35" fill="none" xmlns="http://www.w3.org/2000/svg">
<ellipse cx="17.1111" cy="17.255" rx="17.1111" ry="17.255" fill="#62BA87" fill-opacity="0.35"/>
<path d="M12.2083 19.0833C12.2083 18.7949 12.2939 18.5129 12.4541 18.2731C12.6144 18.0333 12.8421 17.8464 13.1086 17.736C13.3751 17.6256 13.6683 17.5968 13.9512 17.653C14.2341 17.7093 14.4939 17.8482 14.6979 18.0521C14.9018 18.2561 15.0407 18.5159 15.097 18.7988C15.1532 19.0817 15.1244 19.3749 15.014 19.6414C14.9036 19.9079 14.7167 20.1356 14.4769 20.2959C14.2371 20.4561 13.9551 20.5417 13.6667 20.5417C13.2806 20.5395 12.9109 20.3851 12.6379 20.1121C12.3649 19.8391 12.2105 19.4694 12.2083 19.0833ZM8.875 14.2917H25.125V23.25C25.125 23.7473 24.9275 24.2242 24.5758 24.5758C24.2242 24.9275 23.7473 25.125 23.25 25.125H10.75C10.2527 25.125 9.77581 24.9275 9.42417 24.5758C9.07254 24.2242 8.875 23.7473 8.875 23.25V14.2917ZM21.7083 21.1667C21.7083 21.3324 21.7742 21.4914 21.8914 21.6086C22.0086 21.7258 22.1676 21.7917 22.3333 21.7917C22.4991 21.7917 22.6581 21.7258 22.7753 21.6086C22.8925 21.4914 22.9583 21.3324 22.9583 21.1667V18.6667C22.9583 18.5009 22.8925 18.3419 22.7753 18.2247C22.6581 18.1075 22.4991 18.0417 22.3333 18.0417C22.1676 18.0417 22.0086 18.1075 21.8914 18.2247C21.7742 18.3419 21.7083 18.5009 21.7083 18.6667V21.1667ZM19.7083 21.1667C19.7083 21.3324 19.7742 21.4914 19.8914 21.6086C20.0086 21.7258 20.1676 21.7917 20.3333 21.7917C20.4991 21.7917 20.6581 21.7258 20.7753 21.6086C20.8925 21.4914 20.9583 21.3324 20.9583 21.1667V17C20.9583 16.8342 20.8925 16.6753 20.7753 16.5581C20.6581 16.4408 20.4991 16.375 20.3333 16.375C20.1676 16.375 20.0086 16.4408 19.8914 16.5581C19.7742 16.6753 19.7083 16.8342 19.7083 17V21.1667ZM17.625 21.1667C17.625 21.3324 17.6908 21.4914 17.8081 21.6086C17.9253 21.7258 18.0842 21.7917 18.25 21.7917C18.4158 21.7917 18.5747 21.7258 18.6919 21.6086C18.8092 21.4914 18.875 21.3324 18.875 21.1667V19.5C18.875 19.3342 18.8092 19.1753 18.6919 19.0581C18.5747 18.9408 18.4158 18.875 18.25 18.875C18.0842 18.875 17.9253 18.9408 17.8081 19.0581C17.6908 19.1753 17.625 19.3342 17.625 19.5V21.1667ZM10.9583 19.0833C10.9583 19.619 11.1172 20.1426 11.4148 20.588C11.7124 21.0334 12.1353 21.3805 12.6302 21.5855C13.1251 21.7905 13.6697 21.8441 14.195 21.7396C14.7204 21.6351 15.203 21.3772 15.5817 20.9984C15.9605 20.6196 16.2185 20.1371 16.323 19.6117C16.4275 19.0863 16.3738 18.5418 16.1688 18.0469C15.9639 17.552 15.6167 17.129 15.1713 16.8314C14.726 16.5338 14.2023 16.375 13.6667 16.375C12.949 16.3772 12.2614 16.6632 11.754 17.1707C11.2466 17.6781 10.9605 18.3657 10.9583 19.0833ZM25.125 10.75V13.0417H8.875V10.75C8.875 10.2527 9.07254 9.77581 9.42417 9.42417C9.77581 9.07254 10.2527 8.875 10.75 8.875H23.25C23.7473 8.875 24.2242 9.07254 24.5758 9.42417C24.9275 9.77581 25.125 10.2527 25.125 10.75ZM13.0417 11.1667C13.0395 11.0016 12.973 10.8439 12.8562 10.7271C12.7395 10.6104 12.5818 10.5438 12.4167 10.5417H11.5833C11.4176 10.5417 11.2586 10.6075 11.1414 10.7247C11.0242 10.8419 10.9583 11.0009 10.9583 11.1667C10.9583 11.3324 11.0242 11.4914 11.1414 11.6086C11.2586 11.7258 11.4176 11.7917 11.5833 11.7917H12.4167C12.5818 11.7895 12.7395 11.723 12.8562 11.6062C12.973 11.4895 13.0395 11.3318 13.0417 11.1667ZM15.5417 11.1667C15.5395 11.0016 15.473 10.8439 15.3562 10.7271C15.2395 10.6104 15.0818 10.5438 14.9167 10.5417H14.0833C13.9176 10.5417 13.7586 10.6075 13.6414 10.7247C13.5242 10.8419 13.4583 11.0009 13.4583 11.1667C13.4583 11.3324 13.5242 11.4914 13.6414 11.6086C13.7586 11.7258 13.9176 11.7917 14.0833 11.7917H14.9167C15.0818 11.7895 15.2395 11.723 15.3562 11.6062C15.473 11.4895 15.5395 11.3318 15.5417 11.1667Z" fill="#3B8B5D"/>
</svg>
