<svg width="29" height="29" viewBox="0 0 29 29" fill="none" xmlns="http://www.w3.org/2000/svg">
<ellipse cx="14.11" cy="14.255" rx="14.11" ry="14.255" fill="#62BA87" fill-opacity="0.35"/>
<path d="M11.2526 15.5642C11.2526 15.3837 11.306 15.2072 11.4061 15.0571C11.5062 14.9069 11.6484 14.7899 11.8148 14.7208C11.9812 14.6517 12.1644 14.6336 12.341 14.6689C12.5177 14.7041 12.68 14.791 12.8073 14.9187C12.9347 15.0464 13.0214 15.2091 13.0566 15.3861C13.0917 15.5632 13.0737 15.7468 13.0048 15.9136C12.9358 16.0804 12.8191 16.223 12.6693 16.3233C12.5196 16.4236 12.3435 16.4772 12.1634 16.4772C11.9222 16.4758 11.6914 16.3792 11.5209 16.2083C11.3504 16.0374 11.254 15.8059 11.2526 15.5642ZM9.17096 12.5647H19.3191V18.1726C19.3191 18.4839 19.1957 18.7824 18.9761 19.0025C18.7565 19.2227 18.4587 19.3463 18.1481 19.3463H10.3419C10.0313 19.3463 9.73351 19.2227 9.51392 19.0025C9.29433 18.7824 9.17096 18.4839 9.17096 18.1726V12.5647ZM17.1854 16.8684C17.1854 16.9722 17.2265 17.0717 17.2997 17.1451C17.3729 17.2184 17.4722 17.2597 17.5757 17.2597C17.6792 17.2597 17.7785 17.2184 17.8517 17.1451C17.9249 17.0717 17.966 16.9722 17.966 16.8684V15.3034C17.966 15.1996 17.9249 15.1001 17.8517 15.0268C17.7785 14.9534 17.6792 14.9122 17.5757 14.9122C17.4722 14.9122 17.3729 14.9534 17.2997 15.0268C17.2265 15.1001 17.1854 15.1996 17.1854 15.3034V16.8684ZM15.9364 16.8684C15.9364 16.9722 15.9775 17.0717 16.0507 17.1451C16.1239 17.2184 16.2232 17.2597 16.3267 17.2597C16.4302 17.2597 16.5295 17.2184 16.6027 17.1451C16.6759 17.0717 16.717 16.9722 16.717 16.8684V14.2601C16.717 14.1563 16.6759 14.0568 16.6027 13.9834C16.5295 13.91 16.4302 13.8688 16.3267 13.8688C16.2232 13.8688 16.1239 13.91 16.0507 13.9834C15.9775 14.0568 15.9364 14.1563 15.9364 14.2601V16.8684ZM14.6353 16.8684C14.6353 16.9722 14.6765 17.0717 14.7497 17.1451C14.8229 17.2184 14.9221 17.2597 15.0256 17.2597C15.1292 17.2597 15.2284 17.2184 15.3016 17.1451C15.3748 17.0717 15.416 16.9722 15.416 16.8684V15.8251C15.416 15.7213 15.3748 15.6218 15.3016 15.5484C15.2284 15.4751 15.1292 15.4338 15.0256 15.4338C14.9221 15.4338 14.8229 15.4751 14.7497 15.5484C14.6765 15.6218 14.6353 15.7213 14.6353 15.8251V16.8684ZM10.472 15.5642C10.472 15.8996 10.5712 16.2274 10.757 16.5062C10.9429 16.785 11.207 17.0023 11.5161 17.1306C11.8252 17.2589 12.1652 17.2925 12.4933 17.2271C12.8214 17.1617 13.1228 17.0002 13.3593 16.7631C13.5959 16.526 13.7569 16.2239 13.8222 15.895C13.8875 15.5661 13.854 15.2252 13.726 14.9154C13.5979 14.6056 13.3812 14.3409 13.103 14.1546C12.8249 13.9683 12.4979 13.8688 12.1634 13.8688C11.7152 13.8702 11.2858 14.0493 10.9689 14.3669C10.652 14.6846 10.4734 15.115 10.472 15.5642ZM19.3191 10.3476V11.7822H9.17096V10.3476C9.17096 10.0363 9.29433 9.73773 9.51392 9.51761C9.73351 9.29749 10.0313 9.17383 10.3419 9.17383H18.1481C18.4587 9.17383 18.7565 9.29749 18.9761 9.51761C19.1957 9.73773 19.3191 10.0363 19.3191 10.3476ZM11.773 10.6084C11.7717 10.5051 11.7301 10.4063 11.6572 10.3333C11.5843 10.2602 11.4858 10.2185 11.3827 10.2172H10.8623C10.7588 10.2172 10.6595 10.2584 10.5863 10.3318C10.5131 10.4051 10.472 10.5046 10.472 10.6084C10.472 10.7122 10.5131 10.8117 10.5863 10.8851C10.6595 10.9584 10.7588 10.9997 10.8623 10.9997H11.3827C11.4858 10.9983 11.5843 10.9567 11.6572 10.8836C11.7301 10.8105 11.7717 10.7118 11.773 10.6084ZM13.3343 10.6084C13.3329 10.5051 13.2914 10.4063 13.2185 10.3333C13.1456 10.2602 13.0471 10.2185 12.944 10.2172H12.4236C12.32 10.2172 12.2208 10.2584 12.1476 10.3318C12.0744 10.4051 12.0333 10.5046 12.0333 10.6084C12.0333 10.7122 12.0744 10.8117 12.1476 10.8851C12.2208 10.9584 12.32 10.9997 12.4236 10.9997H12.944C13.0471 10.9983 13.1456 10.9567 13.2185 10.8836C13.2914 10.8105 13.3329 10.7118 13.3343 10.6084Z" fill="#3B8B5D"/>
</svg>
