<svg width="15" height="15" viewBox="0 0 15 15" fill="none" xmlns="http://www.w3.org/2000/svg">
<path d="M9.97917 2.51644L4.81264 4.80622L7.1875 5.8588L12.354 3.56896L9.97917 2.51644ZM4.04146 4.46444L9.20802 2.17466L7.44074 1.3915C7.36099 1.35615 7.27473 1.33789 7.1875 1.33789C7.10027 1.33789 7.01401 1.35615 6.93426 1.3915L2.02117 3.56904L4.04146 4.46444ZM6.87502 6.4039L1.5625 4.04931V10.196C1.56252 10.317 1.59766 10.4353 1.66365 10.5368C1.72965 10.6382 1.82366 10.7182 1.93428 10.7673L6.87499 12.957L6.87502 6.4039ZM7.50001 10.6249V12.9571L8.16959 12.6603C7.73404 12.0711 7.49931 11.3576 7.50001 10.6249Z" fill="#656565"/>
<path d="M10.9375 7.18739C11.6036 7.18683 12.2553 7.38099 12.8125 7.746V4.04932L7.5 6.40391V10.6249C7.50102 9.71354 7.86351 8.8398 8.50795 8.19536C9.15238 7.55092 10.0261 7.18842 10.9375 7.18739Z" fill="#656565"/>
<path d="M10.9375 7.8125C10.3812 7.8125 9.83747 7.97745 9.37496 8.28649C8.91245 8.59553 8.55196 9.03479 8.33909 9.5487C8.12622 10.0626 8.07052 10.6281 8.17904 11.1737C8.28756 11.7193 8.55543 12.2204 8.94876 12.6137C9.3421 13.0071 9.84324 13.2749 10.3888 13.3835C10.9344 13.492 11.4999 13.4363 12.0138 13.2234C12.5277 13.0105 12.967 12.6501 13.276 12.1875C13.5851 11.725 13.75 11.1813 13.75 10.625C13.75 9.87908 13.4537 9.16371 12.9262 8.63626C12.3988 8.10882 11.6834 7.8125 10.9375 7.8125ZM12.096 11.3415C12.1255 11.3704 12.1491 11.4049 12.1652 11.443C12.1814 11.481 12.1898 11.5219 12.19 11.5632C12.1903 11.6046 12.1823 11.6455 12.1666 11.6838C12.1509 11.722 12.1278 11.7568 12.0985 11.786C12.0693 11.8152 12.0345 11.8384 11.9963 11.8541C11.9581 11.8698 11.9171 11.8777 11.8758 11.8775C11.8344 11.8773 11.7935 11.8688 11.7555 11.8527C11.7174 11.8365 11.683 11.813 11.6541 11.7834L10.9375 11.0669L10.221 11.7834C10.1921 11.813 10.1576 11.8365 10.1195 11.8527C10.0815 11.8688 10.0406 11.8773 9.99927 11.8775C9.95793 11.8777 9.91696 11.8698 9.87872 11.8541C9.84048 11.8384 9.80574 11.8152 9.77651 11.786C9.74728 11.7568 9.72414 11.722 9.70843 11.6838C9.69272 11.6455 9.68476 11.6046 9.68499 11.5632C9.68523 11.5219 9.69367 11.481 9.70982 11.443C9.72597 11.4049 9.74951 11.3704 9.77907 11.3415L10.4956 10.625L9.77907 9.90846C9.74951 9.87957 9.72597 9.84509 9.70982 9.80704C9.69367 9.76899 9.68523 9.72811 9.68499 9.68677C9.68476 9.64543 9.69272 9.60446 9.70843 9.56622C9.72414 9.52798 9.74728 9.49324 9.77651 9.46401C9.80574 9.43478 9.84048 9.41164 9.87872 9.39593C9.91696 9.38022 9.95793 9.37226 9.99927 9.37249C10.0406 9.37273 10.0815 9.38117 10.1195 9.39732C10.1576 9.41347 10.1921 9.43701 10.221 9.46657L10.9375 10.1831L11.654 9.46657C11.6829 9.43701 11.7174 9.41347 11.7555 9.39732C11.7935 9.38117 11.8344 9.37273 11.8757 9.37249C11.9171 9.37226 11.958 9.38022 11.9963 9.39593C12.0345 9.41164 12.0693 9.43478 12.0985 9.46401C12.1277 9.49324 12.1509 9.52798 12.1666 9.56622C12.1823 9.60446 12.1902 9.64543 12.19 9.68677C12.1898 9.72811 12.1813 9.76899 12.1652 9.80704C12.149 9.84509 12.1255 9.87957 12.0959 9.90846L11.3794 10.625L12.096 11.3415Z" fill="#656565"/>
</svg>
