<svg width="16" height="17" viewBox="0 0 16 17" fill="none" xmlns="http://www.w3.org/2000/svg">
<path d="M10.6445 2.85204L5.13356 5.44713L7.66675 6.64005L13.1777 4.0449L10.6445 2.85204ZM4.31097 5.05979L9.82197 2.4647L7.93687 1.57711C7.85181 1.53705 7.75979 1.51636 7.66675 1.51636C7.5737 1.51636 7.48169 1.53705 7.39662 1.57711L2.156 4.045L4.31097 5.05979ZM7.33344 7.25783L1.66675 4.5893V11.5555C1.66677 11.6926 1.70425 11.8268 1.77464 11.9417C1.84504 12.0567 1.94532 12.1474 2.06331 12.203L7.33341 14.6846L7.33344 7.25783ZM8.00009 12.0416V14.6848L8.71431 14.3484C8.24972 13.6807 7.99934 12.872 8.00009 12.0416Z" fill="#8F8F8F"/>
<path d="M11.6667 8.14584C12.3772 8.1452 13.0723 8.36525 13.6667 8.77893V4.58936L8 7.25789V12.0417C8.00109 11.0088 8.38775 10.0186 9.07514 9.2882C9.76254 8.55784 10.6945 8.14701 11.6667 8.14584Z" fill="#8F8F8F"/>
<path d="M11.6667 8.85425C11.0734 8.85425 10.4934 9.04119 10 9.39144C9.50669 9.74169 9.12217 10.2395 8.89511 10.8219C8.66805 11.4044 8.60864 12.0453 8.72439 12.6636C8.84015 13.2819 9.12587 13.8499 9.54543 14.2957C9.96499 14.7414 10.4995 15.045 11.0815 15.168C11.6634 15.291 12.2666 15.2279 12.8148 14.9866C13.363 14.7454 13.8315 14.3368 14.1612 13.8126C14.4908 13.2884 14.6667 12.6722 14.6667 12.0417C14.6667 11.1964 14.3507 10.3856 13.7881 9.78785C13.2255 9.19007 12.4624 8.85425 11.6667 8.85425ZM13.2357 11.5838L11.5691 13.3546C11.5381 13.3875 11.5014 13.4136 11.461 13.4314C11.4205 13.4492 11.3772 13.4584 11.3334 13.4584C11.2897 13.4584 11.2463 13.4492 11.2059 13.4314C11.1654 13.4136 11.1287 13.3875 11.0977 13.3546L10.2644 12.4692C10.2031 12.4025 10.169 12.3129 10.1695 12.2196C10.17 12.1264 10.2051 12.0372 10.2671 11.9713C10.3291 11.9054 10.4131 11.8681 10.5009 11.8676C10.5886 11.867 10.673 11.9033 10.7357 11.9684L11.3334 12.6033L12.7644 11.083C12.7952 11.0495 12.832 11.0228 12.8726 11.0045C12.9132 10.9862 12.9568 10.9766 13.0009 10.9764C13.045 10.9761 13.0887 10.9851 13.1295 11.0029C13.1702 11.0207 13.2073 11.0469 13.2385 11.0801C13.2697 11.1132 13.2943 11.1526 13.3111 11.1959C13.3279 11.2392 13.3364 11.2857 13.3361 11.3325C13.3358 11.3794 13.3268 11.4257 13.3096 11.4688C13.2924 11.512 13.2673 11.551 13.2357 11.5838V11.5838Z" fill="#8F8F8F"/>
</svg>
