<svg width="16" height="17" viewBox="0 0 16 17" fill="none" xmlns="http://www.w3.org/2000/svg">
<path d="M15.8481 15.6295L11.7172 11.5646C12.7989 10.3893 13.4636 8.83495 13.4636 7.12455C13.4631 3.46568 10.4494 0.5 6.73153 0.5C3.01368 0.5 0 3.46568 0 7.12455C0 10.7834 3.01368 13.7491 6.73153 13.7491C8.3379 13.7491 9.81123 13.1935 10.9685 12.2698L15.1154 16.3507C15.3175 16.5498 15.6455 16.5498 15.8476 16.3507C16.0501 16.1517 16.0501 15.8286 15.8481 15.6295ZM6.73153 12.7299C3.58583 12.7299 1.03574 10.2203 1.03574 7.12455C1.03574 4.02881 3.58583 1.51923 6.73153 1.51923C9.87726 1.51923 12.4273 4.02881 12.4273 7.12455C12.4273 10.2203 9.87726 12.7299 6.73153 12.7299Z" fill="#777777"/>
</svg>
