<svg width="15" height="15" viewBox="0 0 15 15" fill="none" xmlns="http://www.w3.org/2000/svg">
<g clip-path="url(#clip0_59_309)">
<path d="M12.6562 13.5938C12.6562 13.7181 12.6069 13.8373 12.519 13.9252C12.431 14.0131 12.3118 14.0625 12.1875 14.0625H4.21875C2.40938 14.0625 0.9375 12.5906 0.9375 10.7812V2.8125C0.9375 2.68818 0.986886 2.56895 1.07479 2.48104C1.1627 2.39314 1.28193 2.34375 1.40625 2.34375C1.53057 2.34375 1.6498 2.39314 1.73771 2.48104C1.82561 2.56895 1.875 2.68818 1.875 2.8125V10.7812C1.875 12.0736 2.92641 13.125 4.21875 13.125H12.1875C12.3118 13.125 12.431 13.1744 12.519 13.2623C12.6069 13.3502 12.6562 13.4694 12.6562 13.5938ZM14.0625 2.34375V10.7812C14.0625 11.5566 13.4316 12.1875 12.6562 12.1875H4.21875C3.44344 12.1875 2.8125 11.5566 2.8125 10.7812V2.34375C2.8125 1.56844 3.44344 0.9375 4.21875 0.9375H12.6562C13.4316 0.9375 14.0625 1.56844 14.0625 2.34375ZM9.375 4.21875C9.37494 4.14452 9.35726 4.07136 9.3234 4.00529C9.28954 3.93923 9.24047 3.88216 9.18023 3.83877C9.12 3.79537 9.05032 3.76691 8.97694 3.75572C8.90355 3.74452 8.82856 3.75092 8.75812 3.77437L7.35187 4.24312C7.23402 4.28241 7.1366 4.3669 7.08104 4.47802C7.02548 4.58913 7.01634 4.71777 7.05562 4.83562C7.09491 4.95348 7.1794 5.0509 7.29052 5.10646C7.40163 5.16202 7.53027 5.17116 7.64813 5.13188L8.4375 4.86937V8.90625C8.4375 9.03057 8.48689 9.1498 8.57479 9.23771C8.6627 9.32561 8.78193 9.375 8.90625 9.375C9.03057 9.375 9.1498 9.32561 9.23771 9.23771C9.32561 9.1498 9.375 9.03057 9.375 8.90625V4.21875Z" fill="#656565"/>
</g>
<defs>
<clipPath id="clip0_59_309">
<rect width="15" height="15" fill="white"/>
</clipPath>
</defs>
</svg>
