<svg width="23" height="23" viewBox="0 0 23 23" fill="none" xmlns="http://www.w3.org/2000/svg">
<path fill-rule="evenodd" clip-rule="evenodd" d="M2.80943 7.49688C2.3335 8.40589 2.3335 9.50243 2.3335 11.6955V13.1532C2.3335 16.8915 2.3335 18.7607 3.40744 19.9221C4.48138 21.0834 6.20986 21.0834 9.66683 21.0834H13.3335C16.7905 21.0834 18.5189 21.0834 19.5929 19.9221C20.6668 18.7607 20.6668 16.8915 20.6668 13.1532V11.6955C20.6668 9.50243 20.6668 8.40589 20.1909 7.49688C19.715 6.58786 18.8455 6.0237 17.1065 4.89537L15.2731 3.70583C13.4349 2.51311 12.5158 1.91675 11.5002 1.91675C10.4846 1.91675 9.56543 2.51311 7.72719 3.70583L5.89386 4.89537C4.15486 6.0237 3.28536 6.58786 2.80943 7.49688ZM8.75016 16.5313C8.37047 16.5313 8.06266 16.8531 8.06266 17.2501C8.06266 17.647 8.37047 17.9688 8.75016 17.9688H14.2502C14.6299 17.9688 14.9377 17.647 14.9377 17.2501C14.9377 16.8531 14.6299 16.5313 14.2502 16.5313H8.75016Z" fill="url(#paint0_linear_132_647)"/>
<defs>
<linearGradient id="paint0_linear_132_647" x1="11.5002" y1="21.0834" x2="11.5002" y2="1.91675" gradientUnits="userSpaceOnUse">
<stop stop-color="#189A4F"/>
<stop offset="1" stop-color="#62BA87"/>
</linearGradient>
</defs>
</svg>
