<svg width="14" height="14" viewBox="0 0 14 14" fill="none" xmlns="http://www.w3.org/2000/svg">
<path d="M13.6725 5.6565L12.5605 5.248C12.458 4.923 12.327 4.608 12.1705 4.307L12.668 3.232C12.7112 3.13916 12.7247 3.03529 12.7068 2.93449C12.6889 2.83369 12.6405 2.74082 12.568 2.6685L11.3315 1.432C11.2591 1.35966 11.1662 1.31129 11.0655 1.2934C10.9647 1.27552 10.8609 1.28899 10.768 1.332L9.693 1.8295C9.39131 1.6723 9.07644 1.54181 8.752 1.4395L8.3435 0.3275C8.30818 0.231412 8.24422 0.148482 8.16026 0.0899127C8.07629 0.0313437 7.97637 -4.06319e-05 7.874 3.94799e-08H6.126C6.02363 -4.06319e-05 5.92371 0.0313437 5.83974 0.0899127C5.75578 0.148482 5.69182 0.231412 5.6565 0.3275L5.2485 1.4395C4.9235 1.542 4.6085 1.6725 4.307 1.8295L3.232 1.332C3.13913 1.28899 3.0353 1.27552 2.93453 1.2934C2.83376 1.31129 2.7409 1.35966 2.6685 1.432L1.432 2.6685C1.35966 2.7409 1.31129 2.83376 1.2934 2.93453C1.27552 3.0353 1.28899 3.13913 1.332 3.232L1.83 4.307C1.67273 4.60866 1.54223 4.92353 1.44 5.248L0.3275 5.6565C0.231412 5.69182 0.148482 5.75578 0.0899127 5.83974C0.0313437 5.92371 -4.06319e-05 6.02363 3.94799e-08 6.126V7.874C-4.06319e-05 7.97637 0.0313437 8.07629 0.0899127 8.16026C0.148482 8.24422 0.231412 8.30818 0.3275 8.3435L1.4395 8.752C1.542 9.076 1.6725 9.391 1.8295 9.693L1.332 10.768C1.28899 10.8609 1.27552 10.9647 1.2934 11.0655C1.31129 11.1662 1.35966 11.2591 1.432 11.3315L2.6685 12.568C2.74082 12.6405 2.83369 12.6889 2.93449 12.7068C3.03529 12.7247 3.13916 12.7112 3.232 12.668L4.307 12.1705C4.6085 12.3275 4.9235 12.458 5.2485 12.5605L5.6565 13.6725C5.69182 13.7686 5.75578 13.8515 5.83974 13.9101C5.92371 13.9687 6.02363 14 6.126 14H7.874C7.97637 14 8.07629 13.9687 8.16026 13.9101C8.24422 13.8515 8.30818 13.7686 8.3435 13.6725L8.752 12.5605C9.077 12.458 9.392 12.327 9.693 12.1705L10.768 12.668C10.8609 12.711 10.9647 12.7245 11.0655 12.7066C11.1662 12.6887 11.2591 12.6403 11.3315 12.568L12.568 11.3315C12.6405 11.2592 12.6889 11.1663 12.7068 11.0655C12.7247 10.9647 12.7112 10.8608 12.668 10.768L12.1705 9.693C12.327 9.392 12.458 9.077 12.5605 8.752L13.6725 8.3435C13.7686 8.30818 13.8515 8.24422 13.9101 8.16026C13.9687 8.07629 14 7.97637 14 7.874V6.126C14 6.02363 13.9687 5.92371 13.9101 5.83974C13.8515 5.75578 13.7686 5.69182 13.6725 5.6565ZM13 7.525L11.9785 7.9C11.9032 7.92758 11.8356 7.97294 11.7815 8.03222C11.7275 8.0915 11.6885 8.16295 11.668 8.2405C11.558 8.65438 11.3932 9.05173 11.178 9.422C11.1375 9.4915 11.1144 9.56976 11.1106 9.65011C11.1069 9.73047 11.1226 9.81054 11.1565 9.8835L11.614 10.871L10.871 11.614L9.8835 11.1565C9.8105 11.1228 9.73045 11.1071 9.65012 11.1109C9.5698 11.1146 9.49155 11.1376 9.422 11.178C9.05173 11.3932 8.65438 11.558 8.2405 11.668C8.16304 11.6886 8.09169 11.7276 8.0325 11.7816C7.97332 11.8357 7.92803 11.9032 7.9005 11.9785L7.525 13H6.475L6.1 11.9785C6.07237 11.9031 6.02701 11.8355 5.96775 11.7814C5.90848 11.7273 5.83705 11.6882 5.7595 11.6675C5.34568 11.5575 4.94835 11.3929 4.578 11.178C4.50855 11.1374 4.43028 11.1142 4.3499 11.1104C4.26952 11.1067 4.18943 11.1225 4.1165 11.1565L3.1285 11.614L2.386 10.8715L2.8435 9.8835C2.87738 9.81054 2.89312 9.73047 2.88938 9.65011C2.88563 9.56976 2.86252 9.4915 2.822 9.422C2.60695 9.05196 2.44248 8.65475 2.333 8.241C2.31221 8.16341 2.27305 8.09197 2.21884 8.03271C2.16462 7.97344 2.09693 7.9281 2.0215 7.9005L1 7.525V6.475L2.0215 6.1C2.175 6.0435 2.291 5.916 2.333 5.759C2.4425 5.3445 2.607 4.948 2.822 4.578C2.86252 4.50851 2.88563 4.43024 2.88938 4.34989C2.89312 4.26953 2.87738 4.18946 2.8435 4.1165L2.386 3.1285L3.1285 2.386L4.1165 2.8435C4.265 2.9125 4.437 2.9035 4.578 2.822C4.94835 2.60709 5.34568 2.44247 5.7595 2.3325C5.83696 2.31173 5.90829 2.27263 5.96746 2.2185C6.02664 2.16437 6.07192 2.09681 6.0995 2.0215L6.475 1H7.525L7.9 2.0215C7.92758 2.09683 7.97294 2.1644 8.03222 2.21846C8.0915 2.27251 8.16295 2.31146 8.2405 2.332C8.656 2.443 9.0535 2.607 9.422 2.822C9.564 2.9035 9.7355 2.912 9.8835 2.8435L10.871 2.386L11.614 3.129L11.1565 4.1165C11.1226 4.18946 11.1069 4.26953 11.1106 4.34989C11.1144 4.43024 11.1375 4.50851 11.178 4.578C11.393 4.9465 11.557 5.344 11.668 5.7595C11.6886 5.83696 11.7276 5.90831 11.7816 5.9675C11.8357 6.02668 11.9032 6.07197 11.9785 6.0995L13 6.475V7.525Z" fill="white"/>
<path d="M7 3C4.7945 3 3 4.7945 3 7C3 9.2055 4.7945 11 7 11C9.2055 11 11 9.2055 11 7C11 4.7945 9.2055 3 7 3ZM7 10C5.3455 10 4 8.6545 4 7C4 5.3455 5.3455 4 7 4C8.6545 4 10 5.3455 10 7C10 8.6545 8.6545 10 7 10Z" fill="white"/>
<path d="M5.76007 6.25C5.89268 6.25 6.01985 6.19732 6.11362 6.10355C6.20739 6.00979 6.26007 5.88261 6.26007 5.75C6.26007 5.61739 6.20739 5.49021 6.11362 5.39645C6.01985 5.30268 5.89268 5.25 5.76007 5.25H5.75507C5.47907 5.25 5.25757 5.4735 5.25757 5.75C5.25757 6.0265 5.48407 6.25 5.76007 6.25ZM8.26007 7.75H8.25507C7.97907 7.75 7.75757 7.9735 7.75757 8.25C7.75757 8.5265 7.98407 8.75 8.26007 8.75C8.39268 8.75 8.51985 8.69732 8.61362 8.60355C8.70739 8.50979 8.76007 8.38261 8.76007 8.25C8.76007 8.11739 8.70739 7.99021 8.61362 7.89645C8.51985 7.80268 8.39268 7.75 8.26007 7.75ZM8.48907 5.511C8.44263 5.46451 8.38749 5.42763 8.32679 5.40247C8.26609 5.37731 8.20103 5.36436 8.13532 5.36436C8.06961 5.36436 8.00455 5.37731 7.94385 5.40247C7.88315 5.42763 7.828 5.46451 7.78157 5.511L5.50157 7.791C5.45515 7.83746 5.41833 7.8926 5.39322 7.95328C5.36811 8.01397 5.35519 8.079 5.35522 8.14468C5.35524 8.21035 5.3682 8.27538 5.39335 8.33604C5.41851 8.39671 5.45536 8.45183 5.50182 8.49825C5.54827 8.54467 5.60342 8.58149 5.6641 8.6066C5.72479 8.63171 5.78982 8.64462 5.8555 8.6446C5.92117 8.64458 5.9862 8.63162 6.04686 8.60647C6.10753 8.58131 6.16265 8.54446 6.20907 8.498L8.48907 6.218C8.5828 6.12424 8.63546 5.99708 8.63546 5.8645C8.63546 5.73192 8.5828 5.60476 8.48907 5.511Z" fill="white"/>
</svg>
