<svg width="23" height="20" viewBox="0 0 23 20" fill="none" xmlns="http://www.w3.org/2000/svg">
<path fill-rule="evenodd" clip-rule="evenodd" d="M20.013 6.35305L19.4432 5.45298C18.9613 4.69138 17.8931 4.42864 17.0554 4.86564V4.86564C16.6566 5.07949 16.1808 5.14017 15.7329 5.03428C15.2849 4.92839 14.9016 4.66464 14.6675 4.30118C14.5169 4.07016 14.436 3.80704 14.4329 3.53841V3.53841C14.4465 3.10773 14.2681 2.69038 13.9382 2.38143C13.6083 2.07249 13.1551 1.89826 12.6819 1.89844H11.534C11.0704 1.89843 10.6258 2.06664 10.2988 2.36583C9.97169 2.66502 9.78906 3.07053 9.79129 3.49264V3.49264C9.77755 4.36415 8.99757 5.06405 8.0402 5.06396C7.74514 5.06117 7.45611 4.98749 7.20236 4.85038V4.85038C6.36466 4.41339 5.2965 4.67612 4.8145 5.43772L4.20288 6.35305C3.72147 7.1137 4.00613 8.08555 4.83964 8.52697V8.52697C5.38143 8.81174 5.7152 9.33803 5.7152 9.90759C5.7152 10.4771 5.38143 11.0034 4.83964 11.2882V11.2882C4.00719 11.7267 3.72221 12.6961 4.20288 13.4545V13.4545L4.78099 14.3622C5.00683 14.7332 5.38574 15.007 5.83388 15.1229C6.28202 15.2389 6.76245 15.1875 7.16884 14.9801V14.9801C7.56835 14.7678 8.04443 14.7097 8.49126 14.8185C8.93808 14.9274 9.31863 15.1942 9.54832 15.5598C9.69892 15.7908 9.77985 16.0539 9.78292 16.3225V16.3225C9.78292 17.203 10.5669 17.9167 11.534 17.9167H12.6819C13.6457 17.9168 14.4283 17.2076 14.4329 16.3302V16.3302C14.4307 15.9067 14.6145 15.5001 14.9434 15.2006C15.2722 14.9012 15.7189 14.7339 16.184 14.736C16.4784 14.7431 16.7662 14.8165 17.0219 14.9495V14.9495C17.8574 15.3878 18.9249 15.1287 19.4097 14.3698V14.3698L20.013 13.4545C20.2465 13.0896 20.3106 12.655 20.1911 12.247C20.0715 11.839 19.7783 11.4912 19.3762 11.2806V11.2806C18.9742 11.07 18.6809 10.7222 18.5614 10.3142C18.4419 9.90613 18.506 9.47156 18.7395 9.10668C18.8913 8.86532 19.1111 8.66521 19.3762 8.52697V8.52697C20.2047 8.08579 20.4887 7.11962 20.013 6.36068V6.36068V6.35305Z" stroke="#62BA87" stroke-width="1.2" stroke-linecap="round" stroke-linejoin="round"/>
<ellipse cx="12.1122" cy="9.90773" rx="2.41299" ry="2.1968" stroke="#62BA87" stroke-width="1.2" stroke-linecap="round" stroke-linejoin="round"/>
</svg>
