<svg width="16" height="20" viewBox="0 0 16 20" fill="none" xmlns="http://www.w3.org/2000/svg">
<g clip-path="url(#clip0_239_1344)">
<path d="M12.9998 5.83333C11.7132 5.83333 10.6665 4.52499 10.6665 2.91666C10.6665 1.30833 11.7132 0 12.9998 0C14.2865 0 15.3332 1.30833 15.3332 2.91666C15.3332 4.52499 14.2865 5.83333 12.9998 5.83333ZM12.9998 0.833332C12.0805 0.833332 11.3332 1.76833 11.3332 2.91666C11.3332 4.065 12.0805 4.99999 12.9998 4.99999C13.9192 4.99999 14.6665 4.065 14.6665 2.91666C14.6665 1.76833 13.9192 0.833332 12.9998 0.833332Z" fill="#62BA87"/>
<path d="M12.9998 19.9998C11.7132 19.9998 10.6665 18.6915 10.6665 17.0832C10.6665 15.4748 11.7132 14.1665 12.9998 14.1665C14.2865 14.1665 15.3332 15.4748 15.3332 17.0832C15.3332 18.6915 14.2865 19.9998 12.9998 19.9998ZM12.9998 14.9998C12.0805 14.9998 11.3332 15.9348 11.3332 17.0832C11.3332 18.2315 12.0805 19.1665 12.9998 19.1665C13.9192 19.1665 14.6665 18.2315 14.6665 17.0832C14.6665 15.9348 13.9192 14.9998 12.9998 14.9998Z" fill="#62BA87"/>
<path d="M2.99984 12.9168C1.71317 12.9168 0.666504 11.6085 0.666504 10.0002C0.666504 8.39183 1.71317 7.0835 2.99984 7.0835C4.2865 7.0835 5.33317 8.39183 5.33317 10.0002C5.33317 11.6085 4.2865 12.9168 2.99984 12.9168ZM2.99984 7.91683C2.0805 7.91683 1.33317 8.85183 1.33317 10.0002C1.33317 11.1485 2.0805 12.0835 2.99984 12.0835C3.91917 12.0835 4.6665 11.1485 4.6665 10.0002C4.6665 8.85183 3.91917 7.91683 2.99984 7.91683Z" fill="#62BA87"/>
<path d="M11.2601 16.2665C11.2041 16.2665 11.1474 16.249 11.0961 16.2124L4.57673 11.5957C4.41673 11.4824 4.36007 11.2282 4.4514 11.0274C4.54207 10.8265 4.74673 10.7565 4.9054 10.8707L11.4247 15.4874C11.5847 15.6007 11.6414 15.8549 11.5501 16.0557C11.4881 16.1907 11.3754 16.2665 11.2601 16.2665Z" fill="#62BA87"/>
<path d="M4.73994 9.18309C4.62394 9.18309 4.51127 9.10726 4.44994 8.97226C4.3586 8.77226 4.41527 8.51809 4.57527 8.40393L11.0946 3.78727C11.2519 3.67477 11.4579 3.74393 11.5486 3.94393C11.6399 4.14393 11.5833 4.3981 11.4233 4.51226L4.90394 9.12893C4.8526 9.16559 4.79594 9.18309 4.73994 9.18309Z" fill="#62BA87"/>
</g>
<defs>
<clipPath id="clip0_239_1344">
<rect width="16" height="20" fill="white"/>
</clipPath>
</defs>
</svg>
