<svg width="25" height="25" viewBox="0 0 25 25" fill="none" xmlns="http://www.w3.org/2000/svg">
<path d="M12.5 20.3125C4.32166 20.3125 0.26697 13.1828 0.0984154 12.8795C0.0338721 12.7634 0 12.6327 0 12.4999C0 12.3671 0.0338721 12.2364 0.0984154 12.1203C0.26697 11.8172 4.32166 4.6875 12.5 4.6875C20.6783 4.6875 24.733 11.8172 24.9015 12.1205C24.9661 12.2366 25 12.3673 25 12.5001C25 12.6329 24.9661 12.7636 24.9015 12.8797C24.733 13.1828 20.6783 20.3125 12.5 20.3125ZM1.70056 12.4988C2.62986 13.9072 6.27849 18.75 12.5 18.75C18.7412 18.75 22.3736 13.9111 23.2994 12.5012C22.3701 11.0928 18.7215 6.25 12.5 6.25C6.25877 6.25 2.62634 11.0889 1.70056 12.4988ZM12.5 17.1875C9.91521 17.1875 7.81248 15.0848 7.81248 12.5C7.81248 9.91523 9.91521 7.8125 12.5 7.8125C15.0847 7.8125 17.1875 9.91523 17.1875 12.5C17.1875 15.0848 15.0847 17.1875 12.5 17.1875ZM12.5 9.375C10.7769 9.375 9.37498 10.777 9.37498 12.5C9.37498 14.223 10.7769 15.625 12.5 15.625C14.223 15.625 15.625 14.223 15.625 12.5C15.625 10.777 14.223 9.375 12.5 9.375Z" fill="white"/>
</svg>
