<svg width="38" height="38" viewBox="0 0 38 38" fill="none" xmlns="http://www.w3.org/2000/svg">
<g filter="url(#filter0_d_239_2715)">
<circle cx="19" cy="15" r="15" fill="white"/>
</g>
<g clip-path="url(#clip0_239_2715)">
<path d="M18.5 24C23.1944 24 27 20.1944 27 15.5C27 10.8056 23.1944 7 18.5 7C13.8056 7 10 10.8056 10 15.5C10 20.1944 13.8056 24 18.5 24Z" fill="#FFD93B"/>
<path d="M18.5001 20.9633C16.0143 20.9633 13.8484 19.2798 13.2333 16.87C13.1849 16.6804 13.2991 16.4875 13.4888 16.4392C13.6774 16.3898 13.8708 16.5051 13.9191 16.6947C14.4546 18.791 16.3379 20.2551 18.4995 20.2551C20.6612 20.2551 22.545 18.791 23.08 16.6947C23.1278 16.5051 23.3206 16.3898 23.5108 16.4392C23.7005 16.4875 23.8147 16.6804 23.7663 16.87C23.1517 19.2798 20.9858 20.9633 18.5001 20.9633Z" fill="#3E4347"/>
<path d="M27 15.5C27 20.1963 23.1936 24 18.5 24C15.8278 24 13.4425 22.7675 11.8833 20.8364C13.3416 22.0158 15.1983 22.7197 17.2197 22.7197C21.9133 22.7197 25.7197 18.916 25.7197 14.2197C25.7197 12.1983 25.0158 10.3416 23.8364 8.8833C25.7649 10.4425 27 12.8278 27 15.5Z" fill="#F4C534"/>
<path d="M15.755 15.8627C16.4744 15.8627 17.0576 15.1696 17.0576 14.3147C17.0576 13.4597 16.4744 12.7666 15.755 12.7666C15.0356 12.7666 14.4524 13.4597 14.4524 14.3147C14.4524 15.1696 15.0356 15.8627 15.755 15.8627Z" fill="#3E4347"/>
<path d="M16.3426 13.9815C16.2411 14.0612 16.0743 14.0219 15.9676 13.8922C15.8608 13.7626 15.8555 13.5889 15.9569 13.5092C16.0579 13.4258 16.2252 13.4651 16.3315 13.5947C16.4388 13.7281 16.4398 13.8986 16.3426 13.9815Z" fill="#5A5F63"/>
<path d="M21.2465 15.8627C21.9659 15.8627 22.5491 15.1696 22.5491 14.3147C22.5491 13.4597 21.9659 12.7666 21.2465 12.7666C20.5271 12.7666 19.9438 13.4597 19.9438 14.3147C19.9438 15.1696 20.5271 15.8627 21.2465 15.8627Z" fill="#3E4347"/>
<path d="M21.8331 13.9815C21.7316 14.0612 21.5648 14.0219 21.458 13.8922C21.3513 13.7626 21.3459 13.5889 21.4474 13.5092C21.5483 13.4258 21.7152 13.4651 21.8219 13.5947C21.9293 13.7281 21.9303 13.8986 21.8331 13.9815Z" fill="#5A5F63"/>
</g>
<defs>
<filter id="filter0_d_239_2715" x="0" y="0" width="38" height="38" filterUnits="userSpaceOnUse" color-interpolation-filters="sRGB">
<feFlood flood-opacity="0" result="BackgroundImageFix"/>
<feColorMatrix in="SourceAlpha" type="matrix" values="0 0 0 0 0 0 0 0 0 0 0 0 0 0 0 0 0 0 127 0" result="hardAlpha"/>
<feOffset dy="4"/>
<feGaussianBlur stdDeviation="2"/>
<feComposite in2="hardAlpha" operator="out"/>
<feColorMatrix type="matrix" values="0 0 0 0 0 0 0 0 0 0 0 0 0 0 0 0 0 0 0.15 0"/>
<feBlend mode="normal" in2="BackgroundImageFix" result="effect1_dropShadow_239_2715"/>
<feBlend mode="normal" in="SourceGraphic" in2="effect1_dropShadow_239_2715" result="shape"/>
</filter>
<clipPath id="clip0_239_2715">
<rect width="17" height="17" fill="white" transform="translate(10 7)"/>
</clipPath>
</defs>
</svg>
