<svg width="20" height="20" viewBox="0 0 20 20" fill="none" xmlns="http://www.w3.org/2000/svg">
<path d="M17.3978 16.0565H16.5989V10.4318C16.5989 9.9757 16.26 9.60461 15.8434 9.60461H14.264C13.8485 9.60586 13.5104 9.97695 13.5104 10.4318V16.0565H11.5445V11.467C11.5445 11.0949 11.2126 10.8037 10.7889 10.8037H9.21105C8.7873 10.8037 8.45542 11.0949 8.45542 11.467V16.0565H6.48995V14.2309C6.48974 14.0306 6.41008 13.8385 6.26845 13.6969C6.12682 13.5553 5.93478 13.4756 5.73448 13.4754H4.15683C3.9565 13.4756 3.76442 13.5552 3.62276 13.6968C3.48109 13.8385 3.40141 14.0305 3.4012 14.2309V16.0565H2.6023C2.47797 16.0565 2.35875 16.1059 2.27084 16.1938C2.18293 16.2817 2.13354 16.4009 2.13354 16.5252C2.13354 16.6496 2.18293 16.7688 2.27084 16.8567C2.35875 16.9446 2.47797 16.994 2.6023 16.994H17.3979C17.4595 16.994 17.5204 16.9818 17.5773 16.9583C17.6342 16.9347 17.6858 16.9002 17.7294 16.8566C17.7729 16.8131 17.8074 16.7614 17.8309 16.7045C17.8545 16.6477 17.8666 16.5867 17.8666 16.5252C17.8666 16.4636 17.8544 16.4026 17.8309 16.3458C17.8073 16.2889 17.7728 16.2372 17.7292 16.1937C17.6857 16.1502 17.634 16.1157 17.5772 16.0921C17.5203 16.0686 17.4593 16.0565 17.3978 16.0565ZM4.3387 16.0565V14.4129H5.55261V16.0565H4.3387ZM9.39292 16.0565V11.7412H10.607V16.0565H9.39292ZM14.4479 16.0565V10.5421H15.6614V16.0565H14.4479ZM4.47105 10.6879L4.50636 10.6874C5.23886 10.6684 5.81933 10.0568 5.80026 9.32383C5.79331 9.02802 5.68778 8.743 5.50042 8.51398L7.03323 6.90023C7.26167 7.06795 7.53781 7.15808 7.8212 7.15742L7.85636 7.15695C8.04662 7.15186 8.23355 7.10585 8.40443 7.02205C8.57532 6.93826 8.72615 6.81863 8.84667 6.67133L10.8356 7.14789C10.8689 7.47428 11.0225 7.77657 11.2665 7.99585C11.5106 8.21513 11.8275 8.33567 12.1556 8.33398L12.1909 8.33351C12.9234 8.31445 13.5039 7.70289 13.4848 6.96992C13.4805 6.79816 13.4432 6.62883 13.375 6.47117L14.7003 5.37742C14.9358 5.56374 15.2276 5.66466 15.5279 5.66367L15.5634 5.6632C16.2959 5.64398 16.8762 5.03226 16.8571 4.29961C16.8499 3.9527 16.7065 3.62256 16.458 3.38042C16.2095 3.13829 15.8757 3.00359 15.5287 3.00539L15.4934 3.00586C14.7609 3.02523 14.1806 3.63695 14.1998 4.36961C14.2015 4.43414 14.2092 4.49695 14.2195 4.55883L12.7168 5.79914C12.5413 5.7179 12.3501 5.67583 12.1567 5.67586L12.1212 5.67633C11.6857 5.68773 11.3053 5.9093 11.0714 6.24023L9.14901 5.77976C9.13846 5.43543 8.99382 5.10885 8.74591 4.86964C8.49801 4.63044 8.16647 4.49754 7.82198 4.4993L7.78651 4.49976C7.05401 4.51914 6.4737 5.1307 6.49276 5.86336C6.4948 5.9382 6.50401 6.0107 6.51761 6.0818L4.65448 8.04351C4.59408 8.03481 4.53316 8.03022 4.47214 8.02976L4.43667 8.03023C3.70417 8.04961 3.12386 8.66117 3.14292 9.39383C3.15009 9.74069 3.2934 10.0708 3.54188 10.3129C3.79037 10.555 4.12411 10.6897 4.47105 10.6879ZM15.5285 3.94305C15.6307 3.94253 15.7291 3.98222 15.8022 4.05354C15.8754 4.12487 15.9177 4.22212 15.9198 4.3243C15.9224 4.42808 15.8837 4.52865 15.8122 4.60395C15.7407 4.67926 15.6423 4.72315 15.5385 4.72601L15.5279 4.72617C15.4261 4.72549 15.3285 4.68541 15.2556 4.61432C15.1827 4.54324 15.1402 4.44668 15.137 4.34492C15.1312 4.12914 15.3021 3.94883 15.5285 3.94305ZM12.1565 6.61351C12.2583 6.61419 12.3559 6.65425 12.4288 6.7253C12.5016 6.79636 12.5442 6.89287 12.5475 6.99461C12.55 7.09839 12.5113 7.19896 12.4399 7.27426C12.3684 7.34957 12.27 7.39346 12.1662 7.39633L12.1556 7.39648C12.0538 7.39581 11.9562 7.35572 11.8833 7.28464C11.8104 7.21355 11.7679 7.11699 11.7646 7.01523C11.7589 6.79961 11.93 6.6193 12.1565 6.61351ZM7.82198 5.43695C7.92379 5.43763 8.02139 5.47771 8.09428 5.5488C8.16717 5.61988 8.20969 5.71644 8.21292 5.8182C8.21548 5.92196 8.17681 6.02251 8.10538 6.0978C8.03395 6.1731 7.93558 6.21702 7.83183 6.21992L7.82136 6.22008C7.71952 6.2194 7.62189 6.17933 7.54895 6.10825C7.47601 6.03717 7.43342 5.94062 7.43011 5.83883C7.42433 5.62289 7.59526 5.44273 7.82198 5.43695ZM4.47214 8.96742C4.57392 8.96809 4.67149 9.00816 4.74438 9.07921C4.81727 9.15026 4.85981 9.24678 4.86308 9.34851C4.86564 9.4523 4.82695 9.55287 4.75548 9.62817C4.68401 9.70347 4.5856 9.74737 4.48183 9.75023L4.4712 9.75039C4.36942 9.74971 4.27185 9.70965 4.19896 9.6386C4.12607 9.56755 4.08353 9.47103 4.08026 9.3693C4.07448 9.15336 4.24558 8.9732 4.47214 8.96742Z" fill="#62BA87"/>
</svg>
