<svg width="75" height="75" viewBox="0 0 75 75" fill="none" xmlns="http://www.w3.org/2000/svg">
<path d="M37.5 11.7188C37.1892 11.7188 36.8911 11.5953 36.6714 11.3755C36.4516 11.1557 36.3281 10.8577 36.3281 10.5469V5.85938C36.3281 5.54857 36.4516 5.2505 36.6714 5.03073C36.8911 4.81097 37.1892 4.6875 37.5 4.6875C37.8108 4.6875 38.1089 4.81097 38.3286 5.03073C38.5484 5.2505 38.6719 5.54857 38.6719 5.85938V10.5469C38.6719 10.8577 38.5484 11.1557 38.3286 11.3755C38.1089 11.5953 37.8108 11.7188 37.5 11.7188ZM24.0246 15.3293C23.8187 15.3295 23.6164 15.2754 23.438 15.1726C23.2597 15.0697 23.1115 14.9217 23.0086 14.7434L20.6648 10.684C20.5119 10.415 20.4716 10.0964 20.5526 9.79774C20.6337 9.49909 20.8296 9.24464 21.0976 9.08991C21.3656 8.93518 21.6839 8.89273 21.9831 8.97183C22.2823 9.05093 22.538 9.24515 22.6945 9.51211L25.0383 13.5715C25.1411 13.7495 25.1952 13.9515 25.1953 14.1571C25.1953 14.3627 25.1413 14.5647 25.0386 14.7428C24.9359 14.921 24.7881 15.0689 24.6101 15.1718C24.4321 15.2748 24.2302 15.3291 24.0246 15.3293ZM14.1562 25.1953C13.9509 25.1954 13.7492 25.1413 13.5715 25.0383L9.51211 22.6945C9.24515 22.538 9.05093 22.2823 8.97183 21.9831C8.89273 21.6839 8.93518 21.3656 9.08991 21.0976C9.24464 20.8296 9.49909 20.6337 9.79774 20.5526C10.0964 20.4716 10.415 20.5119 10.684 20.6648L14.7434 23.0086C14.9668 23.1376 15.1413 23.3367 15.2401 23.575C15.3388 23.8133 15.3561 24.0776 15.2893 24.3267C15.2225 24.5759 15.0754 24.7961 14.8708 24.9531C14.6661 25.1102 14.4154 25.1953 14.1574 25.1953H14.1562ZM10.5469 38.6719H5.85938C5.54857 38.6719 5.2505 38.5484 5.03073 38.3286C4.81097 38.1089 4.6875 37.8108 4.6875 37.5C4.6875 37.1892 4.81097 36.8911 5.03073 36.6714C5.2505 36.4516 5.54857 36.3281 5.85938 36.3281H10.5469C10.8577 36.3281 11.1557 36.4516 11.3755 36.6714C11.5953 36.8911 11.7188 37.1892 11.7188 37.5C11.7188 37.8108 11.5953 38.1089 11.3755 38.3286C11.1557 38.5484 10.8577 38.6719 10.5469 38.6719ZM10.0992 54.4922C9.84126 54.4922 9.59051 54.4071 9.38586 54.25C9.18121 54.093 9.03409 53.8728 8.96733 53.6236C8.90056 53.3745 8.91788 53.1102 9.01659 52.8719C9.1153 52.6336 9.28989 52.4345 9.51328 52.3055L13.5715 49.9617C13.7048 49.8836 13.8523 49.8325 14.0054 49.8116C14.1585 49.7907 14.3143 49.8002 14.4637 49.8397C14.6131 49.8792 14.7532 49.9479 14.876 50.0418C14.9988 50.1357 15.1017 50.2529 15.179 50.3867C15.2563 50.5206 15.3063 50.6684 15.3263 50.8216C15.3462 50.9749 15.3356 51.1306 15.2951 51.2797C15.2546 51.4289 15.185 51.5685 15.0903 51.6907C14.9956 51.8128 14.8777 51.915 14.7434 51.9914L10.684 54.3352C10.5063 54.4381 10.3046 54.4923 10.0992 54.4922ZM21.6785 66.0738C21.4729 66.0736 21.271 66.0193 21.093 65.9164C20.915 65.8134 20.7673 65.6655 20.6645 65.4874C20.5618 65.3093 20.5078 65.1073 20.5078 64.9017C20.5079 64.696 20.562 64.4941 20.6648 64.316L23.0086 60.2566C23.085 60.1223 23.1872 60.0044 23.3093 59.9097C23.4315 59.815 23.5711 59.7454 23.7203 59.7049C23.8694 59.6644 24.0251 59.6538 24.1784 59.6737C24.3316 59.6937 24.4794 59.7437 24.6133 59.821C24.7471 59.8983 24.8643 60.0012 24.9582 60.124C25.0521 60.2468 25.1208 60.3869 25.1603 60.5363C25.1998 60.6857 25.2093 60.8415 25.1884 60.9946C25.1675 61.1477 25.1164 61.2952 25.0383 61.4285L22.6945 65.4879C22.5916 65.6662 22.4435 65.8142 22.2651 65.9171C22.0867 66.02 21.8844 66.074 21.6785 66.0738ZM37.5 70.3125C37.1892 70.3125 36.8911 70.189 36.6714 69.9693C36.4516 69.7495 36.3281 69.4514 36.3281 69.1406V64.4531C36.3281 64.1423 36.4516 63.8443 36.6714 63.6245C36.8911 63.4047 37.1892 63.2812 37.5 63.2812C37.8108 63.2812 38.1089 63.4047 38.3286 63.6245C38.5484 63.8443 38.6719 64.1423 38.6719 64.4531V69.1406C38.6719 69.4514 38.5484 69.7495 38.3286 69.9693C38.1089 70.189 37.8108 70.3125 37.5 70.3125ZM53.3215 66.0738C53.1156 66.074 52.9133 66.02 52.7349 65.9171C52.5565 65.8142 52.4084 65.6662 52.3055 65.4879L49.9617 61.4285C49.8836 61.2952 49.8325 61.1477 49.8116 60.9946C49.7907 60.8415 49.8002 60.6857 49.8397 60.5363C49.8792 60.3869 49.9479 60.2468 50.0418 60.124C50.1357 60.0012 50.2529 59.8983 50.3867 59.821C50.5206 59.7437 50.6684 59.6937 50.8216 59.6737C50.9749 59.6538 51.1306 59.6644 51.2797 59.7049C51.4289 59.7454 51.5685 59.815 51.6907 59.9097C51.8128 60.0044 51.915 60.1223 51.9914 60.2566L54.3352 64.316C54.438 64.4941 54.4921 64.696 54.4922 64.9017C54.4922 65.1073 54.4382 65.3093 54.3355 65.4874C54.2327 65.6655 54.085 65.8134 53.907 65.9164C53.729 66.0193 53.5271 66.0736 53.3215 66.0738ZM64.9008 54.4922C64.695 54.4925 64.4929 54.4383 64.3148 54.3352L60.2566 51.9914C60.1223 51.915 60.0044 51.8128 59.9097 51.6907C59.815 51.5685 59.7454 51.4289 59.7049 51.2797C59.6644 51.1306 59.6538 50.9749 59.6737 50.8216C59.6937 50.6684 59.7437 50.5206 59.821 50.3867C59.8983 50.2529 60.0012 50.1357 60.124 50.0418C60.2468 49.9479 60.3869 49.8792 60.5363 49.8397C60.6857 49.8002 60.8415 49.7907 60.9946 49.8116C61.1477 49.8325 61.2952 49.8836 61.4285 49.9617L65.4879 52.3055C65.7114 52.4345 65.886 52.6337 65.9847 52.8722C66.0834 53.1106 66.1006 53.375 66.0337 53.6242C65.9668 53.8734 65.8195 54.0936 65.6146 54.2505C65.4098 54.4075 65.1588 54.4924 64.9008 54.4922ZM69.1406 38.6719H64.4531C64.1423 38.6719 63.8443 38.5484 63.6245 38.3286C63.4047 38.1089 63.2812 37.8108 63.2812 37.5C63.2812 37.1892 63.4047 36.8911 63.6245 36.6714C63.8443 36.4516 64.1423 36.3281 64.4531 36.3281H69.1406C69.4514 36.3281 69.7495 36.4516 69.9693 36.6714C70.189 36.8911 70.3125 37.1892 70.3125 37.5C70.3125 37.8108 70.189 38.1089 69.9693 38.3286C69.7495 38.5484 69.4514 38.6719 69.1406 38.6719ZM60.8437 25.1953C60.5857 25.1956 60.3348 25.1106 60.1299 24.9537C59.9251 24.7967 59.7778 24.5765 59.7108 24.3273C59.6439 24.0781 59.6611 23.8137 59.7598 23.5753C59.8585 23.3368 60.0332 23.1376 60.2566 23.0086L64.316 20.6648C64.585 20.5119 64.9036 20.4716 65.2023 20.5526C65.5009 20.6337 65.7554 20.8296 65.9101 21.0976C66.0648 21.3656 66.1073 21.6839 66.0282 21.9831C65.9491 22.2823 65.7549 22.538 65.4879 22.6945L61.4285 25.0383C61.2505 25.1415 61.0495 25.1956 60.8437 25.1953ZM50.9754 15.3293C50.7698 15.3291 50.5679 15.2748 50.3899 15.1718C50.2119 15.0689 50.0641 14.921 49.9614 14.7428C49.8587 14.5647 49.8047 14.3627 49.8047 14.1571C49.8048 13.9515 49.8589 13.7495 49.9617 13.5715L52.3055 9.51211C52.3819 9.37776 52.4841 9.25985 52.6062 9.16516C52.7283 9.07047 52.868 9.00087 53.0172 8.96038C53.1663 8.91989 53.322 8.9093 53.4752 8.92921C53.6285 8.94914 53.7763 8.99917 53.9101 9.07645C54.044 9.15372 54.1612 9.25671 54.2551 9.37948C54.349 9.50224 54.4176 9.64237 54.4571 9.79178C54.4967 9.9412 54.5062 10.0969 54.4853 10.2501C54.4643 10.4032 54.4133 10.5507 54.3352 10.684L51.9914 14.7434C51.8885 14.9217 51.7403 15.0697 51.562 15.1726C51.3836 15.2754 51.1813 15.3295 50.9754 15.3293Z" fill="#62BA87"/>
<path d="M53.2383 29.5314C53.2366 30.631 52.7982 31.6848 52.0195 32.4611L36 48.4806C35.6618 48.8213 35.2597 49.092 34.8167 49.277C34.3737 49.462 33.8985 49.5578 33.4185 49.5589C32.9384 49.56 32.4628 49.4664 32.019 49.2833C31.5752 49.1003 31.1718 48.8315 30.832 48.4924L29.6602 47.3205L22.9336 40.6056C22.1628 39.8286 21.7323 38.7773 21.7367 37.6828C21.7411 36.5884 22.18 35.5405 22.957 34.7697C23.734 33.9989 24.7854 33.5684 25.8799 33.5728C26.9743 33.5772 28.0222 34.0161 28.793 34.7931L32.2735 38.2619L33.4453 39.4338L46.2188 26.6603C46.8859 25.9848 47.7662 25.561 48.7103 25.4606C49.6544 25.3602 50.6042 25.5895 51.3985 26.1095C51.6312 26.2622 51.8473 26.4389 52.043 26.6369C52.4234 27.0166 52.7249 27.4678 52.9301 27.9646C53.1353 28.4614 53.24 28.9939 53.2383 29.5314Z" fill="#62BA87"/>
<path d="M52.0664 28.3595C52.0647 29.4591 51.6263 30.5129 50.8477 31.2892L34.8281 47.3088C34.4899 47.6495 34.0878 47.9201 33.6448 48.1051C33.2018 48.2902 32.7267 48.386 32.2466 48.3871C31.7665 48.3881 31.2909 48.2945 30.8471 48.1115C30.4033 47.9285 29.9999 47.6597 29.6602 47.3205L22.9336 40.6056C22.1628 39.8286 21.7323 38.7773 21.7367 37.6828C21.7411 36.5884 22.18 35.5405 22.957 34.7697C23.734 33.9989 24.7854 33.5684 25.8799 33.5728C26.9743 33.5772 28.0222 34.0161 28.793 34.7931L32.2735 38.2619L33.4453 39.4338L46.2188 26.6603C46.8859 25.9848 47.7662 25.561 48.7103 25.4606C49.6544 25.3602 50.6042 25.5895 51.3985 26.1095C51.8369 26.7778 52.0692 27.5603 52.0664 28.3595Z" fill="#62BA87"/>
</svg>
