<svg width="282" height="241" viewBox="0 0 282 241" fill="none" xmlns="http://www.w3.org/2000/svg">
<path d="M44.4771 0H43.9131V65.3255H44.4771V0Z" fill="#C7C7C7"/>
<path d="M70.7366 87.1938L68.6047 91.204H19.7792L17.653 87.1938L38.4364 74.8979H49.9532L70.7366 87.1938Z" fill="#EBEBEB"/>
<path d="M51.3972 63.0503L49.9534 74.8979H38.4365L36.9927 63.0503H51.3972Z" fill="#DBDBDB"/>
<path d="M70.7369 87.1938L68.5993 91.2041H19.7795L17.6476 87.1938H70.7369Z" fill="#DBDBDB"/>
<path d="M101.469 0H100.905V52.3886H101.469V0Z" fill="#C7C7C7"/>
<path d="M127.729 74.2519L125.597 78.2669H76.7718L74.6455 74.2519L95.4289 61.9561H106.946L127.729 74.2519Z" fill="#EBEBEB"/>
<path d="M108.389 50.1138L106.946 61.9565H95.4287L93.9849 50.1138H108.389Z" fill="#DBDBDB"/>
<path d="M127.729 74.2568L125.592 78.2671H76.7718L74.6399 74.2568H127.729Z" fill="#DBDBDB"/>
<path d="M27.3541 107.65L21.7874 115.319L24.551 116.765C24.9383 116.98 25.2486 117.282 25.4476 117.639C25.6466 117.995 25.7267 118.391 25.679 118.784C25.6337 119.222 25.6168 119.661 25.6282 120.1C25.644 120.5 25.5302 120.895 25.2993 121.243C25.0683 121.591 24.7293 121.878 24.3198 122.071L21.4998 123.378L26.5081 131.35L29.3281 130.044C29.7293 129.86 30.182 129.774 30.6366 129.795C31.0912 129.816 31.5302 129.944 31.9056 130.164C32.3662 130.439 32.8445 130.692 33.3381 130.921C33.7391 131.109 34.0707 131.39 34.2958 131.73C34.521 132.071 34.6307 132.458 34.6128 132.849L34.5112 135.611L45.0693 135.89L45.1652 133.119C45.1801 132.727 45.3218 132.347 45.5748 132.02C45.8277 131.693 46.1819 131.433 46.5978 131.268C46.8459 131.167 47.0884 131.061 47.331 130.95C47.5735 130.839 47.8104 130.723 48.0416 130.603C48.4309 130.398 48.8789 130.29 49.336 130.29C49.793 130.29 50.2411 130.398 50.6304 130.603L53.3996 132.049L58.9606 124.38L56.1914 122.91C55.8036 122.695 55.493 122.393 55.2939 122.036C55.0948 121.68 55.015 121.283 55.0634 120.89C55.1086 120.455 55.1255 120.017 55.1142 119.579C55.0989 119.179 55.2136 118.783 55.4456 118.435C55.6775 118.087 56.0176 117.801 56.4283 117.608L59.2483 116.302L54.2569 108.349L51.403 109.655C50.989 109.84 50.523 109.923 50.0569 109.895C49.5908 109.867 49.143 109.729 48.7635 109.496C48.3405 109.245 47.9006 109.014 47.455 108.807C47.0442 108.624 46.7014 108.346 46.4652 108.005C46.2291 107.665 46.1089 107.275 46.1184 106.879L46.2481 104.112L35.6956 103.828L35.5941 106.599C35.5751 106.995 35.4279 107.378 35.169 107.707C34.9101 108.035 34.5496 108.296 34.1277 108.46C33.8908 108.551 33.6596 108.652 33.4284 108.758C33.1971 108.865 32.9715 108.975 32.7516 109.091C32.3554 109.299 31.8996 109.409 31.4346 109.409C30.9697 109.409 30.5138 109.299 30.1177 109.091L27.3541 107.65ZM35.329 113.858C36.7978 112.958 38.5596 112.473 40.3673 112.472C42.1749 112.471 43.9374 112.954 45.4074 113.853C46.8774 114.752 47.981 116.022 48.5631 117.484C49.1453 118.947 49.1769 120.528 48.6534 122.007C48.1299 123.486 47.0776 124.787 45.6444 125.728C44.2111 126.67 42.4689 127.204 40.6623 127.255C38.8557 127.307 37.0755 126.874 35.5717 126.017C34.0679 125.16 32.916 123.922 32.2778 122.476C31.6052 120.953 31.5397 119.283 32.0914 117.724C32.6431 116.166 33.7812 114.807 35.329 113.858Z" fill="#EBEBEB"/>
<path d="M258.876 32.7761C258.639 32.6577 258.446 32.4855 258.318 32.2787C258.189 32.0718 258.131 31.8385 258.148 31.6049C258.148 31.4747 258.148 31.3446 258.148 31.2144C258.148 31.0843 258.148 30.9493 258.148 30.8192C258.131 30.5855 258.189 30.3522 258.318 30.1454C258.446 29.9386 258.639 29.7663 258.876 29.6479L260.528 28.8334L257.426 24.2303L255.751 25.0641C255.513 25.1809 255.242 25.2383 254.968 25.2298C254.694 25.2212 254.428 25.1472 254.2 25.0159C253.941 24.8761 253.676 24.7412 253.399 24.6207C253.155 24.516 252.95 24.3557 252.806 24.1575C252.661 23.9594 252.584 23.731 252.582 23.4976V21.854H246.378V23.4783C246.371 23.7096 246.29 23.9348 246.144 24.1294C245.998 24.3241 245.792 24.4807 245.549 24.5821C245.272 24.7026 244.985 24.8376 244.748 24.9774C244.52 25.1086 244.254 25.1827 243.98 25.1912C243.706 25.1997 243.435 25.1423 243.197 25.0256L241.544 24.211L238.437 28.8141L240.095 29.6335C240.336 29.7515 240.533 29.9256 240.662 30.1355C240.792 30.3454 240.85 30.5825 240.828 30.8192C240.828 30.9493 240.828 31.0795 240.828 31.2096C240.828 31.3398 240.828 31.4699 240.828 31.6C240.846 31.835 240.787 32.0696 240.658 32.2775C240.528 32.4853 240.333 32.658 240.095 32.7761L238.437 33.5907L241.544 38.1938L243.191 37.3792C243.429 37.2628 243.7 37.2052 243.974 37.2129C244.248 37.2206 244.514 37.2932 244.742 37.4226C245.002 37.569 245.271 37.7026 245.549 37.8227C245.792 37.9276 245.997 38.0881 246.14 38.2863C246.283 38.4845 246.36 38.7127 246.361 38.9457V40.5701H252.565V38.9409C252.567 38.7075 252.644 38.4791 252.789 38.281C252.933 38.0828 253.138 37.9226 253.383 37.8178C253.659 37.6967 253.929 37.5632 254.189 37.4178C254.416 37.2882 254.681 37.2156 254.954 37.2079C255.228 37.2002 255.498 37.2579 255.734 37.3744L257.387 38.189L260.489 33.5859L258.876 32.7761ZM249.491 35.5669C248.487 35.5669 247.506 35.3125 246.671 34.8358C245.836 34.3592 245.185 33.6817 244.801 32.889C244.417 32.0963 244.317 31.2241 244.512 30.3826C244.708 29.5411 245.192 28.7682 245.902 28.1615C246.612 27.5548 247.516 27.1416 248.501 26.9743C249.485 26.8069 250.506 26.8928 251.433 27.2211C252.361 27.5494 253.154 28.1055 253.711 28.8188C254.269 29.5322 254.567 30.3709 254.567 31.2289C254.566 31.7994 254.434 32.3642 254.177 32.8909C253.921 33.4175 253.545 33.8958 253.072 34.2983C252.599 34.7008 252.038 35.0196 251.42 35.2365C250.803 35.4533 250.142 35.564 249.474 35.5621L249.491 35.5669Z" fill="#EBEBEB"/>
<path d="M118.959 153.69C118.738 153.58 118.554 153.422 118.426 153.233C118.297 153.044 118.228 152.829 118.226 152.611C118.226 152.394 118.226 152.182 118.226 151.965C118.198 151.747 118.213 151.527 118.271 151.314C118.333 151.101 118.462 150.906 118.643 150.75C118.834 150.607 119.047 150.485 119.275 150.389L120.589 149.733V149.757L117.453 145.169H117.526L115.8 146.036C115.483 146.172 115.12 146.209 114.774 146.142C114.448 146.055 114.138 145.929 113.855 145.766L113.426 145.559C113.268 145.488 113.125 145.396 113.003 145.284C112.753 145.062 112.601 144.772 112.574 144.465V142.754L112.704 142.865L106.5 142.913L106.692 142.754V144.47C106.674 144.716 106.583 144.954 106.427 145.162C106.271 145.369 106.055 145.539 105.801 145.655L105.378 145.872L104.955 146.084C104.791 146.172 104.612 146.237 104.425 146.277C104.045 146.348 103.648 146.309 103.297 146.166L101.548 145.313L101.887 145.236L98.8015 149.849L98.6999 149.526L100.448 150.384C100.694 150.528 100.894 150.723 101.029 150.95C101.164 151.178 101.23 151.43 101.221 151.685V152.109V152.529C101.224 152.692 101.198 152.855 101.142 153.011C101.025 153.336 100.78 153.617 100.448 153.806L98.6999 154.664L98.7958 154.36L101.875 158.973L101.559 158.901L103.313 158.057C103.665 157.916 104.063 157.881 104.441 157.956C104.623 157.997 104.795 158.06 104.955 158.144L105.383 158.361L105.806 158.573C105.97 158.65 106.119 158.749 106.246 158.867C106.5 159.104 106.652 159.409 106.675 159.73V161.451L106.523 161.32L112.727 161.373L112.636 161.451V159.739C112.663 159.44 112.811 159.157 113.054 158.939C113.31 158.747 113.594 158.585 113.9 158.457C114.182 158.299 114.487 158.174 114.808 158.086C115.144 158.017 115.498 158.053 115.806 158.187L117.538 159.045H117.498L120.623 154.452L118.959 153.69ZM118.959 153.69L120.611 154.5L117.526 159.108V159.132L115.789 158.289C115.495 158.167 115.16 158.136 114.842 158.202C114.516 158.286 114.208 158.413 113.928 158.578C113.634 158.705 113.362 158.867 113.121 159.06C112.903 159.262 112.773 159.523 112.755 159.797V161.504V161.581H112.665L106.461 161.634H106.314V161.47V159.768C106.291 159.517 106.167 159.281 105.964 159.098C105.862 159.008 105.744 158.932 105.615 158.872L105.175 158.66L104.735 158.448C104.611 158.384 104.476 158.338 104.334 158.313C104.051 158.259 103.754 158.289 103.494 158.399L101.802 159.262L101.605 159.363L101.486 159.19L98.3559 154.601L98.2262 154.408L98.4518 154.298L100.144 153.444C100.369 153.312 100.534 153.118 100.612 152.895C100.65 152.782 100.669 152.665 100.668 152.548V152.114V151.68C100.669 151.563 100.65 151.446 100.612 151.333C100.533 151.111 100.365 150.92 100.138 150.793L98.4461 149.936L98.2036 149.82L98.3446 149.617L101.469 145.029L101.599 144.841L101.813 144.947L103.505 145.8C103.757 145.906 104.044 145.935 104.317 145.882C104.456 145.857 104.587 145.811 104.707 145.747L105.146 145.535L105.592 145.323C105.717 145.266 105.831 145.193 105.93 145.106C106.13 144.928 106.25 144.696 106.269 144.45V142.759V142.59H106.455L112.659 142.638H112.8V142.749V144.45C112.821 144.716 112.946 144.967 113.155 145.164C113.392 145.356 113.66 145.518 113.95 145.646C114.216 145.808 114.509 145.935 114.819 146.022C115.128 146.084 115.452 146.055 115.738 145.94L117.481 145.106L117.526 145.082V145.12L120.611 149.733L119.292 150.379C119.065 150.473 118.854 150.593 118.666 150.736C118.485 150.886 118.356 151.076 118.293 151.285C118.234 151.496 118.217 151.715 118.243 151.931C118.243 152.148 118.243 152.365 118.243 152.577C118.237 152.8 118.3 153.02 118.426 153.216C118.551 153.411 118.735 153.575 118.959 153.69Z" fill="#EBEBEB"/>
<path d="M109.574 156.482C108.71 156.478 107.86 156.293 107.101 155.941C106.342 155.589 105.696 155.082 105.221 154.465C104.747 153.848 104.459 153.14 104.382 152.405C104.306 151.669 104.443 150.929 104.783 150.25C105.122 149.572 105.653 148.975 106.328 148.514C107.003 148.053 107.801 147.742 108.651 147.609C109.5 147.476 110.375 147.524 111.198 147.75C112.02 147.976 112.764 148.373 113.364 148.904C114.334 149.771 114.861 150.931 114.83 152.129C114.785 153.291 114.214 154.392 113.238 155.201C112.262 156.01 110.956 156.464 109.596 156.467L109.574 156.482ZM109.574 156.482C110.234 156.481 110.888 156.368 111.496 156.148C112.105 155.929 112.655 155.607 113.116 155.203C113.577 154.799 113.939 154.32 114.18 153.794C114.421 153.269 114.537 152.708 114.52 152.144C114.482 151.043 113.944 149.998 113.019 149.23C112.095 148.463 110.857 148.033 109.568 148.032C108.255 148.032 106.995 148.478 106.067 149.272C105.138 150.065 104.616 151.142 104.616 152.264C104.616 153.386 105.138 154.463 106.067 155.256C106.995 156.05 108.255 156.496 109.568 156.496L109.574 156.482Z" fill="#EBEBEB"/>
<path d="M17.3486 211L48.2615 210.885L79.1743 210.841L141 210.764L202.826 210.841L233.739 210.885L264.651 211L233.739 211.121L202.826 211.164L141 211.241L79.1743 211.164L48.2615 211.121L17.3486 211Z" fill="#263238"/>
<path d="M259.598 43.3848H166.087V124.158H259.598V43.3848Z" fill="#EBEBEB"/>
<path d="M209.08 38.5116C212.199 35.3834 217.54 34.6315 222.707 35.5232C227.873 36.4149 234.06 38.6418 234.624 46.026C235.086 52.0221 232.932 57.8687 232.932 64.5589C232.932 71.2491 241.792 87.5455 227.613 95.4985C214.873 102.642 189.058 96.0817 188.263 81.3759C187.637 69.7211 203.813 58.9436 205.516 54.3309C207.219 49.7181 205.662 41.9338 209.08 38.5116Z" fill="#263238"/>
<path d="M206.751 45.0908C206.655 48.4263 206.091 51.8003 204.495 54.9477C204.081 55.7449 203.54 56.4894 202.888 57.1601C202.262 57.8349 201.596 58.4711 200.931 59.0881C199.588 60.3365 198.263 61.5752 196.983 62.8622C194.44 65.3835 192.339 68.2069 190.745 71.2441C189.217 74.2956 188.377 77.5662 188.269 80.8841C188.11 79.2096 188.169 77.5252 188.444 75.8617C188.749 74.1896 189.253 72.5487 189.95 70.9646C191.419 67.7906 193.501 64.8497 196.109 62.2645C197.389 60.9583 198.748 59.7099 200.102 58.476C201.455 57.242 202.826 56.066 203.666 54.62C204.528 53.1415 205.185 51.5822 205.623 49.9735C206.118 48.3676 206.495 46.7369 206.751 45.0908Z" fill="#263238"/>
<path d="M234.269 51.063C234.173 54.4659 233.919 57.864 234.026 61.2428C234.072 62.9256 234.238 64.6045 234.522 66.2701C234.816 67.9089 235.391 69.5477 235.87 71.2058C236.35 72.8638 236.778 74.546 237.094 76.2427C237.4 77.9472 237.528 79.6714 237.478 81.3952C237.386 83.1274 237.006 84.8396 236.35 86.4803C235.593 88.093 234.463 89.5585 233.028 90.7894C234.285 89.4685 235.242 87.9579 235.848 86.3357C236.374 84.7227 236.636 83.0552 236.626 81.3808C236.466 78.0102 235.849 74.6669 234.788 71.4178C234.336 69.7646 233.761 68.1258 233.485 66.3858C233.226 64.6809 233.124 62.9613 233.18 61.2428C233.299 57.8337 233.663 54.4341 234.269 51.063Z" fill="#263238"/>
<path d="M213.756 79.6792C200.784 91.8834 190.198 97.7445 179.764 97.7445C169.843 97.7445 148.648 77.1583 147.091 74.4446C145.749 72.1021 163.148 59.2857 165.822 60.8812C170.334 63.5514 184.806 79.0092 186.34 79.0815C187.874 79.1538 193.525 75.9629 207.135 70.5163C215.403 67.2146 222.78 71.2201 213.756 79.6792Z" fill="#EB9481"/>
<path d="M149.11 76.4741C147.204 74.71 139.201 65.9039 137.616 63.0311C136.031 60.1584 132.19 51.6077 134.644 50.3497C137.097 49.0917 138.451 51.5161 138.451 51.5161C138.451 51.5161 137.498 47.6891 140.103 46.6142C142.709 45.5393 144.672 49.3712 144.672 49.3712C144.672 49.3712 144.029 45.3803 146.713 44.4645C149.398 43.5487 150.627 47.6939 150.627 47.6939C150.627 47.6939 149.838 44.0644 152.421 44.1078C155.529 44.1608 156.098 50.9908 158.123 54.0515C158.58 54.7455 168.608 67.5475 168.608 67.5475L149.11 76.4741Z" fill="#EB9481"/>
<path d="M150.52 47.3416C150.955 52.3592 152.162 54.4945 155.596 58.4806C155.664 58.5578 155.546 58.659 155.467 58.5867C151.671 54.9428 149.708 52.4556 150.221 47.3464C150.261 47.0958 150.498 47.1006 150.52 47.3416Z" fill="#263238"/>
<path d="M144.655 48.976C145.636 54.1575 146.911 56.4807 150.176 60.8814C150.221 60.944 150.103 61.0163 150.052 60.9585C146.437 56.8663 144.542 54.3454 144.356 49.0579C144.345 48.8169 144.61 48.735 144.655 48.976Z" fill="#263238"/>
<path d="M138.631 51.7376C140.007 56.6974 141.288 59.2954 145.089 63.2189C145.179 63.3153 145.027 63.4358 144.931 63.349C140.6 59.6665 138.975 56.4323 138.462 51.781C138.428 51.4725 138.547 51.4243 138.631 51.7376Z" fill="#263238"/>
<path d="M173.08 68.7713C173.08 68.7713 172.951 62.4619 172.178 59.7001C171.405 56.9382 164.124 47.5585 161.637 48.7924C158.461 50.383 161.428 56.5044 163.329 59.3482C163.329 59.3482 155.997 63.0307 156.995 67.8218C157.993 72.6128 173.08 68.7713 173.08 68.7713Z" fill="#EB9481"/>
<path d="M160.932 49.4723C159.24 52.7113 162.06 56.3022 163.667 59.1701C163.693 59.2114 163.707 59.2573 163.708 59.3041C163.709 59.3509 163.696 59.3972 163.672 59.4392C163.648 59.4811 163.612 59.5175 163.568 59.5454C163.524 59.5732 163.473 59.5916 163.419 59.5991C160.452 61.3198 156.86 64.4769 156.814 67.7063C156.814 67.7255 156.806 67.7439 156.79 67.7575C156.774 67.771 156.752 67.7786 156.73 67.7786C156.707 67.7786 156.686 67.771 156.67 67.7575C156.654 67.7439 156.645 67.7255 156.645 67.7063C156.143 64.2359 159.375 60.8812 162.759 59.1798C161.067 56.254 158.433 52.5523 160.898 49.4434L160.932 49.4723Z" fill="#263238"/>
<path d="M191.388 75.5339L201.81 92.1533C201.81 92.1533 215.944 80.4262 218.2 75.5339C220.456 70.6416 218.025 67.0893 207.969 69.7065C202.224 71.1616 196.668 73.1142 191.388 75.5339Z" fill="#62BA87"/>
<path d="M204.219 88.6879C203.706 87.7866 203.254 86.8563 202.719 85.9598C202.183 85.0632 201.647 84.1764 201.089 83.2991C199.961 81.5254 198.833 79.7468 197.66 77.9971C196.994 77.0331 196.295 76.0402 195.567 75.1051C195.539 75.0618 195.443 75.1051 195.471 75.1389C197.383 78.7973 199.701 82.3014 202.014 85.7814C202.685 86.7888 203.446 87.748 204.146 88.7409C204.168 88.765 204.247 88.7216 204.219 88.6879Z" fill="#263238"/>
<path d="M218.2 75.5342C215.944 80.4265 201.81 92.1536 201.81 92.1536L194.789 80.976L217.952 70.0298C219.283 71.2155 219.266 73.2255 218.2 75.5342Z" fill="#263238"/>
<path d="M193.762 103.514C193.762 103.514 188.032 115.236 190.057 124.153H253.236C251.183 99.9134 237.044 79.0814 228.691 72.3382C221.957 66.9013 214.867 67.3881 209.932 70.1692C208.77 70.8296 195.951 85.9692 194.563 88.3647C189.058 97.8168 193.762 103.514 193.762 103.514Z" fill="#62BA87"/>
<path d="M210.372 69.4561C210.372 69.4561 206.424 79.1587 208.714 79.6648C214.41 80.918 222.052 72.9698 222.509 72.1601C222.622 71.9528 223.13 66.5207 223.508 62.2935C223.75 59.5751 223.936 57.353 223.936 57.353L209.881 61.4741L210.332 68.921L210.372 69.4561Z" fill="#EB9481"/>
<path d="M209.859 61.4741L210.31 68.921C213.169 68.5788 219.458 67.2533 223.485 62.2935C223.727 59.5751 223.914 57.353 223.914 57.353L222.154 57.835L209.859 61.4741Z" fill="#263238"/>
<path d="M199.391 51.0483C199.222 54.832 199.662 57.8927 200.739 59.9268C201.662 61.6641 203.13 63.1488 204.981 64.2158C206.832 65.2828 208.993 65.8904 211.224 65.971C212.916 66.024 217.789 65.6433 221.314 63.3489C224.055 61.5655 225.707 58.3506 226.643 52.6968C228.787 39.7695 221.866 35.4219 215.048 34.9013C208.229 34.3808 199.955 38.0054 199.391 51.0483Z" fill="#EB9481"/>
<path d="M203.299 48.1659C203.655 48.1225 203.982 48.0357 204.326 47.9683C204.7 47.9395 205.054 47.8095 205.335 47.5971C205.406 47.5146 205.444 47.415 205.444 47.3128C205.444 47.2105 205.406 47.1109 205.335 47.0284C205.16 46.8889 204.944 46.7917 204.71 46.7469C204.476 46.702 204.233 46.711 204.004 46.7729C203.518 46.839 203.078 47.0572 202.769 47.3851C202.696 47.461 202.652 47.5541 202.643 47.6519C202.634 47.7497 202.66 47.8476 202.718 47.9325C202.775 48.0174 202.862 48.0853 202.966 48.127C203.07 48.1687 203.186 48.1822 203.299 48.1659Z" fill="#263238"/>
<path d="M213.265 48.489C212.919 48.4369 212.577 48.3693 212.239 48.2866C211.865 48.2599 211.511 48.1277 211.235 47.9106C211.164 47.8281 211.126 47.7285 211.126 47.6263C211.126 47.524 211.164 47.4244 211.235 47.3419C211.412 47.2028 211.629 47.1066 211.864 47.0634C212.099 47.0202 212.343 47.0314 212.572 47.0961C213.062 47.163 213.505 47.385 213.812 47.7178C213.883 47.7949 213.925 47.8886 213.931 47.9863C213.938 48.0841 213.91 48.1813 213.851 48.265C213.791 48.3488 213.703 48.4151 213.599 48.4551C213.494 48.4951 213.378 48.507 213.265 48.489Z" fill="#263238"/>
<path d="M210.772 51.7471C210.772 51.7134 210.851 51.7905 210.851 51.829C210.767 52.7111 210.851 53.757 211.771 54.0752C211.771 54.0752 211.771 54.1282 211.771 54.1234C210.62 53.9402 210.53 52.5713 210.772 51.7471Z" fill="#263238"/>
<path d="M211.754 50.8554C213.446 50.8168 213.401 53.6847 211.844 53.7233C210.287 53.7618 210.372 50.8891 211.754 50.8554Z" fill="#263238"/>
<path d="M212.414 51.0149C212.701 51.1788 212.978 51.468 213.339 51.4969C213.7 51.5258 214.061 51.2366 214.331 50.9474C214.359 50.9185 214.388 50.9474 214.388 50.9811C214.388 51.5306 214.139 52.0946 213.446 52.1717C212.752 52.2488 212.374 51.7475 212.216 51.2077C212.188 51.092 212.295 50.9474 212.414 51.0149Z" fill="#263238"/>
<path d="M205.217 51.3711C205.217 51.3374 205.138 51.4145 205.138 51.4483C205.138 52.34 205.031 53.3763 204.089 53.6558C204.061 53.6558 204.061 53.7088 204.089 53.704C205.245 53.5691 205.414 52.2098 205.217 51.3711Z" fill="#263238"/>
<path d="M204.292 50.4411C202.6 50.3303 202.482 53.1982 204.033 53.2994C205.584 53.4006 205.691 50.5375 204.292 50.4411Z" fill="#263238"/>
<path d="M203.604 50.6097C203.333 50.7543 203.04 51.0194 202.741 51.029C202.442 51.0387 202.115 50.7157 201.895 50.412C201.895 50.3783 201.844 50.4121 201.839 50.441C201.799 50.9905 201.98 51.564 202.594 51.6942C203.209 51.8243 203.587 51.3519 203.762 50.8121C203.773 50.7061 203.689 50.5518 203.604 50.6097Z" fill="#263238"/>
<path d="M210.671 58.6497C210.428 58.8666 210.192 59.1606 209.819 59.1992C209.432 59.2016 209.049 59.1377 208.691 59.0112C208.685 59.0061 208.676 59.0035 208.667 59.0039C208.658 59.0044 208.649 59.0079 208.643 59.0136C208.637 59.0194 208.634 59.0269 208.635 59.0346C208.635 59.0423 208.639 59.0495 208.646 59.0546C208.803 59.2247 209.01 59.3557 209.246 59.4337C209.482 59.5117 209.739 59.5339 209.988 59.498C210.197 59.4424 210.382 59.3362 210.521 59.1925C210.66 59.0487 210.747 58.8736 210.772 58.6883C210.776 58.6773 210.774 58.6657 210.768 58.6555C210.763 58.6453 210.753 58.6372 210.741 58.6326C210.728 58.628 210.715 58.6272 210.702 58.6303C210.689 58.6334 210.678 58.6403 210.671 58.6497Z" fill="#263238"/>
<path d="M206.424 55.3574C206.424 55.3574 206.176 56.6829 206.164 57.3095C206.164 57.3674 206.339 57.3963 206.587 57.4156C206.587 57.4156 206.587 57.4156 206.616 57.4156C207.238 57.5208 207.883 57.4785 208.479 57.2933C209.075 57.1081 209.601 56.787 210 56.3648C210.05 56.307 209.96 56.2395 209.892 56.278C208.945 56.8056 207.824 57.059 206.695 57.001C206.649 56.8227 207.208 54.7453 207.089 54.7356C206.512 54.7663 205.943 54.8652 205.397 55.0297C205.82 52.2582 206.757 49.5686 207.123 46.8067C207.123 46.7103 206.971 46.6766 206.937 46.7634C205.719 49.5204 205.155 52.7016 204.63 55.5502C204.585 55.9117 206.108 55.4635 206.424 55.3574Z" fill="#263238"/>
<path d="M207.056 57.0879C207.417 57.5604 207.914 57.9455 208.5 58.2061C208.822 58.3376 209.184 58.3814 209.537 58.3315C210.31 58.211 210.383 57.6181 210.293 57.1024C210.238 56.8279 210.147 56.5595 210.022 56.3022C209.157 56.828 208.117 57.1033 207.056 57.0879Z" fill="#263238"/>
<path d="M208.5 58.2059C208.822 58.3374 209.184 58.3811 209.537 58.3312C210.31 58.2107 210.383 57.6178 210.293 57.1021C209.892 57.0868 209.497 57.1874 209.172 57.3877C208.846 57.588 208.61 57.8763 208.5 58.2059Z" fill="#FF98B9"/>
<path d="M226.367 51.5352C224.703 51.5786 219.983 48.0311 219.125 41.2156C219.125 41.2156 220.394 47.2888 221.026 48.1419C221.658 48.9951 218.386 46.1416 217.603 40.6565C217.603 40.6565 214.275 43.134 211.308 44.098C208.342 45.062 206.486 45.1873 206.232 45.0138C205.978 44.8402 210.338 43.2882 211.421 42.0061C211.421 42.0061 203.677 45.8621 199.978 46.3826C199.549 46.4405 200.271 40.7481 205.691 37.0849C211.111 33.4217 218.561 34.3375 221.235 36.1691C221.235 36.1691 224.156 36.2992 227.676 39.6973C231.195 43.0954 228.155 51.487 226.367 51.5352Z" fill="#263238"/>
<path d="M224.173 53.6176C224.173 53.6176 227.269 49.4097 229.486 50.3351C231.702 51.2606 229.542 57.2615 227.055 58.1725C226.745 58.3092 226.407 58.3908 226.059 58.4125C225.712 58.4342 225.363 58.3954 225.033 58.2985C224.704 58.2017 224.401 58.0487 224.142 57.8489C223.884 57.6492 223.676 57.4067 223.53 57.1362L224.173 53.6176Z" fill="#EB9481"/>
<path d="M228.815 52.0557C228.86 52.0557 228.866 52.099 228.815 52.1135C227.072 52.8028 226.22 54.2536 225.645 55.743C226.147 55.1549 226.846 54.8175 227.76 55.3188C227.805 55.3429 227.76 55.4104 227.715 55.4007C227.401 55.3352 227.071 55.3526 226.769 55.4507C226.467 55.5488 226.207 55.723 226.023 55.9502C225.719 56.3399 225.462 56.7549 225.256 57.189C225.183 57.3287 224.889 57.2709 224.946 57.1118C224.943 57.0991 224.943 57.086 224.946 57.0733C224.788 55.126 226.395 52.34 228.815 52.0557Z" fill="#263238"/>
<path d="M233.581 74.9843C239.83 81.1491 257.348 103.466 253.287 109.495C249.39 115.279 240.552 116.909 235.464 109.139C231.804 103.581 225.651 87.0005 224.122 79.0475C222.882 72.608 227.805 69.2822 233.581 74.9843Z" fill="#EB9481"/>
<path d="M227.743 94.7418L248.453 88.2396C248.453 88.2396 236.829 74.6424 231.477 72.054C226.125 69.4657 221.669 71.0274 223.305 79.901C224.185 84.9649 225.672 89.938 227.743 94.7418Z" fill="#62BA87"/>
<path d="M244.776 85.7139C243.648 86.0272 242.52 86.2779 241.392 86.6056C240.264 86.9334 239.181 87.266 238.087 87.6178C235.871 88.3215 233.66 89.0253 231.466 89.782C230.236 90.2062 229.007 90.6641 227.805 91.1461C227.749 91.1461 227.772 91.2473 227.805 91.2328C232.317 90.1242 236.694 88.6493 241.048 87.1792C242.311 86.7502 243.524 86.2152 244.77 85.7862C244.855 85.7669 244.816 85.6995 244.776 85.7139Z" fill="#263238"/>
<path d="M228.911 94.3271C228.501 94.4045 228.099 94.5109 227.709 94.6452C227.145 93.5992 225.809 89.001 225.498 87.8201C224.878 85.4679 224.37 83.0916 223.722 80.7395C223.722 80.672 223.57 80.6913 223.581 80.7395C223.773 82.0457 224.01 83.3471 224.275 84.6389C223.993 84.0219 223.711 83.4001 223.491 82.7687C223.493 82.7643 223.494 82.7595 223.493 82.7547C223.493 82.7499 223.491 82.7453 223.488 82.7413C223.485 82.7373 223.481 82.734 223.476 82.7317C223.471 82.7294 223.465 82.7282 223.46 82.7282C223.454 82.7282 223.448 82.7294 223.444 82.7317C223.439 82.734 223.434 82.7373 223.431 82.7413C223.428 82.7453 223.426 82.7499 223.426 82.7547C223.425 82.7595 223.426 82.7643 223.429 82.7687C223.685 83.553 224 84.3226 224.37 85.0727C224.59 87.4827 227.157 95.1416 227.23 95.1127C227.81 94.8878 228.375 94.6352 228.922 94.356C228.984 94.3704 228.984 94.3222 228.911 94.3271Z" fill="#263238"/>
<path d="M218.668 48.9565L212.775 70.4585C212.521 71.0899 212.899 71.596 213.621 71.5864L224.872 73.5433C225.267 73.5125 225.642 73.3864 225.956 73.1799C226.27 72.9733 226.508 72.6948 226.643 72.3769L232.537 50.8748C232.791 50.2434 232.413 49.7373 231.691 49.7518L220.439 47.79C220.045 47.8209 219.669 47.9469 219.356 48.1535C219.042 48.36 218.804 48.6385 218.668 48.9565Z" fill="#A6A6A6"/>
<path d="M219.633 49.0771L213.756 70.5791C213.502 71.2105 213.88 71.7166 214.602 71.707L225.854 73.6639C226.247 73.6335 226.623 73.5081 226.936 73.3025C227.25 73.0969 227.489 72.8194 227.625 72.5023L233.496 51.0003C233.75 50.364 233.372 49.8627 232.65 49.8724L221.404 47.9106C221.01 47.9432 220.635 48.0698 220.322 48.2761C220.009 48.4825 219.77 48.7601 219.633 49.0771Z" fill="#DBDBDB"/>
<path d="M223.197 50.0023C223.203 50.1952 223.141 50.385 223.019 50.5472C222.896 50.7095 222.72 50.8368 222.513 50.9125C222.305 50.9883 222.076 51.0091 221.854 50.9723C221.633 50.9354 221.429 50.8427 221.27 50.7059C221.111 50.5692 221.003 50.3948 220.961 50.2052C220.919 50.0157 220.945 49.8198 221.035 49.6428C221.124 49.4658 221.274 49.3159 221.465 49.2124C221.655 49.109 221.878 49.0567 222.103 49.0624C222.394 49.0637 222.672 49.1633 222.877 49.3394C223.082 49.5156 223.197 49.7539 223.197 50.0023Z" fill="#263238"/>
<path d="M238.471 111.086C242.131 116.87 251.82 113.573 253.287 109.496C256.727 99.9279 254.595 84.0219 252.542 75.1386C251.882 72.2804 229.165 75.1386 229.3 78.2283C229.458 81.9638 231.296 99.711 238.471 111.086Z" fill="#EB9481"/>
<path d="M252.288 79.3853C253.433 75.1704 253.502 70.7943 252.492 66.5545C251.296 61.9321 247.387 52.1282 231.674 47.7565C227.946 46.7154 221.77 47.4914 227.162 51.0775C230.975 53.6272 234.291 54.2587 236.186 56.0903C236.186 56.0903 228.471 57.8737 227.399 61.1031C226.461 63.9298 225.758 66.8097 225.295 69.7212C225.9 69.9148 226.518 70.0758 227.145 70.2032C226.814 73.015 227.579 75.8415 229.322 78.243L252.288 79.3853Z" fill="#EB9481"/>
<path d="M250.523 62.2982C248.188 60.8522 243.191 57.7771 238.065 56.5142C232.379 55.0682 220.992 53.6704 219.808 57.2613C218.939 59.8979 223.231 60.7703 223.231 60.7703C223.231 60.7703 218.381 61.0306 218.206 63.5562C218.048 65.8602 221.415 66.3663 221.415 66.3663C221.415 66.3663 218.505 66.9543 218.849 69.2005C219.266 71.8948 225.307 70.2175 228.493 72.6371C229.21 73.1673 250.523 62.2982 250.523 62.2982Z" fill="#EB9481"/>
<path d="M237.309 61.8787C234.85 60.799 228.521 59.5796 223.321 60.6834C223.203 60.6834 223.163 60.7942 223.276 60.7942C227.986 60.6856 232.694 61.0643 237.297 61.9221C237.325 61.9317 237.337 61.8884 237.309 61.8787Z" fill="#263238"/>
<path d="M235.47 66.7375C233.214 65.9952 226.643 64.983 221.421 66.2555C221.302 66.2844 221.268 66.376 221.381 66.3712C226.084 66.0501 230.815 66.1892 235.481 66.7857C235.489 66.7844 235.495 66.7807 235.499 66.7753C235.504 66.7698 235.505 66.7632 235.504 66.7568C235.502 66.7504 235.498 66.7448 235.491 66.7412C235.485 66.7376 235.477 66.7363 235.47 66.7375Z" fill="#263238"/>
<path d="M236.395 107.057C236.226 106.575 236.062 106.093 235.882 105.654C235.509 104.69 235.188 103.726 234.861 102.762C234.195 100.834 233.558 98.8775 233 96.9109C231.885 92.9912 231.04 89.0192 230.467 85.0152C230.309 83.9066 230.174 82.798 230.033 81.6894C229.892 80.5808 229.847 79.4288 229.599 78.3154C229.599 78.2575 228.939 77.4092 228.679 76.9899C228.41 76.5536 228.175 76.1028 227.974 75.6402C227.553 74.6964 227.267 73.7124 227.123 72.7097C227.12 72.7034 227.115 72.6981 227.108 72.6943C227.102 72.6905 227.094 72.6885 227.086 72.6885C227.078 72.6885 227.07 72.6905 227.064 72.6943C227.057 72.6981 227.052 72.7034 227.049 72.7097C226.976 73.8507 227.144 74.9937 227.546 76.0837C227.893 76.9955 228.493 77.8222 229.294 78.4937C229.294 78.6383 229.334 80.4217 229.401 81.4194C229.469 82.4172 229.576 83.4149 229.706 84.4078C229.971 86.4033 230.298 88.394 230.71 90.375C231.515 94.3823 232.634 98.3388 234.06 102.218C234.06 102.28 234.111 102.343 234.133 102.406C234.133 102.55 234.133 102.695 234.133 102.84C234.142 103.196 234.176 103.552 234.235 103.905C234.35 104.607 234.553 105.297 234.838 105.963C234.836 105.969 234.835 105.975 234.836 105.981C234.837 105.987 234.839 105.993 234.843 105.998C234.848 106.003 234.853 106.008 234.86 106.01C234.866 106.013 234.873 106.015 234.881 106.015C234.888 106.015 234.895 106.013 234.901 106.01C234.908 106.008 234.913 106.003 234.918 105.998C234.922 105.993 234.924 105.987 234.925 105.981C234.926 105.975 234.925 105.969 234.923 105.963C234.723 105.266 234.587 104.557 234.517 103.842L234.415 103.109C234.725 103.89 235.053 104.671 235.374 105.447C235.6 105.987 235.831 106.512 236.09 107.038C236.35 107.563 236.553 108.074 236.857 108.561C236.857 108.599 236.948 108.561 236.936 108.532C236.795 108.016 236.57 107.544 236.395 107.057Z" fill="#263238"/>
<path d="M166.087 124.153V111.197L148.856 124.153H166.087Z" fill="#EBEBEB"/>
<path d="M77.533 151.623C82.4962 170.078 92.761 192.202 97.1433 195.793C102.687 200.333 139.364 208.662 141.192 208.831C145.704 209.222 154.801 181.357 149.973 180.755C142.641 179.849 115.93 178.61 114.334 177.207C112.738 175.805 101.401 163.591 89.8169 149.868C81.8194 140.387 74.4479 140.17 77.533 151.623Z" fill="#AD6359"/>
<path d="M137.56 207.327C138.095 207.559 145.76 210.856 150.498 212.027C154.034 212.904 164.288 215.194 165.805 211.959C166.843 209.762 160.994 207.809 156.899 206.349C154.739 205.578 152.077 203.65 152.714 202.464C153.842 200.391 159.386 202.464 163.041 204.286C170.108 207.795 179.521 214.114 183.836 211.034C185.466 209.877 183.571 207.766 180.802 205.698C185.314 208.108 190.096 210.084 191.963 208.86C193.04 208.161 193.091 207.202 192.493 206.113C193.881 206.498 195.105 206.421 195.962 205.631C197.423 204.32 196.712 202.392 195.11 200.411C195.385 200.386 195.649 200.306 195.881 200.177C196.112 200.048 196.304 199.874 196.441 199.668C199.538 195.634 184.033 184.052 178.681 182.967C162.917 179.762 146.302 180.36 146.302 180.36C140.109 184.606 137.543 207.318 137.56 207.327Z" fill="#AD6359"/>
<path d="M160.74 194.925C164.493 195.426 168.079 196.605 171.259 198.381C175.257 200.637 177.908 203.278 181.258 205.934C181.272 205.949 181.278 205.968 181.278 205.987C181.277 206.006 181.268 206.024 181.254 206.038C181.239 206.052 181.219 206.061 181.198 206.064C181.176 206.068 181.153 206.064 181.134 206.055C179.538 204.792 172.917 200.039 171.208 198.96C168.117 196.972 164.537 195.61 160.74 194.978C160.689 194.974 160.701 194.916 160.74 194.925Z" fill="#263238"/>
<path d="M163.678 189.204C167.824 190.168 172.071 191.132 175.917 192.829C180.125 194.66 183.418 197.649 186.633 200.541C188.581 202.266 190.482 204.034 192.335 205.843C192.409 205.92 192.29 206.04 192.211 205.963C188.925 202.994 185.541 200.102 182.059 197.287C178.837 194.673 175.042 192.629 170.892 191.272C168.523 190.496 166.087 189.884 163.65 189.267C163.616 189.257 163.633 189.194 163.678 189.204Z" fill="#263238"/>
<path d="M168.106 184.206C172.133 184.914 175.646 185.517 179.211 187.358C183.932 189.802 188.489 193.913 190.085 195.374C191.85 196.983 193.553 198.642 195.223 200.324C195.291 200.391 195.155 200.497 195.082 200.43C191.256 196.741 187.155 193.269 182.804 190.033C180.757 188.467 178.44 187.179 175.934 186.216C173.394 185.363 170.773 184.699 168.1 184.23C168.1 184.23 168.072 184.201 168.106 184.206Z" fill="#263238"/>
<path d="M143.764 179.251L132.484 209.79C132.484 209.79 101.943 202.339 96.3876 197.196C90.8322 192.053 80.5053 165.495 77.4766 152.62C74.448 139.746 82.062 140.088 89.0612 148.181C96.0604 156.274 113.488 175.968 114.441 176.397C115.394 176.826 143.764 179.251 143.764 179.251Z" fill="#62BA87"/>
<path opacity="0.1" d="M143.764 179.251L132.484 209.79C132.484 209.79 101.943 202.339 96.3876 197.196C90.8322 192.053 80.5053 165.495 77.4766 152.62C74.448 139.746 82.062 140.088 89.0612 148.181C96.0604 156.274 113.488 175.968 114.441 176.397C115.394 176.826 143.764 179.251 143.764 179.251Z" fill="black"/>
<path d="M129.551 196.222C130.921 192.621 132.32 189.03 133.527 185.386C134.215 183.319 134.915 181.246 135.58 179.173C135.608 179.091 135.456 179.048 135.422 179.125C133.882 182.692 132.348 186.273 131 189.898C129.652 193.523 128.282 197.128 126.996 200.728C126.268 202.791 125.609 204.864 125.028 206.961C125.028 206.999 125.095 207.023 125.112 206.985C126.793 203.461 128.175 199.846 129.551 196.222Z" fill="#263238"/>
<path d="M117.081 205.592L115.727 205.187C113.184 204.411 110.589 203.577 108.147 202.724C107.831 202.618 107.521 202.507 107.216 202.396C106.726 202.223 106.235 202.044 105.761 201.866L105.051 201.601L104.797 201.505L104.064 201.215C103.094 200.835 102.174 200.454 101.317 200.068L100.753 199.798C99.4129 199.209 98.15 198.5 96.9855 197.682C96.8783 197.6 96.7712 197.518 96.6753 197.436C96.5794 197.354 96.4779 197.273 96.3933 197.195C90.8097 192.052 80.5111 165.494 77.4824 152.62L77.3809 152.177V152.08C77.1778 151.116 76.9973 149.892 76.8507 148.581C76.4277 142.175 79.9753 141.129 84.3575 143.944C95.2822 163.981 112.016 197.089 117.081 205.592Z" fill="#263238"/>
<path d="M101.238 210.72L34.686 211.019C34.7424 209.795 44.2176 173.982 51.7527 160.766C61.414 143.819 66.4167 142.45 69.3664 141.544C73.1734 140.377 79.9527 140.956 81.5601 141.606C83.3874 142.334 89.1966 151.001 91.2778 157.358C95.4401 170.146 102.174 209.94 101.238 210.72Z" fill="#EBEBEB"/>
<path d="M65.9542 142.884C65.9542 142.884 74.4142 169.659 74.8372 171.437C75.4745 174.021 79.6932 210.884 79.6932 210.884L33.3042 211.019C33.3042 211.019 43.428 176.894 50.963 161.952C59.1862 145.564 65.9542 142.884 65.9542 142.884Z" fill="#62BA87"/>
<g opacity="0.1">
<path d="M65.9542 142.884C65.9542 142.884 74.4142 169.659 74.8372 171.437C75.4745 174.021 79.6932 210.884 79.6932 210.884L33.3042 211.019C33.3042 211.019 43.428 176.894 50.963 161.952C59.1862 145.564 65.9542 142.884 65.9542 142.884Z" fill="black"/>
</g>
<path d="M82.1692 142.021C82.4173 142.874 90.2175 164.627 90.7589 170.049C91.3624 176.065 96.6978 211.019 96.6978 211.019H103.466C103.466 211.019 93.6691 160.8 90.9789 155.493C85.4742 144.662 82.1692 142.021 82.1692 142.021Z" fill="#62BA87"/>
<path opacity="0.1" d="M82.1692 142.021C82.4173 142.874 90.2175 164.627 90.7589 170.049C91.3624 176.065 96.6978 211.019 96.6978 211.019H103.466C103.466 211.019 93.6691 160.8 90.9789 155.493C85.4742 144.662 82.1692 142.021 82.1692 142.021Z" fill="black"/>
<path d="M57.1952 149.145C46.0506 159.349 18.956 198.063 27.5514 205.124C36.1467 212.186 83.8668 202.681 97.2674 197.22C101.255 195.6 86.1059 174.353 81.419 173.857C77.5161 173.447 57.5731 181.241 56.9922 180.263C56.3436 179.154 59.5133 170.975 64.3242 156.163C69.8457 139.09 62.1246 144.633 57.1952 149.145Z" fill="#AD6359"/>
<path d="M101.227 167.003C110.916 165.846 113.635 166.825 121.187 162.14C126.155 159.065 130.588 160.458 127.751 165.34C123.115 173.332 110.978 177.063 106.319 177.323L101.227 167.003Z" fill="#AD6359"/>
<path d="M75.4858 174.966C75.4858 174.966 86.3767 169.799 96.5625 167.697C103.601 166.251 119.337 164.54 134.396 177.819C137.966 180.967 140.442 187.618 132.427 184.288C126.731 181.921 123.967 178.952 120.352 178.089C120.352 178.089 122.326 186.866 118.496 189.802C115.149 192.367 111.593 194.725 107.854 196.858C107.239 196.364 106.662 195.836 106.128 195.277C106.128 195.277 102.248 197.731 94.9495 197.133L75.4858 174.966Z" fill="#AD6359"/>
<path d="M103.545 167.254C106.929 168.753 113.984 172.035 118.677 176.441C123.894 181.338 132.393 191.961 128.124 195.239C124.999 197.625 121.356 193.793 121.356 193.793C121.356 193.793 123.787 198.82 120.408 200.444C117.335 201.929 114.706 198.835 114.706 198.835C114.706 198.835 115.569 202.098 112.281 203.038C108.333 204.165 107.171 197.138 102.011 195.326C100.832 194.892 103.545 167.254 103.545 167.254Z" fill="#AD6359"/>
<path d="M111.711 180.268C114.605 182.123 119.918 187.777 121.384 193.633C121.418 193.768 121.322 193.86 121.26 193.744C118.712 188.951 115.493 184.44 111.672 180.311C111.627 180.268 111.672 180.268 111.711 180.268Z" fill="#263238"/>
<path d="M106.083 184.91C108.389 186.732 113.561 192.766 114.808 198.748C114.836 198.883 114.729 198.97 114.678 198.849C112.42 193.951 109.519 189.288 106.032 184.948C105.998 184.919 106.032 184.885 106.083 184.91Z" fill="#263238"/>
<path d="M120.352 178.031C123.51 178.827 125.563 180.152 128.248 181.733C129.555 182.531 130.912 183.267 132.314 183.936C133.6 184.529 135.501 185.425 136.866 184.495C137.633 183.979 137.622 183.049 137.43 182.292C137.044 181.197 136.458 180.161 135.693 179.222C135.693 179.183 135.732 179.14 135.766 179.174C136.505 180.029 137.14 180.946 137.661 181.911C138.003 182.573 138.103 183.307 137.949 184.018C137.481 185.502 135.428 185.7 134.001 185.29C133.136 185.019 132.305 184.675 131.519 184.264C130.752 183.888 130.008 183.483 129.263 183.059C127.763 182.191 126.325 181.251 124.836 180.369C123.389 179.539 121.882 178.789 120.324 178.123C120.312 178.118 120.302 178.11 120.297 178.1C120.291 178.09 120.29 178.078 120.294 178.067C120.297 178.056 120.305 178.047 120.315 178.04C120.326 178.034 120.339 178.031 120.352 178.031Z" fill="#263238"/>
<path d="M126.968 187.527C126.15 185.989 121.722 179.578 120.29 178.094C120.285 178.086 120.282 178.078 120.284 178.069C120.285 178.061 120.289 178.053 120.296 178.046C120.304 178.04 120.313 178.036 120.323 178.035C120.333 178.034 120.343 178.036 120.352 178.041C122.817 180.036 126.77 185.333 127.684 187.03C128.598 188.727 129.647 190.852 129.647 192.718C129.647 195.537 127.458 196.092 126.652 196.212C125.687 196.362 124.691 196.222 123.832 195.817C122.827 195.292 121.959 194.597 121.282 193.773C121.249 193.735 121.311 193.682 121.35 193.72C122.478 194.834 124.396 195.928 126.184 195.725C126.58 195.693 126.965 195.594 127.316 195.432C127.667 195.271 127.976 195.051 128.225 194.786C128.714 194.107 128.902 193.302 128.755 192.515C128.492 190.778 127.887 189.092 126.968 187.527Z" fill="#263238"/>
<path d="M75.4857 174.966L90.7589 202.44C90.7589 202.44 31.02 213.902 25.865 205.013C20.7101 196.125 43.913 161.344 54.3639 151.213C66.4843 139.471 68.0297 143.467 65.3619 153.873C62.5419 164.766 57.167 180.518 57.167 180.518L75.4857 174.966Z" fill="#62BA87"/>
<path opacity="0.1" d="M75.4857 174.966L90.7589 202.44C90.7589 202.44 31.02 213.902 25.865 205.013C20.7101 196.125 43.913 161.344 54.3639 151.213C66.4843 139.471 68.0297 143.467 65.3619 153.873C62.5419 164.766 57.167 180.518 57.167 180.518L75.4857 174.966Z" fill="black"/>
<path d="M39.0119 187.83C44.5221 184.56 50.5729 182.011 56.964 180.268C58.7745 179.786 60.6018 179.328 62.4292 178.879C62.4856 178.879 62.5081 178.942 62.4292 178.957C59.242 179.838 56.1178 180.878 53.0724 182.07C50.0306 183.227 47.0226 184.43 44.0484 185.68C42.3564 186.389 40.7095 187.165 39.0514 187.922C39.0402 187.92 39.0299 187.915 39.0213 187.909C39.0127 187.902 39.0062 187.894 39.0022 187.885C38.9983 187.876 38.9971 187.866 38.9988 187.857C39.0005 187.847 39.005 187.838 39.0119 187.83Z" fill="#263238"/>
<path d="M75.3279 174.893C75.029 174.961 58.6899 179.573 58.1541 179.786C58.2218 179.573 61.1546 172.151 61.5945 171.061C61.634 170.955 61.6735 170.844 61.7186 170.738C62.0119 170.256 62.3164 169.774 62.5928 169.292C62.9425 168.661 63.2922 168.02 63.6362 167.364H63.6024L62.4744 169.23C62.2995 169.514 62.136 169.808 61.9724 170.102C62.26 169.336 62.5364 168.565 62.8128 167.789C63.2527 166.559 63.6475 165.316 64.0366 164.072C64.0366 164.029 63.9802 164.019 63.9633 164.072C63.0948 166.237 62.1472 168.377 61.273 170.541C60.3988 172.705 57.0374 180.663 57.0656 180.663C57.0938 180.663 75.0572 175.235 75.4069 175.115C75.4239 175.111 75.4398 175.103 75.4535 175.094C75.4673 175.084 75.4787 175.072 75.487 175.059C75.4954 175.045 75.5006 175.031 75.5024 175.015C75.5041 175 75.5023 174.985 75.4971 174.97C75.4919 174.956 75.4835 174.942 75.4721 174.931C75.4608 174.919 75.4469 174.909 75.4312 174.902C75.4155 174.895 75.3983 174.89 75.3806 174.889C75.3629 174.887 75.345 174.889 75.3279 174.893Z" fill="#263238"/>
<path d="M76.4277 192.8C74.7357 189.739 73.0945 186.659 71.284 183.642C70.2519 181.931 69.2311 180.215 68.182 178.514C68.1425 178.451 68.0072 178.514 68.041 178.567C69.5864 181.7 71.143 184.833 72.8576 187.913C74.5721 190.992 76.2416 194.034 77.9843 197.071C78.977 198.796 80.0317 200.494 81.1484 202.165C81.1484 202.199 81.2386 202.165 81.2217 202.165C79.8004 198.974 78.1253 195.894 76.4277 192.8Z" fill="#263238"/>
<path d="M91.5315 202.864C90.9337 202.015 90.1779 200.801 89.5406 199.972C89.3714 199.755 89.174 199.798 89.3093 200.025C89.7662 200.796 90.1441 201.659 90.5896 202.435C89.7549 202.579 88.8976 202.705 88.0742 202.854C87.1041 203.028 86.1397 203.206 85.1696 203.375C83.267 203.696 81.3645 204.017 79.4619 204.339C75.6041 204.952 71.7313 205.492 67.8435 205.958C60.0548 206.933 52.2122 207.562 44.3473 207.843C42.1477 207.91 39.9424 207.944 37.7428 207.92C35.5731 207.925 33.4045 207.835 31.2455 207.65C31.1835 207.65 31.1722 207.732 31.2455 207.742C33.1033 208.077 34.9892 208.287 36.8855 208.368C38.8765 208.45 40.873 208.489 42.8696 208.469C46.8176 208.431 50.8051 208.209 54.7587 207.901C62.5983 207.284 70.4153 206.378 78.1647 205.206C80.338 204.885 82.5056 204.536 84.6676 204.16C85.7618 203.972 86.8503 203.784 87.9388 203.577C89.0273 203.37 91.633 203.008 91.5315 202.864Z" fill="#263238"/>
<path d="M82.1804 152.013C78.2324 152.943 71.1654 147.955 68.2777 143.819C68.0803 143.535 68.4695 140.469 68.7346 136.724C68.8869 134.454 68.9884 131.904 68.8869 129.6C68.8869 129.118 86.0494 132.598 86.0494 132.598C86.0494 132.598 84.583 137.505 84.786 141.544C84.804 141.869 84.8568 142.191 84.9439 142.508C84.9595 142.559 84.9708 142.61 84.9778 142.662C85.4008 144.45 85.9986 151.112 82.1804 152.013Z" fill="#AD6359"/>
<path d="M69.936 129.658C70.8948 133.552 74.1548 142.927 83.2352 142.816C83.8175 142.811 84.3984 142.766 84.9723 142.681C84.9794 142.629 84.9794 142.575 84.9723 142.522C84.8886 142.205 84.8339 141.883 84.8087 141.558C84.6113 137.514 86.0721 132.603 86.0721 132.603C86.0721 132.603 73.6528 130.096 69.936 129.658Z" fill="#263238"/>
<path d="M88.0967 122.645C87.9049 126.202 90.7136 129.2 94.3684 129.345C98.0231 129.489 101.136 126.713 101.322 123.156C101.509 119.598 98.6999 116.6 95.0508 116.461C91.4017 116.321 88.2828 119.088 88.0967 122.645Z" fill="#455A64"/>
<path d="M100.652 123.352C100.861 119.395 97.7368 116.06 93.6729 115.903C89.6091 115.745 86.1448 118.826 85.9354 122.783C85.7259 126.74 88.8506 130.075 92.9145 130.232C96.9784 130.389 100.443 127.309 100.652 123.352Z" fill="#C7C7C7"/>
<path d="M71.1259 111.144C68.1705 115.906 67.9844 131.046 71.4587 135.008C76.4952 140.744 86.3934 142.85 92.4959 137.37C98.4348 132.039 98.2656 112.306 94.233 108.56C88.3053 103.032 75.4913 104.112 71.1259 111.144Z" fill="#AD6359"/>
<path d="M85.8578 122.847C85.8578 122.809 85.7619 122.9 85.7675 122.944C85.8296 123.961 85.7055 125.137 84.6395 125.493C84.6057 125.493 84.6113 125.556 84.6395 125.551C85.9593 125.368 86.1059 123.806 85.8578 122.847Z" fill="#263238"/>
<path d="M84.7634 121.806C82.8402 121.719 82.7781 125.011 84.5547 125.088C86.3313 125.165 86.3765 121.878 84.7634 121.806Z" fill="#263238"/>
<path d="M92.5356 122.973C92.5356 122.934 92.6258 123.026 92.6258 123.064C92.5694 124.086 92.7047 125.262 93.7538 125.614C93.7876 125.614 93.7538 125.677 93.7538 125.672C92.4509 125.494 92.2874 123.932 92.5356 122.973Z" fill="#263238"/>
<path d="M93.6241 121.946C95.5417 121.844 95.6319 125.136 93.8497 125.228C92.0674 125.32 92.011 122.003 93.6241 121.946Z" fill="#263238"/>
<path d="M83.0376 119.174C83.6016 119.15 84.0697 119.049 84.6055 118.981C85.1707 118.972 85.7163 118.803 86.1565 118.499C86.2745 118.383 86.3441 118.237 86.3543 118.083C86.3646 117.93 86.3148 117.778 86.2129 117.651C85.9663 117.429 85.6549 117.268 85.3109 117.183C84.9669 117.098 84.6027 117.093 84.2558 117.169C83.5208 117.219 82.8345 117.503 82.3326 117.964C82.2274 118.075 82.1618 118.209 82.1434 118.351C82.1251 118.493 82.1549 118.636 82.2293 118.763C82.3036 118.891 82.4194 118.997 82.5627 119.07C82.706 119.143 82.8709 119.179 83.0376 119.174Z" fill="#263238"/>
<path d="M95.4344 119.536C94.9195 119.439 94.4112 119.318 93.9116 119.174C93.3568 119.117 92.8395 118.905 92.4396 118.572C92.3385 118.445 92.2897 118.292 92.3009 118.139C92.3121 117.985 92.3827 117.839 92.5016 117.724C92.7775 117.526 93.1098 117.395 93.4646 117.343C93.8194 117.291 94.1839 117.321 94.5208 117.43C95.242 117.559 95.8811 117.913 96.3143 118.422C96.3987 118.543 96.441 118.683 96.4364 118.823C96.4317 118.964 96.3802 119.101 96.288 119.218C96.1957 119.335 96.0664 119.427 95.9153 119.483C95.7641 119.539 95.5974 119.558 95.4344 119.536Z" fill="#263238"/>
<path d="M83.6806 132.299C83.9626 132.54 84.2446 132.873 84.6732 132.911C85.1168 132.908 85.5546 132.826 85.9591 132.67C85.9672 132.669 85.9756 132.669 85.9835 132.672C85.9913 132.674 85.9982 132.678 86.0034 132.683C86.0086 132.689 86.012 132.696 86.0132 132.703C86.0143 132.71 86.0132 132.717 86.0099 132.723C85.8369 132.922 85.6038 133.077 85.3355 133.171C85.0671 133.266 84.7739 133.296 84.4871 133.258C84.2446 133.2 84.0276 133.082 83.8631 132.919C83.6985 132.757 83.5939 132.556 83.5621 132.342C83.5452 132.285 83.6355 132.26 83.6806 132.299Z" fill="#263238"/>
<path d="M84.9948 129.262C85.2893 129.67 85.6794 130.021 86.1405 130.293C86.6016 130.565 87.1237 130.752 87.6738 130.843C88.1536 130.931 88.6456 130.959 89.1346 130.925C89.2291 130.922 89.3233 130.914 89.4166 130.901L89.676 130.868C89.7399 130.859 89.7986 130.832 89.8434 130.792C89.8882 130.752 89.9165 130.701 89.9242 130.646C89.927 130.611 89.927 130.575 89.9242 130.54V130.448C89.9637 129.663 89.9242 128.467 89.9242 128.467C90.257 128.617 91.9602 129.301 91.9377 128.891C91.7685 125.488 91.5767 121.71 90.5672 118.36C90.5615 118.338 90.5475 118.319 90.5275 118.306C90.5075 118.292 90.4827 118.285 90.4572 118.285C90.4316 118.285 90.4068 118.292 90.3868 118.306C90.3668 118.319 90.3529 118.338 90.3472 118.36C90.3472 121.632 91.0465 124.881 91.1199 128.168C90.5159 127.919 89.8744 127.742 89.2135 127.643C89.0838 127.677 89.3884 129.952 89.3376 130.304C89.339 130.316 89.339 130.329 89.3376 130.342C87.7866 130.487 86.6304 130.072 85.1527 129.166C85.0174 129.113 84.9215 129.176 84.9948 129.262Z" fill="#263238"/>
<path d="M88.5988 130.516C88.086 131.07 87.4136 131.502 86.6474 131.769C86.2245 131.903 85.7634 131.921 85.3276 131.822C84.3801 131.59 84.3688 130.858 84.555 130.207C84.6589 129.872 84.8085 129.549 85.0005 129.243C86.0108 129.984 87.2714 130.43 88.5988 130.516Z" fill="#263238"/>
<path d="M86.6474 131.769C86.2245 131.902 85.7634 131.921 85.3276 131.822C84.3801 131.59 84.3688 130.858 84.555 130.207C85.5758 130.313 86.5741 130.92 86.6474 131.769Z" fill="#FF98B9"/>
<path opacity="0.2" d="M68.9094 121.835C70.0713 121.676 72.8574 118.317 74.0362 116.981C75.2149 115.646 75.8974 108.489 76.0045 106.859C73.9362 107.859 72.2425 109.34 71.1203 111.13C69.8005 113.27 69.0391 117.478 68.9094 121.835Z" fill="#263238"/>
<path d="M90.4148 112.788C89.7261 113.433 88.8558 113.918 87.8866 114.195C86.9173 114.473 85.8811 114.534 84.8763 114.373C83.8509 114.212 82.8908 113.829 82.0873 113.262C81.2837 112.694 80.6635 111.96 80.2854 111.129C80.2854 111.076 80.1726 111.105 80.1951 111.154C80.5001 112.058 81.0884 112.874 81.8965 113.514C82.7046 114.154 83.7018 114.592 84.7804 114.783C85.8521 114.921 86.9476 114.816 87.9565 114.478C88.9654 114.139 89.8522 113.579 90.5276 112.855C90.5315 112.843 90.5308 112.829 90.5256 112.817C90.5204 112.805 90.5111 112.795 90.4988 112.788C90.4865 112.78 90.4718 112.776 90.4568 112.776C90.4418 112.776 90.4271 112.78 90.4148 112.788Z" fill="#263238"/>
<path d="M84.6844 99.9569C81.2046 99.928 77.9559 101.485 76.608 103.471C75.8593 104.602 75.581 105.917 75.8184 107.201C75.8184 107.254 75.9481 107.245 75.9424 107.201C75.9132 106.07 76.2407 104.952 76.8907 103.966C77.5407 102.98 78.4891 102.161 79.6366 101.596C80.8931 100.938 82.3111 100.538 83.7791 100.427C85.2471 100.317 86.725 100.499 88.0966 100.96C89.4335 101.382 90.5497 102.199 91.2438 103.263C91.3114 103.374 91.5709 103.312 91.5201 103.201C90.6403 101.311 87.8259 99.981 84.6844 99.9569Z" fill="#263238"/>
<path d="M104.622 106.941C104.106 105.46 102.996 104.182 101.486 103.331C99.3937 102.145 96.9741 102.246 94.5827 102.391C94.5693 102.391 94.5564 102.396 94.5469 102.404C94.5373 102.412 94.532 102.423 94.532 102.434C94.532 102.446 94.5373 102.457 94.5469 102.465C94.5564 102.473 94.5693 102.478 94.5827 102.478C96.6244 102.362 98.7056 102.343 100.544 103.215C102.075 103.923 103.271 105.063 103.928 106.44C104.554 107.852 104.562 109.41 103.951 110.827C103.339 112.244 102.15 113.425 100.601 114.152C99.6971 114.551 98.7078 114.788 97.6934 114.848C96.679 114.909 95.6607 114.791 94.7012 114.504C94.6222 114.48 94.5658 114.571 94.6391 114.6C95.9353 115.037 97.348 115.156 98.7193 114.946C100.091 114.735 101.366 114.203 102.403 113.408C103.441 112.613 104.199 111.587 104.592 110.445C104.986 109.303 105 108.09 104.633 106.941H104.622Z" fill="#263238"/>
<path d="M69.8682 114.06C69.8682 114.06 66.7888 108.647 69.6764 105.659C71.312 103.967 76.4896 104.353 76.4896 104.353C76.4896 104.353 78.2662 101.861 82.5977 101.152C86.9292 100.444 92.039 102.762 92.039 102.762C92.039 102.762 96.2465 100.877 100.025 102.883C105.299 105.678 104.329 112.662 98.8127 114.745C94.9436 116.191 89.9015 113.173 89.9015 113.173C89.3995 113.217 84.1994 115.675 80.5222 111.679C80.5222 111.679 77.2961 113.954 74.5607 112.204C74.0953 112.888 73.3956 113.432 72.5563 113.764C71.717 114.096 70.7786 114.199 69.8682 114.06Z" fill="#263238"/>
<path d="M72.0849 123.667C72.0849 123.667 69.1578 118.365 66.3998 119.155C63.6418 119.946 65.1703 127.282 67.9339 128.66C68.2749 128.858 68.6591 128.995 69.0635 129.062C69.4679 129.13 69.8842 129.127 70.2872 129.053C70.6902 128.98 71.0717 128.838 71.4087 128.635C71.7458 128.433 72.0314 128.174 72.2485 127.874L72.0849 123.667Z" fill="#AD6359"/>
<path d="M66.896 121.242C66.8509 121.242 66.8283 121.29 66.896 121.31C68.8249 122.332 69.5863 124.139 70.0036 125.956C69.5242 125.209 68.7515 124.727 67.601 125.199C67.5891 125.206 67.58 125.216 67.5749 125.227C67.5699 125.239 67.5692 125.251 67.573 125.263C67.5767 125.275 67.5847 125.285 67.5958 125.293C67.6069 125.3 67.6206 125.305 67.6348 125.305C68.02 125.261 68.4119 125.319 68.757 125.471C69.1022 125.624 69.3839 125.864 69.5637 126.159C69.856 126.654 70.0867 127.174 70.2518 127.711C70.3195 127.884 70.6691 127.846 70.6353 127.653C70.6379 127.638 70.6379 127.624 70.6353 127.609C71.1091 125.358 69.6934 121.893 66.896 121.242Z" fill="#263238"/>
<path d="M78.4637 134.343L72.9083 132.294L68.4414 127.542L69.2987 126.949L73.5964 131.523L78.9036 133.48L78.4637 134.343Z" fill="#C7C7C7"/>
<path d="M77.8714 133.586C78.4354 132.203 82.9474 132.714 82.1296 134.806C81.3118 136.897 77.3243 134.96 77.8714 133.586Z" fill="#37474F"/>
<path d="M66.3151 119.01C66.3151 119.01 65.7116 111.236 68.3737 106.96C71.3403 102.184 83.6355 97.6383 92.0617 102.772C92.0617 102.772 78.3734 100.68 71.9946 107.302C69.3099 110.088 69.3776 119.227 69.3776 119.227L66.3151 119.01Z" fill="#C7C7C7"/>
<path d="M67.5564 130.176C71.6242 130.142 74.8845 126.903 74.8384 122.942C74.7923 118.981 71.4572 115.798 67.3894 115.833C63.3216 115.867 60.0613 119.106 60.1074 123.067C60.1535 127.028 63.4885 130.211 67.5564 130.176Z" fill="#C7C7C7"/>
<path d="M72.6884 122.736C72.7279 126.298 69.8007 129.21 66.146 129.238C62.4913 129.267 59.4908 126.409 59.4513 122.847C59.4118 119.285 62.339 116.374 65.9937 116.345C69.6484 116.316 72.6489 119.174 72.6884 122.736Z" fill="#455A64"/>
<path d="M84.9101 142.421L80.9339 151.001L68.4243 140.213L64.9163 143.703C64.9163 143.703 77.1833 160.867 77.2566 160.091L81.3456 152.692L87.3353 157.806L86.7713 144.918L84.9101 142.421Z" fill="#EBEBEB"/>
<path d="M87.482 151.42C87.3071 149.294 87.2056 147.149 86.918 145.033C86.918 144.961 86.7713 144.927 86.7488 145.033C86.2637 147.092 86.98 155.213 86.98 157.165H86.9518C86.7036 156.944 81.402 152.668 81.3513 152.736C80.4658 153.912 77.4597 159.296 77.2566 159.787C75.3165 157.059 67.1046 146.316 64.7922 143.737C64.781 143.72 64.7625 143.708 64.7409 143.703C64.7192 143.698 64.6961 143.701 64.6766 143.71C64.6572 143.72 64.643 143.736 64.6372 143.754C64.6314 143.773 64.6344 143.793 64.6456 143.809C66.3376 146.701 76.9972 160.877 77.1438 160.838C78.7263 158.297 80.1551 155.687 81.4246 153.02C82.3214 153.95 87.6681 158.78 87.685 158.462C87.7629 156.113 87.6951 153.763 87.482 151.42Z" fill="#263238"/>
<path d="M221.562 119.864H204.117C202.426 119.862 200.804 119.288 199.608 118.266C198.412 117.244 197.74 115.858 197.738 114.412C197.738 112.967 198.41 111.58 199.607 110.558C200.803 109.535 202.425 108.961 204.117 108.961H221.562C223.253 108.961 224.876 109.535 226.072 110.558C227.268 111.58 227.94 112.967 227.94 114.412C227.94 115.128 227.775 115.837 227.455 116.499C227.134 117.16 226.664 117.761 226.072 118.267C225.48 118.773 224.777 119.175 224.003 119.449C223.229 119.723 222.399 119.864 221.562 119.864Z" fill="#455A64"/>
<path d="M207.93 114.316C207.942 114.143 208.008 113.977 208.121 113.834L208.279 113.636L208.612 113.352L209.001 113.111C209.537 112.819 210.135 112.621 210.761 112.528C212.204 112.282 213.689 112.282 215.132 112.528C215.75 112.618 216.341 112.813 216.869 113.101C217.004 113.178 217.14 113.265 217.27 113.347L217.597 113.627C217.682 113.732 217.761 113.842 217.834 113.954C217.889 114.07 217.934 114.189 217.969 114.311H215.109C215.087 114.314 215.065 114.31 215.045 114.3C215.026 114.29 215.011 114.276 215.002 114.258C214.924 114.128 214.807 114.019 214.664 113.94C214.52 113.861 214.355 113.816 214.184 113.81C213.352 113.764 212.518 113.764 211.686 113.81C211.517 113.816 211.353 113.86 211.21 113.938C211.067 114.016 210.951 114.125 210.874 114.253C210.874 114.287 210.834 114.311 210.778 114.311H207.93V114.316Z" fill="white"/>
<path d="M207.93 115.68V114.788H210.75C210.75 114.841 210.75 114.899 210.75 114.962V115.68C210.757 115.722 210.753 115.765 210.738 115.805C210.723 115.846 210.696 115.882 210.661 115.912C210.626 115.943 210.583 115.965 210.535 115.978C210.488 115.991 210.438 115.995 210.389 115.988H208.285C208.236 115.995 208.186 115.992 208.139 115.979C208.092 115.965 208.049 115.943 208.014 115.913C207.979 115.882 207.953 115.845 207.939 115.805C207.924 115.764 207.921 115.722 207.93 115.68Z" fill="white"/>
<path d="M215.132 115.709C215.132 115.405 215.132 115.102 215.132 114.803H217.924V114.856C217.924 115.135 217.924 115.42 217.924 115.699C217.929 115.74 217.924 115.781 217.908 115.819C217.893 115.857 217.867 115.892 217.833 115.921C217.8 115.95 217.759 115.971 217.714 115.985C217.669 115.998 217.621 116.003 217.574 115.998H215.448C215.404 116 215.36 115.993 215.319 115.979C215.279 115.965 215.242 115.943 215.212 115.916C215.182 115.888 215.159 115.855 215.146 115.82C215.132 115.784 215.127 115.746 215.132 115.709Z" fill="white"/>
<path d="M149.99 211.598H146.121V213.758H149.99V211.598Z" fill="#455A64"/>
<path d="M155.004 211.454H151.135V213.613H155.004V211.454Z" fill="#455A64"/>
<path d="M160.024 211.309H156.155V213.468H160.024V211.309Z" fill="#455A64"/>
<path d="M165.043 211.169H161.174V213.329H165.043V211.169Z" fill="#455A64"/>
<path d="M170.063 211.024H166.194V213.184H170.063V211.024Z" fill="#455A64"/>
<path d="M175.082 210.885H171.213V213.044H175.082V210.885Z" fill="#455A64"/>
<path d="M180.102 210.74H176.233V212.9H180.102V210.74Z" fill="#455A64"/>
<path d="M185.122 210.596H181.253V212.755H185.122V210.596Z" fill="#455A64"/>
<path d="M190.136 210.456H186.267V212.615H190.136V210.456Z" fill="#455A64"/>
<path d="M191.089 214.996H145.168V212.37L191.089 211.275V214.996Z" fill="#37474F"/>
<path d="M235.904 204.638H160.103L172.155 156.409H247.957L235.904 204.638Z" fill="#455A64"/>
<path d="M238.707 204.638H162.906L174.958 156.409H250.76L238.707 204.638Z" fill="#37474F"/>
<path d="M211.638 180.438C213.694 178.813 214.045 176.28 212.422 174.778C210.798 173.277 207.815 173.376 205.758 175C203.702 176.624 203.351 179.158 204.974 180.66C206.598 182.161 209.581 182.062 211.638 180.438Z" fill="#263238"/>
<path d="M217.27 217.233H179.989V214.755L217.27 213.729V217.233Z" fill="#455A64"/>
<path d="M227.405 217.228H207.388L195.33 190.202H215.346L227.405 217.228Z" fill="#455A64"/>
<path d="M230.698 217.228H210.682L198.629 190.202H218.646L230.698 217.228Z" fill="#263238"/>
<path d="M143.752 217.888H105.316C102.039 217.888 106.782 209.906 118.756 206.846C130.73 203.785 147.531 214.895 143.752 217.888Z" fill="#37474F"/>
<path d="M128.671 217.888C128.702 216.979 128.878 216.077 129.195 215.209C129.505 214.333 129.939 213.493 130.487 212.707C131.039 211.918 131.727 211.204 132.529 210.591C133.322 209.976 134.236 209.486 135.23 209.145C134.819 209.434 134.35 209.627 133.972 209.95L133.408 210.379L132.844 210.861C132.132 211.496 131.507 212.2 130.983 212.958C130.451 213.716 129.994 214.51 129.618 215.334C129.236 216.166 128.919 217.02 128.671 217.888Z" fill="#263238"/>
<path d="M133.222 210.292C135.505 210.938 137.666 211.865 139.635 213.044C140.63 213.632 141.531 214.329 142.314 215.117C142.699 215.52 143.03 215.958 143.301 216.423C143.569 216.888 143.723 217.395 143.752 217.912C143.618 217.422 143.383 216.955 143.059 216.534C142.752 216.112 142.392 215.719 141.987 215.363C141.165 214.651 140.268 214.006 139.308 213.435C138.355 212.847 137.345 212.321 136.336 211.801C135.828 211.54 135.309 211.29 134.79 211.049C134.271 210.808 133.747 210.538 133.222 210.292Z" fill="#263238"/>
<path d="M146.505 108.397C146.173 111.085 144.974 113.642 143.041 115.782C141.109 117.922 138.518 119.561 135.559 120.516C132.6 121.471 129.389 121.705 126.283 121.192C123.178 120.678 120.3 119.437 117.972 117.608L109.416 118.697L113.691 112.388C112.623 110.165 112.22 107.75 112.518 105.36C112.737 103.444 113.397 101.584 114.461 99.8876C115.525 98.1907 116.971 96.6904 118.716 95.4731C120.461 94.2558 122.47 93.3456 124.629 92.7948C126.787 92.244 129.051 92.0635 131.292 92.2638C133.532 92.464 135.704 93.0411 137.682 93.9616C139.66 94.8822 141.406 96.1281 142.818 97.6277C144.231 99.1272 145.282 100.851 145.912 102.699C146.542 104.547 146.737 106.484 146.488 108.397H146.505Z" fill="white"/>
<path d="M146.505 108.397C146.176 111.088 144.984 113.648 143.059 115.796C142.58 116.33 142.064 116.839 141.513 117.319C140.942 117.783 140.339 118.217 139.708 118.62C138.452 119.438 137.066 120.098 135.591 120.582C134.118 121.075 132.57 121.39 130.995 121.517C130.205 121.581 129.412 121.593 128.62 121.556C127.827 121.54 127.037 121.471 126.257 121.348C123.104 120.854 120.175 119.619 117.797 117.782L118 117.835L109.467 118.958L108.852 119.054L109.162 118.572L113.415 112.243V112.494C112.417 110.421 111.986 108.18 112.154 105.943C112.321 103.706 113.084 101.531 114.384 99.584C115.684 97.6368 117.486 95.9686 119.654 94.7063C121.821 93.444 124.298 92.6209 126.894 92.2996C129.49 91.9783 132.137 92.1674 134.635 92.8523C137.133 93.5373 139.415 94.7001 141.307 96.2522C143.2 97.8044 144.653 99.7051 145.557 101.81C146.46 103.914 146.79 106.167 146.522 108.397H146.505ZM146.505 108.397C146.772 106.2 146.448 103.981 145.556 101.908C144.664 99.835 143.228 97.9643 141.359 96.4394C139.489 94.9144 137.236 93.7756 134.772 93.1105C132.308 92.4453 129.698 92.2713 127.143 92.602C124.609 92.925 122.195 93.7395 120.087 94.9831C118.002 96.237 116.259 97.8615 114.977 99.7452C113.716 101.639 112.972 103.751 112.8 105.924C112.642 108.102 113.057 110.283 114.013 112.306L114.075 112.436L113.99 112.552L109.692 118.852L109.388 118.466L117.938 117.444H118.057L118.141 117.512C120.423 119.337 123.255 120.584 126.319 121.112C127.083 121.244 127.858 121.324 128.637 121.353C129.415 121.399 130.195 121.399 130.972 121.353C132.533 121.251 134.069 120.963 135.535 120.495C137.009 120.04 138.396 119.402 139.652 118.601C140.281 118.201 140.884 117.772 141.457 117.314C142.009 116.839 142.527 116.335 143.008 115.805C144.954 113.661 146.165 111.096 146.505 108.397Z" fill="#263238"/>
<path d="M139.043 107.322C139.044 107.672 138.924 108.015 138.697 108.306C138.47 108.598 138.147 108.825 137.769 108.96C137.391 109.095 136.975 109.13 136.573 109.063C136.171 108.995 135.802 108.827 135.512 108.58C135.222 108.332 135.024 108.017 134.944 107.674C134.863 107.331 134.904 106.975 135.06 106.651C135.217 106.328 135.482 106.051 135.823 105.857C136.163 105.662 136.564 105.558 136.973 105.558C137.245 105.557 137.514 105.603 137.765 105.691C138.016 105.779 138.244 105.909 138.436 106.073C138.629 106.237 138.781 106.432 138.885 106.646C138.989 106.86 139.043 107.09 139.043 107.322Z" fill="#263238"/>
<path d="M131.632 107.322C131.633 107.673 131.512 108.015 131.285 108.307C131.058 108.598 130.735 108.826 130.357 108.96C129.978 109.095 129.562 109.13 129.16 109.062C128.758 108.994 128.388 108.826 128.098 108.578C127.809 108.33 127.611 108.015 127.532 107.671C127.452 107.327 127.493 106.971 127.651 106.648C127.808 106.324 128.074 106.048 128.416 105.854C128.757 105.66 129.158 105.557 129.568 105.558C130.115 105.558 130.64 105.744 131.027 106.075C131.414 106.406 131.632 106.854 131.632 107.322Z" fill="#263238"/>
<path d="M124.227 107.322C124.228 107.672 124.107 108.015 123.881 108.306C123.654 108.598 123.331 108.825 122.953 108.96C122.575 109.095 122.158 109.13 121.756 109.063C121.355 108.995 120.985 108.827 120.695 108.58C120.405 108.332 120.207 108.017 120.127 107.674C120.047 107.331 120.087 106.975 120.244 106.651C120.4 106.328 120.666 106.051 121.006 105.857C121.347 105.662 121.747 105.558 122.157 105.558C122.705 105.558 123.23 105.744 123.618 106.075C124.006 106.405 124.225 106.854 124.227 107.322Z" fill="#263238"/>
<path d="M153.741 32.7135C154.073 35.4017 155.271 37.9583 157.204 40.0984C159.136 42.2385 161.726 43.878 164.684 44.834C167.643 45.7901 170.854 46.0253 173.959 45.5132C177.065 45.0012 179.944 43.7621 182.274 41.9341L190.813 43.0042L186.543 36.6948C187.522 34.6402 187.94 32.422 187.766 30.2086C187.591 27.9952 186.829 25.8449 185.536 23.9212C184.243 21.9974 182.454 20.3509 180.305 19.1066C178.156 17.8623 175.704 17.0531 173.134 16.7404C170.564 16.4277 167.944 16.6199 165.474 17.3021C163.004 17.9844 160.749 19.1389 158.879 20.6779C157.01 22.2169 155.575 24.0998 154.685 26.1837C153.794 28.2675 153.472 30.4974 153.741 32.7038V32.7135Z" fill="white"/>
<path d="M158.851 20.6585C160.711 19.0909 162.967 17.9097 165.446 17.206C167.925 16.5023 170.56 16.295 173.148 16.6C175.754 16.8938 178.247 17.6934 180.435 18.9377C183.75 20.8289 186.198 23.6413 187.365 26.8985C188.532 30.1556 188.345 33.6573 186.836 36.8103V36.5597L191.078 42.898L191.388 43.38L190.773 43.298L182.234 42.1798L182.437 42.1268C180.06 43.9641 177.13 45.1991 173.977 45.6936C173.197 45.8157 172.407 45.885 171.614 45.9008C170.824 45.9362 170.033 45.9233 169.245 45.8623C166.082 45.6045 163.064 44.6036 160.526 42.9703C159.895 42.567 159.292 42.1325 158.721 41.6689C158.171 41.1874 157.655 40.6789 157.176 40.1457C154.619 37.2911 153.376 33.7342 153.683 30.1488C153.99 26.5635 155.824 23.1989 158.839 20.6922L158.851 20.6585ZM157.238 40.0783C157.718 40.6062 158.236 41.1084 158.789 41.5821C159.359 42.0424 159.961 42.4722 160.593 42.869C161.849 43.6741 163.239 44.3142 164.716 44.7681C166.181 45.2332 167.715 45.522 169.273 45.6261C170.053 45.6719 170.835 45.6719 171.614 45.6261C172.391 45.5966 173.164 45.516 173.926 45.3851C176.991 44.857 179.822 43.6103 182.104 41.7845L182.189 41.7171H182.307L190.858 42.7389L190.553 43.1245L186.255 36.8248L186.171 36.7043L186.233 36.5741C187.19 34.5587 187.601 32.384 187.434 30.2135C187.267 28.043 186.527 25.933 185.268 24.0421C183.988 22.1575 182.245 20.5327 180.159 19.28C178.052 18.0372 175.64 17.2227 173.109 16.8989C169.762 16.4573 166.338 16.8857 163.28 18.1285C160.222 19.3713 157.672 21.3711 155.961 23.8681C154.249 26.3652 153.456 29.2443 153.684 32.1315C153.912 35.0187 155.15 37.7808 157.238 40.059V40.0783Z" fill="#263238"/>
<path d="M172.246 32.9785V34.8004C172.25 34.9819 172.212 35.1623 172.133 35.3307C172.054 35.4992 171.935 35.6522 171.785 35.7806C171.635 35.9089 171.456 36.0099 171.259 36.0776C171.062 36.1452 170.851 36.1781 170.638 36.1741C170.212 36.1728 169.804 36.0277 169.503 35.7704C169.202 35.513 169.032 35.1643 169.031 34.8004V31.9084C169.031 31.8795 169.065 31.8795 169.065 31.8506C169.065 31.8217 169.031 31.8217 169.031 31.7976C169.042 31.4363 169.215 31.0925 169.514 30.837C169.813 30.5814 170.216 30.4336 170.638 30.4239C171.144 30.4578 171.652 30.4019 172.131 30.2599C172.61 30.1178 173.05 29.8926 173.422 29.5984C173.795 29.3041 174.092 28.9472 174.295 28.5501C174.498 28.153 174.603 27.7243 174.603 27.2909C174.603 26.8574 174.498 26.4287 174.295 26.0316C174.092 25.6345 173.795 25.2776 173.422 24.9833C173.05 24.6891 172.61 24.4639 172.131 24.3218C171.652 24.1798 171.144 24.1239 170.638 24.1579C170.001 24.1557 169.375 24.2971 168.822 24.5679C168.27 24.8387 167.811 25.2293 167.491 25.7003C167.381 25.8597 167.236 25.9989 167.062 26.1097C166.889 26.2205 166.691 26.3007 166.481 26.3456C166.271 26.3904 166.053 26.3991 165.839 26.3711C165.625 26.343 165.42 26.2788 165.235 26.1823C165.053 26.0908 164.894 25.9695 164.768 25.8254C164.641 25.6813 164.548 25.5172 164.496 25.3425C164.444 25.1678 164.432 24.986 164.462 24.8076C164.492 24.6291 164.563 24.4574 164.671 24.3025C165.242 23.4561 166.05 22.7442 167.022 22.2311C167.995 21.718 169.102 21.4196 170.243 21.363C171.384 21.3063 172.524 21.493 173.559 21.9064C174.595 22.3197 175.494 22.9468 176.176 23.7309C176.857 24.5151 177.3 25.4319 177.464 26.3986C177.628 27.3654 177.508 28.3518 177.114 29.269C176.721 30.1863 176.067 31.0055 175.211 31.6531C174.356 32.3006 173.325 32.7561 172.212 32.9785H172.246ZM172.246 39.1143V39.5963C172.251 39.778 172.213 39.9587 172.134 40.1274C172.055 40.2962 171.937 40.4495 171.787 40.578C171.637 40.7065 171.457 40.8075 171.26 40.8749C171.062 40.9423 170.851 40.9746 170.638 40.97C170.212 40.97 169.803 40.8253 169.502 40.5677C169.2 40.31 169.031 39.9606 169.031 39.5963V39.1143C169.037 38.7515 169.208 38.405 169.508 38.1485C169.808 37.8919 170.214 37.7456 170.638 37.7406C170.85 37.7387 171.06 37.7729 171.256 37.8412C171.452 37.9096 171.63 38.0107 171.78 38.1386C171.93 38.2666 172.048 38.4188 172.128 38.5863C172.208 38.7539 172.248 38.9334 172.246 39.1143Z" fill="#62BA87"/>
</svg>
