<svg width="20" height="20" viewBox="0 0 20 20" fill="none" xmlns="http://www.w3.org/2000/svg">
<g clip-path="url(#clip0_239_1329)">
<path d="M7.62475 9.2593H3.31065C3.20663 9.2593 3.10688 9.22027 3.03333 9.15082C2.95978 9.08136 2.91846 8.98715 2.91846 8.88893C2.91846 8.7907 2.95978 8.69649 3.03333 8.62703C3.10688 8.55758 3.20663 8.51855 3.31065 8.51855H7.62475C7.72876 8.51855 7.82852 8.55758 7.90207 8.62703C7.97562 8.69649 8.01694 8.7907 8.01694 8.88893C8.01694 8.98715 7.97562 9.08136 7.90207 9.15082C7.82852 9.22027 7.72876 9.2593 7.62475 9.2593Z" fill="#62BA87"/>
<path d="M3.31065 6.6665H13.5076C13.6116 6.6665 13.7114 6.70552 13.7849 6.77498C13.8585 6.84444 13.8998 6.93865 13.8998 7.03687C13.8998 7.1351 13.8585 7.22931 13.7849 7.29877C13.7114 7.36822 13.6116 7.40724 13.5076 7.40724H3.31065C3.20663 7.40724 3.10688 7.36822 3.03333 7.29877C2.95978 7.22931 2.91846 7.1351 2.91846 7.03687C2.91846 6.93865 2.95978 6.84444 3.03333 6.77498C3.10688 6.70552 3.20663 6.6665 3.31065 6.6665Z" fill="#62BA87"/>
<path d="M3.31065 4.81494H13.5076C13.6116 4.81494 13.7114 4.85396 13.7849 4.92342C13.8585 4.99288 13.8998 5.08708 13.8998 5.18531C13.8998 5.28354 13.8585 5.37775 13.7849 5.4472C13.7114 5.51666 13.6116 5.55568 13.5076 5.55568H3.31065C3.20663 5.55568 3.10688 5.51666 3.03333 5.4472C2.95978 5.37775 2.91846 5.28354 2.91846 5.18531C2.91846 5.08708 2.95978 4.99288 3.03333 4.92342C3.10688 4.85396 3.20663 4.81494 3.31065 4.81494Z" fill="#62BA87"/>
<path d="M3.31065 2.96289H13.5076C13.6116 2.96289 13.7114 3.00191 13.7849 3.07137C13.8585 3.14083 13.8998 3.23503 13.8998 3.33326C13.8998 3.43149 13.8585 3.52569 13.7849 3.59515C13.7114 3.66461 13.6116 3.70363 13.5076 3.70363H3.31065C3.20663 3.70363 3.10688 3.66461 3.03333 3.59515C2.95978 3.52569 2.91846 3.43149 2.91846 3.33326C2.91846 3.23503 2.95978 3.14083 3.03333 3.07137C3.10688 3.00191 3.20663 2.96289 3.31065 2.96289Z" fill="#62BA87"/>
<path d="M19.3279 8.89259L19.0612 9.14815L18.7789 8.88148L19.0259 8.64815C19.3535 8.33988 19.5455 7.92605 19.5634 7.48968C19.5814 7.05331 19.424 6.62667 19.1227 6.29533C18.8215 5.96399 18.3988 5.75247 17.9393 5.70319C17.4798 5.65391 17.0176 5.77052 16.6453 6.02963V1.11111C16.6444 0.816697 16.5202 0.534592 16.2997 0.326408C16.0793 0.118225 15.7805 0.000879293 15.4688 0H1.34991C1.03815 0.000879293 0.739427 0.118225 0.518978 0.326408C0.29853 0.534592 0.174271 0.816697 0.17334 1.11111V18.8889C0.174271 19.1833 0.29853 19.4654 0.518978 19.6736C0.739427 19.8818 1.03815 19.9991 1.34991 20H15.4688C15.7805 19.9991 16.0793 19.8818 16.2997 19.6736C16.5202 19.4654 16.6444 19.1833 16.6453 18.8889V12.4778L19.8848 9.41852C19.9587 9.34878 20.0002 9.25419 20.0002 9.15555C20.0002 9.05692 19.9587 8.96233 19.8848 8.89259C19.811 8.82285 19.7108 8.78367 19.6064 8.78367C19.5019 8.78367 19.4018 8.82285 19.3279 8.89259ZM15.861 12.1704L15.4021 12.6037C15.3354 12.6659 15.2947 12.7488 15.2875 12.837C15.2803 12.9253 15.307 13.0131 15.3628 13.0842C15.4186 13.1554 15.4997 13.2051 15.5912 13.2243C15.6827 13.2436 15.7785 13.231 15.861 13.1889V18.8889C15.861 18.9871 15.8196 19.0813 15.7461 19.1508C15.6725 19.2202 15.5728 19.2593 15.4688 19.2593H1.34991C1.2459 19.2593 1.14614 19.2202 1.07259 19.1508C0.999041 19.0813 0.957721 18.9871 0.957721 18.8889V1.11111C0.957721 1.01288 0.999041 0.918678 1.07259 0.84922C1.14614 0.779762 1.2459 0.740741 1.34991 0.740741H15.4688C15.5728 0.740741 15.6725 0.779762 15.7461 0.84922C15.8196 0.918678 15.861 1.01288 15.861 1.11111V6.74074C14.2138 8.2963 8.51916 13.6741 8.51524 13.6815C8.40425 13.7863 8.32385 13.84 8.29561 13.9815C8.2862 14.0185 7.76223 16.2726 7.76223 16.3111L7.36612 16.6852C7.29227 16.7549 7.25078 16.8495 7.25078 16.9481C7.25078 17.0468 7.29227 17.1414 7.36612 17.2111C7.43997 17.2809 7.54013 17.32 7.64457 17.32C7.74901 17.32 7.84918 17.2809 7.92303 17.2111L8.32306 16.8333C8.38385 16.8333 10.7284 16.3463 10.786 16.3333C10.9645 16.2937 10.9786 16.2515 11.1076 16.1296L15.861 11.637V12.1704ZM8.86036 14.6148L10.1154 15.8C8.81879 16.0715 9.5616 15.9174 8.51131 16.1296C8.7282 15.1715 8.64466 15.5337 8.86036 14.6148ZM10.8527 15.3259L9.36629 13.9222C9.48787 13.8015 15.0217 8.57741 15.1472 8.45926L16.6336 9.86296C16.4155 10.0678 11.037 15.1426 10.8527 15.3259ZM16.6453 11.4296V10.8963C17.9631 9.65185 17.6184 9.97667 18.2259 9.40741L18.5083 9.67037L16.6453 11.4296ZM18.469 8.12593C17.8117 8.74667 18.0988 8.47481 17.1905 9.33704H17.1866L15.708 7.93704C15.9359 7.71667 15.7143 7.92704 16.9866 6.72593C17.1838 6.54336 17.4494 6.44169 17.7256 6.44301C18.0018 6.44433 18.2663 6.54852 18.4616 6.73296C18.6569 6.9174 18.7672 7.16717 18.7686 7.428C18.77 7.68883 18.6624 7.93964 18.469 8.12593Z" fill="#62BA87"/>
</g>
<defs>
<clipPath id="clip0_239_1329">
<rect width="20" height="20" fill="white"/>
</clipPath>
</defs>
</svg>
