<svg width="93" height="83" viewBox="0 0 93 83" fill="none" xmlns="http://www.w3.org/2000/svg">
<g clip-path="url(#clip0_239_3994)">
<path d="M83.447 19.3939C84.2575 59.4411 55.5905 76.0117 48.2167 79.6064C47.6833 79.8672 47.0897 80.0148 46.4821 80.0376C45.8744 80.0604 45.2691 79.9579 44.7131 79.738C37.1685 76.748 8.44803 62.5126 9.56542 19.3939L9.56661 19.3938C18.8179 18.0418 25.5718 11.1576 25.534 3.11797L25.5326 2.8335H67.4794L67.478 3.11903C67.441 11.1587 74.1954 18.0425 83.447 19.3939Z" fill="white"/>
<path d="M60.6117 65.5714C53.0674 62.5816 24.3469 48.3462 25.4642 5.22755L25.5326 2.8335L25.534 3.11797C25.5718 11.1576 18.8181 18.0418 9.56661 19.3939L9.56542 19.3941C8.44803 62.5126 37.1685 76.748 44.7129 79.7378C45.2689 79.9578 45.8742 80.0603 46.4819 80.0375C47.0895 80.0147 47.6831 79.8671 48.2165 79.6062C52.002 77.7609 61.3992 72.4937 69.5393 62.3876C67.2751 63.8229 65.3813 64.8226 64.1153 65.4396C63.582 65.7005 62.9884 65.8482 62.3807 65.871C61.7731 65.8939 61.1677 65.7913 60.6117 65.5714C61.7392 66.0181 53.0676 62.5814 60.6117 65.5714Z" fill="#E6E7E8"/>
<path d="M43.4206 82.3266C16.4602 71.0734 5.73736 44.38 6.38657 19.3284C6.41996 18.0337 7.43441 16.9242 8.85048 16.633C16.4542 15.068 22.4114 10.1877 22.353 2.84523C22.3456 1.29625 23.7943 0 25.5329 0H67.4796C69.2178 0 70.6663 1.29572 70.6593 2.84452C70.491 9.75232 76.4406 15.4994 83.9613 16.5979C85.4771 16.8192 86.5985 17.9745 86.6261 19.3427C87.1265 44.0719 74.9276 69.8144 49.7427 82.0918C48.6825 82.6086 46.7472 83.7149 43.4206 82.3266ZM46.0052 77.1489C46.1141 77.1918 46.2327 77.2115 46.3517 77.2066C46.4707 77.2017 46.5867 77.1722 46.6907 77.1205C54.6029 73.2633 80.0102 58.0152 80.282 21.6575C72.0609 19.5438 65.6363 13.2899 64.4851 5.6667H28.5273C27.3752 13.2956 20.9425 19.5524 12.7136 21.6619C12.669 43.4023 22.1417 67.6913 46.0052 77.1489C46.2249 77.2359 42.6464 75.8178 46.0052 77.1489Z" fill="#3E4D6C"/>
<path d="M46.4988 56.5494C57.365 56.5494 66.1737 48.6656 66.1737 38.9405C66.1737 29.2153 57.365 21.3315 46.4988 21.3315C35.6327 21.3315 26.824 29.2153 26.824 38.9405C26.824 48.6656 35.6327 56.5494 46.4988 56.5494Z" fill="#62BA87"/>
<path d="M40.8633 45.9423L35.1279 39.9787L39.957 36.2914L43.4322 39.905L53.3176 30.895L57.865 34.8563L45.5515 46.0792C44.9523 46.6255 43.021 47.6644 40.8633 45.9423Z" fill="white"/>
</g>
<defs>
<clipPath id="clip0_239_3994">
<rect width="93" height="83" fill="white"/>
</clipPath>
</defs>
</svg>
