<svg width="23" height="23" viewBox="0 0 23 23" fill="none" xmlns="http://www.w3.org/2000/svg">
<path fill-rule="evenodd" clip-rule="evenodd" d="M2.80919 7.49688C2.33325 8.40589 2.33325 9.50243 2.33325 11.6955V13.1532C2.33325 16.8915 2.33325 18.7607 3.40719 19.9221C4.48114 21.0834 6.20962 21.0834 9.66658 21.0834H13.3333C16.7902 21.0834 18.5187 21.0834 19.5926 19.9221C20.6666 18.7607 20.6666 16.8915 20.6666 13.1532V11.6955C20.6666 9.50243 20.6666 8.40589 20.1907 7.49688C19.7147 6.58786 18.8452 6.0237 17.1062 4.89537L15.2729 3.70583C13.4346 2.51311 12.5155 1.91675 11.4999 1.91675C10.4843 1.91675 9.56519 2.51311 7.72695 3.70583L5.89362 4.89537C4.15462 6.0237 3.28512 6.58786 2.80919 7.49688ZM8.74992 16.5313C8.37022 16.5313 8.06242 16.8531 8.06242 17.2501C8.06242 17.647 8.37022 17.9688 8.74992 17.9688H14.2499C14.6296 17.9688 14.9374 17.647 14.9374 17.2501C14.9374 16.8531 14.6296 16.5313 14.2499 16.5313H8.74992Z" fill="#979797"/>
</svg>
