<svg width="21" height="20" viewBox="0 0 21 20" fill="none" xmlns="http://www.w3.org/2000/svg">
<path fill-rule="evenodd" clip-rule="evenodd" d="M18.8597 11.7597C18.2318 11.398 17.8418 10.7241 17.8418 10.0003C17.8418 9.2768 18.2317 8.60293 18.8578 8.24156C19.5004 7.87215 19.7677 7.10457 19.4931 6.4166C19.1489 5.54758 18.6802 4.7359 18.1036 4.00379C17.6441 3.4209 16.8459 3.26824 16.2034 3.64004C15.5774 4.00379 14.7975 4.00488 14.1696 3.64277C13.5435 3.28066 13.1554 2.6057 13.1572 1.88058C13.1572 1.13879 12.6263 0.523163 11.8923 0.416991C10.9683 0.28327 10.0298 0.284191 9.10602 0.419725C8.37376 0.526639 7.8429 1.14191 7.84469 1.88223C7.84469 2.60644 7.45657 3.28101 6.83051 3.64277C6.20258 4.00449 5.42458 4.00375 4.79669 3.64039C4.15415 3.26859 3.35598 3.42199 2.89649 4.00488C2.60875 4.37068 2.34752 4.75659 2.11481 5.15965C1.88231 5.56223 1.67911 5.98418 1.50704 6.41309C1.23059 7.10215 1.4979 7.87082 2.14044 8.24117C2.76837 8.60254 3.15829 9.27676 3.15829 10.0002C3.15829 10.7237 2.76837 11.3974 2.14227 11.7593C1.49973 12.1287 1.23247 12.8959 1.50704 13.5837C1.85063 14.4512 2.31869 15.264 2.89649 15.9967C3.35598 16.5796 4.15415 16.7322 4.79669 16.3604C5.42278 15.9967 6.20262 15.9959 6.83051 16.3577C7.45657 16.7198 7.84469 17.3948 7.84469 18.1199C7.84286 18.8615 8.37555 19.4771 9.10782 19.5835C9.56554 19.6498 10.0274 19.6831 10.4899 19.6831C10.9586 19.6831 11.4272 19.649 11.894 19.5807C12.6263 19.4736 13.1572 18.8589 13.1572 18.1186C13.1553 17.394 13.5434 16.7194 14.1695 16.3577C14.7974 15.996 15.5754 15.9967 16.2033 16.3601C16.8459 16.7319 17.644 16.5788 18.1035 15.9956C18.3911 15.6298 18.6523 15.244 18.8852 14.8412C19.1159 14.4386 19.3227 14.0166 19.493 13.5874C19.7695 12.8983 19.5022 12.1295 18.8597 11.7597ZM12.9906 11.4386C12.608 12.1039 11.9874 12.58 11.2442 12.7788C10.5028 12.9776 9.72661 12.8757 9.06208 12.4912C7.68911 11.6982 7.2168 9.93582 8.00946 8.56191C8.54036 7.64035 9.51059 7.12449 10.5046 7.12449C10.9934 7.12449 11.4859 7.24824 11.938 7.5093C13.311 8.30215 13.7833 10.065 12.9906 11.4386Z" fill="#979797"/>
</svg>
