<svg width="25" height="24" viewBox="0 0 25 24" fill="none" xmlns="http://www.w3.org/2000/svg">
<path d="M13.1781 19.957C13.4531 20.021 13.4781 20.381 13.2101 20.47L11.6301 20.99C7.6601 22.27 5.5701 21.2 4.2801 17.23L3.0001 13.28C1.7201 9.31005 2.7801 7.21005 6.7501 5.93005L7.2741 5.75605C7.6771 5.62305 8.0691 6.02705 7.9541 6.43605C7.8981 6.63805 7.8441 6.85005 7.7901 7.07005L6.8101 11.26C5.7101 15.97 7.3201 18.57 12.0301 19.69L13.1781 19.957Z" fill="#979797"/>
<path d="M17.6702 3.21001L16.0002 2.82001C12.6602 2.03001 10.6702 2.68001 9.50018 5.10001C9.20018 5.71001 8.96018 6.45001 8.76018 7.30001L7.78018 11.49C6.80018 15.67 8.09018 17.73 12.2602 18.72L13.9402 19.12C14.5202 19.26 15.0602 19.35 15.5602 19.39C18.6802 19.69 20.3402 18.23 21.1802 14.62L22.1602 10.44C23.1402 6.26001 21.8602 4.19001 17.6702 3.21001ZM15.7902 13.33C15.7002 13.67 15.4002 13.89 15.0602 13.89C15.0002 13.89 14.9402 13.88 14.8702 13.87L11.9602 13.13C11.7797 13.0705 11.6286 12.9447 11.5373 12.7781C11.446 12.6115 11.4214 12.4164 11.4683 12.2323C11.5153 12.0482 11.6304 11.8888 11.7904 11.7863C11.9504 11.6838 12.1433 11.6458 12.3302 11.68L15.2402 12.42C15.6502 12.52 15.8902 12.93 15.7902 13.33ZM18.7202 9.95001C18.6302 10.29 18.3302 10.51 17.9902 10.51C17.9302 10.51 17.8702 10.5 17.8002 10.49L12.9502 9.26001C12.7697 9.20051 12.6186 9.07473 12.5273 8.9081C12.436 8.74147 12.4114 8.5464 12.4583 8.3623C12.5053 8.1782 12.6204 8.01879 12.7804 7.91627C12.9404 7.81376 13.1333 7.77578 13.3202 7.81001L18.1702 9.04001C18.5802 9.13001 18.8202 9.54001 18.7202 9.95001Z" fill="#979797"/>
</svg>
