<svg width="23" height="17" viewBox="0 0 23 17" fill="none" xmlns="http://www.w3.org/2000/svg">
<path d="M21.9519 15.5743L1.2468 0.116063C1.19001 0.0726398 1.12482 0.0403241 1.05495 0.0209613C0.985084 0.00159842 0.911907 -0.0044324 0.839599 0.00321315C0.76729 0.0108587 0.697267 0.0320309 0.633526 0.0655209C0.569786 0.0990108 0.513577 0.144163 0.468108 0.198399L0.121868 0.611398C0.0762929 0.665653 0.0423668 0.727957 0.0220316 0.794747C0.00169627 0.861536 -0.00464908 0.9315 0.00335857 1.00063C0.0113662 1.06977 0.0335697 1.13672 0.0686985 1.19765C0.103827 1.25858 0.151192 1.31229 0.208082 1.35572L20.9132 16.8139C20.97 16.8574 21.0352 16.8897 21.105 16.909C21.1749 16.9284 21.2481 16.9344 21.3204 16.9268C21.3927 16.9191 21.4627 16.898 21.5265 16.8645C21.5902 16.831 21.6464 16.7858 21.6919 16.7316L22.0381 16.3186C22.0837 16.2643 22.1176 16.202 22.138 16.1353C22.1583 16.0685 22.1646 15.9985 22.1566 15.9294C22.1486 15.8602 22.1264 15.7933 22.0913 15.7324C22.0562 15.6714 22.0088 15.6177 21.9519 15.5743ZM10.2764 4.84324L14.9433 8.32778C14.8665 6.34577 13.1741 4.76156 11.08 4.76156C10.8099 4.76205 10.5406 4.78942 10.2764 4.84324ZM11.8836 12.0871L7.21666 8.60256C7.29387 10.5842 8.98629 12.1684 11.08 12.1684C11.3501 12.1679 11.6194 12.1406 11.8836 12.0871ZM11.08 3.70344C14.4957 3.70344 17.627 5.52209 19.3181 8.465C18.9036 9.18928 18.3914 9.85852 17.7946 10.4556L19.1013 11.4311C19.8288 10.6878 20.4452 9.852 20.9329 8.94744C21.0121 8.79781 21.0534 8.6325 21.0534 8.46483C21.0534 8.29717 21.0121 8.13186 20.9329 7.98223C19.0535 4.48347 15.3363 2.11625 11.08 2.11625C9.8093 2.11625 8.59712 2.34772 7.4573 2.73823L9.06419 3.93821C9.71997 3.79602 10.3917 3.70344 11.08 3.70344ZM11.08 13.2266C7.66435 13.2266 4.53331 11.4079 2.84193 8.465C3.25699 7.74073 3.76976 7.0716 4.36711 6.47473L3.0604 5.49927C2.333 6.24243 1.71674 7.07812 1.22914 7.98256C1.14994 8.13219 1.10867 8.2975 1.10867 8.46517C1.10867 8.63283 1.14994 8.79814 1.22914 8.94777C3.1068 12.4465 6.82403 14.8138 11.08 14.8138C12.3507 14.8138 13.5629 14.5806 14.7027 14.1918L13.0958 12.9921C12.44 13.134 11.7687 13.2266 11.08 13.2266Z" fill="#9D9D9D"/>
</svg>
