<svg width="25" height="24" viewBox="0 0 25 24" fill="none" xmlns="http://www.w3.org/2000/svg">
<path d="M21.1925 9.14249L12.9425 3.14249C12.8141 3.04863 12.6591 2.99805 12.5 2.99805C12.3409 2.99805 12.186 3.04863 12.0575 3.14249L3.8075 9.14249C3.71195 9.21231 3.63428 9.30375 3.58084 9.40934C3.5274 9.51492 3.4997 9.63166 3.5 9.75V20.25C3.5 20.4489 3.57902 20.6397 3.71967 20.7803C3.86032 20.921 4.05109 21 4.25 21H20.75C20.9489 21 21.1397 20.921 21.2803 20.7803C21.421 20.6397 21.5 20.4489 21.5 20.25V9.75C21.5003 9.63166 21.4726 9.51492 21.4192 9.40934C21.3657 9.30375 21.2881 9.21231 21.1925 9.14249ZM13.25 16.5H11.75V15H13.25V16.5ZM11.75 18V19.5H10.25V18H11.75ZM13.25 19.5V18H14.75V19.5H13.25ZM16.25 19.5V17.25C16.25 17.0511 16.171 16.8603 16.0303 16.7197C15.8897 16.579 15.6989 16.5 15.5 16.5H14.75V14.25C14.75 14.0511 14.671 13.8603 14.5303 13.7197C14.3897 13.579 14.1989 13.5 14 13.5H11C10.8011 13.5 10.6103 13.579 10.4697 13.7197C10.329 13.8603 10.25 14.0511 10.25 14.25V16.5H9.5C9.30109 16.5 9.11032 16.579 8.96967 16.7197C8.82902 16.8603 8.75 17.0511 8.75 17.25V19.5H8V12H17V19.5H16.25ZM20 19.5H18.5V11.25C18.5 11.0511 18.421 10.8603 18.2803 10.7197C18.1397 10.579 17.9489 10.5 17.75 10.5H7.25C7.05109 10.5 6.86032 10.579 6.71967 10.7197C6.57902 10.8603 6.5 11.0511 6.5 11.25V19.5H5V10.1325L12.5 4.67999L20 10.1325V19.5Z" fill="#979797"/>
<path d="M10.25 8.25C10.25 8.44891 10.329 8.63968 10.4697 8.78033C10.6103 8.92098 10.8011 9 11 9H14C14.1989 9 14.3897 8.92098 14.5303 8.78033C14.671 8.63968 14.75 8.44891 14.75 8.25C14.75 8.05109 14.671 7.86032 14.5303 7.71967C14.3897 7.57902 14.1989 7.5 14 7.5H11C10.8011 7.5 10.6103 7.57902 10.4697 7.71967C10.329 7.86032 10.25 8.05109 10.25 8.25Z" fill="#979797"/>
</svg>
