<svg width="41" height="29" viewBox="0 0 41 29" fill="none" xmlns="http://www.w3.org/2000/svg">
<path d="M30.5219 7.3162C29.9421 5.2273 28.6046 3.37286 26.7219 2.04735C24.8392 0.721844 22.5192 0.00125192 20.1302 1.62976e-06C17.7412 -0.00124866 15.4202 0.716915 13.5358 2.04045C11.6513 3.36399 10.3115 5.21703 9.72904 7.30532C6.98147 7.53774 4.43883 8.71521 2.62928 10.5932C0.819719 12.4711 -0.117666 14.9052 0.0118329 17.3898C0.141332 19.8744 1.32776 22.2185 3.32468 23.9353C5.32159 25.6521 7.9755 26.6095 10.7351 26.6088H14.7596C15.1153 26.6088 15.4566 26.4814 15.7081 26.2546C15.9597 26.0279 16.101 25.7203 16.101 25.3997C16.101 25.079 15.9597 24.7714 15.7081 24.5447C15.4566 24.3179 15.1153 24.1905 14.7596 24.1905H10.7351C9.67815 24.1933 8.63091 24.0084 7.6532 23.6464C6.67549 23.2844 5.78646 22.7524 5.03687 22.0807C3.52302 20.7241 2.66905 18.8811 2.66282 16.957C2.6566 15.033 3.49863 13.1855 5.00368 11.821C6.50872 10.4565 8.5535 9.68684 10.6882 9.68122C11.0324 9.70458 11.374 9.61186 11.6466 9.42107C11.9193 9.23027 12.1036 8.955 12.1638 8.64864C12.437 6.92211 13.392 5.34236 14.8536 4.19952C16.3152 3.05669 18.1852 2.42749 20.1201 2.42749C22.055 2.42749 23.925 3.05669 25.3866 4.19952C26.8481 5.34236 27.8032 6.92211 28.0764 8.64864C28.1465 8.94436 28.3284 9.20896 28.5909 9.39727C28.8534 9.58559 29.1803 9.68595 29.5158 9.68122C31.6505 9.68122 33.6977 10.4456 35.2072 11.8061C36.7166 13.1666 37.5646 15.0118 37.5646 16.9359C37.5646 18.8599 36.7166 20.7052 35.2072 22.0657C33.6977 23.4262 31.6505 24.1905 29.5158 24.1905H25.4913C25.1356 24.1905 24.7944 24.3179 24.5428 24.5447C24.2912 24.7714 24.1499 25.079 24.1499 25.3997C24.1499 25.7203 24.2912 26.0279 24.5428 26.2546C24.7944 26.4814 25.1356 26.6088 25.4913 26.6088H29.5158C32.2552 26.5829 34.88 25.6138 36.8522 23.8999C38.8244 22.186 39.9948 19.8571 40.1234 17.3906C40.252 14.924 39.3292 12.5065 37.5441 10.6334C35.7589 8.76035 33.2466 7.57354 30.5219 7.3162Z" fill="#CCCCCC"/>
<path d="M24.0302 18.1857C24.2226 18.377 24.4804 18.4829 24.7479 18.4805C25.0154 18.4782 25.2713 18.3677 25.4605 18.1729C25.6496 17.9781 25.757 17.7145 25.7593 17.4391C25.7616 17.1636 25.6588 16.8982 25.4729 16.7L20.3715 11.4468C20.1801 11.2498 19.9206 11.1392 19.6501 11.1392C19.3796 11.1392 19.1201 11.2498 18.9288 11.4468L13.8273 16.7C13.6414 16.8982 13.5386 17.1636 13.5409 17.4391C13.5433 17.7145 13.6506 17.9781 13.8397 18.1729C14.0289 18.3677 14.2848 18.4782 14.5523 18.4805C14.8198 18.4829 15.0776 18.377 15.27 18.1857L18.6298 14.7259V27.9494C18.6298 28.228 18.7373 28.4953 18.9286 28.6923C19.12 28.8893 19.3795 29 19.6501 29C19.9207 29 20.1802 28.8893 20.3716 28.6923C20.5629 28.4953 20.6704 28.228 20.6704 27.9494V14.7259L24.0302 18.1857Z" fill="#CCCCCC"/>
</svg>
