<svg width="13" height="14" viewBox="0 0 13 14" fill="none" xmlns="http://www.w3.org/2000/svg">
<path d="M3.92716 4.08333C3.92716 2.55558 5.08146 1.3125 6.50008 1.3125C7.91871 1.3125 9.073 2.55558 9.073 4.08333C9.073 5.61108 7.91871 6.85417 6.50008 6.85417C5.08146 6.85417 3.92716 5.61108 3.92716 4.08333ZM8.12508 7.72917H4.87508C3.158 7.72917 1.7605 9.23417 1.7605 11.0833C1.76078 11.5087 1.91781 11.9165 2.1971 12.2173C2.47639 12.5181 2.85511 12.6872 3.25008 12.6875H9.75008C10.1451 12.6872 10.5238 12.5181 10.8031 12.2173C11.0823 11.9165 11.2394 11.5087 11.2397 11.0833C11.2397 9.23417 9.84216 7.72917 8.12508 7.72917Z" fill="#656565"/>
</svg>
