<svg width="15" height="15" viewBox="0 0 15 15" fill="none" xmlns="http://www.w3.org/2000/svg">
<path fill-rule="evenodd" clip-rule="evenodd" d="M13.5938 11.7187H10.6244C10.1685 11.7187 9.73136 11.5376 9.40904 11.2153C9.08671 10.893 8.90562 10.4558 8.90562 9.99998V8.74998C8.90562 8.29414 9.08671 7.85696 9.40904 7.53464C9.73136 7.21231 10.1685 7.03123 10.6244 7.03123H13.5938V6.24998C13.5938 5.79435 13.4125 5.35685 13.0906 5.03435C12.768 4.71235 12.3308 4.53142 11.875 4.53123H3.125C2.66938 4.53123 2.23188 4.71248 1.90938 5.03435C1.58737 5.35699 1.40644 5.79415 1.40625 6.24998V12.5C1.40625 12.9556 1.5875 13.3931 1.90938 13.7156C2.23201 14.0376 2.66917 14.2185 3.125 14.2187H11.875C12.3306 14.2187 12.7681 14.0375 13.0906 13.7156C13.4126 13.393 13.5936 12.9558 13.5938 12.5V11.7187ZM13.5938 7.96873V10.7812H10.6244C10.1931 10.7812 9.84312 10.4312 9.84312 9.99998V8.74998C9.84312 8.31873 10.1931 7.96873 10.6244 7.96873H13.5938ZM10.9375 8.74998C11.1033 8.74998 11.2622 8.81582 11.3794 8.93303C11.4967 9.05024 11.5625 9.20922 11.5625 9.37498C11.5625 9.54074 11.4967 9.69971 11.3794 9.81692C11.2622 9.93413 11.1033 9.99998 10.9375 9.99998C10.7717 9.99998 10.6128 9.93413 10.4956 9.81692C10.3783 9.69971 10.3125 9.54074 10.3125 9.37498C10.3125 9.20922 10.3783 9.05024 10.4956 8.93303C10.6128 8.81582 10.7717 8.74998 10.9375 8.74998ZM10.055 3.90623H11.875C11.9944 3.90623 12.1131 3.9156 12.23 3.9331L12.5262 3.29685C12.5787 3.18428 12.5843 3.05551 12.5419 2.9388C12.4995 2.82209 12.4125 2.72698 12.3 2.67435L8.33437 0.824976C8.22173 0.772583 8.0929 0.767048 7.97617 0.809588C7.85945 0.852129 7.76439 0.939264 7.71187 1.05185L7.37625 1.77123L9.43875 2.73248C9.6558 2.83367 9.83364 3.00331 9.94497 3.21535C10.0563 3.42738 10.0949 3.6701 10.055 3.90623ZM3.54688 3.90623H9.40875C9.45586 3.79448 9.45782 3.66883 9.41424 3.55566C9.37065 3.44249 9.2849 3.35062 9.175 3.29935L5.20937 1.44998C5.09673 1.39758 4.9679 1.39205 4.85117 1.43459C4.73445 1.47713 4.63939 1.56426 4.58688 1.67685L3.54688 3.90623Z" fill="#4F4F4F"/>
</svg>
