<svg width="24" height="24" viewBox="0 0 24 24" fill="none" xmlns="http://www.w3.org/2000/svg">
<g clip-path="url(#clip0_239_2980)">
<path d="M12 24C18.6274 24 24 18.6274 24 12C24 5.37258 18.6274 0 12 0C5.37258 0 0 5.37258 0 12C0 18.6274 5.37258 24 12 24Z" fill="#29A71A"/>
<path d="M17.2908 6.70914C16.0423 5.44818 14.3843 4.67488 12.6158 4.52872C10.8474 4.38255 9.08493 4.87315 7.64635 5.91202C6.20777 6.95088 5.18778 8.46963 4.77035 10.1943C4.35293 11.919 4.56556 13.7361 5.36988 15.3178L4.58034 19.151C4.57215 19.1891 4.57191 19.2285 4.57966 19.2668C4.5874 19.305 4.60295 19.3413 4.62534 19.3732C4.65813 19.4217 4.70495 19.4591 4.75953 19.4803C4.81411 19.5015 4.87385 19.5055 4.93079 19.4919L8.68761 18.6014C10.2649 19.3854 12.0691 19.5843 13.7793 19.1629C15.4895 18.7414 16.9947 17.7269 18.0271 16.2998C19.0595 14.8727 19.5521 13.1257 19.4173 11.3695C19.2824 9.6133 18.5289 7.96191 17.2908 6.70914ZM16.1194 16.0582C15.2556 16.9196 14.1432 17.4883 12.9391 17.684C11.735 17.8797 10.4998 17.6926 9.40761 17.1491L8.88397 16.89L6.58079 17.4355L6.58761 17.4069L7.06488 15.0887L6.80852 14.5828C6.25047 13.4868 6.0536 12.2423 6.24614 11.0276C6.43867 9.81284 7.01072 8.69021 7.88034 7.8205C8.97303 6.72815 10.4548 6.11451 11.9999 6.11451C13.5449 6.11451 15.0267 6.72815 16.1194 7.8205C16.1287 7.83118 16.1388 7.8412 16.1494 7.8505C17.2286 8.94567 17.831 10.423 17.8254 11.9605C17.8198 13.498 17.2065 14.971 16.1194 16.0582Z" fill="white"/>
<path d="M15.9149 14.3577C15.6326 14.8022 15.1867 15.3463 14.6263 15.4813C13.6445 15.7186 12.1376 15.4895 10.2626 13.7413L10.2395 13.7209C8.59082 12.1923 8.16264 10.92 8.26627 9.91089C8.32355 9.33816 8.80082 8.81998 9.20309 8.48179C9.26669 8.42752 9.34211 8.38887 9.42331 8.36895C9.50452 8.34903 9.58926 8.34838 9.67075 8.36707C9.75225 8.38575 9.82825 8.42325 9.89266 8.47656C9.95708 8.52986 10.0081 8.5975 10.0417 8.67407L10.6485 10.0377C10.688 10.1261 10.7026 10.2236 10.6908 10.3197C10.679 10.4158 10.6413 10.5069 10.5817 10.5832L10.2749 10.9813C10.2091 11.0636 10.1693 11.1636 10.1608 11.2686C10.1523 11.3736 10.1754 11.4787 10.2272 11.5704C10.399 11.8718 10.8108 12.315 11.2676 12.7254C11.7804 13.1891 12.349 13.6132 12.709 13.7577C12.8053 13.7971 12.9112 13.8067 13.0131 13.7853C13.1149 13.7639 13.208 13.7125 13.2804 13.6377L13.6363 13.2791C13.7049 13.2113 13.7903 13.1631 13.8838 13.1391C13.9772 13.1151 14.0753 13.1164 14.1681 13.1427L15.6095 13.5518C15.689 13.5762 15.7618 13.6184 15.8225 13.6753C15.8832 13.7322 15.9301 13.8022 15.9595 13.8799C15.989 13.9577 16.0003 14.0412 15.9926 14.124C15.9848 14.2068 15.9583 14.2867 15.9149 14.3577Z" fill="white"/>
</g>
<defs>
<clipPath id="clip0_239_2980">
<rect width="24" height="24" fill="white"/>
</clipPath>
</defs>
</svg>
